<?xml version="1.0" encoding="utf-8"?>
<!-- Generator: Adobe Illustrator 15.0.0, SVG Export Plug-In . SVG Version: 6.00 Build 0)  -->
<!DOCTYPE svg PUBLIC "-//W3C//DTD SVG 1.1//EN" "http://www.w3.org/Graphics/SVG/1.1/DTD/svg11.dtd">
<svg version="1.1" id="Layer_1" xmlns="http://www.w3.org/2000/svg" xmlns:xlink="http://www.w3.org/1999/xlink" x="0px" y="0px"
	 width="595.28px" height="595.28px" viewBox="0 0 595.28 595.28" enable-background="new 0 0 595.28 595.28" xml:space="preserve">
<rect x="0.002" y="0.002" fill-rule="evenodd" clip-rule="evenodd" fill="#F9F9FA" width="595.276" height="595.276"/>
<g>
	<path fill="#1F1A17" d="M136.492,319.359v-50.302c0-0.183-0.065-0.343-0.155-0.487c-0.02-0.031-0.036-0.059-0.059-0.087
		c-0.105-0.134-0.237-0.241-0.399-0.302c-0.006-0.002-0.009-0.01-0.016-0.012c-0.017-0.006-0.034,0.003-0.051-0.002
		c-0.085-0.025-0.169-0.053-0.263-0.053H50.073c-0.092,0-0.176,0.028-0.261,0.053c-0.018,0.005-0.036-0.005-0.054,0.002
		c-0.007,0.002-0.01,0.01-0.017,0.012c-0.161,0.061-0.292,0.168-0.396,0.301c-0.023,0.029-0.04,0.056-0.059,0.088
		c-0.09,0.144-0.155,0.305-0.155,0.487v50.489c0,0.141,0.035,0.271,0.09,0.391c0.002,0.005,0,0.01,0.002,0.015
		c0.007,0.016,0.024,0.021,0.032,0.036c0.009,0.017,0.021,0.03,0.031,0.046c0.019,0.032,0.036,0.059,0.059,0.088
		c0.052,0.066,0.112,0.122,0.181,0.172c0.033,0.024,0.062,0.046,0.097,0.065c0.04,0.022,0.076,0.048,0.119,0.063
		c0.007,0.003,0.01,0.011,0.017,0.013c0.104,0.036,0.21,0.055,0.315,0.055h28.346v5.732c0,0.521,0.422,0.943,0.943,0.943h13.45
		h13.449c0.521,0,0.943-0.422,0.943-0.943v-5.732h28.346c0.017,0,0.034,0,0.047,0c0.521,0,0.943-0.422,0.943-0.943
		C136.539,319.479,136.505,319.424,136.492,319.359z M106.26,318.604H92.812h-13.45h-27.31l13.842-17.067l5.104-6.292h43.626
		l5.104,6.292l13.842,17.067H106.26z M114.625,293.359H70.997L52.052,270h81.519L114.625,293.359z M69.334,294.301l-18.319,22.586
		v-45.171L69.334,294.301z M116.287,294.301l18.319-22.585v45.171L116.287,294.301z M80.304,320.49h11.564v4.79H80.304V320.49z
		 M105.317,325.28H93.754v-4.79h11.563V325.28z"/>
	<path fill="#1F1A17" d="M82.086,298.925c-0.055-0.063-0.136-0.081-0.203-0.125c-0.064-0.045-0.107-0.114-0.183-0.142
		c-0.017-0.006-0.034,0.002-0.05-0.003c-0.086-0.027-0.172-0.013-0.263-0.015c-0.104-0.002-0.202-0.016-0.3,0.016
		c-0.015,0.004-0.029-0.003-0.044,0.002c-0.072,0.026-0.111,0.092-0.173,0.134c-0.071,0.047-0.156,0.067-0.213,0.134l-5.668,6.583
		c-0.147,0.171-0.229,0.39-0.229,0.615v6.152c0,0.479,0.361,0.883,0.837,0.937l5.668,0.64c0.035,0.004,0.07,0.007,0.105,0.007
		s0.07-0.003,0.105-0.007l5.668-0.64c0.477-0.054,0.838-0.457,0.838-0.937v-6.152c0-0.226-0.082-0.444-0.229-0.615L82.086,298.925z
		 M76.647,306.473l3.782-4.393v9.781l-3.782-0.428V306.473z M86.097,311.434l-3.782,0.428v-9.781l3.782,4.393V311.434z"/>
	<path fill="#1F1A17" d="M104.964,298.925c-0.055-0.063-0.137-0.081-0.204-0.127c-0.064-0.044-0.106-0.113-0.182-0.141
		c-0.016-0.006-0.033,0.002-0.049-0.002c-0.086-0.027-0.173-0.014-0.264-0.015c-0.104-0.002-0.202-0.016-0.3,0.016
		c-0.015,0.004-0.03-0.003-0.045,0.002c-0.072,0.027-0.112,0.093-0.173,0.135c-0.07,0.047-0.155,0.066-0.212,0.133l-5.667,6.583
		c-0.147,0.171-0.229,0.39-0.229,0.615v6.152c0,0.479,0.361,0.883,0.837,0.937l5.668,0.64c0.035,0.004,0.07,0.007,0.105,0.007
		c0.035,0,0.07-0.003,0.105-0.007l5.667-0.64c0.477-0.054,0.838-0.457,0.838-0.937v-6.152c0-0.226-0.082-0.444-0.229-0.615
		L104.964,298.925z M99.525,306.473l3.782-4.393v9.781l-3.782-0.428V306.473z M108.975,311.434l-3.782,0.428v-9.781l3.782,4.393
		V311.434z"/>
</g>
<path fill="#1F1A17" d="M259.327,282.183h-4.76v-13.417c0-0.182-0.065-0.343-0.155-0.487c-0.02-0.032-0.036-0.059-0.059-0.088
	c-0.105-0.133-0.236-0.24-0.397-0.301c-0.006-0.002-0.009-0.01-0.016-0.012c-0.018-0.006-0.036,0.003-0.053-0.001
	c-0.085-0.025-0.169-0.053-0.263-0.053h-85.476c-0.093,0-0.177,0.028-0.261,0.053c-0.019,0.005-0.037-0.004-0.055,0.002
	c-0.007,0.002-0.01,0.01-0.016,0.012c-0.161,0.061-0.292,0.168-0.397,0.301c-0.023,0.029-0.04,0.056-0.059,0.088
	c-0.09,0.144-0.155,0.305-0.155,0.487v50.489c0,0.141,0.035,0.271,0.09,0.391c0.002,0.005,0,0.011,0.002,0.015
	c0.007,0.016,0.024,0.021,0.032,0.036c0.009,0.017,0.021,0.03,0.031,0.046c0.02,0.032,0.036,0.059,0.059,0.088
	c0.053,0.066,0.112,0.122,0.181,0.172c0.033,0.024,0.061,0.046,0.097,0.066c0.04,0.021,0.076,0.047,0.119,0.063
	c0.006,0.003,0.009,0.011,0.016,0.013c0.104,0.036,0.21,0.055,0.316,0.055h4.557v3.23c0,0.521,0.422,0.942,0.943,0.942h13.662
	c0.521,0,0.943-0.422,0.943-0.942v-3.23h3.079v6.314c0,0.521,0.422,0.943,0.943,0.943h18.61h18.61c0.521,0,0.943-0.423,0.943-0.943
	v-6.314h3.082v3.23c0,0.521,0.422,0.942,0.943,0.942h13.662c0.521,0,0.943-0.422,0.943-0.942v-3.23h4.556
	c0.105,0,0.212-0.019,0.316-0.055c0.007-0.002,0.01-0.01,0.016-0.013c0.043-0.016,0.079-0.041,0.119-0.063
	c0.036-0.021,0.064-0.042,0.097-0.066c0.069-0.05,0.128-0.105,0.181-0.172c0.023-0.029,0.04-0.056,0.059-0.088
	c0.01-0.016,0.022-0.029,0.031-0.046c0.008-0.015,0.024-0.021,0.031-0.036c0.002-0.004,0-0.01,0.002-0.015
	c0.055-0.119,0.09-0.25,0.09-0.391v-13.415h4.76c0.521,0,0.943-0.422,0.943-0.942v-10.885v-10.888
	C260.27,282.605,259.847,282.183,259.327,282.183z M258.384,293.071h-13.107l6.814-9.002h1.533h4.76V293.071z M232.699,293.068
	h-43.627l-18.946-23.358h81.519L232.699,293.068z M187.409,294.01l-18.318,22.586v-45.171L187.409,294.01z M186.367,322.486h-11.776
	v-2.287h11.776V322.486z M193.218,319.256v-5.446l16.725-12.663v24.425h-16.725V319.256z M228.552,325.571h-16.724v-24.425
	l16.724,12.663v5.446V325.571z M230.064,312.588l-18.61-14.09c-0.025-0.019-0.058-0.017-0.084-0.033
	c-0.026-0.016-0.038-0.046-0.065-0.06c-0.053-0.027-0.113-0.016-0.168-0.032c-0.073-0.021-0.138-0.051-0.214-0.054
	c-0.026-0.001-0.048-0.001-0.075,0c-0.076,0.003-0.141,0.033-0.214,0.054c-0.056,0.016-0.115,0.005-0.167,0.032
	c-0.027,0.014-0.04,0.043-0.065,0.059c-0.026,0.017-0.06,0.014-0.084,0.033l-18.61,14.09c-0.235,0.18-0.374,0.458-0.374,0.753v4.973
	h-4.022h-13.662h-3.521l13.842-17.067l5.104-6.292h43.627l5.104,6.292l13.842,17.067h-3.521h-13.662h-4.025v-4.973
	C230.438,313.046,230.299,312.768,230.064,312.588z M247.182,322.486h-11.776v-2.287h11.776V322.486z M252.681,316.597
	l-18.318-22.586l18.318-22.585v10.758h-1.059c-0.295,0-0.573,0.139-0.752,0.374l-8.242,10.887c-0.019,0.025-0.017,0.058-0.033,0.084
	c-0.016,0.026-0.046,0.038-0.06,0.065c-0.027,0.054-0.016,0.114-0.032,0.17c-0.021,0.071-0.05,0.135-0.054,0.209
	c-0.001,0.028-0.001,0.051,0,0.08c0.003,0.074,0.033,0.138,0.054,0.209c0.016,0.057,0.005,0.117,0.032,0.17
	c0.014,0.027,0.043,0.04,0.06,0.065c0.016,0.026,0.014,0.059,0.033,0.083l8.242,10.885c0.179,0.235,0.457,0.374,0.752,0.374h1.059
	V316.597z M258.384,303.955h-4.76h-1.533l-6.814-8.999h13.107V303.955z"/>
<path fill="#1F1A17" d="M408.884,301.134l-1.455-20.625c-0.035-0.494-0.445-0.877-0.94-0.877h-20.45v-9.243
	c0-0.182-0.065-0.343-0.154-0.487c-0.02-0.032-0.036-0.059-0.06-0.088c-0.105-0.133-0.235-0.24-0.396-0.301
	c-0.007-0.002-0.01-0.01-0.017-0.012c-0.018-0.006-0.036,0.003-0.054-0.002c-0.085-0.025-0.169-0.053-0.262-0.053h-54.849v-14.446
	c0-0.521-0.422-0.943-0.942-0.943h-16.756h-16.755c-0.521,0-0.943,0.422-0.943,0.943v14.446h-13.836
	c-0.093,0-0.176,0.028-0.261,0.053c-0.019,0.005-0.037-0.005-0.055,0.002c-0.007,0.002-0.01,0.01-0.017,0.012
	c-0.161,0.061-0.292,0.168-0.396,0.301c-0.023,0.029-0.04,0.056-0.06,0.088c-0.09,0.144-0.155,0.305-0.155,0.487v50.491
	c0,0.141,0.035,0.271,0.09,0.391c0.002,0.005,0,0.01,0.002,0.015c0.007,0.015,0.024,0.021,0.032,0.036
	c0.009,0.017,0.021,0.03,0.031,0.046c0.02,0.031,0.036,0.059,0.06,0.088c0.052,0.066,0.112,0.122,0.181,0.172
	c0.033,0.024,0.062,0.046,0.097,0.065c0.04,0.022,0.076,0.048,0.119,0.063c0.007,0.003,0.01,0.01,0.017,0.013
	c0.104,0.036,0.21,0.055,0.315,0.055h26.792v18.459c0,0.521,0.423,0.943,0.943,0.943h24.305h24.307c0.521,0,0.943-0.422,0.943-0.943
	v-18.459h26.791c0.018,0.001,0.032,0.001,0.047,0c0.521,0,0.942-0.422,0.942-0.943c0-0.067-0.033-0.124-0.047-0.188v-9.056h19.651
	c0.437,0,0.816-0.3,0.917-0.725l2.254-9.493c0.009-0.039-0.004-0.079,0.001-0.119C408.867,301.243,408.888,301.19,408.884,301.134z
	 M405.61,281.518l1.321,18.739h-20.894v-18.739H405.61z M365.834,295.633l18.318-22.586v7.527V301.2v9.493v7.526L365.834,295.633z
	 M328.361,270.388v2.234l-14.869,11.259v-27.939h14.869V270.388z M296.736,255.942h14.869v27.939l-14.869-11.259v-2.234V255.942z
	 M295.225,273.843l16.755,12.687c0.022,0.017,0.054,0.011,0.077,0.026c0.028,0.018,0.042,0.051,0.072,0.066
	c0.133,0.066,0.277,0.099,0.42,0.099s0.287-0.032,0.42-0.099c0.03-0.015,0.044-0.048,0.072-0.066
	c0.023-0.015,0.055-0.009,0.076-0.026l16.756-12.687c0.235-0.179,0.374-0.457,0.374-0.752v-1.76h52.87l-18.946,23.36h-62.231
	l-18.946-23.36h11.857v1.76C294.851,273.386,294.989,273.664,295.225,273.843z M300.276,295.633l-18.319,22.586v-45.173
	L300.276,295.633z M282.993,319.937l13.842-17.067l5.104-6.292h28.309l-22.067,16.708c-0.234,0.179-0.374,0.457-0.374,0.752v5.9
	H282.993z M309.692,320.879v-6.374l22.42-16.975v41.809h-22.42V320.879z M356.419,339.339h-22.421V297.53l22.421,16.975v6.374
	V339.339z M357.931,313.284l-22.068-16.708h28.309l5.104,6.292l13.843,17.067h-24.813v-5.9
	C358.305,313.741,358.165,313.463,357.931,313.284z M404.944,309.75h-18.906v-7.607h20.713L404.944,309.75z"/>
<g>
	<path fill="#1F1A17" d="M546.15,253.361c0-0.093-0.027-0.177-0.053-0.262c-0.005-0.018,0.004-0.035-0.002-0.053
		c-0.002-0.006-0.01-0.009-0.012-0.016c-0.062-0.162-0.169-0.293-0.302-0.398c-0.029-0.023-0.056-0.04-0.087-0.059
		c-0.145-0.09-0.306-0.155-0.488-0.155h-50.49h-56.224c-0.093,0-0.177,0.028-0.262,0.052c-0.018,0.005-0.036-0.004-0.054,0.002
		c-0.007,0.002-0.01,0.009-0.017,0.012c-0.161,0.061-0.292,0.168-0.397,0.301c-0.022,0.029-0.039,0.056-0.059,0.088
		c-0.09,0.145-0.155,0.305-0.155,0.487v43.427c0,0.14,0.035,0.271,0.09,0.391c0.002,0.004,0,0.01,0.003,0.015
		c0.007,0.015,0.023,0.021,0.031,0.036c0.009,0.017,0.021,0.03,0.031,0.046c0.02,0.031,0.036,0.059,0.059,0.087
		c0.053,0.067,0.112,0.122,0.182,0.172c0.032,0.024,0.062,0.046,0.097,0.065c0.04,0.022,0.076,0.047,0.119,0.063
		c0.007,0.002,0.01,0.01,0.017,0.012c0.104,0.037,0.21,0.055,0.315,0.055h46.27v36.003c0,0.521,0.422,0.943,0.943,0.943h9.011
		h13.058v7.243c0,0.521,0.422,0.942,0.942,0.942h11.245h11.246c0.521,0,0.943-0.422,0.943-0.942v-7.243h13.056
		c0.183,0,0.343-0.065,0.487-0.155c0.032-0.02,0.059-0.036,0.088-0.059c0.134-0.105,0.24-0.236,0.302-0.397
		c0.002-0.007,0.01-0.01,0.012-0.017c0.007-0.018-0.003-0.035,0.002-0.054c0.025-0.085,0.053-0.169,0.053-0.262V253.361z
		 M440.472,295.845l11.585-14.286l4.496-5.542h20.104l4.495,5.542l11.586,14.286h-7.032H440.472z M493.773,294.128l-15.453-19.055
		l15.453-19.054V294.128z M476.657,274.131h-20.105l-16.08-19.827h52.267L476.657,274.131z M454.89,275.073l-15.454,19.055V256.02
		L454.89,275.073z M495.659,297.02c0.021-0.076,0.047-0.149,0.047-0.232c0-0.068-0.033-0.124-0.047-0.188v-41.261l16.803,13.627
		l6.558,5.317v38.526l-6.293,5.104l-17.067,13.842V297.02z M520.905,274.284l23.359-18.944v76.416l-23.359-18.945V274.284z
		 M519.963,272.621l-22.587-18.317h45.173L519.963,272.621z M486.648,297.73h7.125v35.061h-7.125V297.73z M509.66,333.733v-3.487
		l9.359-7.086v17.816h-9.359V333.733z M530.266,340.977h-9.36V323.16l9.36,7.086v3.487V340.977z M532.151,332.791v-3.014
		c0-0.295-0.14-0.572-0.374-0.752l-11.246-8.513c-0.025-0.02-0.058-0.017-0.084-0.033c-0.026-0.016-0.038-0.046-0.065-0.06
		c-0.055-0.027-0.115-0.017-0.173-0.032c-0.071-0.021-0.136-0.051-0.21-0.054c-0.026-0.001-0.05-0.001-0.076,0
		c-0.075,0.003-0.139,0.033-0.212,0.055c-0.056,0.016-0.115,0.005-0.168,0.031c-0.027,0.014-0.04,0.044-0.065,0.06
		c-0.026,0.017-0.06,0.014-0.084,0.033l-11.245,8.513c-0.235,0.18-0.374,0.457-0.374,0.752v3.014h-10.398l22.587-18.319
		l22.586,18.319H532.151z"/>
	<path fill="#1F1A17" d="M467.319,278.418c-0.054-0.062-0.135-0.079-0.2-0.124c-0.065-0.045-0.109-0.115-0.186-0.144
		c-0.018-0.007-0.034,0.002-0.052-0.003c-0.085-0.027-0.171-0.013-0.262-0.015c-0.103-0.002-0.201-0.016-0.299,0.015
		c-0.015,0.005-0.03-0.003-0.045,0.002c-0.073,0.027-0.113,0.094-0.176,0.136c-0.069,0.047-0.153,0.066-0.21,0.132L460.223,285
		c-0.146,0.171-0.229,0.39-0.229,0.616v6.152c0,0.521,0.422,0.943,0.942,0.943h5.668h5.668c0.521,0,0.943-0.422,0.943-0.943v-6.152
		c0-0.226-0.082-0.444-0.229-0.616L467.319,278.418z M461.88,285.965l3.782-4.392v9.252h-3.782V285.965z M471.33,290.825h-3.782
		v-9.252l3.782,4.392V290.825z"/>
	<path fill="#1F1A17" d="M539.912,275.553h-6.152c-0.226,0-0.443,0.082-0.615,0.229l-6.582,5.668
		c-0.063,0.054-0.08,0.136-0.125,0.202c-0.045,0.065-0.114,0.108-0.143,0.184c-0.006,0.017,0.002,0.034-0.003,0.05
		c-0.028,0.091-0.015,0.182-0.015,0.278s-0.014,0.187,0.015,0.278c0.005,0.017-0.003,0.034,0.003,0.05
		c0.028,0.076,0.098,0.119,0.143,0.184c0.045,0.066,0.063,0.148,0.125,0.202l6.582,5.667c0.172,0.147,0.39,0.229,0.615,0.229h6.152
		c0.521,0,0.943-0.422,0.943-0.943v-5.667v-5.668C540.855,275.975,540.434,275.553,539.912,275.553z M534.109,277.438h4.86v3.782
		h-9.253L534.109,277.438z M538.97,286.888h-4.86l-4.393-3.782h9.253V286.888z"/>
	<path fill="#1F1A17" d="M539.912,298.319h-6.152c-0.226,0-0.443,0.082-0.615,0.229l-6.582,5.667
		c-0.063,0.055-0.08,0.136-0.125,0.202c-0.045,0.064-0.114,0.108-0.143,0.184c-0.006,0.017,0.002,0.034-0.003,0.051
		c-0.028,0.091-0.015,0.182-0.015,0.278c0,0.096-0.014,0.188,0.015,0.278c0.005,0.017-0.003,0.034,0.003,0.05
		c0.028,0.076,0.098,0.12,0.143,0.185c0.045,0.066,0.063,0.147,0.125,0.201l6.582,5.67c0.172,0.146,0.39,0.229,0.615,0.229h6.152
		c0.521,0,0.943-0.423,0.943-0.943v-5.669v-5.668C540.855,298.741,540.434,298.319,539.912,298.319z M534.109,300.205h4.86v3.781
		h-9.253L534.109,300.205z M538.97,309.656h-4.86l-4.393-3.784h9.253V309.656z"/>
</g>
<g>
	<g>
		<rect x="50.073" y="431.603" fill-rule="evenodd" clip-rule="evenodd" fill="#D6D6D8" width="85.475" height="50.49"/>
	</g>
	<g>
		<polygon fill-rule="evenodd" clip-rule="evenodd" fill="#E3E3E2" points="70.548,456.848 115.074,456.848 125.312,469.472 
			135.548,482.093 50.073,482.093 60.31,469.472 		"/>
	</g>
	<g>
		<polygon fill-rule="evenodd" clip-rule="evenodd" fill="#E9E8E8" points="70.548,456.848 60.31,469.472 50.073,482.093 
			50.073,456.848 50.073,431.603 60.31,444.225 		"/>
	</g>
	<g>
		<polygon fill-rule="evenodd" clip-rule="evenodd" fill="#FAFDFB" points="115.074,456.848 125.312,469.472 135.548,482.093 
			135.548,456.848 135.548,431.603 125.312,444.225 		"/>
	</g>
	<g>
		<polygon fill-rule="evenodd" clip-rule="evenodd" fill="#FAFDFB" points="87.04,468.668 87.04,474.821 81.372,475.461 
			81.372,462.086 		"/>
	</g>
	<g>
		<polygon fill-rule="evenodd" clip-rule="evenodd" fill="#E9E8E8" points="75.704,468.668 75.704,474.821 81.372,475.461 
			81.372,462.086 		"/>
	</g>
	<g>
		<polygon fill-rule="evenodd" clip-rule="evenodd" fill="#FAFDFB" points="109.917,468.668 109.917,474.821 104.25,475.461 
			104.25,462.086 		"/>
	</g>
	<g>
		<polygon fill-rule="evenodd" clip-rule="evenodd" fill="#E9E8E8" points="98.582,468.668 98.582,474.821 104.25,475.461 
			104.25,462.086 		"/>
	</g>
	<g>
		<rect x="79.362" y="482.093" fill-rule="evenodd" clip-rule="evenodd" fill="#E9E8E8" width="13.45" height="6.676"/>
	</g>
	<g>
		<rect x="92.812" y="482.093" fill-rule="evenodd" clip-rule="evenodd" fill="#FAFDFB" width="13.448" height="6.676"/>
	</g>
	<g>
		<path fill="#1F1A17" d="M135.548,430.66H50.098h-0.024c-0.52,0-0.942,0.422-0.942,0.942v25.245v25.221v0.024
			c0,0.14,0.034,0.27,0.089,0.389c0.008,0.017,0.023,0.03,0.032,0.047c0.054,0.101,0.122,0.19,0.208,0.266
			c0.009,0.009,0.012,0.021,0.021,0.028c0.01,0.008,0.025,0.002,0.035,0.01c0.158,0.119,0.345,0.203,0.558,0.203h28.346v5.709v0.024
			c0,0.521,0.422,0.942,0.942,0.942h13.425h0.024h0.024h13.425c0.52,0,0.942-0.422,0.942-0.942v-0.024v-5.709h28.322h0.024
			c0.21,0,0.395-0.082,0.552-0.198c0.012-0.01,0.029-0.005,0.041-0.015c0.01-0.008,0.013-0.02,0.022-0.028
			c0.085-0.075,0.153-0.165,0.208-0.266c0.009-0.017,0.024-0.03,0.032-0.047c0.036-0.08,0.049-0.168,0.062-0.258
			c0.003-0.021,0.01-0.036,0.012-0.058c0.002-0.025,0.015-0.047,0.015-0.073v-25.245v-25.221v-0.024
			C136.491,431.082,136.069,430.66,135.548,430.66z M106.26,481.15h-0.024H92.812H79.386h-0.024H52.047l8.992-11.087l9.954-12.273
			h43.635l9.954,12.273l8.992,11.087H106.26z M114.629,455.904H70.993l-9.954-12.272l-8.992-11.087h81.527l-8.992,11.087
			L114.629,455.904z M51.016,434.256l8.565,10.561l9.757,12.031l-9.757,12.031l-8.565,10.561v-22.592V434.256z M126.041,468.879
			l-9.757-12.031l9.757-12.031l8.565-10.561v22.592v22.592L126.041,468.879z M80.304,483.035h11.564v4.791H80.304V483.035z
			 M105.317,487.826H93.754v-4.791h11.563V487.826z"/>
		<path fill="#1F1A17" d="M87.75,468.054l-5.616-6.521c-0.013-0.018-0.035-0.025-0.048-0.042c-0.059-0.071-0.129-0.127-0.207-0.178
			c-0.036-0.023-0.065-0.053-0.104-0.07c-0.123-0.06-0.257-0.099-0.402-0.099c-0.146,0-0.28,0.039-0.403,0.099
			c-0.038,0.018-0.067,0.046-0.103,0.068c-0.078,0.052-0.149,0.108-0.208,0.18c-0.014,0.017-0.036,0.024-0.048,0.042l-5.615,6.521
			c-0.154,0.178-0.229,0.396-0.229,0.614h-0.003v6.153c0,0.502,0.395,0.913,0.891,0.94l5.616,0.634
			c0.036,0.004,0.068-0.009,0.104-0.009s0.067,0.013,0.103,0.009l5.616-0.634c0.497-0.027,0.891-0.438,0.891-0.94v-6.153h-0.003
			C87.979,468.45,87.904,468.231,87.75,468.054z M76.647,469.013l3.782-4.393v9.787l-3.782-0.427V469.013z M86.097,473.98
			l-3.783,0.427v-9.787l3.783,4.393V473.98z"/>
		<path fill="#1F1A17" d="M110.628,468.054l-5.616-6.521c-0.013-0.018-0.035-0.025-0.048-0.042c-0.06-0.071-0.13-0.128-0.208-0.179
			c-0.035-0.023-0.064-0.052-0.103-0.069c-0.123-0.06-0.257-0.099-0.403-0.099c-0.146,0-0.28,0.039-0.403,0.099
			c-0.039,0.018-0.068,0.046-0.104,0.069c-0.078,0.052-0.148,0.107-0.208,0.179c-0.014,0.017-0.036,0.024-0.048,0.042l-5.617,6.521
			c-0.153,0.178-0.229,0.396-0.229,0.614h-0.003v6.153c0,0.502,0.394,0.913,0.891,0.94l5.617,0.634
			c0.036,0.004,0.068-0.009,0.103-0.009s0.067,0.013,0.103,0.009l5.617-0.634c0.496-0.027,0.89-0.438,0.89-0.94v-6.153h-0.003
			C110.857,468.45,110.782,468.231,110.628,468.054z M99.524,469.013l3.784-4.394v9.788l-3.784-0.427V469.013z M108.975,473.98
			l-3.783,0.427v-9.787l3.783,4.393V473.98z"/>
	</g>
</g>
<g>
	<g>
		<polygon fill-rule="evenodd" clip-rule="evenodd" fill="#DBC12D" points="168.148,431.313 253.623,431.313 253.623,445.672 
			251.622,445.672 243.38,456.559 251.622,467.443 253.623,467.443 253.623,481.803 229.495,481.803 229.495,475.886 
			210.885,461.796 192.275,475.886 192.275,481.803 168.148,481.803 		"/>
	</g>
	<g>
		<polygon fill-rule="evenodd" clip-rule="evenodd" fill="#F6DE2A" points="188.623,456.557 233.149,456.557 243.387,469.181 
			253.623,481.803 229.495,481.803 229.495,475.886 210.885,461.796 192.275,475.886 192.275,481.803 168.148,481.803 
			178.386,469.181 		"/>
	</g>
	<g>
		<polygon fill-rule="evenodd" clip-rule="evenodd" fill="#E4C92A" points="188.623,456.557 178.386,469.181 168.148,481.803 
			168.148,456.557 168.148,431.313 178.386,443.934 		"/>
	</g>
	<g>
		<polygon fill-rule="evenodd" clip-rule="evenodd" fill="#FEE623" points="233.149,456.557 243.387,469.181 253.623,481.803 
			253.623,467.443 251.622,467.443 243.38,456.559 251.622,445.672 253.623,445.672 253.623,431.313 243.387,443.934 		"/>
	</g>
	<g>
		<polygon fill-rule="evenodd" clip-rule="evenodd" fill="#FEE623" points="229.495,475.886 229.495,489.059 210.885,489.059 
			210.885,461.796 		"/>
	</g>
	<g>
		<polygon fill-rule="evenodd" clip-rule="evenodd" fill="#E4C92A" points="192.275,475.886 192.275,489.059 210.885,489.059 
			210.885,461.796 		"/>
	</g>
	<g>
		<polygon fill-rule="evenodd" clip-rule="evenodd" fill="#FEE623" points="251.622,445.672 259.327,445.672 259.327,456.559 
			243.38,456.559 		"/>
	</g>
	<g>
		<polygon fill-rule="evenodd" clip-rule="evenodd" fill="#E4C92A" points="251.622,467.443 259.327,467.443 259.327,456.559 
			243.38,456.559 		"/>
	</g>
	<g>
		<rect x="173.647" y="481.803" fill-rule="evenodd" clip-rule="evenodd" fill="#E4C92A" width="13.663" height="4.172"/>
	</g>
	<g>
		<rect x="234.462" y="481.803" fill-rule="evenodd" clip-rule="evenodd" fill="#E4C92A" width="13.662" height="4.172"/>
	</g>
	<path fill="#1F1A17" d="M259.327,444.729h-4.762v-13.394v-0.023c0-0.521-0.422-0.942-0.942-0.942h-85.451h-0.024
		c-0.521,0-0.943,0.422-0.943,0.942v25.244v25.222v0.024c0,0.14,0.035,0.27,0.089,0.389c0.007,0.017,0.021,0.029,0.03,0.045
		c0.054,0.102,0.123,0.192,0.208,0.268c0.009,0.008,0.012,0.02,0.022,0.027c0.01,0.009,0.024,0.003,0.035,0.011
		c0.158,0.119,0.345,0.203,0.558,0.203h4.557v3.205v0.024c0,0.52,0.422,0.942,0.942,0.942h13.638h0.024
		c0.521,0,0.943-0.423,0.943-0.942v-3.229h3.081v6.313c0,0.521,0.422,0.943,0.942,0.943h0.024h18.585h18.586h0.024
		c0.521,0,0.942-0.423,0.942-0.943v-6.313h3.083v3.205v0.024c0,0.52,0.422,0.942,0.942,0.942H248.1h0.024
		c0.52,0,0.942-0.423,0.942-0.942v-3.229h4.532h0.024c0.21,0,0.395-0.082,0.552-0.199c0.013-0.009,0.029-0.005,0.041-0.015
		c0.01-0.008,0.013-0.02,0.021-0.027c0.086-0.075,0.154-0.165,0.208-0.267c0.009-0.017,0.023-0.029,0.031-0.047
		c0.036-0.079,0.049-0.168,0.062-0.257c0.003-0.021,0.01-0.037,0.012-0.058c0.002-0.025,0.015-0.048,0.015-0.073v-13.416h4.762
		c0.52,0,0.942-0.423,0.942-0.943v-0.023v-10.861v-10.863v-0.023C260.27,445.151,259.847,444.729,259.327,444.729z M258.385,455.616
		h-13.11l6.815-9.002h1.51h0.024h4.762V455.616z M232.704,455.614h-43.636l-9.953-12.272l-8.993-11.087h81.527l-8.992,11.087
		L232.704,455.614z M169.091,479.149v-22.593v-22.591l8.566,10.561l9.756,12.03l-9.756,12.031L169.091,479.149z M186.367,485.031
		H174.59v-2.286h11.777V485.031z M193.218,481.803v-5.45l16.725-12.662v24.426h-16.725V481.803z M228.553,488.116h-16.726V463.69
		l16.726,12.662v5.426v0.024V488.116z M230.438,475.886c0-0.026-0.016-0.047-0.018-0.072c-0.01-0.122-0.033-0.243-0.089-0.354
		c-0.036-0.07-0.096-0.12-0.147-0.179c-0.042-0.048-0.068-0.105-0.121-0.146l-0.037-0.027c0,0,0-0.001-0.001-0.001l-18.573-14.062
		c-0.015-0.011-0.035-0.006-0.051-0.017c-0.15-0.102-0.321-0.175-0.516-0.175c-0.194,0-0.365,0.073-0.515,0.174
		c-0.016,0.011-0.037,0.007-0.053,0.018l-18.608,14.09c-0.245,0.185-0.374,0.467-0.374,0.751h-0.001v4.974h-4.024h-13.638h-0.024
		h-3.525l8.992-11.086l9.954-12.273h43.635l9.954,12.273l8.992,11.086h-3.524h-13.638h-0.024h-4.025V475.886z M247.182,485.031
		h-11.777v-2.286h11.777V485.031z M252.681,479.149l-8.565-10.562l-9.757-12.031l9.757-12.03l8.565-10.561v10.764h-1.059
		c-0.026,0-0.047,0.017-0.073,0.019c-0.122,0.01-0.243,0.032-0.353,0.089c-0.07,0.036-0.119,0.095-0.177,0.146
		c-0.048,0.042-0.107,0.068-0.147,0.121l-0.028,0.037l0,0.001l-8.213,10.849c-0.011,0.016-0.007,0.037-0.018,0.053
		c-0.101,0.15-0.174,0.32-0.174,0.515s0.073,0.364,0.174,0.514c0.01,0.017,0.006,0.038,0.018,0.054l8.213,10.847
		c0,0.001,0.001,0.001,0.001,0.001l0.028,0.037c0.04,0.054,0.099,0.079,0.147,0.122c0.059,0.051,0.107,0.11,0.177,0.146
		c0.111,0.057,0.231,0.08,0.354,0.09c0.026,0.002,0.046,0.019,0.072,0.019h1.059V479.149z M258.385,466.501h-4.762h-0.024h-1.51
		l-6.815-9h13.11V466.501z"/>
</g>
<g>
	<g>
		<polygon fill-rule="evenodd" clip-rule="evenodd" fill="#E4B54F" points="281.015,432.934 295.793,432.934 295.793,435.637 
			312.549,448.322 329.305,435.637 329.305,432.934 385.095,432.934 385.095,483.424 357.361,483.424 357.361,476.581 
			333.055,458.179 308.749,476.581 308.749,483.424 281.015,483.424 		"/>
	</g>
	<g>
		<polygon fill-rule="evenodd" clip-rule="evenodd" fill="#EFBF55" points="301.489,458.179 333.055,458.179 357.361,476.581 
			357.361,483.424 385.095,483.424 374.858,470.803 364.62,458.179 333.055,458.179 308.749,476.581 308.749,483.424 
			281.015,483.424 291.251,470.803 		"/>
	</g>
	<g>
		<polygon fill-rule="evenodd" clip-rule="evenodd" fill="#D2A749" points="301.489,458.179 291.251,470.802 281.015,483.424 
			281.015,458.179 281.015,432.934 291.251,445.556 		"/>
	</g>
	<g>
		<polygon fill-rule="evenodd" clip-rule="evenodd" fill="#F8C759" points="364.62,458.179 374.858,470.802 385.095,483.424 
			385.095,458.179 385.095,432.934 374.858,445.556 		"/>
	</g>
	<g>
		<polygon fill-rule="evenodd" clip-rule="evenodd" fill="#F8C759" points="357.361,476.581 357.361,502.827 333.055,502.827 
			333.055,458.179 		"/>
	</g>
	<g>
		<polygon fill-rule="evenodd" clip-rule="evenodd" fill="#D2A749" points="308.749,476.581 308.749,502.827 333.055,502.827 
			333.055,458.179 		"/>
	</g>
	<g>
		<polygon fill-rule="evenodd" clip-rule="evenodd" fill="#EFBF55" points="385.095,463.745 407.943,463.745 405.69,473.238 
			385.095,473.238 		"/>
	</g>
	<g>
		<polygon fill-rule="evenodd" clip-rule="evenodd" fill="#E4B54F" points="385.095,463.745 407.943,463.745 406.488,443.12 
			385.095,443.12 385.095,458.076 		"/>
	</g>
	<g>
		<polygon fill-rule="evenodd" clip-rule="evenodd" fill="#F8C759" points="329.305,435.637 329.305,417.544 312.549,417.544 
			312.549,448.322 		"/>
	</g>
	<g>
		<polygon fill-rule="evenodd" clip-rule="evenodd" fill="#D2A749" points="295.793,435.637 295.793,417.544 312.549,417.544 
			312.549,448.322 		"/>
	</g>
	<path fill="#1F1A17" d="M408.878,463.625l-1.45-20.571c-0.035-0.495-0.45-0.875-0.939-0.875v-0.001h-20.451v-9.22v-0.024
		c0-0.521-0.422-0.942-0.942-0.942h-54.849v-14.447c0-0.52-0.422-0.942-0.941-0.942h-0.024h-16.731h-16.731h-0.024
		c-0.52,0-0.942,0.423-0.942,0.942v14.447h-13.812h-0.024c-0.52,0-0.942,0.422-0.942,0.942v25.245v25.221v0.024
		c0,0.14,0.034,0.27,0.089,0.389c0.008,0.018,0.022,0.03,0.031,0.047c0.054,0.102,0.122,0.19,0.208,0.266
		c0.009,0.008,0.012,0.021,0.021,0.028c0.01,0.008,0.024,0.003,0.035,0.011c0.158,0.119,0.345,0.202,0.558,0.202h26.792v18.461
		c0,0.521,0.423,0.942,0.942,0.942h0.024h24.281h24.282h0.024c0.521,0,0.942-0.422,0.942-0.942v-18.461h26.768h0.023
		c0.213,0,0.4-0.083,0.558-0.202c0.011-0.008,0.025-0.003,0.035-0.011s0.013-0.02,0.021-0.028c0.086-0.075,0.154-0.164,0.209-0.266
		c0.008-0.017,0.023-0.029,0.03-0.047c0.055-0.119,0.089-0.249,0.089-0.389v-9.243h19.648h0.005c0.427,0,0.813-0.292,0.917-0.725
		l2.244-9.458c0.022-0.08,0.034-0.166,0.034-0.253C408.886,463.704,408.883,463.664,408.878,463.625z M405.611,444.063l1.322,18.74
		h-20.896v-4.624v-0.103v-14.014H405.611z M384.152,443.12v0.024v14.932v0.103v5.566v9.47v0.023v7.531l-8.565-10.561l-4.521-5.575
		l-5.235-6.456l9.757-12.029l8.565-10.562V443.12z M328.361,432.934v2.236l-14.87,11.259v-27.942h14.87V432.934z M296.736,418.486
		h14.871v27.942l-14.871-11.259v-2.212v-0.024V418.486z M294.851,435.637c0,0.021,0.013,0.038,0.015,0.059
		c0.008,0.128,0.034,0.253,0.093,0.368c0.035,0.068,0.094,0.116,0.144,0.174c0.043,0.05,0.07,0.109,0.125,0.15l0.037,0.028h0
		l16.717,12.657c0.016,0.012,0.036,0.007,0.052,0.018c0.15,0.101,0.32,0.174,0.516,0.174c0.193,0,0.364-0.073,0.514-0.173
		c0.017-0.011,0.037-0.007,0.053-0.019l16.756-12.686c0.245-0.185,0.374-0.466,0.374-0.751h0.001v-1.761h52.875l-8.992,11.087
		l-9.954,12.273h-31.097h-0.023h-0.024h-31.096l-9.954-12.273l-8.992-11.087h11.863V435.637z M281.957,458.179v-22.592l8.565,10.562
		l9.757,12.029l-3.486,4.299l-6.271,7.732l-8.565,10.561V458.179z M282.989,482.481l1.495-1.843l7.497-9.244l9.954-12.273h28.316
		l-22.069,16.709c-0.244,0.185-0.373,0.466-0.373,0.751h-0.002v5.9H282.989z M309.691,483.424v-6.376l22.421-16.976v41.813h-22.421
		V483.424z M356.419,501.885h-22.422v-41.813l22.422,16.976v6.352v0.024V501.885z M358.304,476.581c0-0.026-0.017-0.048-0.019-0.073
		c-0.01-0.122-0.032-0.242-0.089-0.354c-0.035-0.068-0.094-0.117-0.145-0.175c-0.043-0.05-0.069-0.108-0.123-0.149l-22.07-16.709
		h28.316l9.954,12.273l6.351,7.83l2.642,3.257h-24.817V476.581z M404.945,472.296h-18.908v-7.608h20.714L404.945,472.296z"/>
</g>
<g>
	<g>
		<rect x="438.492" y="415.906" fill-rule="evenodd" clip-rule="evenodd" fill="#8E84AA" width="56.225" height="43.427"/>
	</g>
	<g>
		<polygon fill-rule="evenodd" clip-rule="evenodd" fill="#ACA0C8" points="456.103,437.619 477.107,437.619 485.912,448.477 
			494.717,459.333 438.492,459.333 447.298,448.477 		"/>
	</g>
	<g>
		<polygon fill-rule="evenodd" clip-rule="evenodd" fill="#9C91B9" points="456.103,437.619 447.298,448.477 438.492,459.333 
			438.492,437.619 438.492,415.906 447.298,426.762 		"/>
	</g>
	<g>
		<polygon fill-rule="evenodd" clip-rule="evenodd" fill="#BAB0D7" points="477.107,437.619 485.912,448.477 494.717,459.333 
			494.717,437.619 494.717,415.906 485.912,426.762 		"/>
	</g>
	<g>
		<polygon fill-rule="evenodd" clip-rule="evenodd" fill="#BAB0D7" points="545.207,415.906 545.207,496.278 531.207,496.278 
			531.207,492.322 519.963,483.81 508.718,492.322 508.718,496.278 494.717,496.278 494.717,415.906 		"/>
	</g>
	<g>
		<polygon fill-rule="evenodd" clip-rule="evenodd" fill="#9C91B9" points="519.963,436.38 519.963,475.805 507.339,486.042 
			494.717,496.278 494.717,415.906 507.339,426.143 		"/>
	</g>
	<g>
		<polygon fill-rule="evenodd" clip-rule="evenodd" fill="#8E84AA" points="519.963,436.38 507.34,426.143 494.717,415.906 
			519.963,415.906 545.207,415.906 532.586,426.143 		"/>
	</g>
	<g>
		<polygon fill-rule="evenodd" clip-rule="evenodd" fill="#ACA0C8" points="519.963,475.805 507.34,486.042 494.717,496.278 
			508.718,496.278 508.718,492.322 519.963,483.81 531.207,492.322 531.207,496.278 545.207,496.278 532.586,486.042 		"/>
	</g>
	<g>
		<polygon fill-rule="evenodd" clip-rule="evenodd" fill="#BAB0D7" points="472.272,448.161 472.272,454.313 466.604,454.313 
			466.604,441.579 		"/>
	</g>
	<g>
		<polygon fill-rule="evenodd" clip-rule="evenodd" fill="#9C91B9" points="460.937,448.161 460.937,454.313 466.604,454.313 
			466.604,441.579 		"/>
	</g>
	<g>
		<polygon fill-rule="evenodd" clip-rule="evenodd" fill="#BAB0D7" points="531.207,492.322 531.207,504.466 519.963,504.466 
			519.963,483.81 		"/>
	</g>
	<g>
		<polygon fill-rule="evenodd" clip-rule="evenodd" fill="#9C91B9" points="508.718,492.322 508.718,504.466 519.963,504.466 
			519.963,483.81 		"/>
	</g>
	<g>
		<rect x="485.705" y="459.333" fill-rule="evenodd" clip-rule="evenodd" fill="#BAB0D7" width="9.012" height="36.945"/>
	</g>
	<g>
		<polygon fill-rule="evenodd" clip-rule="evenodd" fill="#9C91B9" points="533.761,439.041 539.913,439.041 539.913,444.709 
			527.178,444.709 		"/>
	</g>
	<g>
		<polygon fill-rule="evenodd" clip-rule="evenodd" fill="#8E84AA" points="533.761,450.377 539.913,450.377 539.913,444.709 
			527.178,444.709 		"/>
	</g>
	<g>
		<polygon fill-rule="evenodd" clip-rule="evenodd" fill="#9C91B9" points="533.761,461.808 539.913,461.808 539.913,467.476 
			527.178,467.476 		"/>
	</g>
	<g>
		<polygon fill-rule="evenodd" clip-rule="evenodd" fill="#8E84AA" points="533.761,473.144 539.913,473.144 539.913,467.476 
			527.178,467.476 		"/>
	</g>
	<g>
		<path fill="#1F1A17" d="M545.207,414.963h-25.244h-25.222h-0.024h-56.2h-0.024c-0.52,0-0.942,0.423-0.942,0.943v21.713v21.689
			v0.024c0,0.14,0.035,0.27,0.09,0.389c0.007,0.017,0.021,0.029,0.029,0.045c0.055,0.103,0.123,0.192,0.21,0.269
			c0.009,0.008,0.012,0.02,0.021,0.027s0.024,0.002,0.034,0.01c0.158,0.119,0.345,0.203,0.558,0.203h46.271v35.979v0.024
			c0,0.521,0.423,0.943,0.942,0.943h8.988h0.023h13.059v7.244c0,0.52,0.422,0.942,0.942,0.942h0.024h11.221h11.221h0.024
			c0.52,0,0.942-0.423,0.942-0.942v-7.244h13.033h0.023c0.521,0,0.943-0.423,0.943-0.943V415.93v-0.023
			C546.15,415.386,545.728,414.963,545.207,414.963z M440.467,458.391l2.42-2.984l5.14-6.336l8.521-10.509h20.113l8.521,10.509
			l5.14,6.336l2.421,2.984h-7.014h-0.024H440.467z M493.774,437.619v19.06l-7.134-8.795l-6.294-7.762l-2.03-2.503l8.324-10.265
			l7.134-8.795V437.619z M485.183,426.169l-8.521,10.508h-20.114l-8.521-10.508l-7.56-9.32h52.276L485.183,426.169z
			 M439.436,437.619v-19.06l7.133,8.795l8.325,10.265l-1.816,2.239l-6.509,8.025l-7.133,8.795V437.619z M495.659,459.357v-0.024
			v-21.714V417.88l3.133,2.54l7.954,6.452l12.273,9.954v38.532l-12.273,9.954l-6.759,5.482l-4.328,3.51V459.357z M520.905,436.826
			l12.273-9.954l11.086-8.992v76.425l-11.086-8.992l-12.273-9.953V436.826z M519.963,416.849h22.591l-10.561,8.565l-12.03,9.757
			l-5.016-4.067l-7.016-5.689l-10.561-8.565H519.963z M486.648,460.275h7.126v35.061h-7.126V460.275z M509.66,496.278v-0.024v-3.465
			l9.359-7.086v17.819h-9.359V496.278z M530.265,503.522h-9.359v-17.819l9.359,7.086v3.465v0.024V503.522z M532.15,495.336v-3.014
			c0-0.025-0.017-0.047-0.019-0.072c-0.01-0.122-0.033-0.243-0.09-0.354c-0.035-0.07-0.095-0.119-0.146-0.178
			c-0.043-0.049-0.068-0.106-0.122-0.147l-0.036-0.027c-0.001,0-0.001-0.001-0.001-0.001l-10.322-7.813l-0.847-0.642l0,0
			l-0.039-0.029c-0.015-0.012-0.036-0.008-0.052-0.018c-0.15-0.102-0.32-0.174-0.515-0.174s-0.365,0.072-0.515,0.174
			c-0.017,0.01-0.037,0.006-0.053,0.018l-0.038,0.029l0,0l-2.555,1.934l-8.614,6.521l0,0l-0.038,0.028
			c-0.054,0.041-0.08,0.101-0.123,0.149c-0.051,0.059-0.109,0.106-0.145,0.176c-0.057,0.11-0.08,0.231-0.09,0.354
			c-0.002,0.025-0.018,0.047-0.018,0.072v3.014h-10.404l10.561-8.564l11.548-9.366l0.483-0.392l12.03,9.758l10.561,8.564H532.15z"/>
		<path fill="#1F1A17" d="M472.982,447.547l-5.615-6.522c-0.013-0.017-0.034-0.024-0.049-0.041
			c-0.059-0.071-0.129-0.127-0.206-0.178c-0.036-0.024-0.065-0.053-0.104-0.071c-0.124-0.059-0.258-0.098-0.403-0.098
			s-0.279,0.039-0.402,0.098c-0.039,0.019-0.068,0.047-0.104,0.07c-0.077,0.052-0.147,0.107-0.207,0.179
			c-0.014,0.017-0.035,0.024-0.048,0.041l-5.617,6.522c-0.153,0.178-0.229,0.396-0.229,0.614h-0.003v6.152
			c0,0.521,0.422,0.942,0.942,0.942h0.024h5.644h5.644h0.024c0.521,0,0.942-0.422,0.942-0.942v-6.152h-0.003
			C473.212,447.943,473.137,447.725,472.982,447.547z M461.879,448.506l3.783-4.394v9.259h-3.783V448.506z M471.33,453.371h-3.783
			v-9.258l3.783,4.393V453.371z"/>
		<path fill="#1F1A17" d="M526.235,444.709c0,0.146,0.04,0.279,0.099,0.402c0.019,0.039,0.047,0.068,0.07,0.104
			c0.051,0.077,0.106,0.147,0.178,0.206c0.017,0.015,0.024,0.036,0.042,0.049l6.521,5.616c0.179,0.154,0.397,0.229,0.615,0.229
			v0.003h6.152c0.521,0,0.942-0.422,0.942-0.942v-0.023v-5.645v-5.644v-0.024c0-0.521-0.422-0.942-0.942-0.942h-6.152v0.003
			c-0.218,0-0.437,0.075-0.615,0.229l-6.521,5.615c-0.018,0.013-0.025,0.035-0.042,0.049c-0.07,0.059-0.127,0.129-0.178,0.206
			c-0.023,0.036-0.052,0.065-0.07,0.105C526.275,444.43,526.235,444.563,526.235,444.709z M538.971,449.435h-4.865l-4.394-3.783
			h9.259V449.435z M534.105,439.983h4.865v3.783h-9.258L534.105,439.983z"/>
		<path fill="#1F1A17" d="M533.761,474.086h6.152c0.521,0,0.942-0.422,0.942-0.942v-0.024v-5.644v-5.644v-0.024
			c0-0.521-0.422-0.942-0.942-0.942h-6.152v0.003c-0.218,0-0.437,0.075-0.615,0.229l-6.521,5.615
			c-0.018,0.013-0.025,0.035-0.042,0.049c-0.071,0.059-0.127,0.129-0.178,0.206c-0.023,0.036-0.052,0.065-0.07,0.104
			c-0.059,0.123-0.099,0.257-0.099,0.403c0,0.146,0.04,0.279,0.099,0.402c0.019,0.039,0.047,0.068,0.07,0.104
			c0.051,0.077,0.107,0.147,0.178,0.207c0.017,0.014,0.024,0.035,0.042,0.048l6.521,5.616c0.179,0.154,0.397,0.229,0.615,0.229
			V474.086z M534.105,462.75h4.865v3.783h-9.258L534.105,462.75z M529.712,468.418h9.259v3.783h-4.865L529.712,468.418z"/>
	</g>
</g>
<g>
	<g>
		<rect x="50.073" y="106.226" fill-rule="evenodd" clip-rule="evenodd" fill="#D6D6D8" width="85.475" height="50.49"/>
	</g>
	<g>
		<polygon fill-rule="evenodd" clip-rule="evenodd" fill="#E3E3E2" points="70.548,131.471 115.074,131.471 125.312,144.095 
			135.548,156.716 50.073,156.716 60.31,144.095 		"/>
	</g>
	<g>
		<polygon fill-rule="evenodd" clip-rule="evenodd" fill="#E9E8E8" points="70.548,131.471 60.31,144.095 50.073,156.716 
			50.073,131.471 50.073,106.226 60.31,118.848 		"/>
	</g>
	<g>
		<polygon fill-rule="evenodd" clip-rule="evenodd" fill="#FAFDFB" points="115.074,131.471 125.312,144.095 135.548,156.716 
			135.548,131.471 135.548,106.226 125.312,118.848 		"/>
	</g>
	<g>
		<polygon fill-rule="evenodd" clip-rule="evenodd" fill="#FAFDFB" points="87.039,143.292 87.039,149.444 81.372,150.084 
			81.372,136.709 		"/>
	</g>
	<g>
		<polygon fill-rule="evenodd" clip-rule="evenodd" fill="#E9E8E8" points="75.704,143.292 75.704,149.444 81.372,150.084 
			81.372,136.709 		"/>
	</g>
	<g>
		<polygon fill-rule="evenodd" clip-rule="evenodd" fill="#FAFDFB" points="109.917,143.292 109.917,149.444 104.25,150.084 
			104.25,136.709 		"/>
	</g>
	<g>
		<polygon fill-rule="evenodd" clip-rule="evenodd" fill="#E9E8E8" points="98.581,143.292 98.581,149.444 104.25,150.084 
			104.25,136.709 		"/>
	</g>
	<g>
		<rect x="79.361" y="156.716" fill-rule="evenodd" clip-rule="evenodd" fill="#E9E8E8" width="13.45" height="6.676"/>
	</g>
	<g>
		<rect x="92.812" y="156.716" fill-rule="evenodd" clip-rule="evenodd" fill="#FAFDFB" width="13.448" height="6.676"/>
	</g>
</g>
<g>
	<g>
		<polygon fill-rule="evenodd" clip-rule="evenodd" fill="#DBC12D" points="168.148,105.936 253.623,105.936 253.623,120.295 
			251.622,120.295 243.38,131.182 251.622,142.067 253.623,142.067 253.623,156.426 229.495,156.426 229.495,150.509 
			210.885,136.419 192.275,150.509 192.275,156.426 168.148,156.426 		"/>
	</g>
	<g>
		<polygon fill-rule="evenodd" clip-rule="evenodd" fill="#F6DE2A" points="188.623,131.18 233.149,131.18 243.386,143.804 
			253.623,156.426 229.495,156.426 229.495,150.509 210.885,136.419 192.275,150.509 192.275,156.426 168.148,156.426 
			178.386,143.804 		"/>
	</g>
	<g>
		<polygon fill-rule="evenodd" clip-rule="evenodd" fill="#E4C92A" points="188.623,131.18 178.386,143.804 168.148,156.426 
			168.148,131.18 168.148,105.936 178.386,118.557 		"/>
	</g>
	<g>
		<polygon fill-rule="evenodd" clip-rule="evenodd" fill="#FEE623" points="233.149,131.18 243.386,143.804 253.623,156.426 
			253.623,142.067 251.622,142.067 243.38,131.182 251.622,120.295 253.623,120.295 253.623,105.936 243.386,118.557 		"/>
	</g>
	<g>
		<polygon fill-rule="evenodd" clip-rule="evenodd" fill="#FEE623" points="229.495,150.509 229.495,163.682 210.885,163.682 
			210.885,136.419 		"/>
	</g>
	<g>
		<polygon fill-rule="evenodd" clip-rule="evenodd" fill="#E4C92A" points="192.275,150.509 192.275,163.682 210.885,163.682 
			210.885,136.419 		"/>
	</g>
	<g>
		<polygon fill-rule="evenodd" clip-rule="evenodd" fill="#FEE623" points="251.622,120.295 259.327,120.295 259.327,131.182 
			243.38,131.182 		"/>
	</g>
	<g>
		<polygon fill-rule="evenodd" clip-rule="evenodd" fill="#E4C92A" points="251.622,142.067 259.327,142.067 259.327,131.182 
			243.38,131.182 		"/>
	</g>
	<g>
		<rect x="173.647" y="156.426" fill-rule="evenodd" clip-rule="evenodd" fill="#E4C92A" width="13.662" height="4.172"/>
	</g>
	<g>
		<rect x="234.462" y="156.426" fill-rule="evenodd" clip-rule="evenodd" fill="#E4C92A" width="13.662" height="4.172"/>
	</g>
</g>
<g>
	<g>
		<polygon fill-rule="evenodd" clip-rule="evenodd" fill="#E4B54F" points="281.015,107.557 295.793,107.557 295.793,110.26 
			312.548,122.946 329.304,110.26 329.304,107.557 385.095,107.557 385.095,158.047 357.361,158.047 357.361,151.204 
			333.055,132.802 308.749,151.204 308.749,158.047 281.015,158.047 		"/>
	</g>
	<g>
		<polygon fill-rule="evenodd" clip-rule="evenodd" fill="#EFBF55" points="301.489,132.802 333.055,132.802 357.361,151.204 
			357.361,158.047 385.095,158.047 374.858,145.426 364.62,132.802 333.055,132.802 308.749,151.204 308.749,158.047 
			281.015,158.047 291.251,145.426 		"/>
	</g>
	<g>
		<polygon fill-rule="evenodd" clip-rule="evenodd" fill="#D2A749" points="301.489,132.802 291.251,145.425 281.015,158.047 
			281.015,132.802 281.015,107.557 291.251,120.179 		"/>
	</g>
	<g>
		<polygon fill-rule="evenodd" clip-rule="evenodd" fill="#F8C759" points="364.62,132.802 374.858,145.425 385.095,158.047 
			385.095,132.802 385.095,107.557 374.858,120.179 		"/>
	</g>
	<g>
		<polygon fill-rule="evenodd" clip-rule="evenodd" fill="#F8C759" points="357.361,151.204 357.361,177.45 333.055,177.45 
			333.055,132.802 		"/>
	</g>
	<g>
		<polygon fill-rule="evenodd" clip-rule="evenodd" fill="#D2A749" points="308.749,151.204 308.749,177.45 333.055,177.45 
			333.055,132.802 		"/>
	</g>
	<g>
		<polygon fill-rule="evenodd" clip-rule="evenodd" fill="#EFBF55" points="385.095,138.369 407.943,138.369 405.69,147.862 
			385.095,147.862 		"/>
	</g>
	<g>
		<polygon fill-rule="evenodd" clip-rule="evenodd" fill="#E4B54F" points="385.095,138.369 407.943,138.369 406.488,117.743 
			385.095,117.743 385.095,132.699 		"/>
	</g>
	<g>
		<polygon fill-rule="evenodd" clip-rule="evenodd" fill="#F8C759" points="329.304,110.26 329.304,92.167 312.548,92.167 
			312.548,122.946 		"/>
	</g>
	<g>
		<polygon fill-rule="evenodd" clip-rule="evenodd" fill="#D2A749" points="295.793,110.26 295.793,92.167 312.548,92.167 
			312.548,122.946 		"/>
	</g>
</g>
<g>
	<g>
		<rect x="438.492" y="90.529" fill-rule="evenodd" clip-rule="evenodd" fill="#8E84AA" width="56.225" height="43.427"/>
	</g>
	<g>
		<polygon fill-rule="evenodd" clip-rule="evenodd" fill="#ACA0C8" points="456.103,112.242 477.107,112.242 485.912,123.101 
			494.717,133.956 438.492,133.956 447.298,123.101 		"/>
	</g>
	<g>
		<polygon fill-rule="evenodd" clip-rule="evenodd" fill="#9C91B9" points="456.103,112.242 447.298,123.1 438.492,133.956 
			438.492,112.242 438.492,90.529 447.298,101.385 		"/>
	</g>
	<g>
		<polygon fill-rule="evenodd" clip-rule="evenodd" fill="#BAB0D7" points="477.107,112.242 485.912,123.1 494.717,133.956 
			494.717,112.242 494.717,90.529 485.912,101.385 		"/>
	</g>
	<g>
		<polygon fill-rule="evenodd" clip-rule="evenodd" fill="#BAB0D7" points="545.207,90.529 545.207,170.902 531.207,170.902 
			531.207,166.946 519.963,158.433 508.718,166.946 508.718,170.902 494.717,170.902 494.717,90.529 		"/>
	</g>
	<g>
		<polygon fill-rule="evenodd" clip-rule="evenodd" fill="#9C91B9" points="519.963,111.003 519.963,150.428 507.339,160.665 
			494.717,170.902 494.717,90.529 507.339,100.766 		"/>
	</g>
	<g>
		<polygon fill-rule="evenodd" clip-rule="evenodd" fill="#8E84AA" points="519.963,111.003 507.339,100.766 494.717,90.529 
			519.963,90.529 545.207,90.529 532.586,100.766 		"/>
	</g>
	<g>
		<polygon fill-rule="evenodd" clip-rule="evenodd" fill="#ACA0C8" points="519.963,150.428 507.339,160.665 494.717,170.902 
			508.718,170.902 508.718,166.946 519.963,158.433 531.207,166.946 531.207,170.902 545.207,170.902 532.586,160.665 		"/>
	</g>
	<g>
		<polygon fill-rule="evenodd" clip-rule="evenodd" fill="#BAB0D7" points="472.272,122.784 472.272,128.937 466.604,128.937 
			466.604,116.202 		"/>
	</g>
	<g>
		<polygon fill-rule="evenodd" clip-rule="evenodd" fill="#9C91B9" points="460.937,122.784 460.937,128.937 466.604,128.937 
			466.604,116.202 		"/>
	</g>
	<g>
		<polygon fill-rule="evenodd" clip-rule="evenodd" fill="#BAB0D7" points="531.207,166.946 531.207,179.089 519.963,179.089 
			519.963,158.433 		"/>
	</g>
	<g>
		<polygon fill-rule="evenodd" clip-rule="evenodd" fill="#9C91B9" points="508.718,166.946 508.718,179.089 519.963,179.089 
			519.963,158.433 		"/>
	</g>
	<g>
		<rect x="485.705" y="133.956" fill-rule="evenodd" clip-rule="evenodd" fill="#BAB0D7" width="9.012" height="36.946"/>
	</g>
	<g>
		<polygon fill-rule="evenodd" clip-rule="evenodd" fill="#9C91B9" points="533.761,113.664 539.913,113.664 539.913,119.332 
			527.178,119.332 		"/>
	</g>
	<g>
		<polygon fill-rule="evenodd" clip-rule="evenodd" fill="#8E84AA" points="533.761,125 539.913,125 539.913,119.332 
			527.178,119.332 		"/>
	</g>
	<g>
		<polygon fill-rule="evenodd" clip-rule="evenodd" fill="#9C91B9" points="533.761,136.431 539.913,136.431 539.913,142.099 
			527.178,142.099 		"/>
	</g>
	<g>
		<polygon fill-rule="evenodd" clip-rule="evenodd" fill="#8E84AA" points="533.761,147.767 539.913,147.767 539.913,142.099 
			527.178,142.099 		"/>
	</g>
</g>
</svg>
