<?xml version="1.0" encoding="utf-8"?>
<!-- Generator: Adobe Illustrator 18.0.0, SVG Export Plug-In . SVG Version: 6.00 Build 0)  -->
<!DOCTYPE svg PUBLIC "-//W3C//DTD SVG 1.1//EN" "http://www.w3.org/Graphics/SVG/1.1/DTD/svg11.dtd">
<svg version="1.1" id="Layer_1" xmlns="http://www.w3.org/2000/svg" xmlns:xlink="http://www.w3.org/1999/xlink" x="0px" y="0px"
	 viewBox="0 0 1400 980" enable-background="new 0 0 1400 980" xml:space="preserve">
<g>
	<g>
		<g>
			<g>
				<rect x="56" y="841.7" fill="#3C2415" width="53.6" height="93.8"/>
				<polygon fill="#3C2415" points="117.8,832 109.6,841.7 109.6,935.5 117.8,925.8 				"/>
				<rect x="117.8" y="832" fill="#3C2415" width="36.1" height="93.8"/>
				<polygon fill="#3C2415" points="159.5,935.5 153.9,925.8 153.9,832 159.5,841.7 				"/>
				<rect x="56" y="839.3" fill="#8F4432" width="53.6" height="93.8"/>
				<polygon fill="#472208" points="117.8,829.7 109.6,839.3 109.6,933.1 117.8,923.5 				"/>
				<rect x="117.8" y="829.7" fill="#8F4432" width="36.1" height="93.8"/>
				<polygon fill="#472208" points="159.5,933.1 153.9,923.5 153.9,829.7 159.5,839.3 				"/>
			</g>
			<g>
				<rect x="159.5" y="841.7" fill="#3C2415" width="53.6" height="93.8"/>
				<polygon fill="#3C2415" points="221.4,832 213.1,841.7 213.1,935.5 221.4,925.8 				"/>
				<rect x="221.4" y="832" fill="#3C2415" width="36.1" height="93.8"/>
				<polygon fill="#3C2415" points="263.1,935.5 257.4,925.8 257.4,832 263.1,841.7 				"/>
				<rect x="159.5" y="839.3" fill="#8F4432" width="53.6" height="93.8"/>
				<polygon fill="#472208" points="221.4,829.7 213.1,839.3 213.1,933.1 221.4,923.5 				"/>
				<rect x="221.4" y="829.7" fill="#8F4432" width="36.1" height="93.8"/>
				<polygon fill="#472208" points="263.1,933.1 257.4,923.5 257.4,829.7 263.1,839.3 				"/>
			</g>
			<g>
				<rect x="263.1" y="841.7" fill="#3C2415" width="53.6" height="93.8"/>
				<polygon fill="#3C2415" points="324.9,832 316.7,841.7 316.7,935.5 324.9,925.8 				"/>
				<rect x="324.9" y="832" fill="#3C2415" width="36.1" height="93.8"/>
				<polygon fill="#3C2415" points="366.7,935.5 361,925.8 361,832 366.7,841.7 				"/>
				<rect x="263.1" y="839.3" fill="#8F4432" width="53.6" height="93.8"/>
				<polygon fill="#472208" points="324.9,829.7 316.7,839.3 316.7,933.1 324.9,923.5 				"/>
				<rect x="324.9" y="829.7" fill="#8F4432" width="36.1" height="93.8"/>
				<polygon fill="#472208" points="366.7,933.1 361,923.5 361,829.7 366.7,839.3 				"/>
			</g>
			<g>
				<rect x="366.7" y="841.7" fill="#3C2415" width="53.6" height="93.8"/>
				<polygon fill="#3C2415" points="428.5,832 420.3,841.7 420.3,935.5 428.5,925.8 				"/>
				<rect x="428.5" y="832" fill="#3C2415" width="36.1" height="93.8"/>
				<polygon fill="#3C2415" points="470.2,935.5 464.6,925.8 464.6,832 470.2,841.7 				"/>
				<rect x="366.7" y="839.3" fill="#8F4432" width="53.6" height="93.8"/>
				<polygon fill="#472208" points="428.5,829.7 420.3,839.3 420.3,933.1 428.5,923.5 				"/>
				<rect x="428.5" y="829.7" fill="#8F4432" width="36.1" height="93.8"/>
				<polygon fill="#472208" points="470.2,933.1 464.6,923.5 464.6,829.7 470.2,839.3 				"/>
			</g>
			<g>
				<rect x="470.2" y="841.7" fill="#3C2415" width="53.6" height="93.8"/>
				<polygon fill="#3C2415" points="532.1,832 523.8,841.7 523.8,935.5 532.1,925.8 				"/>
				<rect x="532.1" y="832" fill="#3C2415" width="36.1" height="93.8"/>
				<polygon fill="#3C2415" points="573.8,935.5 568.2,925.8 568.2,832 573.8,841.7 				"/>
				<rect x="470.2" y="839.3" fill="#8F4432" width="53.6" height="93.8"/>
				<polygon fill="#472208" points="532.1,829.7 523.8,839.3 523.8,933.1 532.1,923.5 				"/>
				<rect x="532.1" y="829.7" fill="#8F4432" width="36.1" height="93.8"/>
				<polygon fill="#472208" points="573.8,933.1 568.2,923.5 568.2,829.7 573.8,839.3 				"/>
			</g>
			<g>
				<rect x="573.8" y="841.7" fill="#3C2415" width="53.6" height="93.8"/>
				<polygon fill="#3C2415" points="635.6,832 627.4,841.7 627.4,935.5 635.6,925.8 				"/>
				<rect x="635.6" y="832" fill="#3C2415" width="36.1" height="93.8"/>
				<polygon fill="#3C2415" points="677.4,935.5 671.7,925.8 671.7,832 677.4,841.7 				"/>
				<rect x="573.8" y="839.3" fill="#8F4432" width="53.6" height="93.8"/>
				<polygon fill="#472208" points="635.6,829.7 627.4,839.3 627.4,933.1 635.6,923.5 				"/>
				<rect x="635.6" y="829.7" fill="#8F4432" width="36.1" height="93.8"/>
				<polygon fill="#472208" points="677.4,933.1 671.7,923.5 671.7,829.7 677.4,839.3 				"/>
			</g>
		</g>
		<g>
			<g>
				<rect x="56" y="746.6" fill="#3C2415" width="53.6" height="93.8"/>
				<polygon fill="#3C2415" points="117.8,737 109.6,746.6 109.6,840.4 117.8,830.8 				"/>
				<rect x="117.8" y="737" fill="#3C2415" width="36.1" height="93.8"/>
				<polygon fill="#3C2415" points="159.5,840.4 153.9,830.8 153.9,737 159.5,746.6 				"/>
				<rect x="56" y="744.3" fill="#8F4432" width="53.6" height="93.8"/>
				<polygon fill="#472208" points="117.8,734.7 109.6,744.3 109.6,838.1 117.8,828.5 				"/>
				<rect x="117.8" y="734.7" fill="#8F4432" width="36.1" height="93.8"/>
				<polygon fill="#472208" points="159.5,838.1 153.9,828.5 153.9,734.7 159.5,744.3 				"/>
			</g>
			<g>
				<rect x="159.5" y="746.6" fill="#3C2415" width="53.6" height="93.8"/>
				<polygon fill="#3C2415" points="221.4,737 213.1,746.6 213.1,840.4 221.4,830.8 				"/>
				<rect x="221.4" y="737" fill="#3C2415" width="36.1" height="93.8"/>
				<polygon fill="#3C2415" points="263.1,840.4 257.4,830.8 257.4,737 263.1,746.6 				"/>
				<rect x="159.5" y="744.3" fill="#8F4432" width="53.6" height="93.8"/>
				<polygon fill="#472208" points="221.4,734.7 213.1,744.3 213.1,838.1 221.4,828.5 				"/>
				<rect x="221.4" y="734.7" fill="#8F4432" width="36.1" height="93.8"/>
				<polygon fill="#472208" points="263.1,838.1 257.4,828.5 257.4,734.7 263.1,744.3 				"/>
			</g>
			<g>
				<rect x="263.1" y="746.6" fill="#3C2415" width="53.6" height="93.8"/>
				<polygon fill="#3C2415" points="324.9,737 316.7,746.6 316.7,840.4 324.9,830.8 				"/>
				<rect x="324.9" y="737" fill="#3C2415" width="36.1" height="93.8"/>
				<polygon fill="#3C2415" points="366.7,840.4 361,830.8 361,737 366.7,746.6 				"/>
				<rect x="263.1" y="744.3" fill="#8F4432" width="53.6" height="93.8"/>
				<polygon fill="#472208" points="324.9,734.7 316.7,744.3 316.7,838.1 324.9,828.5 				"/>
				<rect x="324.9" y="734.7" fill="#8F4432" width="36.1" height="93.8"/>
				<polygon fill="#472208" points="366.7,838.1 361,828.5 361,734.7 366.7,744.3 				"/>
			</g>
			<g>
				<rect x="366.7" y="746.6" fill="#3C2415" width="53.6" height="93.8"/>
				<polygon fill="#3C2415" points="428.5,737 420.3,746.6 420.3,840.4 428.5,830.8 				"/>
				<rect x="428.5" y="737" fill="#3C2415" width="36.1" height="93.8"/>
				<polygon fill="#3C2415" points="470.2,840.4 464.6,830.8 464.6,737 470.2,746.6 				"/>
				<rect x="366.7" y="744.3" fill="#8F4432" width="53.6" height="93.8"/>
				<polygon fill="#472208" points="428.5,734.7 420.3,744.3 420.3,838.1 428.5,828.5 				"/>
				<rect x="428.5" y="734.7" fill="#8F4432" width="36.1" height="93.8"/>
				<polygon fill="#472208" points="470.2,838.1 464.6,828.5 464.6,734.7 470.2,744.3 				"/>
			</g>
			<g>
				<rect x="470.2" y="746.6" fill="#3C2415" width="53.6" height="93.8"/>
				<polygon fill="#3C2415" points="532.1,737 523.8,746.6 523.8,840.4 532.1,830.8 				"/>
				<rect x="532.1" y="737" fill="#3C2415" width="36.1" height="93.8"/>
				<polygon fill="#3C2415" points="573.8,840.4 568.2,830.8 568.2,737 573.8,746.6 				"/>
				<rect x="470.2" y="744.3" fill="#8F4432" width="53.6" height="93.8"/>
				<polygon fill="#472208" points="532.1,734.7 523.8,744.3 523.8,838.1 532.1,828.5 				"/>
				<rect x="532.1" y="734.7" fill="#8F4432" width="36.1" height="93.8"/>
				<polygon fill="#472208" points="573.8,838.1 568.2,828.5 568.2,734.7 573.8,744.3 				"/>
			</g>
			<g>
				<rect x="573.8" y="746.6" fill="#3C2415" width="53.6" height="93.8"/>
				<polygon fill="#3C2415" points="635.6,737 627.4,746.6 627.4,840.4 635.6,830.8 				"/>
				<rect x="635.6" y="737" fill="#3C2415" width="36.1" height="93.8"/>
				<polygon fill="#3C2415" points="677.4,840.4 671.7,830.8 671.7,737 677.4,746.6 				"/>
				<rect x="573.8" y="744.3" fill="#8F4432" width="53.6" height="93.8"/>
				<polygon fill="#472208" points="635.6,734.7 627.4,744.3 627.4,838.1 635.6,828.5 				"/>
				<rect x="635.6" y="734.7" fill="#8F4432" width="36.1" height="93.8"/>
				<polygon fill="#472208" points="677.4,838.1 671.7,828.5 671.7,734.7 677.4,744.3 				"/>
			</g>
		</g>
		<g>
			<g>
				<rect x="56" y="651.6" fill="#3C2415" width="53.6" height="93.8"/>
				<polygon fill="#3C2415" points="117.8,642 109.6,651.6 109.6,745.4 117.8,735.7 				"/>
				<rect x="117.8" y="642" fill="#3C2415" width="36.1" height="93.8"/>
				<polygon fill="#3C2415" points="159.5,745.4 153.9,735.7 153.9,642 159.5,651.6 				"/>
				<rect x="56" y="649.3" fill="#8F4432" width="53.6" height="93.8"/>
				<polygon fill="#472208" points="117.8,639.6 109.6,649.3 109.6,743.1 117.8,733.4 				"/>
				<rect x="117.8" y="639.6" fill="#8F4432" width="36.1" height="93.8"/>
				<polygon fill="#472208" points="159.5,743.1 153.9,733.4 153.9,639.6 159.5,649.3 				"/>
			</g>
			<g>
				<rect x="159.5" y="651.6" fill="#3C2415" width="53.6" height="93.8"/>
				<polygon fill="#3C2415" points="221.4,642 213.1,651.6 213.1,745.4 221.4,735.7 				"/>
				<rect x="221.4" y="642" fill="#3C2415" width="36.1" height="93.8"/>
				<polygon fill="#3C2415" points="263.1,745.4 257.4,735.7 257.4,642 263.1,651.6 				"/>
				<rect x="159.5" y="649.3" fill="#8F4432" width="53.6" height="93.8"/>
				<polygon fill="#472208" points="221.4,639.6 213.1,649.3 213.1,743.1 221.4,733.4 				"/>
				<rect x="221.4" y="639.6" fill="#8F4432" width="36.1" height="93.8"/>
				<polygon fill="#472208" points="263.1,743.1 257.4,733.4 257.4,639.6 263.1,649.3 				"/>
			</g>
			<g>
				<rect x="263.1" y="651.6" fill="#3C2415" width="53.6" height="93.8"/>
				<polygon fill="#3C2415" points="324.9,642 316.7,651.6 316.7,745.4 324.9,735.7 				"/>
				<rect x="324.9" y="642" fill="#3C2415" width="36.1" height="93.8"/>
				<polygon fill="#3C2415" points="366.7,745.4 361,735.7 361,642 366.7,651.6 				"/>
				<rect x="263.1" y="649.3" fill="#8F4432" width="53.6" height="93.8"/>
				<polygon fill="#472208" points="324.9,639.6 316.7,649.3 316.7,743.1 324.9,733.4 				"/>
				<rect x="324.9" y="639.6" fill="#8F4432" width="36.1" height="93.8"/>
				<polygon fill="#472208" points="366.7,743.1 361,733.4 361,639.6 366.7,649.3 				"/>
			</g>
			<g>
				<rect x="366.7" y="651.6" fill="#3C2415" width="53.6" height="93.8"/>
				<polygon fill="#3C2415" points="428.5,642 420.3,651.6 420.3,745.4 428.5,735.7 				"/>
				<rect x="428.5" y="642" fill="#3C2415" width="36.1" height="93.8"/>
				<polygon fill="#3C2415" points="470.2,745.4 464.6,735.7 464.6,642 470.2,651.6 				"/>
				<rect x="366.7" y="649.3" fill="#8F4432" width="53.6" height="93.8"/>
				<polygon fill="#472208" points="428.5,639.6 420.3,649.3 420.3,743.1 428.5,733.4 				"/>
				<rect x="428.5" y="639.6" fill="#8F4432" width="36.1" height="93.8"/>
				<polygon fill="#472208" points="470.2,743.1 464.6,733.4 464.6,639.6 470.2,649.3 				"/>
			</g>
			<g>
				<rect x="470.2" y="651.6" fill="#3C2415" width="53.6" height="93.8"/>
				<polygon fill="#3C2415" points="532.1,642 523.8,651.6 523.8,745.4 532.1,735.7 				"/>
				<rect x="532.1" y="642" fill="#3C2415" width="36.1" height="93.8"/>
				<polygon fill="#3C2415" points="573.8,745.4 568.2,735.7 568.2,642 573.8,651.6 				"/>
				<rect x="470.2" y="649.3" fill="#8F4432" width="53.6" height="93.8"/>
				<polygon fill="#472208" points="532.1,639.6 523.8,649.3 523.8,743.1 532.1,733.4 				"/>
				<rect x="532.1" y="639.6" fill="#8F4432" width="36.1" height="93.8"/>
				<polygon fill="#472208" points="573.8,743.1 568.2,733.4 568.2,639.6 573.8,649.3 				"/>
			</g>
			<g>
				<rect x="573.8" y="651.6" fill="#3C2415" width="53.6" height="93.8"/>
				<polygon fill="#3C2415" points="635.6,642 627.4,651.6 627.4,745.4 635.6,735.7 				"/>
				<rect x="635.6" y="642" fill="#3C2415" width="36.1" height="93.8"/>
				<polygon fill="#3C2415" points="677.4,745.4 671.7,735.7 671.7,642 677.4,651.6 				"/>
				<rect x="573.8" y="649.3" fill="#8F4432" width="53.6" height="93.8"/>
				<polygon fill="#472208" points="635.6,639.6 627.4,649.3 627.4,743.1 635.6,733.4 				"/>
				<rect x="635.6" y="639.6" fill="#8F4432" width="36.1" height="93.8"/>
				<polygon fill="#472208" points="677.4,743.1 671.7,733.4 671.7,639.6 677.4,649.3 				"/>
			</g>
		</g>
	</g>
	<g>
		<g>
			<g>
				<rect x="724.8" y="791.2" fill="#3C2415" width="16.3" height="144.4"/>
				<polygon fill="#3C2415" points="749.9,783.9 741.1,791.2 741.1,935.6 749.9,928.3 				"/>
				<rect x="749.9" y="783.9" fill="#3C2415" width="16.6" height="144.4"/>
				<polygon fill="#3C2415" points="772.5,935.6 766.5,928.3 766.5,783.9 772.5,791.2 				"/>
				<rect x="724.8" y="788.8" fill="#EF4136" width="16.3" height="144.4"/>
				<polygon fill="#A53624" points="749.9,781.6 741.1,788.8 741.1,933.3 749.9,926 				"/>
				<rect x="749.9" y="781.6" fill="#EF4136" width="16.6" height="144.4"/>
				<polygon fill="#A53624" points="772.5,933.3 766.5,926 766.5,781.6 772.5,788.8 				"/>
			</g>
			<g>
				<rect x="772.5" y="791.2" fill="#3C2415" width="16.3" height="144.4"/>
				<polygon fill="#3C2415" points="797.6,783.9 788.8,791.2 788.8,935.6 797.6,928.3 				"/>
				<rect x="797.6" y="783.9" fill="#3C2415" width="16.6" height="144.4"/>
				<polygon fill="#3C2415" points="820.2,935.6 814.2,928.3 814.2,783.9 820.2,791.2 				"/>
				<rect x="772.5" y="788.8" fill="#EF4136" width="16.3" height="144.4"/>
				<polygon fill="#A53624" points="797.6,781.6 788.8,788.8 788.8,933.3 797.6,926 				"/>
				<rect x="797.6" y="781.6" fill="#EF4136" width="16.6" height="144.4"/>
				<polygon fill="#A53624" points="820.2,933.3 814.2,926 814.2,781.6 820.2,788.8 				"/>
			</g>
			<g>
				<rect x="820.2" y="791.2" fill="#3C2415" width="16.3" height="144.4"/>
				<polygon fill="#3C2415" points="845.3,783.9 836.6,791.2 836.6,935.6 845.3,928.3 				"/>
				<rect x="845.3" y="783.9" fill="#3C2415" width="16.6" height="144.4"/>
				<polygon fill="#3C2415" points="867.9,935.6 861.9,928.3 861.9,783.9 867.9,791.2 				"/>
				<rect x="820.2" y="788.8" fill="#EF4136" width="16.3" height="144.4"/>
				<polygon fill="#A53624" points="845.3,781.6 836.6,788.8 836.6,933.3 845.3,926 				"/>
				<rect x="845.3" y="781.6" fill="#EF4136" width="16.6" height="144.4"/>
				<polygon fill="#A53624" points="867.9,933.3 861.9,926 861.9,781.6 867.9,788.8 				"/>
			</g>
			<g>
				<rect x="867.9" y="791.2" fill="#3C2415" width="16.3" height="144.4"/>
				<polygon fill="#3C2415" points="893,783.9 884.3,791.2 884.3,935.6 893,928.3 				"/>
				<rect x="893" y="783.9" fill="#3C2415" width="16.6" height="144.4"/>
				<polygon fill="#3C2415" points="915.7,935.6 909.6,928.3 909.6,783.9 915.7,791.2 				"/>
				<rect x="867.9" y="788.8" fill="#EF4136" width="16.3" height="144.4"/>
				<polygon fill="#A53624" points="893,781.6 884.3,788.8 884.3,933.3 893,926 				"/>
				<rect x="893" y="781.6" fill="#EF4136" width="16.6" height="144.4"/>
				<polygon fill="#A53624" points="915.7,933.3 909.6,926 909.6,781.6 915.7,788.8 				"/>
			</g>
			<g>
				<rect x="915.7" y="791.2" fill="#3C2415" width="16.3" height="144.4"/>
				<polygon fill="#3C2415" points="940.7,783.9 932,791.2 932,935.6 940.7,928.3 				"/>
				<rect x="940.7" y="783.9" fill="#3C2415" width="16.6" height="144.4"/>
				<polygon fill="#3C2415" points="963.4,935.6 957.3,928.3 957.3,783.9 963.4,791.2 				"/>
				<rect x="915.7" y="788.8" fill="#EF4136" width="16.3" height="144.4"/>
				<polygon fill="#A53624" points="940.7,781.6 932,788.8 932,933.3 940.7,926 				"/>
				<rect x="940.7" y="781.6" fill="#EF4136" width="16.6" height="144.4"/>
				<polygon fill="#A53624" points="963.4,933.3 957.3,926 957.3,781.6 963.4,788.8 				"/>
			</g>
			<g>
				<rect x="963.4" y="791.2" fill="#3C2415" width="16.3" height="144.4"/>
				<polygon fill="#3C2415" points="988.5,783.9 979.7,791.2 979.7,935.6 988.5,928.3 				"/>
				<rect x="988.5" y="783.9" fill="#3C2415" width="16.6" height="144.4"/>
				<polygon fill="#3C2415" points="1011.1,935.6 1005.1,928.3 1005.1,783.9 1011.1,791.2 				"/>
				<rect x="963.4" y="788.8" fill="#EF4136" width="16.3" height="144.4"/>
				<polygon fill="#A53624" points="988.5,781.6 979.7,788.8 979.7,933.3 988.5,926 				"/>
				<rect x="988.5" y="781.6" fill="#EF4136" width="16.6" height="144.4"/>
				<polygon fill="#A53624" points="1011.1,933.3 1005.1,926 1005.1,781.6 1011.1,788.8 				"/>
			</g>
			<g>
				<rect x="1011.1" y="791.2" fill="#3C2415" width="16.3" height="144.4"/>
				<polygon fill="#3C2415" points="1036.2,783.9 1027.4,791.2 1027.4,935.6 1036.2,928.3 				"/>
				<rect x="1036.2" y="783.9" fill="#3C2415" width="16.6" height="144.4"/>
				<polygon fill="#3C2415" points="1058.8,935.6 1052.8,928.3 1052.8,783.9 1058.8,791.2 				"/>
				<rect x="1011.1" y="788.8" fill="#EF4136" width="16.3" height="144.4"/>
				<polygon fill="#A53624" points="1036.2,781.6 1027.4,788.8 1027.4,933.3 1036.2,926 				"/>
				<rect x="1036.2" y="781.6" fill="#EF4136" width="16.6" height="144.4"/>
				<polygon fill="#A53624" points="1058.8,933.3 1052.8,926 1052.8,781.6 1058.8,788.8 				"/>
			</g>
			<g>
				<rect x="1058.8" y="791.2" fill="#3C2415" width="16.3" height="144.4"/>
				<polygon fill="#3C2415" points="1083.9,783.9 1075.1,791.2 1075.1,935.6 1083.9,928.3 				"/>
				<rect x="1083.9" y="783.9" fill="#3C2415" width="16.6" height="144.4"/>
				<polygon fill="#3C2415" points="1106.5,935.6 1100.5,928.3 1100.5,783.9 1106.5,791.2 				"/>
				<rect x="1058.8" y="788.8" fill="#EF4136" width="16.3" height="144.4"/>
				<polygon fill="#A53624" points="1083.9,781.6 1075.1,788.8 1075.1,933.3 1083.9,926 				"/>
				<rect x="1083.9" y="781.6" fill="#EF4136" width="16.6" height="144.4"/>
				<polygon fill="#A53624" points="1106.5,933.3 1100.5,926 1100.5,781.6 1106.5,788.8 				"/>
			</g>
			<g>
				<rect x="1106.5" y="791.2" fill="#3C2415" width="16.3" height="144.4"/>
				<polygon fill="#3C2415" points="1131.6,783.9 1122.8,791.2 1122.8,935.6 1131.6,928.3 				"/>
				<rect x="1131.6" y="783.9" fill="#3C2415" width="16.6" height="144.4"/>
				<polygon fill="#3C2415" points="1154.2,935.6 1148.2,928.3 1148.2,783.9 1154.2,791.2 				"/>
				<rect x="1106.5" y="788.8" fill="#EF4136" width="16.3" height="144.4"/>
				<polygon fill="#A53624" points="1131.6,781.6 1122.8,788.8 1122.8,933.3 1131.6,926 				"/>
				<rect x="1131.6" y="781.6" fill="#EF4136" width="16.6" height="144.4"/>
				<polygon fill="#A53624" points="1154.2,933.3 1148.2,926 1148.2,781.6 1154.2,788.8 				"/>
			</g>
			<g>
				<rect x="1154.2" y="791.2" fill="#3C2415" width="16.3" height="144.4"/>
				<polygon fill="#3C2415" points="1179.3,783.9 1170.6,791.2 1170.6,935.6 1179.3,928.3 				"/>
				<rect x="1179.3" y="783.9" fill="#3C2415" width="16.6" height="144.4"/>
				<polygon fill="#3C2415" points="1202,935.6 1195.9,928.3 1195.9,783.9 1202,791.2 				"/>
				<rect x="1154.2" y="788.8" fill="#EF4136" width="16.3" height="144.4"/>
				<polygon fill="#A53624" points="1179.3,781.6 1170.6,788.8 1170.6,933.3 1179.3,926 				"/>
				<rect x="1179.3" y="781.6" fill="#EF4136" width="16.6" height="144.4"/>
				<polygon fill="#A53624" points="1202,933.3 1195.9,926 1195.9,781.6 1202,788.8 				"/>
			</g>
			<g>
				<rect x="1202" y="791.2" fill="#3C2415" width="16.3" height="144.4"/>
				<polygon fill="#3C2415" points="1227,783.9 1218.3,791.2 1218.3,935.6 1227,928.3 				"/>
				<rect x="1227" y="783.9" fill="#3C2415" width="16.6" height="144.4"/>
				<polygon fill="#3C2415" points="1249.7,935.6 1243.6,928.3 1243.6,783.9 1249.7,791.2 				"/>
				<rect x="1202" y="788.8" fill="#EF4136" width="16.3" height="144.4"/>
				<polygon fill="#A53624" points="1227,781.6 1218.3,788.8 1218.3,933.3 1227,926 				"/>
				<rect x="1227" y="781.6" fill="#EF4136" width="16.6" height="144.4"/>
				<polygon fill="#A53624" points="1249.7,933.3 1243.6,926 1243.6,781.6 1249.7,788.8 				"/>
			</g>
			<g>
				<rect x="1249.7" y="791.2" fill="#3C2415" width="16.3" height="144.4"/>
				<polygon fill="#3C2415" points="1274.8,783.9 1266,791.2 1266,935.6 1274.8,928.3 				"/>
				<rect x="1274.8" y="783.9" fill="#3C2415" width="16.6" height="144.4"/>
				<polygon fill="#3C2415" points="1297.4,935.6 1291.4,928.3 1291.4,783.9 1297.4,791.2 				"/>
				<rect x="1249.7" y="788.8" fill="#EF4136" width="16.3" height="144.4"/>
				<polygon fill="#A53624" points="1274.8,781.6 1266,788.8 1266,933.3 1274.8,926 				"/>
				<rect x="1274.8" y="781.6" fill="#EF4136" width="16.6" height="144.4"/>
				<polygon fill="#A53624" points="1297.4,933.3 1291.4,926 1291.4,781.6 1297.4,788.8 				"/>
			</g>
			<g>
				<rect x="1297.4" y="791.2" fill="#3C2415" width="16.3" height="144.4"/>
				<polygon fill="#3C2415" points="1322.5,783.9 1313.7,791.2 1313.7,935.6 1322.5,928.3 				"/>
				<rect x="1322.5" y="783.9" fill="#3C2415" width="16.6" height="144.4"/>
				<polygon fill="#3C2415" points="1345.1,935.6 1339.1,928.3 1339.1,783.9 1345.1,791.2 				"/>
				<rect x="1297.4" y="788.8" fill="#EF4136" width="16.3" height="144.4"/>
				<polygon fill="#A53624" points="1322.5,781.6 1313.7,788.8 1313.7,933.3 1322.5,926 				"/>
				<rect x="1322.5" y="781.6" fill="#EF4136" width="16.6" height="144.4"/>
				<polygon fill="#A53624" points="1345.1,933.3 1339.1,926 1339.1,781.6 1345.1,788.8 				"/>
			</g>
		</g>
		<g>
			<g>
				<rect x="724.8" y="649.2" fill="#3C2415" width="16.3" height="144.4"/>
				<polygon fill="#3C2415" points="749.9,642 741.1,649.2 741.1,793.7 749.9,786.4 				"/>
				<rect x="749.9" y="642" fill="#3C2415" width="16.6" height="144.4"/>
				<polygon fill="#3C2415" points="772.5,793.7 766.5,786.4 766.5,642 772.5,649.2 				"/>
				<rect x="724.8" y="646.9" fill="#EF4136" width="16.3" height="144.4"/>
				<polygon fill="#A53624" points="749.9,639.6 741.1,646.9 741.1,791.3 749.9,784.1 				"/>
				<rect x="749.9" y="639.6" fill="#EF4136" width="16.6" height="144.4"/>
				<polygon fill="#A53624" points="772.5,791.3 766.5,784.1 766.5,639.6 772.5,646.9 				"/>
			</g>
			<g>
				<rect x="772.5" y="649.2" fill="#3C2415" width="16.3" height="144.4"/>
				<polygon fill="#3C2415" points="797.6,642 788.8,649.2 788.8,793.7 797.6,786.4 				"/>
				<rect x="797.6" y="642" fill="#3C2415" width="16.6" height="144.4"/>
				<polygon fill="#3C2415" points="820.2,793.7 814.2,786.4 814.2,642 820.2,649.2 				"/>
				<rect x="772.5" y="646.9" fill="#EF4136" width="16.3" height="144.4"/>
				<polygon fill="#A53624" points="797.6,639.6 788.8,646.9 788.8,791.3 797.6,784.1 				"/>
				<rect x="797.6" y="639.6" fill="#EF4136" width="16.6" height="144.4"/>
				<polygon fill="#A53624" points="820.2,791.3 814.2,784.1 814.2,639.6 820.2,646.9 				"/>
			</g>
			<g>
				<rect x="820.2" y="649.2" fill="#3C2415" width="16.3" height="144.4"/>
				<polygon fill="#3C2415" points="845.3,642 836.6,649.2 836.6,793.7 845.3,786.4 				"/>
				<rect x="845.3" y="642" fill="#3C2415" width="16.6" height="144.4"/>
				<polygon fill="#3C2415" points="867.9,793.7 861.9,786.4 861.9,642 867.9,649.2 				"/>
				<rect x="820.2" y="646.9" fill="#EF4136" width="16.3" height="144.4"/>
				<polygon fill="#A53624" points="845.3,639.6 836.6,646.9 836.6,791.3 845.3,784.1 				"/>
				<rect x="845.3" y="639.6" fill="#EF4136" width="16.6" height="144.4"/>
				<polygon fill="#A53624" points="867.9,791.3 861.9,784.1 861.9,639.6 867.9,646.9 				"/>
			</g>
			<g>
				<rect x="867.9" y="649.2" fill="#3C2415" width="16.3" height="144.4"/>
				<polygon fill="#3C2415" points="893,642 884.3,649.2 884.3,793.7 893,786.4 				"/>
				<rect x="893" y="642" fill="#3C2415" width="16.6" height="144.4"/>
				<polygon fill="#3C2415" points="915.7,793.7 909.6,786.4 909.6,642 915.7,649.2 				"/>
				<rect x="867.9" y="646.9" fill="#EF4136" width="16.3" height="144.4"/>
				<polygon fill="#A53624" points="893,639.6 884.3,646.9 884.3,791.3 893,784.1 				"/>
				<rect x="893" y="639.6" fill="#EF4136" width="16.6" height="144.4"/>
				<polygon fill="#A53624" points="915.7,791.3 909.6,784.1 909.6,639.6 915.7,646.9 				"/>
			</g>
			<g>
				<rect x="915.7" y="649.2" fill="#3C2415" width="16.3" height="144.4"/>
				<polygon fill="#3C2415" points="940.7,642 932,649.2 932,793.7 940.7,786.4 				"/>
				<rect x="940.7" y="642" fill="#3C2415" width="16.6" height="144.4"/>
				<polygon fill="#3C2415" points="963.4,793.7 957.3,786.4 957.3,642 963.4,649.2 				"/>
				<rect x="915.7" y="646.9" fill="#EF4136" width="16.3" height="144.4"/>
				<polygon fill="#A53624" points="940.7,639.6 932,646.9 932,791.3 940.7,784.1 				"/>
				<rect x="940.7" y="639.6" fill="#EF4136" width="16.6" height="144.4"/>
				<polygon fill="#A53624" points="963.4,791.3 957.3,784.1 957.3,639.6 963.4,646.9 				"/>
			</g>
			<g>
				<rect x="963.4" y="649.2" fill="#3C2415" width="16.3" height="144.4"/>
				<polygon fill="#3C2415" points="988.5,642 979.7,649.2 979.7,793.7 988.5,786.4 				"/>
				<rect x="988.5" y="642" fill="#3C2415" width="16.6" height="144.4"/>
				<polygon fill="#3C2415" points="1011.1,793.7 1005.1,786.4 1005.1,642 1011.1,649.2 				"/>
				<rect x="963.4" y="646.9" fill="#EF4136" width="16.3" height="144.4"/>
				<polygon fill="#A53624" points="988.5,639.6 979.7,646.9 979.7,791.3 988.5,784.1 				"/>
				<rect x="988.5" y="639.6" fill="#EF4136" width="16.6" height="144.4"/>
				<polygon fill="#A53624" points="1011.1,791.3 1005.1,784.1 1005.1,639.6 1011.1,646.9 				"/>
			</g>
			<g>
				<rect x="1011.1" y="649.2" fill="#3C2415" width="16.3" height="144.4"/>
				<polygon fill="#3C2415" points="1036.2,642 1027.4,649.2 1027.4,793.7 1036.2,786.4 				"/>
				<rect x="1036.2" y="642" fill="#3C2415" width="16.6" height="144.4"/>
				<polygon fill="#3C2415" points="1058.8,793.7 1052.8,786.4 1052.8,642 1058.8,649.2 				"/>
				<rect x="1011.1" y="646.9" fill="#EF4136" width="16.3" height="144.4"/>
				<polygon fill="#A53624" points="1036.2,639.6 1027.4,646.9 1027.4,791.3 1036.2,784.1 				"/>
				<rect x="1036.2" y="639.6" fill="#EF4136" width="16.6" height="144.4"/>
				<polygon fill="#A53624" points="1058.8,791.3 1052.8,784.1 1052.8,639.6 1058.8,646.9 				"/>
			</g>
			<g>
				<rect x="1058.8" y="649.2" fill="#3C2415" width="16.3" height="144.4"/>
				<polygon fill="#3C2415" points="1083.9,642 1075.1,649.2 1075.1,793.7 1083.9,786.4 				"/>
				<rect x="1083.9" y="642" fill="#3C2415" width="16.6" height="144.4"/>
				<polygon fill="#3C2415" points="1106.5,793.7 1100.5,786.4 1100.5,642 1106.5,649.2 				"/>
				<rect x="1058.8" y="646.9" fill="#EF4136" width="16.3" height="144.4"/>
				<polygon fill="#A53624" points="1083.9,639.6 1075.1,646.9 1075.1,791.3 1083.9,784.1 				"/>
				<rect x="1083.9" y="639.6" fill="#EF4136" width="16.6" height="144.4"/>
				<polygon fill="#A53624" points="1106.5,791.3 1100.5,784.1 1100.5,639.6 1106.5,646.9 				"/>
			</g>
			<g>
				<rect x="1106.5" y="649.2" fill="#3C2415" width="16.3" height="144.4"/>
				<polygon fill="#3C2415" points="1131.6,642 1122.8,649.2 1122.8,793.7 1131.6,786.4 				"/>
				<rect x="1131.6" y="642" fill="#3C2415" width="16.6" height="144.4"/>
				<polygon fill="#3C2415" points="1154.2,793.7 1148.2,786.4 1148.2,642 1154.2,649.2 				"/>
				<rect x="1106.5" y="646.9" fill="#EF4136" width="16.3" height="144.4"/>
				<polygon fill="#A53624" points="1131.6,639.6 1122.8,646.9 1122.8,791.3 1131.6,784.1 				"/>
				<rect x="1131.6" y="639.6" fill="#EF4136" width="16.6" height="144.4"/>
				<polygon fill="#A53624" points="1154.2,791.3 1148.2,784.1 1148.2,639.6 1154.2,646.9 				"/>
			</g>
			<g>
				<rect x="1154.2" y="649.2" fill="#3C2415" width="16.3" height="144.4"/>
				<polygon fill="#3C2415" points="1179.3,642 1170.6,649.2 1170.6,793.7 1179.3,786.4 				"/>
				<rect x="1179.3" y="642" fill="#3C2415" width="16.6" height="144.4"/>
				<polygon fill="#3C2415" points="1202,793.7 1195.9,786.4 1195.9,642 1202,649.2 				"/>
				<rect x="1154.2" y="646.9" fill="#EF4136" width="16.3" height="144.4"/>
				<polygon fill="#A53624" points="1179.3,639.6 1170.6,646.9 1170.6,791.3 1179.3,784.1 				"/>
				<rect x="1179.3" y="639.6" fill="#EF4136" width="16.6" height="144.4"/>
				<polygon fill="#A53624" points="1202,791.3 1195.9,784.1 1195.9,639.6 1202,646.9 				"/>
			</g>
			<g>
				<rect x="1202" y="649.2" fill="#3C2415" width="16.3" height="144.4"/>
				<polygon fill="#3C2415" points="1227,642 1218.3,649.2 1218.3,793.7 1227,786.4 				"/>
				<rect x="1227" y="642" fill="#3C2415" width="16.6" height="144.4"/>
				<polygon fill="#3C2415" points="1249.7,793.7 1243.6,786.4 1243.6,642 1249.7,649.2 				"/>
				<rect x="1202" y="646.9" fill="#EF4136" width="16.3" height="144.4"/>
				<polygon fill="#A53624" points="1227,639.6 1218.3,646.9 1218.3,791.3 1227,784.1 				"/>
				<rect x="1227" y="639.6" fill="#EF4136" width="16.6" height="144.4"/>
				<polygon fill="#A53624" points="1249.7,791.3 1243.6,784.1 1243.6,639.6 1249.7,646.9 				"/>
			</g>
			<g>
				<rect x="1249.7" y="649.2" fill="#3C2415" width="16.3" height="144.4"/>
				<polygon fill="#3C2415" points="1274.8,642 1266,649.2 1266,793.7 1274.8,786.4 				"/>
				<rect x="1274.8" y="642" fill="#3C2415" width="16.6" height="144.4"/>
				<polygon fill="#3C2415" points="1297.4,793.7 1291.4,786.4 1291.4,642 1297.4,649.2 				"/>
				<rect x="1249.7" y="646.9" fill="#EF4136" width="16.3" height="144.4"/>
				<polygon fill="#A53624" points="1274.8,639.6 1266,646.9 1266,791.3 1274.8,784.1 				"/>
				<rect x="1274.8" y="639.6" fill="#EF4136" width="16.6" height="144.4"/>
				<polygon fill="#A53624" points="1297.4,791.3 1291.4,784.1 1291.4,639.6 1297.4,646.9 				"/>
			</g>
			<g>
				<rect x="1297.4" y="649.2" fill="#3C2415" width="16.3" height="144.4"/>
				<polygon fill="#3C2415" points="1322.5,642 1313.7,649.2 1313.7,793.7 1322.5,786.4 				"/>
				<rect x="1322.5" y="642" fill="#3C2415" width="16.6" height="144.4"/>
				<polygon fill="#3C2415" points="1345.1,793.7 1339.1,786.4 1339.1,642 1345.1,649.2 				"/>
				<rect x="1297.4" y="646.9" fill="#EF4136" width="16.3" height="144.4"/>
				<polygon fill="#A53624" points="1322.5,639.6 1313.7,646.9 1313.7,791.3 1322.5,784.1 				"/>
				<rect x="1322.5" y="639.6" fill="#EF4136" width="16.6" height="144.4"/>
				<polygon fill="#A53624" points="1345.1,791.3 1339.1,784.1 1339.1,639.6 1345.1,646.9 				"/>
			</g>
		</g>
	</g>
	<g>
		<g>
			<polygon fill="#472208" points="54.9,242.2 54.9,329.2 87.8,303.9 87.8,242.2 			"/>
			<polygon fill="#704025" points="54.9,237.5 54.9,324.5 87.8,299.2 87.8,237.5 			"/>
			<polygon fill="#472208" points="122.6,242.2 87.8,242.2 87.8,303.9 122.6,330.7 157.5,303.9 157.5,242.2 			"/>
			<polygon fill="#66391F" points="122.6,237.5 87.8,237.5 87.8,299.2 122.6,326 157.5,299.2 157.5,237.5 			"/>
			<polygon fill="#472208" points="192.3,242.2 157.5,242.2 157.5,303.9 192.3,330.7 227.2,303.9 227.2,242.2 			"/>
			<polygon fill="#704025" points="192.3,237.5 157.5,237.5 157.5,299.2 192.3,326 227.2,299.2 227.2,237.5 			"/>
			<polygon fill="#472208" points="262.1,242.2 227.2,242.2 227.2,303.9 262.1,330.7 296.9,303.9 296.9,242.2 			"/>
			<polygon fill="#66391F" points="262.1,237.5 227.2,237.5 227.2,299.2 262.1,326 296.9,299.2 296.9,237.5 			"/>
			<polygon fill="#472208" points="331.8,242.2 296.9,242.2 296.9,303.9 331.8,330.7 366.7,303.9 366.7,242.2 			"/>
			<polygon fill="#704025" points="331.8,237.5 296.9,237.5 296.9,299.2 331.8,326 366.7,299.2 366.7,237.5 			"/>
			<polygon fill="#472208" points="401.5,242.2 366.7,242.2 366.7,303.9 401.5,330.7 436.4,303.9 436.4,242.2 			"/>
			<polygon fill="#66391F" points="401.5,237.5 366.7,237.5 366.7,299.2 401.5,326 436.4,299.2 436.4,237.5 			"/>
			<polygon fill="#472208" points="471.3,242.2 436.4,242.2 436.4,303.9 471.3,330.7 506.1,303.9 506.1,242.2 			"/>
			<polygon fill="#704025" points="471.3,237.5 436.4,237.5 436.4,299.2 471.3,326 506.1,299.2 506.1,237.5 			"/>
			<polygon fill="#472208" points="541,242.2 506.1,242.2 506.1,303.9 541,330.7 575.9,303.9 575.9,242.2 			"/>
			<polygon fill="#66391F" points="541,237.5 506.1,237.5 506.1,299.2 541,326 575.9,299.2 575.9,237.5 			"/>
			<polygon fill="#472208" points="610.7,242.2 575.9,242.2 575.9,303.9 610.7,330.7 645.6,303.9 645.6,242.2 			"/>
			<polygon fill="#704025" points="610.7,237.5 575.9,237.5 575.9,299.2 610.7,326 645.6,299.2 645.6,237.5 			"/>
			<polygon fill="#472208" points="678.4,242.2 645.6,242.2 645.6,303.9 678.4,329.2 			"/>
			<polygon fill="#66391F" points="678.4,237.5 645.6,237.5 645.6,299.2 678.4,324.5 			"/>
		</g>
		<g>
			<polygon fill="#472208" points="54.9,177.8 54.9,241.1 87.8,266.3 122.6,239.5 122.6,177.8 			"/>
			<polygon fill="#704025" points="54.9,173.1 54.9,236.4 87.8,261.6 122.6,234.8 122.6,173.1 			"/>
			<polygon fill="#472208" points="157.5,177.8 122.6,177.8 122.6,239.5 157.5,266.3 192.3,239.5 192.3,177.8 			"/>
			<polygon fill="#66391F" points="157.5,173.1 122.6,173.1 122.6,234.8 157.5,261.6 192.3,234.8 192.3,173.1 			"/>
			<polygon fill="#472208" points="227.2,177.8 192.3,177.8 192.3,239.5 227.2,266.3 262.1,239.5 262.1,177.8 			"/>
			<polygon fill="#704025" points="227.2,173.1 192.3,173.1 192.3,234.8 227.2,261.6 262.1,234.8 262.1,173.1 			"/>
			<polygon fill="#472208" points="296.9,177.8 262.1,177.8 262.1,239.5 296.9,266.3 331.8,239.5 331.8,177.8 			"/>
			<polygon fill="#66391F" points="296.9,173.1 262.1,173.1 262.1,234.8 296.9,261.6 331.8,234.8 331.8,173.1 			"/>
			<polygon fill="#472208" points="366.7,177.8 331.8,177.8 331.8,239.5 366.7,266.3 401.5,239.5 401.5,177.8 			"/>
			<polygon fill="#704025" points="366.7,173.1 331.8,173.1 331.8,234.8 366.7,261.6 401.5,234.8 401.5,173.1 			"/>
			<polygon fill="#472208" points="436.4,177.8 401.5,177.8 401.5,239.5 436.4,266.3 471.3,239.5 471.3,177.8 			"/>
			<polygon fill="#66391F" points="436.4,173.1 401.5,173.1 401.5,234.8 436.4,261.6 471.3,234.8 471.3,173.1 			"/>
			<polygon fill="#472208" points="506.1,177.8 471.3,177.8 471.3,239.5 506.1,266.3 541,239.5 541,177.8 			"/>
			<polygon fill="#704025" points="506.1,173.1 471.3,173.1 471.3,234.8 506.1,261.6 541,234.8 541,173.1 			"/>
			<polygon fill="#472208" points="575.9,177.8 541,177.8 541,239.5 575.9,266.3 610.7,239.5 610.7,177.8 			"/>
			<polygon fill="#66391F" points="575.9,173.1 541,173.1 541,234.8 575.9,261.6 610.7,234.8 610.7,173.1 			"/>
			<polygon fill="#472208" points="678.4,177.8 610.7,177.8 610.7,239.5 645.6,266.3 678.4,241.1 			"/>
			<polygon fill="#704025" points="678.4,173.1 610.7,173.1 610.7,234.8 645.6,261.6 678.4,236.4 			"/>
		</g>
		<g>
			<polygon fill="#472208" points="54.9,113.5 54.9,200.4 87.8,175.1 87.8,113.5 			"/>
			<polygon fill="#704025" points="54.9,108.8 54.9,195.7 87.8,170.5 87.8,108.8 			"/>
			<polygon fill="#472208" points="122.6,113.5 87.8,113.5 87.8,175.1 122.6,202 157.5,175.1 157.5,113.5 			"/>
			<polygon fill="#66391F" points="122.6,108.8 87.8,108.8 87.8,170.5 122.6,197.3 157.5,170.5 157.5,108.8 			"/>
			<polygon fill="#472208" points="192.3,113.5 157.5,113.5 157.5,175.1 192.3,202 227.2,175.1 227.2,113.5 			"/>
			<polygon fill="#704025" points="192.3,108.8 157.5,108.8 157.5,170.5 192.3,197.3 227.2,170.5 227.2,108.8 			"/>
			<polygon fill="#472208" points="262.1,113.5 227.2,113.5 227.2,175.1 262.1,202 296.9,175.1 296.9,113.5 			"/>
			<polygon fill="#66391F" points="262.1,108.8 227.2,108.8 227.2,170.5 262.1,197.3 296.9,170.5 296.9,108.8 			"/>
			<polygon fill="#472208" points="331.8,113.5 296.9,113.5 296.9,175.1 331.8,202 366.7,175.1 366.7,113.5 			"/>
			<polygon fill="#704025" points="331.8,108.8 296.9,108.8 296.9,170.5 331.8,197.3 366.7,170.5 366.7,108.8 			"/>
			<polygon fill="#472208" points="401.5,113.5 366.7,113.5 366.7,175.1 401.5,202 436.4,175.1 436.4,113.5 			"/>
			<polygon fill="#66391F" points="401.5,108.8 366.7,108.8 366.7,170.5 401.5,197.3 436.4,170.5 436.4,108.8 			"/>
			<polygon fill="#472208" points="471.3,113.5 436.4,113.5 436.4,175.1 471.3,202 506.1,175.1 506.1,113.5 			"/>
			<polygon fill="#704025" points="471.3,108.8 436.4,108.8 436.4,170.5 471.3,197.3 506.1,170.5 506.1,108.8 			"/>
			<polygon fill="#472208" points="541,113.5 506.1,113.5 506.1,175.1 541,202 575.9,175.1 575.9,113.5 			"/>
			<polygon fill="#66391F" points="541,108.8 506.1,108.8 506.1,170.5 541,197.3 575.9,170.5 575.9,108.8 			"/>
			<polygon fill="#472208" points="610.7,113.5 575.9,113.5 575.9,175.1 610.7,202 645.6,175.1 645.6,113.5 			"/>
			<polygon fill="#704025" points="610.7,108.8 575.9,108.8 575.9,170.5 610.7,197.3 645.6,170.5 645.6,108.8 			"/>
			<polygon fill="#472208" points="678.4,113.5 645.6,113.5 645.6,175.1 678.4,200.4 			"/>
			<polygon fill="#66391F" points="678.4,108.8 645.6,108.8 645.6,170.5 678.4,195.7 			"/>
		</g>
		<g>
			<polygon fill="#472208" points="54.9,49.1 54.9,112.3 87.8,137.6 122.6,110.8 122.6,49.1 			"/>
			<polygon fill="#704025" points="54.9,44.4 54.9,107.6 87.8,132.9 122.6,106.1 122.6,44.4 			"/>
			<polygon fill="#472208" points="157.5,49.1 122.6,49.1 122.6,110.8 157.5,137.6 192.3,110.8 192.3,49.1 			"/>
			<polygon fill="#66391F" points="157.5,44.4 122.6,44.4 122.6,106.1 157.5,132.9 192.3,106.1 192.3,44.4 			"/>
			<polygon fill="#472208" points="227.2,49.1 192.3,49.1 192.3,110.8 227.2,137.6 262.1,110.8 262.1,49.1 			"/>
			<polygon fill="#704025" points="227.2,44.4 192.3,44.4 192.3,106.1 227.2,132.9 262.1,106.1 262.1,44.4 			"/>
			<polygon fill="#472208" points="296.9,49.1 262.1,49.1 262.1,110.8 296.9,137.6 331.8,110.8 331.8,49.1 			"/>
			<polygon fill="#66391F" points="296.9,44.4 262.1,44.4 262.1,106.1 296.9,132.9 331.8,106.1 331.8,44.4 			"/>
			<polygon fill="#472208" points="366.7,49.1 331.8,49.1 331.8,110.8 366.7,137.6 401.5,110.8 401.5,49.1 			"/>
			<polygon fill="#704025" points="366.7,44.4 331.8,44.4 331.8,106.1 366.7,132.9 401.5,106.1 401.5,44.4 			"/>
			<polygon fill="#472208" points="436.4,49.1 401.5,49.1 401.5,110.8 436.4,137.6 471.3,110.8 471.3,49.1 			"/>
			<polygon fill="#66391F" points="436.4,44.4 401.5,44.4 401.5,106.1 436.4,132.9 471.3,106.1 471.3,44.4 			"/>
			<polygon fill="#472208" points="506.1,49.1 471.3,49.1 471.3,110.8 506.1,137.6 541,110.8 541,49.1 			"/>
			<polygon fill="#704025" points="506.1,44.4 471.3,44.4 471.3,106.1 506.1,132.9 541,106.1 541,44.4 			"/>
			<polygon fill="#472208" points="575.9,49.1 541,49.1 541,110.8 575.9,137.6 610.7,110.8 610.7,49.1 			"/>
			<polygon fill="#66391F" points="575.9,44.4 541,44.4 541,106.1 575.9,132.9 610.7,106.1 610.7,44.4 			"/>
			<polygon fill="#472208" points="678.4,49.1 610.7,49.1 610.7,110.8 645.6,137.6 678.4,112.3 			"/>
			<polygon fill="#704025" points="678.4,44.4 610.7,44.4 610.7,106.1 645.6,132.9 678.4,107.6 			"/>
		</g>
	</g>
	<g>
		<g>
			<path fill="#472208" d="M724.8,542.7v82.1h12.7c11.3,0,20.5-9.1,20.5-20.4v-61.7H724.8z"/>
			<path fill="#704025" d="M724.8,538.3v82.1h12.7c11.3,0,20.5-9.1,20.5-20.4v-61.7H724.8z"/>
			<path fill="#472208" d="M758,542.7v61.7c0,11.3,9.2,20.4,20.5,20.4h28.1c11.3,0,20.5-9.1,20.5-20.4v-61.7H758z"/>
			<path fill="#8F5435" d="M758,538.3V600c0,11.3,9.2,20.4,20.5,20.4h28.1c11.3,0,20.5-9.1,20.5-20.4v-61.7H758z"/>
			<path fill="#472208" d="M827.1,542.7v61.7c0,11.3,9.2,20.4,20.5,20.4h28.1c11.3,0,20.5-9.1,20.5-20.4v-61.7H827.1z"/>
			<path fill="#704025" d="M827.1,538.3V600c0,11.3,9.2,20.4,20.5,20.4h28.1c11.3,0,20.5-9.1,20.5-20.4v-61.7H827.1z"/>
			<path fill="#472208" d="M896.2,542.7v61.7c0,11.3,9.2,20.4,20.5,20.4h28.1c11.3,0,20.5-9.1,20.5-20.4v-61.7H896.2z"/>
			<path fill="#8F5435" d="M896.2,538.3V600c0,11.3,9.2,20.4,20.5,20.4h28.1c11.3,0,20.5-9.1,20.5-20.4v-61.7H896.2z"/>
			<path fill="#472208" d="M965.3,542.7v61.7c0,11.3,9.2,20.4,20.5,20.4h28.1c11.3,0,20.5-9.1,20.5-20.4v-61.7H965.3z"/>
			<path fill="#704025" d="M965.3,538.3V600c0,11.3,9.2,20.4,20.5,20.4h28.1c11.3,0,20.5-9.1,20.5-20.4v-61.7H965.3z"/>
			<path fill="#472208" d="M1034.3,542.7v61.7c0,11.3,9.2,20.4,20.5,20.4h28.1c11.3,0,20.5-9.1,20.5-20.4v-61.7H1034.3z"/>
			<path fill="#8F5435" d="M1034.3,538.3V600c0,11.3,9.2,20.4,20.5,20.4h28.1c11.3,0,20.5-9.1,20.5-20.4v-61.7H1034.3z"/>
			<path fill="#472208" d="M1103.4,542.7v61.7c0,11.3,9.2,20.4,20.5,20.4h28.1c11.3,0,20.5-9.1,20.5-20.4v-61.7H1103.4z"/>
			<path fill="#704025" d="M1103.4,538.3V600c0,11.3,9.2,20.4,20.5,20.4h28.1c11.3,0,20.5-9.1,20.5-20.4v-61.7H1103.4z"/>
			<path fill="#472208" d="M1172.5,542.7v61.7c0,11.3,9.2,20.4,20.5,20.4h28.1c11.3,0,20.5-9.1,20.5-20.4v-61.7H1172.5z"/>
			<path fill="#8F5435" d="M1172.5,538.3V600c0,11.3,9.2,20.4,20.5,20.4h28.1c11.3,0,20.5-9.1,20.5-20.4v-61.7H1172.5z"/>
			<path fill="#472208" d="M1241.6,542.7v61.7c0,11.3,9.2,20.4,20.5,20.4h28.1c11.3,0,20.5-9.1,20.5-20.4v-61.7H1241.6z"/>
			<path fill="#704025" d="M1241.6,538.3V600c0,11.3,9.2,20.4,20.5,20.4h28.1c11.3,0,20.5-9.1,20.5-20.4v-61.7H1241.6z"/>
			<path fill="#472208" d="M1344.9,542.7h-34.2v61.7c0,11.3,9.2,20.4,20.5,20.4h13.8V542.7z"/>
			<path fill="#8F5435" d="M1344.9,538.3h-34.2V600c0,11.3,9.2,20.4,20.5,20.4h13.8V538.3z"/>
		</g>
		<g>
			<path fill="#472208" d="M724.8,476.1v69c3,7.7,10.4,13.1,19.1,13.1h28.1c11.3,0,20.5-9.1,20.5-20.4v-61.7H724.8z"/>
			<path fill="#704025" d="M724.8,471.7v69c3,7.7,10.4,13.1,19.1,13.1h28.1c11.3,0,20.5-9.1,20.5-20.4v-61.7H724.8z"/>
			<path fill="#472208" d="M792.5,476.1v61.7c0,11.3,9.2,20.4,20.5,20.4h28.1c11.3,0,20.5-9.1,20.5-20.4v-61.7H792.5z"/>
			<path fill="#8F5435" d="M792.5,471.7v61.7c0,11.3,9.2,20.4,20.5,20.4h28.1c11.3,0,20.5-9.1,20.5-20.4v-61.7H792.5z"/>
			<path fill="#472208" d="M861.6,476.1v61.7c0,11.3,9.2,20.4,20.5,20.4h28.1c11.3,0,20.5-9.1,20.5-20.4v-61.7H861.6z"/>
			<path fill="#704025" d="M861.6,471.7v61.7c0,11.3,9.2,20.4,20.5,20.4h28.1c11.3,0,20.5-9.1,20.5-20.4v-61.7H861.6z"/>
			<path fill="#472208" d="M930.7,476.1v61.7c0,11.3,9.2,20.4,20.5,20.4h28.1c11.3,0,20.5-9.1,20.5-20.4v-61.7H930.7z"/>
			<path fill="#8F5435" d="M930.7,471.7v61.7c0,11.3,9.2,20.4,20.5,20.4h28.1c11.3,0,20.5-9.1,20.5-20.4v-61.7H930.7z"/>
			<path fill="#472208" d="M999.8,476.1v61.7c0,11.3,9.2,20.4,20.5,20.4h28.1c11.3,0,20.5-9.1,20.5-20.4v-61.7H999.8z"/>
			<path fill="#704025" d="M999.8,471.7v61.7c0,11.3,9.2,20.4,20.5,20.4h28.1c11.3,0,20.5-9.1,20.5-20.4v-61.7H999.8z"/>
			<path fill="#472208" d="M1068.9,476.1v61.7c0,11.3,9.2,20.4,20.5,20.4h28.1c11.3,0,20.5-9.1,20.5-20.4v-61.7H1068.9z"/>
			<path fill="#8F5435" d="M1068.9,471.7v61.7c0,11.3,9.2,20.4,20.5,20.4h28.1c11.3,0,20.5-9.1,20.5-20.4v-61.7H1068.9z"/>
			<path fill="#472208" d="M1138,476.1v61.7c0,11.3,9.2,20.4,20.5,20.4h28.1c11.3,0,20.5-9.1,20.5-20.4v-61.7H1138z"/>
			<path fill="#704025" d="M1138,471.7v61.7c0,11.3,9.2,20.4,20.5,20.4h28.1c11.3,0,20.5-9.1,20.5-20.4v-61.7H1138z"/>
			<path fill="#472208" d="M1207.1,476.1v61.7c0,11.3,9.2,20.4,20.5,20.4h28.1c11.3,0,20.5-9.1,20.5-20.4v-61.7H1207.1z"/>
			<path fill="#8F5435" d="M1207.1,471.7v61.7c0,11.3,9.2,20.4,20.5,20.4h28.1c11.3,0,20.5-9.1,20.5-20.4v-61.7H1207.1z"/>
			<path fill="#472208" d="M1344.9,476.1h-68.8v61.7c0,11.3,9.2,20.4,20.5,20.4h28.1c10.1,0,18.5-7.3,20.2-16.9V476.1z"/>
			<path fill="#704025" d="M1344.9,471.7h-68.8v61.7c0,11.3,9.2,20.4,20.5,20.4h28.1c10.1,0,18.5-7.3,20.2-16.9V471.7z"/>
		</g>
		<g>
			<path fill="#472208" d="M724.8,410.8v82.1h12.7c11.3,0,20.5-9.1,20.5-20.4v-61.7H724.8z"/>
			<path fill="#704025" d="M724.8,406.4v82.1h12.7c11.3,0,20.5-9.1,20.5-20.4v-61.7H724.8z"/>
			<path fill="#472208" d="M758,410.8v61.7c0,11.3,9.2,20.4,20.5,20.4h28.1c11.3,0,20.5-9.1,20.5-20.4v-61.7H758z"/>
			<path fill="#8F5435" d="M758,406.4v61.7c0,11.3,9.2,20.4,20.5,20.4h28.1c11.3,0,20.5-9.1,20.5-20.4v-61.7H758z"/>
			<path fill="#472208" d="M827.1,410.8v61.7c0,11.3,9.2,20.4,20.5,20.4h28.1c11.3,0,20.5-9.1,20.5-20.4v-61.7H827.1z"/>
			<path fill="#704025" d="M827.1,406.4v61.7c0,11.3,9.2,20.4,20.5,20.4h28.1c11.3,0,20.5-9.1,20.5-20.4v-61.7H827.1z"/>
			<path fill="#472208" d="M896.2,410.8v61.7c0,11.3,9.2,20.4,20.5,20.4h28.1c11.3,0,20.5-9.1,20.5-20.4v-61.7H896.2z"/>
			<path fill="#8F5435" d="M896.2,406.4v61.7c0,11.3,9.2,20.4,20.5,20.4h28.1c11.3,0,20.5-9.1,20.5-20.4v-61.7H896.2z"/>
			<path fill="#472208" d="M965.3,410.8v61.7c0,11.3,9.2,20.4,20.5,20.4h28.1c11.3,0,20.5-9.1,20.5-20.4v-61.7H965.3z"/>
			<path fill="#704025" d="M965.3,406.4v61.7c0,11.3,9.2,20.4,20.5,20.4h28.1c11.3,0,20.5-9.1,20.5-20.4v-61.7H965.3z"/>
			<path fill="#472208" d="M1034.3,410.8v61.7c0,11.3,9.2,20.4,20.5,20.4h28.1c11.3,0,20.5-9.1,20.5-20.4v-61.7H1034.3z"/>
			<path fill="#8F5435" d="M1034.3,406.4v61.7c0,11.3,9.2,20.4,20.5,20.4h28.1c11.3,0,20.5-9.1,20.5-20.4v-61.7H1034.3z"/>
			<path fill="#472208" d="M1103.4,410.8v61.7c0,11.3,9.2,20.4,20.5,20.4h28.1c11.3,0,20.5-9.1,20.5-20.4v-61.7H1103.4z"/>
			<path fill="#704025" d="M1103.4,406.4v61.7c0,11.3,9.2,20.4,20.5,20.4h28.1c11.3,0,20.5-9.1,20.5-20.4v-61.7H1103.4z"/>
			<path fill="#472208" d="M1172.5,410.8v61.7c0,11.3,9.2,20.4,20.5,20.4h28.1c11.3,0,20.5-9.1,20.5-20.4v-61.7H1172.5z"/>
			<path fill="#8F5435" d="M1172.5,406.4v61.7c0,11.3,9.2,20.4,20.5,20.4h28.1c11.3,0,20.5-9.1,20.5-20.4v-61.7H1172.5z"/>
			<path fill="#472208" d="M1241.6,410.8v61.7c0,11.3,9.2,20.4,20.5,20.4h28.1c11.3,0,20.5-9.1,20.5-20.4v-61.7H1241.6z"/>
			<path fill="#704025" d="M1241.6,406.4v61.7c0,11.3,9.2,20.4,20.5,20.4h28.1c11.3,0,20.5-9.1,20.5-20.4v-61.7H1241.6z"/>
			<path fill="#472208" d="M1344.9,410.8h-34.2v61.7c0,11.3,9.2,20.4,20.5,20.4h13.8V410.8z"/>
			<path fill="#8F5435" d="M1344.9,406.4h-34.2v61.7c0,11.3,9.2,20.4,20.5,20.4h13.8V406.4z"/>
		</g>
		<g>
			<path fill="#472208" d="M724.8,344.2v69c3,7.7,10.4,13.1,19.1,13.1h28.1c11.3,0,20.5-9.1,20.5-20.4v-61.7H724.8z"/>
			<path fill="#704025" d="M724.8,339.8v69c3,7.7,10.4,13.1,19.1,13.1h28.1c11.3,0,20.5-9.1,20.5-20.4v-61.7H724.8z"/>
			<path fill="#472208" d="M792.5,344.2v61.7c0,11.3,9.2,20.4,20.5,20.4h28.1c11.3,0,20.5-9.1,20.5-20.4v-61.7H792.5z"/>
			<path fill="#8F5435" d="M792.5,339.8v61.7c0,11.3,9.2,20.4,20.5,20.4h28.1c11.3,0,20.5-9.1,20.5-20.4v-61.7H792.5z"/>
			<path fill="#472208" d="M861.6,344.2v61.7c0,11.3,9.2,20.4,20.5,20.4h28.1c11.3,0,20.5-9.1,20.5-20.4v-61.7H861.6z"/>
			<path fill="#704025" d="M861.6,339.8v61.7c0,11.3,9.2,20.4,20.5,20.4h28.1c11.3,0,20.5-9.1,20.5-20.4v-61.7H861.6z"/>
			<path fill="#472208" d="M930.7,344.2v61.7c0,11.3,9.2,20.4,20.5,20.4h28.1c11.3,0,20.5-9.1,20.5-20.4v-61.7H930.7z"/>
			<path fill="#8F5435" d="M930.7,339.8v61.7c0,11.3,9.2,20.4,20.5,20.4h28.1c11.3,0,20.5-9.1,20.5-20.4v-61.7H930.7z"/>
			<path fill="#472208" d="M999.8,344.2v61.7c0,11.3,9.2,20.4,20.5,20.4h28.1c11.3,0,20.5-9.1,20.5-20.4v-61.7H999.8z"/>
			<path fill="#704025" d="M999.8,339.8v61.7c0,11.3,9.2,20.4,20.5,20.4h28.1c11.3,0,20.5-9.1,20.5-20.4v-61.7H999.8z"/>
			<path fill="#472208" d="M1068.9,344.2v61.7c0,11.3,9.2,20.4,20.5,20.4h28.1c11.3,0,20.5-9.1,20.5-20.4v-61.7H1068.9z"/>
			<path fill="#8F5435" d="M1068.9,339.8v61.7c0,11.3,9.2,20.4,20.5,20.4h28.1c11.3,0,20.5-9.1,20.5-20.4v-61.7H1068.9z"/>
			<path fill="#472208" d="M1138,344.2v61.7c0,11.3,9.2,20.4,20.5,20.4h28.1c11.3,0,20.5-9.1,20.5-20.4v-61.7H1138z"/>
			<path fill="#704025" d="M1138,339.8v61.7c0,11.3,9.2,20.4,20.5,20.4h28.1c11.3,0,20.5-9.1,20.5-20.4v-61.7H1138z"/>
			<path fill="#472208" d="M1207.1,344.2v61.7c0,11.3,9.2,20.4,20.5,20.4h28.1c11.3,0,20.5-9.1,20.5-20.4v-61.7H1207.1z"/>
			<path fill="#8F5435" d="M1207.1,339.8v61.7c0,11.3,9.2,20.4,20.5,20.4h28.1c11.3,0,20.5-9.1,20.5-20.4v-61.7H1207.1z"/>
			<path fill="#472208" d="M1344.9,344.2h-68.8v61.7c0,11.3,9.2,20.4,20.5,20.4h28.1c10.1,0,18.5-7.3,20.2-16.9V344.2z"/>
			<path fill="#704025" d="M1344.9,339.8h-68.8v61.7c0,11.3,9.2,20.4,20.5,20.4h28.1c10.1,0,18.5-7.3,20.2-16.9V339.8z"/>
		</g>
	</g>
	<g>
		<g>
			<path fill="#472208" d="M724.8,226.8v100.4h9.1c11.3,0,24.8-49.6,24.8-63.4v-36.9H724.8z"/>
			<path fill="#A8523D" d="M724.8,221.6v100.4h9.1c11.3,0,24.8-49.6,24.8-63.4v-36.9H724.8z"/>
			<path fill="#472208" d="M758.7,226.8v36.9c0,13.8,13.5,63.4,24.8,63.4h19.4c11.3,0,24.8-49.6,24.8-63.4v-36.9H758.7z"/>
			<path fill="#8F4432" d="M758.7,221.6v36.9c0,13.8,13.5,63.4,24.8,63.4h19.4c11.3,0,24.8-49.6,24.8-63.4v-36.9H758.7z"/>
			<path fill="#472208" d="M827.7,226.8v36.9c0,13.8,13.5,63.4,24.8,63.4h19.4c11.3,0,24.8-49.6,24.8-63.4v-36.9H827.7z"/>
			<path fill="#A8523D" d="M827.7,221.6v36.9c0,13.8,13.5,63.4,24.8,63.4h19.4c11.3,0,24.8-49.6,24.8-63.4v-36.9H827.7z"/>
			<path fill="#472208" d="M896.7,226.8v36.9c0,13.8,13.5,63.4,24.8,63.4h19.4c11.3,0,24.8-49.6,24.8-63.4v-36.9H896.7z"/>
			<path fill="#8F4432" d="M896.7,221.6v36.9c0,13.8,13.5,63.4,24.8,63.4h19.4c11.3,0,24.8-49.6,24.8-63.4v-36.9H896.7z"/>
			<path fill="#472208" d="M965.7,226.8v36.9c0,13.8,13.5,63.4,24.8,63.4h19.4c11.3,0,24.8-49.6,24.8-63.4v-36.9H965.7z"/>
			<path fill="#A8523D" d="M965.7,221.6v36.9c0,13.8,13.5,63.4,24.8,63.4h19.4c11.3,0,24.8-49.6,24.8-63.4v-36.9H965.7z"/>
			<path fill="#472208" d="M1034.6,226.8v36.9c0,13.8,13.5,63.4,24.8,63.4h19.4c11.3,0,24.8-49.6,24.8-63.4v-36.9H1034.6z"/>
			<path fill="#8F4432" d="M1034.6,221.6v36.9c0,13.8,13.5,63.4,24.8,63.4h19.4c11.3,0,24.8-49.6,24.8-63.4v-36.9H1034.6z"/>
			<path fill="#472208" d="M1103.6,226.8v36.9c0,13.8,13.5,63.4,24.8,63.4h19.4c11.3,0,24.8-49.6,24.8-63.4v-36.9H1103.6z"/>
			<path fill="#A8523D" d="M1103.6,221.6v36.9c0,13.8,13.5,63.4,24.8,63.4h19.4c11.3,0,24.8-49.6,24.8-63.4v-36.9H1103.6z"/>
			<path fill="#472208" d="M1172.6,226.8v36.9c0,13.8,13.5,63.4,24.8,63.4h19.4c11.3,0,24.8-49.6,24.8-63.4v-36.9H1172.6z"/>
			<path fill="#8F4432" d="M1172.6,221.6v36.9c0,13.8,13.5,63.4,24.8,63.4h19.4c11.3,0,24.8-49.6,24.8-63.4v-36.9H1172.6z"/>
			<path fill="#472208" d="M1241.6,226.8v36.9c0,13.8,13.5,63.4,24.8,63.4h19.4c11.3,0,24.8-49.6,24.8-63.4v-36.9H1241.6z"/>
			<path fill="#A8523D" d="M1241.6,221.6v36.9c0,13.8,13.5,63.4,24.8,63.4h19.4c11.3,0,24.8-49.6,24.8-63.4v-36.9H1241.6z"/>
			<path fill="#472208" d="M1345.1,226.8h-34.6v36.9c0,13.8,13.5,63.4,24.8,63.4h9.8V226.8z"/>
			<path fill="#8F4432" d="M1345.1,221.6h-34.6v36.9c0,13.8,13.5,63.4,24.8,63.4h9.8V221.6z"/>
		</g>
		<g>
			<path fill="#472208" d="M724.8,187.1v43.2c2.6,18.6,14.3,57.2,24.3,57.2h19.4c11.3,0,24.8-49.6,24.8-63.4v-36.9H724.8z"/>
			<path fill="#A8523D" d="M724.8,181.9v43.2c2.6,18.6,14.3,57.2,24.3,57.2h19.4c11.3,0,24.8-49.6,24.8-63.4v-36.9H724.8z"/>
			<path fill="#472208" d="M793.2,187.1v36.9c0,13.8,13.5,63.4,24.8,63.4h19.4c11.3,0,24.8-49.6,24.8-63.4v-36.9H793.2z"/>
			<path fill="#8F4432" d="M793.2,181.9v36.9c0,13.8,13.5,63.4,24.8,63.4h19.4c11.3,0,24.8-49.6,24.8-63.4v-36.9H793.2z"/>
			<path fill="#472208" d="M862.2,187.1v36.9c0,13.8,13.5,63.4,24.8,63.4h19.4c11.3,0,24.8-49.6,24.8-63.4v-36.9H862.2z"/>
			<path fill="#A8523D" d="M862.2,181.9v36.9c0,13.8,13.5,63.4,24.8,63.4h19.4c11.3,0,24.8-49.6,24.8-63.4v-36.9H862.2z"/>
			<path fill="#472208" d="M931.2,187.1v36.9c0,13.8,13.5,63.4,24.8,63.4h19.4c11.3,0,24.8-49.6,24.8-63.4v-36.9H931.2z"/>
			<path fill="#8F4432" d="M931.2,181.9v36.9c0,13.8,13.5,63.4,24.8,63.4h19.4c11.3,0,24.8-49.6,24.8-63.4v-36.9H931.2z"/>
			<path fill="#472208" d="M1000.1,187.1v36.9c0,13.8,13.5,63.4,24.8,63.4h19.4c11.3,0,24.8-49.6,24.8-63.4v-36.9H1000.1z"/>
			<path fill="#A8523D" d="M1000.1,181.9v36.9c0,13.8,13.5,63.4,24.8,63.4h19.4c11.3,0,24.8-49.6,24.8-63.4v-36.9H1000.1z"/>
			<path fill="#472208" d="M1069.1,187.1v36.9c0,13.8,13.5,63.4,24.8,63.4h19.4c11.3,0,24.8-49.6,24.8-63.4v-36.9H1069.1z"/>
			<path fill="#8F4432" d="M1069.1,181.9v36.9c0,13.8,13.5,63.4,24.8,63.4h19.4c11.3,0,24.8-49.6,24.8-63.4v-36.9H1069.1z"/>
			<path fill="#472208" d="M1138.1,187.1v36.9c0,13.8,13.5,63.4,24.8,63.4h19.4c11.3,0,24.8-49.6,24.8-63.4v-36.9H1138.1z"/>
			<path fill="#A8523D" d="M1138.1,181.9v36.9c0,13.8,13.5,63.4,24.8,63.4h19.4c11.3,0,24.8-49.6,24.8-63.4v-36.9H1138.1z"/>
			<path fill="#472208" d="M1207.1,187.1v36.9c0,13.8,13.5,63.4,24.8,63.4h19.4c11.3,0,24.8-49.6,24.8-63.4v-36.9H1207.1z"/>
			<path fill="#8F4432" d="M1207.1,181.9v36.9c0,13.8,13.5,63.4,24.8,63.4h19.4c11.3,0,24.8-49.6,24.8-63.4v-36.9H1207.1z"/>
			<path fill="#472208" d="M1276.1,187.1v36.9c0,13.8,13.5,63.4,24.8,63.4h19.4c11.3,0,24.8-49.6,24.8-63.4v-36.9H1276.1z"/>
			<path fill="#A8523D" d="M1276.1,181.9v36.9c0,13.8,13.5,63.4,24.8,63.4h19.4c11.3,0,24.8-49.6,24.8-63.4v-36.9H1276.1z"/>
		</g>
		<g>
			<path fill="#472208" d="M724.8,148.2v100.4h9.1c11.3,0,24.8-49.6,24.8-63.4v-36.9H724.8z"/>
			<path fill="#A8523D" d="M724.8,142.9v100.4h9.1c11.3,0,24.8-49.6,24.8-63.4v-36.9H724.8z"/>
			<path fill="#472208" d="M758.7,148.2v36.9c0,13.8,13.5,63.4,24.8,63.4h19.4c11.3,0,24.8-49.6,24.8-63.4v-36.9H758.7z"/>
			<path fill="#8F4432" d="M758.7,142.9v36.9c0,13.8,13.5,63.4,24.8,63.4h19.4c11.3,0,24.8-49.6,24.8-63.4v-36.9H758.7z"/>
			<path fill="#472208" d="M827.7,148.2v36.9c0,13.8,13.5,63.4,24.8,63.4h19.4c11.3,0,24.8-49.6,24.8-63.4v-36.9H827.7z"/>
			<path fill="#A8523D" d="M827.7,142.9v36.9c0,13.8,13.5,63.4,24.8,63.4h19.4c11.3,0,24.8-49.6,24.8-63.4v-36.9H827.7z"/>
			<path fill="#472208" d="M896.7,148.2v36.9c0,13.8,13.5,63.4,24.8,63.4h19.4c11.3,0,24.8-49.6,24.8-63.4v-36.9H896.7z"/>
			<path fill="#8F4432" d="M896.7,142.9v36.9c0,13.8,13.5,63.4,24.8,63.4h19.4c11.3,0,24.8-49.6,24.8-63.4v-36.9H896.7z"/>
			<path fill="#472208" d="M965.7,148.2v36.9c0,13.8,13.5,63.4,24.8,63.4h19.4c11.3,0,24.8-49.6,24.8-63.4v-36.9H965.7z"/>
			<path fill="#A8523D" d="M965.7,142.9v36.9c0,13.8,13.5,63.4,24.8,63.4h19.4c11.3,0,24.8-49.6,24.8-63.4v-36.9H965.7z"/>
			<path fill="#472208" d="M1034.6,148.2v36.9c0,13.8,13.5,63.4,24.8,63.4h19.4c11.3,0,24.8-49.6,24.8-63.4v-36.9H1034.6z"/>
			<path fill="#8F4432" d="M1034.6,142.9v36.9c0,13.8,13.5,63.4,24.8,63.4h19.4c11.3,0,24.8-49.6,24.8-63.4v-36.9H1034.6z"/>
			<path fill="#472208" d="M1103.6,148.2v36.9c0,13.8,13.5,63.4,24.8,63.4h19.4c11.3,0,24.8-49.6,24.8-63.4v-36.9H1103.6z"/>
			<path fill="#A8523D" d="M1103.6,142.9v36.9c0,13.8,13.5,63.4,24.8,63.4h19.4c11.3,0,24.8-49.6,24.8-63.4v-36.9H1103.6z"/>
			<path fill="#472208" d="M1172.6,148.2v36.9c0,13.8,13.5,63.4,24.8,63.4h19.4c11.3,0,24.8-49.6,24.8-63.4v-36.9H1172.6z"/>
			<path fill="#8F4432" d="M1172.6,142.9v36.9c0,13.8,13.5,63.4,24.8,63.4h19.4c11.3,0,24.8-49.6,24.8-63.4v-36.9H1172.6z"/>
			<path fill="#472208" d="M1241.6,148.2v36.9c0,13.8,13.5,63.4,24.8,63.4h19.4c11.3,0,24.8-49.6,24.8-63.4v-36.9H1241.6z"/>
			<path fill="#A8523D" d="M1241.6,142.9v36.9c0,13.8,13.5,63.4,24.8,63.4h19.4c11.3,0,24.8-49.6,24.8-63.4v-36.9H1241.6z"/>
			<path fill="#472208" d="M1345.1,148.2h-34.6v36.9c0,13.8,13.5,63.4,24.8,63.4h9.8V148.2z"/>
			<path fill="#8F4432" d="M1345.1,142.9h-34.6v36.9c0,13.8,13.5,63.4,24.8,63.4h9.8V142.9z"/>
		</g>
		<g>
			<path fill="#472208" d="M724.8,108.5v43.2c2.6,18.6,14.3,57.2,24.3,57.2h19.4c11.3,0,24.8-49.6,24.8-63.4v-36.9H724.8z"/>
			<path fill="#A8523D" d="M724.8,103.3v43.2c2.6,18.6,14.3,57.2,24.3,57.2h19.4c11.3,0,24.8-49.6,24.8-63.4v-36.9H724.8z"/>
			<path fill="#472208" d="M793.2,108.5v36.9c0,13.8,13.5,63.4,24.8,63.4h19.4c11.3,0,24.8-49.6,24.8-63.4v-36.9H793.2z"/>
			<path fill="#8F4432" d="M793.2,103.3v36.9c0,13.8,13.5,63.4,24.8,63.4h19.4c11.3,0,24.8-49.6,24.8-63.4v-36.9H793.2z"/>
			<path fill="#472208" d="M862.2,108.5v36.9c0,13.8,13.5,63.4,24.8,63.4h19.4c11.3,0,24.8-49.6,24.8-63.4v-36.9H862.2z"/>
			<path fill="#A8523D" d="M862.2,103.3v36.9c0,13.8,13.5,63.4,24.8,63.4h19.4c11.3,0,24.8-49.6,24.8-63.4v-36.9H862.2z"/>
			<path fill="#472208" d="M931.2,108.5v36.9c0,13.8,13.5,63.4,24.8,63.4h19.4c11.3,0,24.8-49.6,24.8-63.4v-36.9H931.2z"/>
			<path fill="#8F4432" d="M931.2,103.3v36.9c0,13.8,13.5,63.4,24.8,63.4h19.4c11.3,0,24.8-49.6,24.8-63.4v-36.9H931.2z"/>
			<path fill="#472208" d="M1000.1,108.5v36.9c0,13.8,13.5,63.4,24.8,63.4h19.4c11.3,0,24.8-49.6,24.8-63.4v-36.9H1000.1z"/>
			<path fill="#A8523D" d="M1000.1,103.3v36.9c0,13.8,13.5,63.4,24.8,63.4h19.4c11.3,0,24.8-49.6,24.8-63.4v-36.9H1000.1z"/>
			<path fill="#472208" d="M1069.1,108.5v36.9c0,13.8,13.5,63.4,24.8,63.4h19.4c11.3,0,24.8-49.6,24.8-63.4v-36.9H1069.1z"/>
			<path fill="#8F4432" d="M1069.1,103.3v36.9c0,13.8,13.5,63.4,24.8,63.4h19.4c11.3,0,24.8-49.6,24.8-63.4v-36.9H1069.1z"/>
			<path fill="#472208" d="M1138.1,108.5v36.9c0,13.8,13.5,63.4,24.8,63.4h19.4c11.3,0,24.8-49.6,24.8-63.4v-36.9H1138.1z"/>
			<path fill="#A8523D" d="M1138.1,103.3v36.9c0,13.8,13.5,63.4,24.8,63.4h19.4c11.3,0,24.8-49.6,24.8-63.4v-36.9H1138.1z"/>
			<path fill="#472208" d="M1207.1,108.5v36.9c0,13.8,13.5,63.4,24.8,63.4h19.4c11.3,0,24.8-49.6,24.8-63.4v-36.9H1207.1z"/>
			<path fill="#8F4432" d="M1207.1,103.3v36.9c0,13.8,13.5,63.4,24.8,63.4h19.4c11.3,0,24.8-49.6,24.8-63.4v-36.9H1207.1z"/>
			<path fill="#472208" d="M1276.1,108.5v36.9c0,13.8,13.5,63.4,24.8,63.4h19.4c11.3,0,24.8-49.6,24.8-63.4v-36.9H1276.1z"/>
			<path fill="#A8523D" d="M1276.1,103.3v36.9c0,13.8,13.5,63.4,24.8,63.4h19.4c11.3,0,24.8-49.6,24.8-63.4v-36.9H1276.1z"/>
		</g>
		<g>
			<path fill="#472208" d="M724.8,69.5v100.4h9.1c11.3,0,24.8-49.6,24.8-63.4V69.5H724.8z"/>
			<path fill="#A8523D" d="M724.8,64.3v100.4h9.1c11.3,0,24.8-49.6,24.8-63.4V64.3H724.8z"/>
			<path fill="#472208" d="M758.7,69.5v36.9c0,13.8,13.5,63.4,24.8,63.4h19.4c11.3,0,24.8-49.6,24.8-63.4V69.5H758.7z"/>
			<path fill="#8F4432" d="M758.7,64.3v36.9c0,13.8,13.5,63.4,24.8,63.4h19.4c11.3,0,24.8-49.6,24.8-63.4V64.3H758.7z"/>
			<path fill="#472208" d="M827.7,69.5v36.9c0,13.8,13.5,63.4,24.8,63.4h19.4c11.3,0,24.8-49.6,24.8-63.4V69.5H827.7z"/>
			<path fill="#A8523D" d="M827.7,64.3v36.9c0,13.8,13.5,63.4,24.8,63.4h19.4c11.3,0,24.8-49.6,24.8-63.4V64.3H827.7z"/>
			<path fill="#472208" d="M896.7,69.5v36.9c0,13.8,13.5,63.4,24.8,63.4h19.4c11.3,0,24.8-49.6,24.8-63.4V69.5H896.7z"/>
			<path fill="#8F4432" d="M896.7,64.3v36.9c0,13.8,13.5,63.4,24.8,63.4h19.4c11.3,0,24.8-49.6,24.8-63.4V64.3H896.7z"/>
			<path fill="#472208" d="M965.7,69.5v36.9c0,13.8,13.5,63.4,24.8,63.4h19.4c11.3,0,24.8-49.6,24.8-63.4V69.5H965.7z"/>
			<path fill="#A8523D" d="M965.7,64.3v36.9c0,13.8,13.5,63.4,24.8,63.4h19.4c11.3,0,24.8-49.6,24.8-63.4V64.3H965.7z"/>
			<path fill="#472208" d="M1034.6,69.5v36.9c0,13.8,13.5,63.4,24.8,63.4h19.4c11.3,0,24.8-49.6,24.8-63.4V69.5H1034.6z"/>
			<path fill="#8F4432" d="M1034.6,64.3v36.9c0,13.8,13.5,63.4,24.8,63.4h19.4c11.3,0,24.8-49.6,24.8-63.4V64.3H1034.6z"/>
			<path fill="#472208" d="M1103.6,69.5v36.9c0,13.8,13.5,63.4,24.8,63.4h19.4c11.3,0,24.8-49.6,24.8-63.4V69.5H1103.6z"/>
			<path fill="#A8523D" d="M1103.6,64.3v36.9c0,13.8,13.5,63.4,24.8,63.4h19.4c11.3,0,24.8-49.6,24.8-63.4V64.3H1103.6z"/>
			<path fill="#472208" d="M1172.6,69.5v36.9c0,13.8,13.5,63.4,24.8,63.4h19.4c11.3,0,24.8-49.6,24.8-63.4V69.5H1172.6z"/>
			<path fill="#8F4432" d="M1172.6,64.3v36.9c0,13.8,13.5,63.4,24.8,63.4h19.4c11.3,0,24.8-49.6,24.8-63.4V64.3H1172.6z"/>
			<path fill="#472208" d="M1241.6,69.5v36.9c0,13.8,13.5,63.4,24.8,63.4h19.4c11.3,0,24.8-49.6,24.8-63.4V69.5H1241.6z"/>
			<path fill="#A8523D" d="M1241.6,64.3v36.9c0,13.8,13.5,63.4,24.8,63.4h19.4c11.3,0,24.8-49.6,24.8-63.4V64.3H1241.6z"/>
			<path fill="#472208" d="M1345.1,69.5h-34.6v36.9c0,13.8,13.5,63.4,24.8,63.4h9.8V69.5z"/>
			<path fill="#8F4432" d="M1345.1,64.3h-34.6v36.9c0,13.8,13.5,63.4,24.8,63.4h9.8V64.3z"/>
		</g>
		<g>
			<path fill="#472208" d="M724.8,44.4v28.7c2.6,18.6,14.3,57.2,24.3,57.2h19.4c11.3,0,24.8-49.6,24.8-63.4V44.4H724.8z"/>
			<path fill="#A8523D" d="M724.8,44.4v23.5c2.6,18.6,14.3,57.2,24.3,57.2h19.4c11.3,0,24.8-49.6,24.8-63.4V44.4H724.8z"/>
			<path fill="#472208" d="M793.2,44.4v22.4c0,13.8,13.5,63.4,24.8,63.4h19.4c11.3,0,24.8-49.6,24.8-63.4V44.4H793.2z"/>
			<path fill="#8F4432" d="M793.2,44.4v17.2c0,13.8,13.5,63.4,24.8,63.4h19.4c11.3,0,24.8-49.6,24.8-63.4V44.4H793.2z"/>
			<path fill="#472208" d="M862.2,44.4v22.4c0,13.8,13.5,63.4,24.8,63.4h19.4c11.3,0,24.8-49.6,24.8-63.4V44.4H862.2z"/>
			<path fill="#A8523D" d="M862.2,44.4v17.2c0,13.8,13.5,63.4,24.8,63.4h19.4c11.3,0,24.8-49.6,24.8-63.4V44.4H862.2z"/>
			<path fill="#472208" d="M931.2,44.4v22.4c0,13.8,13.5,63.4,24.8,63.4h19.4c11.3,0,24.8-49.6,24.8-63.4V44.4H931.2z"/>
			<path fill="#8F4432" d="M931.2,44.4v17.2c0,13.8,13.5,63.4,24.8,63.4h19.4c11.3,0,24.8-49.6,24.8-63.4V44.4H931.2z"/>
			<path fill="#472208" d="M1000.1,44.4v22.4c0,13.8,13.5,63.4,24.8,63.4h19.4c11.3,0,24.8-49.6,24.8-63.4V44.4H1000.1z"/>
			<path fill="#A8523D" d="M1000.1,44.4v17.2c0,13.8,13.5,63.4,24.8,63.4h19.4c11.3,0,24.8-49.6,24.8-63.4V44.4H1000.1z"/>
			<path fill="#472208" d="M1069.1,44.4v22.4c0,13.8,13.5,63.4,24.8,63.4h19.4c11.3,0,24.8-49.6,24.8-63.4V44.4H1069.1z"/>
			<path fill="#8F4432" d="M1069.1,44.4v17.2c0,13.8,13.5,63.4,24.8,63.4h19.4c11.3,0,24.8-49.6,24.8-63.4V44.4H1069.1z"/>
			<path fill="#472208" d="M1138.1,44.4v22.4c0,13.8,13.5,63.4,24.8,63.4h19.4c11.3,0,24.8-49.6,24.8-63.4V44.4H1138.1z"/>
			<path fill="#A8523D" d="M1138.1,44.4v17.2c0,13.8,13.5,63.4,24.8,63.4h19.4c11.3,0,24.8-49.6,24.8-63.4V44.4H1138.1z"/>
			<path fill="#472208" d="M1207.1,44.4v22.4c0,13.8,13.5,63.4,24.8,63.4h19.4c11.3,0,24.8-49.6,24.8-63.4V44.4H1207.1z"/>
			<path fill="#8F4432" d="M1207.1,44.4v17.2c0,13.8,13.5,63.4,24.8,63.4h19.4c11.3,0,24.8-49.6,24.8-63.4V44.4H1207.1z"/>
			<path fill="#472208" d="M1276.1,44.4v22.4c0,13.8,13.5,63.4,24.8,63.4h19.4c11.3,0,24.8-49.6,24.8-63.4V44.4H1276.1z"/>
			<path fill="#A8523D" d="M1276.1,44.4v17.2c0,13.8,13.5,63.4,24.8,63.4h19.4c11.3,0,24.8-49.6,24.8-63.4V44.4H1276.1z"/>
		</g>
	</g>
	<g>
		<g>
			<rect x="55.6" y="553.9" fill="#30272B" width="124.4" height="70.1"/>
			<rect x="55.6" y="548.6" fill="#463B3F" width="124.4" height="70.1"/>
			<rect x="180" y="553.9" fill="#30272B" width="124.4" height="70.1"/>
			<rect x="180" y="548.6" fill="#4C4146" width="124.4" height="70.1"/>
			<rect x="304.5" y="553.9" fill="#30272B" width="124.4" height="70.1"/>
			<rect x="304.5" y="548.6" fill="#463B3F" width="124.4" height="70.1"/>
			<rect x="428.9" y="553.9" fill="#30272B" width="124.4" height="70.1"/>
			<rect x="428.9" y="548.6" fill="#4C4146" width="124.4" height="70.1"/>
			<rect x="553.3" y="553.9" fill="#30272B" width="124.4" height="70.1"/>
			<rect x="553.3" y="548.6" fill="#463B3F" width="124.4" height="70.1"/>
		</g>
		<g>
			<rect x="55.6" y="483.8" fill="#30272B" width="62.2" height="70.1"/>
			<rect x="55.6" y="478.6" fill="#463B3F" width="62.2" height="70.1"/>
			<rect x="117.8" y="483.8" fill="#30272B" width="124.4" height="70.1"/>
			<rect x="117.8" y="478.6" fill="#4C4146" width="124.4" height="70.1"/>
			<rect x="242.2" y="483.8" fill="#30272B" width="124.4" height="70.1"/>
			<rect x="242.2" y="478.6" fill="#463B3F" width="124.4" height="70.1"/>
			<rect x="366.7" y="483.8" fill="#30272B" width="124.4" height="70.1"/>
			<rect x="366.7" y="478.6" fill="#4C4146" width="124.4" height="70.1"/>
			<rect x="615.5" y="483.8" fill="#30272B" width="62.2" height="70.1"/>
			<rect x="615.5" y="478.6" fill="#4C4146" width="62.2" height="70.1"/>
			<rect x="491.1" y="483.8" fill="#30272B" width="124.4" height="70.1"/>
			<rect x="491.1" y="478.6" fill="#463B3F" width="124.4" height="70.1"/>
		</g>
		<g>
			<rect x="55.6" y="415.2" fill="#30272B" width="124.4" height="70.1"/>
			<rect x="55.6" y="409.9" fill="#463B3F" width="124.4" height="70.1"/>
			<rect x="180" y="415.2" fill="#30272B" width="124.4" height="70.1"/>
			<rect x="180" y="409.9" fill="#4C4146" width="124.4" height="70.1"/>
			<rect x="304.5" y="415.2" fill="#30272B" width="124.4" height="70.1"/>
			<rect x="304.5" y="409.9" fill="#463B3F" width="124.4" height="70.1"/>
			<rect x="428.9" y="415.2" fill="#30272B" width="124.4" height="70.1"/>
			<rect x="428.9" y="409.9" fill="#4C4146" width="124.4" height="70.1"/>
			<rect x="553.3" y="415.2" fill="#30272B" width="124.4" height="70.1"/>
			<rect x="553.3" y="409.9" fill="#463B3F" width="124.4" height="70.1"/>
		</g>
		<g>
			<rect x="55.6" y="345.1" fill="#30272B" width="62.2" height="70.1"/>
			<rect x="55.6" y="339.8" fill="#463B3F" width="62.2" height="70.1"/>
			<rect x="117.8" y="345.1" fill="#30272B" width="124.4" height="70.1"/>
			<rect x="117.8" y="339.8" fill="#4C4146" width="124.4" height="70.1"/>
			<rect x="242.2" y="345.1" fill="#30272B" width="124.4" height="70.1"/>
			<rect x="242.2" y="339.8" fill="#463B3F" width="124.4" height="70.1"/>
			<rect x="366.7" y="345.1" fill="#30272B" width="124.4" height="70.1"/>
			<rect x="366.7" y="339.8" fill="#4C4146" width="124.4" height="70.1"/>
			<rect x="615.5" y="345.1" fill="#30272B" width="62.2" height="70.1"/>
			<rect x="615.5" y="339.8" fill="#4C4146" width="62.2" height="70.1"/>
			<rect x="491.1" y="345.1" fill="#30272B" width="124.4" height="70.1"/>
			<rect x="491.1" y="339.8" fill="#463B3F" width="124.4" height="70.1"/>
		</g>
	</g>
</g>
</svg>
