<?xml version="1.0" encoding="utf-8"?>
<!-- Generator: Adobe Illustrator 15.0.0, SVG Export Plug-In . SVG Version: 6.00 Build 0)  -->
<!DOCTYPE svg PUBLIC "-//W3C//DTD SVG 1.1//EN" "http://www.w3.org/Graphics/SVG/1.1/DTD/svg11.dtd">
<svg version="1.1" id="Layer_1" xmlns="http://www.w3.org/2000/svg" xmlns:xlink="http://www.w3.org/1999/xlink" x="0px" y="0px"
	 width="1400px" height="980px" viewBox="0 0 1400 980" enable-background="new 0 0 1400 980" xml:space="preserve">
<g>
	<defs>
		<rect id="SVGID_1_" width="1400" height="980"/>
	</defs>
	<clipPath id="SVGID_2_">
		<use xlink:href="#SVGID_1_"  overflow="visible"/>
	</clipPath>
	<rect clip-path="url(#SVGID_2_)" fill="#00A69C" width="1400" height="980"/>
	<g clip-path="url(#SVGID_2_)">
		<defs>
			<rect id="SVGID_3_" width="1400" height="980"/>
		</defs>
		<clipPath id="SVGID_4_">
			<use xlink:href="#SVGID_3_"  overflow="visible"/>
		</clipPath>
		<g opacity="0.5" clip-path="url(#SVGID_4_)">
			<g>
				<defs>
					<rect id="SVGID_5_" x="210.785" y="125.28" width="304.091" height="526.585"/>
				</defs>
				<clipPath id="SVGID_6_">
					<use xlink:href="#SVGID_5_"  overflow="visible"/>
				</clipPath>
				<path clip-path="url(#SVGID_6_)" fill-rule="evenodd" clip-rule="evenodd" fill="#4D7E73" d="M479.003,125.28H246.658
					c-19.81,0-35.873,16.062-35.873,35.873v454.84c0,19.811,16.063,35.872,35.873,35.872h232.345
					c19.813,0,35.873-16.062,35.873-35.872v-454.84C514.876,141.342,498.816,125.28,479.003,125.28"/>
			</g>
		</g>
		<g opacity="0.5" clip-path="url(#SVGID_4_)">
			<g>
				<defs>
					<rect id="SVGID_7_" x="333.936" y="471.111" width="603.089" height="379.2"/>
				</defs>
				<clipPath id="SVGID_8_">
					<use xlink:href="#SVGID_7_"  overflow="visible"/>
				</clipPath>
				<path clip-path="url(#SVGID_8_)" fill-rule="evenodd" clip-rule="evenodd" fill="#4D7E73" d="M933.58,501.588h-3.262v-30.477
					h-4.971h-4.971h-11.598h-8.523v30.477h-3.26c-1.902,0-3.445,1.417-3.445,3.164v49.998c0,1.747,1.543,3.163,3.445,3.163h9.34
					h3.713v0.038h-8.072v7.484h3.103v7.484h2.354v6.86h2.615v191.265c-0.024,0.947-0.04,1.949-0.04,2.98v57.073
					c0,5.536-4.137,10.026-9.239,10.026H374.988c-5.103,0-9.239-4.49-9.239-10.026v-57.073c0-0.304,0.017-0.604,0.041-0.901
					c-0.031-0.043-0.052-0.092-0.082-0.135v-28.456v-7.424h3.036v-6.805h2.336v-7.424h3.075v-6.515h9.307
					c2.354,0,4.264-1.752,4.264-3.913V650.59c0-2.161-1.91-3.914-4.264-3.914h-4.035v-37.709h-6.151h-6.149h-14.349H342.23v37.709
					h-4.033c-2.352,0-4.262,1.753-4.262,3.914v61.863c0,2.161,1.91,3.913,4.262,3.913h9.309v6.515h3.075v7.424h2.337v6.805h2.721
					v7.424v30.54V782v57.066c0,6.209,4.329,11.244,9.669,11.244h545.138c5.341,0,9.671-5.035,9.671-11.244v-3.464v-60.529V579.78
					h3.271v-6.86h2.355v-7.484h3.101v-7.484h-8.728v-0.038h4.125h9.338c1.902,0,3.445-1.416,3.445-3.163v-49.998
					C937.025,503.005,935.482,501.588,933.58,501.588"/>
			</g>
		</g>
	</g>
	
		<rect x="898.049" y="521.75" clip-path="url(#SVGID_2_)" fill-rule="evenodd" clip-rule="evenodd" fill="#FFFFFF" width="10.068" height="305.853"/>
	
		<rect x="343.639" y="662" clip-path="url(#SVGID_2_)" fill-rule="evenodd" clip-rule="evenodd" fill="#FFFFFF" width="10.069" height="112"/>
	
		<rect x="330.231" y="600.967" clip-path="url(#SVGID_2_)" fill-rule="evenodd" clip-rule="evenodd" fill="#B5BEC2" width="37.196" height="39.777"/>
	
		<rect x="355.128" y="600.967" clip-path="url(#SVGID_2_)" fill-rule="evenodd" clip-rule="evenodd" fill="#FFFFFF" width="12.299" height="39.777"/>
	
		<rect x="340.777" y="600.967" clip-path="url(#SVGID_2_)" fill-rule="evenodd" clip-rule="evenodd" fill="#D0D2D3" width="20.499" height="39.777"/>
	<g clip-path="url(#SVGID_2_)">
		<defs>
			<rect id="SVGID_9_" width="1400" height="980"/>
		</defs>
		<clipPath id="SVGID_10_">
			<use xlink:href="#SVGID_9_"  overflow="visible"/>
		</clipPath>
		<path clip-path="url(#SVGID_10_)" fill-rule="evenodd" clip-rule="evenodd" fill="#E6E7E8" d="M371.462,638.676h-11.554h-22.154
			h-11.557c-2.353,0-4.262,1.753-4.262,3.914v61.863c0,2.161,1.909,3.913,4.262,3.913h11.557h22.154h11.554
			c2.354,0,4.263-1.752,4.263-3.913V642.59C375.726,640.429,373.816,638.676,371.462,638.676"/>
		
			<rect x="335.506" y="707.457" clip-path="url(#SVGID_10_)" fill-rule="evenodd" clip-rule="evenodd" fill="#FFFFFF" width="26.649" height="7.424"/>
		
			<rect x="338.581" y="714.881" clip-path="url(#SVGID_10_)" fill-rule="evenodd" clip-rule="evenodd" fill="#FFFFFF" width="20.499" height="7.424"/>
		
			<rect x="340.918" y="721.685" clip-path="url(#SVGID_10_)" fill-rule="evenodd" clip-rule="evenodd" fill="#FFFFFF" width="15.826" height="7.425"/>
		
			<rect x="343.639" y="729.109" clip-path="url(#SVGID_10_)" fill-rule="evenodd" clip-rule="evenodd" fill="#FFFFFF" width="10.069" height="7.424"/>
		<path clip-path="url(#SVGID_10_)" fill="#FFFFFF" d="M898.446,755.83c0,0-0.437,4.658-0.437,10.196v57.072
			c0,5.536-4.138,10.026-9.24,10.026H362.988c-5.104,0-9.239-4.49-9.239-10.026v-57.072c0-0.305,0.016-0.604,0.041-0.902
			c-0.891-1.213-1.329-2.657-1.209-4.252c0.037-0.478,0.282-1.216,0.489-1.954c-0.582-0.876-0.706-2.047-0.355-3.044
			c-5.062,0.36-9.076,5.224-9.076,11.199v63.994c0,6.209,4.329,11.243,9.669,11.243h545.138c5.341,0,9.671-5.034,9.671-11.243
			v-63.994C908.117,760.865,903.787,755.83,898.446,755.83"/>
		
			<rect x="889.978" y="549.952" clip-path="url(#SVGID_10_)" fill-rule="evenodd" clip-rule="evenodd" fill="#FFFFFF" width="26.867" height="7.483"/>
		
			<rect x="893.079" y="557.436" clip-path="url(#SVGID_10_)" fill-rule="evenodd" clip-rule="evenodd" fill="#FFFFFF" width="20.665" height="7.484"/>
		
			<rect x="895.434" y="564.296" clip-path="url(#SVGID_10_)" fill-rule="evenodd" clip-rule="evenodd" fill="#FFFFFF" width="15.955" height="7.484"/>
		
			<rect x="888.256" y="463.112" clip-path="url(#SVGID_10_)" fill-rule="evenodd" clip-rule="evenodd" fill="#B5BEC2" width="30.063" height="32.148"/>
		
			<rect x="908.377" y="463.112" clip-path="url(#SVGID_10_)" fill-rule="evenodd" clip-rule="evenodd" fill="#FFFFFF" width="9.941" height="32.148"/>
		
			<rect x="896.78" y="463.112" clip-path="url(#SVGID_10_)" fill-rule="evenodd" clip-rule="evenodd" fill="#D0D2D3" width="16.567" height="32.148"/>
		<path clip-path="url(#SVGID_10_)" fill-rule="evenodd" clip-rule="evenodd" fill="#FFFFFF" d="M921.58,493.588h-9.338h-17.906
			h-9.34c-1.902,0-3.445,1.417-3.445,3.164v49.998c0,1.747,1.543,3.163,3.445,3.163h9.34h17.906h9.338
			c1.902,0,3.445-1.416,3.445-3.163v-49.998C925.025,495.005,923.482,493.588,921.58,493.588"/>
		
			<rect x="892.403" y="472.009" clip-path="url(#SVGID_10_)" fill-rule="evenodd" clip-rule="evenodd" fill="#BFBFC0" width="6.198" height="5.354"/>
		
			<rect x="907.973" y="472.009" clip-path="url(#SVGID_10_)" fill-rule="evenodd" clip-rule="evenodd" fill="#BFBFC0" width="6.199" height="5.354"/>
		
			<rect x="902.556" y="471.705" clip-path="url(#SVGID_10_)" fill-rule="evenodd" clip-rule="evenodd" fill="#D8D9D9" width="1.463" height="21.883"/>
		<path clip-path="url(#SVGID_10_)" fill-rule="evenodd" clip-rule="evenodd" fill="#FFFFFF" d="M500.876,604.286
			c0,19.811-16.06,35.872-35.873,35.872H232.658c-19.81,0-35.873-16.062-35.873-35.872v-454.84
			c0-19.811,16.063-35.873,35.873-35.873h232.345c19.813,0,35.873,16.062,35.873,35.873V604.286z"/>
		
			<rect x="213.659" y="154.251" clip-path="url(#SVGID_10_)" fill-rule="evenodd" clip-rule="evenodd" fill="#010101" width="270.343" height="428.881"/>
		<path clip-path="url(#SVGID_10_)" fill-rule="evenodd" clip-rule="evenodd" fill="#010101" d="M382.867,135.231
			c0,2.16-1.751,3.915-3.912,3.915h-60.249c-2.16,0-3.912-1.755-3.912-3.915s1.752-3.912,3.912-3.912h60.249
			C381.116,131.319,382.867,133.071,382.867,135.231"/>
		<path clip-path="url(#SVGID_10_)" fill-rule="evenodd" clip-rule="evenodd" fill="#FFFFFF" d="M395.339,612.614
			c0,6.435-5.217,11.651-11.651,11.651h-69.717c-6.434,0-11.652-5.217-11.652-11.651c0-6.434,5.218-11.646,11.652-11.646h69.717
			C390.122,600.968,395.339,606.181,395.339,612.614"/>
		<path clip-path="url(#SVGID_10_)" fill="none" stroke="#A6A8AB" stroke-width="3" stroke-miterlimit="10" d="M395.339,612.614
			c0,6.435-5.217,11.651-11.651,11.651h-69.717c-6.434,0-11.652-5.217-11.652-11.651c0-6.434,5.218-11.646,11.652-11.646h69.717
			C390.122,600.968,395.339,606.181,395.339,612.614z"/>
		<path clip-path="url(#SVGID_10_)" fill="#EE4644" d="M320.369,272.102h-11.856c-12.005,0-21.692,9.858-21.692,22.013v190.382
			c0,12.15,9.687,22.016,21.692,22.016h80.635c11.983,0,21.692-9.865,21.692-22.016V294.115c0-12.155-9.709-22.013-21.692-22.013
			h-14.547c-0.752-11.469-10.062-20.559-21.552-20.559h-11.15C330.41,251.543,321.108,260.633,320.369,272.102 M400.06,301.21
			v177.123c0.612,10.447-4.298,16.216-16.477,15.616h-67.89c-11.265-0.186-16.706-4.126-16.502-15.616V301.21
			c-0.204-12.015,5.483-15.694,16.502-15.605h67.89C396.009,284.731,399.639,290.766,400.06,301.21"/>
		<path clip-path="url(#SVGID_10_)" fill="none" stroke="#231F20" stroke-width="7" stroke-miterlimit="10" d="M320.369,272.102
			h-11.856c-12.005,0-21.692,9.858-21.692,22.013v190.382c0,12.15,9.687,22.016,21.692,22.016h80.635
			c11.983,0,21.692-9.865,21.692-22.016V294.115c0-12.155-9.709-22.013-21.692-22.013h-14.547
			c-0.752-11.469-10.062-20.559-21.552-20.559h-11.15C330.41,251.543,321.108,260.633,320.369,272.102z M400.06,301.21v177.123
			c0.612,10.447-4.298,16.216-16.477,15.616h-67.89c-11.265-0.186-16.706-4.126-16.502-15.616V301.21
			c-0.204-12.015,5.483-15.694,16.502-15.605h67.89C396.009,284.731,399.639,290.766,400.06,301.21z"/>
		<rect x="306.945" y="416.708" clip-path="url(#SVGID_10_)" fill="#EE4644" width="85.365" height="26.413"/>
		
			<rect x="306.945" y="416.708" clip-path="url(#SVGID_10_)" fill="none" stroke="#231F20" stroke-width="7" stroke-miterlimit="10" width="85.365" height="26.413"/>
		<path clip-path="url(#SVGID_10_)" fill="#EE4644" d="M306.945,456.324v13.427c-0.171,10.464,4.425,14.03,13.968,14.198h57.442
			c10.304,0.571,14.461-4.7,13.955-14.198v-13.427H306.945z"/>
		<path clip-path="url(#SVGID_10_)" fill="none" stroke="#231F20" stroke-width="7" stroke-miterlimit="10" d="M306.945,456.324
			v13.427c-0.171,10.464,4.425,14.03,13.968,14.198h57.442c10.304,0.571,14.461-4.7,13.955-14.198v-13.427H306.945z"/>
		<g opacity="0.5" clip-path="url(#SVGID_10_)">
			<g>
				<defs>
					<rect id="SVGID_11_" x="836.608" y="145.006" width="161.358" height="267.531"/>
				</defs>
				<clipPath id="SVGID_12_">
					<use xlink:href="#SVGID_11_"  overflow="visible"/>
				</clipPath>
				<path clip-path="url(#SVGID_12_)" fill-rule="evenodd" clip-rule="evenodd" fill="#4D7E73" d="M975.189,243.232v-45.11h-13.085
					v-11.68v-36.547c0-2.7-2.189-4.89-4.889-4.89s-4.89,2.19-4.89,4.89v36.547v11.68h-70.078v-0.001v-11.679v-36.547
					c0-2.7-2.19-4.89-4.89-4.89c-2.698,0-4.889,2.19-4.889,4.89v36.547v11.679h-13.08v0.001h-0.003v45.11h-22.778v169.305h74.161
					h13.037h74.16V243.232H975.189z"/>
			</g>
		</g>
		<path clip-path="url(#SVGID_10_)" fill-rule="evenodd" clip-rule="evenodd" fill="#D0D2D3" d="M938.326,140.896
			c0-2.7,2.189-4.89,4.89-4.89c2.699,0,4.889,2.19,4.889,4.89v61.785c0,2.7-2.189,4.89-4.889,4.89c-2.7,0-4.89-2.19-4.89-4.89
			V140.896z"/>
		<path clip-path="url(#SVGID_10_)" fill-rule="evenodd" clip-rule="evenodd" fill="#D0D2D3" d="M858.47,140.896
			c0-2.7,2.19-4.89,4.889-4.89c2.699,0,4.89,2.19,4.89,4.89v61.785c0,2.7-2.19,4.89-4.89,4.89c-2.698,0-4.889-2.19-4.889-4.89
			V140.896z"/>
		<path clip-path="url(#SVGID_10_)" fill="#FFFFFF" d="M938.326,202.681c0,2.7,2.189,4.89,4.89,4.89c2.699,0,4.889-2.19,4.889-4.89
			v-25.238h-9.778V202.681z"/>
		<path clip-path="url(#SVGID_10_)" fill="#FFFFFF" d="M858.47,202.681c0,2.7,2.19,4.89,4.889,4.89c2.699,0,4.89-2.19,4.89-4.89
			v-25.238h-9.778V202.681z"/>
		
			<rect x="845.386" y="189.122" clip-path="url(#SVGID_10_)" fill-rule="evenodd" clip-rule="evenodd" fill="#FFFFFF" width="115.804" height="45.706"/>
		
			<rect x="845.389" y="189.126" clip-path="url(#SVGID_10_)" fill-rule="evenodd" clip-rule="evenodd" fill="#E6E7E8" width="77.682" height="45.705"/>
		
			<rect x="845.39" y="189.121" clip-path="url(#SVGID_10_)" fill-rule="evenodd" clip-rule="evenodd" fill="#D0D2D3" width="22.858" height="45.706"/>
		<path clip-path="url(#SVGID_10_)" fill-rule="evenodd" clip-rule="evenodd" fill="#D0D2D3" d="M909.807,403.537H896.77v-11.025
			C896.77,392.512,898.81,400.577,909.807,403.537"/>
		
			<rect x="822.608" y="234.232" clip-path="url(#SVGID_10_)" fill-rule="evenodd" clip-rule="evenodd" fill="#FFFFFF" width="161.357" height="169.305"/>
		<g opacity="0.5" clip-path="url(#SVGID_10_)">
			<g>
				<defs>
					<rect id="SVGID_13_" x="1039.939" y="152.271" width="298.73" height="652.799"/>
				</defs>
				<clipPath id="SVGID_14_">
					<use xlink:href="#SVGID_13_"  overflow="visible"/>
				</clipPath>
				<path clip-path="url(#SVGID_14_)" fill-rule="evenodd" clip-rule="evenodd" fill="#4D7E73" d="M1334.403,232.177h-31.909
					h-22.035c-0.585,0-1.142,0.119-1.649,0.332v-0.46v-28.14v-0.908v-5.417c0.508,0.214,1.064,0.332,1.649,0.332h22.035h31.909
					c2.356,0,4.269-1.912,4.269-4.269c0-2.356-1.912-4.268-4.269-4.268h-31.909h-22.035c-0.585,0-1.142,0.119-1.649,0.332v-14.849
					h-65.205v-8.177c0-7.961-6.161-14.414-13.763-14.414h-37.311h-71.516h-37.312c-7.602,0-13.762,6.453-13.762,14.414V394.57
					c0,7.961,6.16,14.414,13.762,14.414h37.312h30.724v0.262h-15.365v11.366h4.71v11.364h3.575v10.417h7.08v253.655h-4.83v8.483
					h-2.912v9.256h-3.835v9.255L1106,738.985V773h5.743v32.07h4.972h4.97h11.598h8.524V773H1147v-34.015l-3.615-15.943v-9.255
					h-3.834v-9.256h-2.911v-8.483h-4.832V442.393h7.079v-10.417h3.577v-11.364h4.709v-11.366h-15.365v-0.262h30.724h37.311
					c7.602,0,13.763-6.453,13.763-14.414V255.231h65.205v-14.848c0.508,0.212,1.064,0.331,1.649,0.331h22.035h31.909
					c2.356,0,4.269-1.911,4.269-4.268S1336.76,232.177,1334.403,232.177"/>
			</g>
		</g>
		<path clip-path="url(#SVGID_10_)" fill-rule="evenodd" clip-rule="evenodd" fill="#FFFFFF" d="M1186.843,146.271h-37.312h-71.516
			h-37.312c-7.602,0-13.762,6.453-13.762,14.415v227.884c0,7.962,6.16,14.414,13.762,14.414h37.312h71.516h37.312
			c7.601,0,13.762-6.452,13.762-14.414V160.686C1200.604,152.724,1194.443,146.271,1186.843,146.271"/>
		<path clip-path="url(#SVGID_10_)" fill-rule="evenodd" clip-rule="evenodd" fill="#EC1C24" d="M1066.069,178.191
			c0,5.875-4.609,10.639-10.297,10.639c-5.687,0-10.296-4.764-10.296-10.639c0-5.876,4.609-10.64,10.296-10.64
			C1061.46,167.551,1066.069,172.315,1066.069,178.191"/>
		
			<rect x="1200.605" y="168.861" clip-path="url(#SVGID_10_)" fill-rule="evenodd" clip-rule="evenodd" fill="#FFFFFF" width="65.205" height="80.369"/>
		
			<rect x="1200.605" y="168.861" clip-path="url(#SVGID_10_)" fill-rule="evenodd" clip-rule="evenodd" fill="#D0D2D3" width="65.205" height="28.139"/>
		
			<rect x="1200.605" y="197.909" clip-path="url(#SVGID_10_)" fill-rule="evenodd" clip-rule="evenodd" fill="#E6E7E8" width="65.205" height="28.139"/>
		<path clip-path="url(#SVGID_10_)" fill-rule="evenodd" clip-rule="evenodd" fill="#D0D2D3" d="M1321.403,226.177
			c2.356,0,4.269,1.912,4.269,4.269s-1.912,4.268-4.269,4.268h-53.944c-2.357,0-4.269-1.911-4.269-4.268s1.911-4.269,4.269-4.269
			H1321.403z"/>
		<path clip-path="url(#SVGID_10_)" fill="#FFFFFF" d="M1267.459,226.177c-2.357,0-4.27,1.912-4.27,4.269s1.912,4.268,4.27,4.268
			h22.035v-8.537H1267.459z"/>
		<path clip-path="url(#SVGID_10_)" fill-rule="evenodd" clip-rule="evenodd" fill="#D0D2D3" d="M1321.403,183.379
			c2.356,0,4.269,1.912,4.269,4.268c0,2.357-1.912,4.269-4.269,4.269h-53.944c-2.357,0-4.269-1.912-4.269-4.269
			c0-2.356,1.911-4.268,4.269-4.268H1321.403z"/>
		<path clip-path="url(#SVGID_10_)" fill="#FFFFFF" d="M1267.459,183.379c-2.357,0-4.27,1.912-4.27,4.268
			c0,2.357,1.912,4.269,4.27,4.269h22.035v-8.537H1267.459z"/>
		
			<rect x="1108.74" y="400.688" clip-path="url(#SVGID_10_)" fill-rule="evenodd" clip-rule="evenodd" fill="#FFFFFF" width="10.067" height="297.357"/>
		
			<rect x="1093.374" y="403.246" clip-path="url(#SVGID_10_)" fill-rule="evenodd" clip-rule="evenodd" fill="#FFFFFF" width="40.799" height="11.365"/>
		
			<rect x="1098.084" y="414.611" clip-path="url(#SVGID_10_)" fill-rule="evenodd" clip-rule="evenodd" fill="#FFFFFF" width="31.38" height="11.365"/>
		
			<rect x="1101.659" y="425.028" clip-path="url(#SVGID_10_)" fill-rule="evenodd" clip-rule="evenodd" fill="#FFFFFF" width="24.229" height="11.365"/>
		
			<rect x="1097.162" y="707.787" clip-path="url(#SVGID_10_)" fill-rule="evenodd" clip-rule="evenodd" fill="#FFFFFF" width="33.224" height="9.255"/>
		
			<rect x="1100.997" y="698.531" clip-path="url(#SVGID_10_)" fill-rule="evenodd" clip-rule="evenodd" fill="#FFFFFF" width="25.554" height="9.256"/>
		
			<rect x="1103.909" y="690.048" clip-path="url(#SVGID_10_)" fill-rule="evenodd" clip-rule="evenodd" fill="#FFFFFF" width="19.729" height="9.255"/>
		<g opacity="0.5" clip-path="url(#SVGID_10_)">
			<g>
				<defs>
					<rect id="SVGID_15_" x="647.923" y="207.764" width="142.611" height="501.203"/>
				</defs>
				<clipPath id="SVGID_16_">
					<use xlink:href="#SVGID_15_"  overflow="visible"/>
				</clipPath>
				<path clip-path="url(#SVGID_16_)" fill-rule="evenodd" clip-rule="evenodd" fill="#4D7E73" d="M790.534,259.578h-31.693v-15.192
					v-32.301c0-2.386-1.936-4.321-4.32-4.321c-2.387,0-4.322,1.935-4.322,4.321v32.301v15.192h-61.936v-15.192v-32.301
					c0-2.386-1.936-4.321-4.321-4.321c-2.385,0-4.321,1.935-4.321,4.321v32.301v15.192h-23.527h-8.17v149.635h8.17h23.527h11.523
					v30.324h9.929v9.674h4.19v10.115h3.184v9.272h5.748v153.567h-3.919h-9.339c-1.901,0-3.444,1.416-3.444,3.163v49.998
					c0,1.747,1.543,3.164,3.444,3.164h3.262v30.477h4.972h4.969h11.599h8.524V678.49h3.26c1.901,0,3.444-1.417,3.444-3.164v-49.998
					c0-1.747-1.543-3.163-3.444-3.163h-9.342h-3.917V468.598h5.748v-9.272h3.183v-10.115h4.191v-9.674h9.931h0.002v-30.324h43.217
					V259.578z"/>
			</g>
		</g>
		
			<rect x="692.198" y="671.818" clip-path="url(#SVGID_10_)" fill-rule="evenodd" clip-rule="evenodd" fill="#B5BEC2" width="30.063" height="32.147"/>
		
			<rect x="692.198" y="671.818" clip-path="url(#SVGID_10_)" fill-rule="evenodd" clip-rule="evenodd" fill="#FFFFFF" width="9.94" height="32.147"/>
		
			<rect x="697.169" y="671.818" clip-path="url(#SVGID_10_)" fill-rule="evenodd" clip-rule="evenodd" fill="#D0D2D3" width="16.568" height="32.147"/>
		<path clip-path="url(#SVGID_10_)" fill-rule="evenodd" clip-rule="evenodd" fill="#FFFFFF" d="M688.937,673.49h9.339h17.905h9.341
			c1.901,0,3.444-1.417,3.444-3.164v-49.998c0-1.747-1.543-3.163-3.444-3.163h-9.341h-17.905h-9.339
			c-1.902,0-3.445,1.416-3.445,3.163v49.998C685.492,672.073,687.035,673.49,688.937,673.49"/>
		
			<rect x="702.195" y="434.537" clip-path="url(#SVGID_10_)" fill-rule="evenodd" clip-rule="evenodd" fill="#FFFFFF" width="10.067" height="220.918"/>
		
			<rect x="689.072" y="434.095" clip-path="url(#SVGID_10_)" fill-rule="evenodd" clip-rule="evenodd" fill="#FFFFFF" width="36.313" height="10.116"/>
		
			<rect x="693.264" y="444.211" clip-path="url(#SVGID_10_)" fill-rule="evenodd" clip-rule="evenodd" fill="#FFFFFF" width="27.929" height="10.115"/>
		
			<rect x="696.447" y="453.482" clip-path="url(#SVGID_10_)" fill-rule="evenodd" clip-rule="evenodd" fill="#FFFFFF" width="21.564" height="10.116"/>
		
			<rect x="679.143" y="398.527" clip-path="url(#SVGID_10_)" fill-rule="evenodd" clip-rule="evenodd" fill="#FFFFFF" width="56.174" height="36.01"/>
		<path clip-path="url(#SVGID_10_)" fill-rule="evenodd" clip-rule="evenodd" fill="#D0D2D3" d="M738.198,207.085
			c0-2.386,1.936-4.321,4.322-4.321c2.385,0,4.32,1.935,4.32,4.321v54.607c0,2.386-1.936,4.322-4.32,4.322
			c-2.387,0-4.322-1.936-4.322-4.322V207.085z"/>
		<path clip-path="url(#SVGID_10_)" fill-rule="evenodd" clip-rule="evenodd" fill="#D0D2D3" d="M667.621,207.085
			c0-2.386,1.936-4.321,4.32-4.321c2.386,0,4.322,1.935,4.322,4.321v54.607c0,2.386-1.936,4.322-4.322,4.322
			c-2.384,0-4.32-1.936-4.32-4.322V207.085z"/>
		<path clip-path="url(#SVGID_10_)" fill="#FFFFFF" d="M738.198,261.692c0,2.386,1.936,4.321,4.322,4.321
			c2.385,0,4.32-1.935,4.32-4.321v-22.307h-8.643V261.692z"/>
		<path clip-path="url(#SVGID_10_)" fill="#FFFFFF" d="M667.621,261.692c0,2.386,1.936,4.321,4.32,4.321
			c2.386,0,4.322-1.935,4.322-4.321v-22.307h-8.642V261.692z"/>
		
			<rect x="689.702" y="398.527" clip-path="url(#SVGID_10_)" fill-rule="evenodd" clip-rule="evenodd" fill="#D0D2D3" width="45.614" height="36.01"/>
		
			<rect x="635.923" y="254.578" clip-path="url(#SVGID_10_)" fill-rule="evenodd" clip-rule="evenodd" fill="#FFFFFF" width="142.611" height="149.635"/>
		
			<rect x="644.093" y="254.578" clip-path="url(#SVGID_10_)" fill-rule="evenodd" clip-rule="evenodd" fill="#D0D2D3" width="23.527" height="149.635"/>
		<path clip-path="url(#SVGID_10_)" fill-rule="evenodd" clip-rule="evenodd" fill="#D0D2D3" d="M679.143,404.213h-11.522v-9.745
			C667.621,394.468,669.423,401.597,679.143,404.213"/>
		<polygon clip-path="url(#SVGID_10_)" fill-rule="evenodd" clip-rule="evenodd" fill="#FFFFFF" points="1134,732.985 1093,732.985 
			1097.162,717.042 1130.386,717.042 		"/>
		
			<rect x="1093" y="732.985" clip-path="url(#SVGID_10_)" fill-rule="evenodd" clip-rule="evenodd" fill="#FFFFFF" width="41" height="34.015"/>
		
			<rect x="1098.743" y="766.922" clip-path="url(#SVGID_10_)" fill-rule="evenodd" clip-rule="evenodd" fill="#B5BEC2" width="30.063" height="32.148"/>
		
			<rect x="1098.743" y="766.922" clip-path="url(#SVGID_10_)" fill-rule="evenodd" clip-rule="evenodd" fill="#FFFFFF" width="9.94" height="32.148"/>
		
			<rect x="1103.715" y="766.922" clip-path="url(#SVGID_10_)" fill-rule="evenodd" clip-rule="evenodd" fill="#D0D2D3" width="16.567" height="32.148"/>
	</g>
</g>
</svg>
