<?xml version="1.0" encoding="utf-8"?>
<!-- Generator: Adobe Illustrator 15.0.0, SVG Export Plug-In . SVG Version: 6.00 Build 0)  -->
<!DOCTYPE svg PUBLIC "-//W3C//DTD SVG 1.1//EN" "http://www.w3.org/Graphics/SVG/1.1/DTD/svg11.dtd">
<svg version="1.1" xmlns="http://www.w3.org/2000/svg" xmlns:xlink="http://www.w3.org/1999/xlink" x="0px" y="0px" width="550px"
	 height="385px" viewBox="0 0 550 385" enable-background="new 0 0 550 385" xml:space="preserve">
<g id="background">
	
		<radialGradient id="color_1_" cx="275" cy="194.75" r="335.0029" gradientTransform="matrix(1 0 0 1 0 -2.25)" gradientUnits="userSpaceOnUse">
		<stop  offset="0" style="stop-color:#E6E6E6"/>
		<stop  offset="1" style="stop-color:#D1D3D4"/>
	</radialGradient>
	<rect id="color" opacity="0.8" fill="url(#color_1_)" width="550" height="385"/>
</g>
<g id="iphone_1_">
	<g>
		<g id="Blend__x28_white_x29_">
			<path opacity="0" fill="#FFFFFF" d="M446.326,352.485V164.713c0-17.952-14.561-32.498-32.512-32.498H32.513
				C14.561,132.215,0,146.761,0,164.713v187.772C0,370.466,14.561,385,32.513,385h381.302
				C431.766,385,446.326,370.466,446.326,352.485z"/>
			<path opacity="0.0323" fill="#FEFEFE" d="M447.854,350.292V162.641c0-17.94-14.551-32.477-32.491-32.477H34.308
				c-17.941,0-32.492,14.537-32.492,32.477v187.651c0,17.969,14.551,32.494,32.492,32.494h381.055
				C433.304,382.786,447.854,368.261,447.854,350.292z"/>
			<path opacity="0.0645" fill="#FCFCFC" d="M449.383,348.1v-187.53c0-17.929-14.542-32.456-32.47-32.456H36.104
				c-17.929,0-32.471,14.527-32.471,32.456V348.1c0,17.957,14.542,32.472,32.471,32.472h380.81
				C434.841,380.571,449.383,366.057,449.383,348.1z"/>
			<path opacity="0.0968" fill="#FBFBFB" d="M450.91,345.906V158.497c0-17.917-14.532-32.435-32.448-32.435H37.898
				c-17.917,0-32.45,14.518-32.45,32.435v187.409c0,17.945,14.532,32.451,32.45,32.451h380.564
				C436.378,378.357,450.91,363.852,450.91,345.906z"/>
			<path opacity="0.129" fill="#F9F9F9" d="M452.438,343.713V156.425c0-17.906-14.522-32.414-32.428-32.414H39.693
				c-17.906,0-32.429,14.508-32.429,32.414v187.288c0,17.935,14.523,32.432,32.429,32.432h380.317
				C437.916,376.145,452.438,361.647,452.438,343.713z"/>
			<path opacity="0.1613" fill="#F8F8F8" d="M453.967,341.52V154.354c0-17.895-14.514-32.393-32.406-32.393H41.489
				c-17.895,0-32.408,14.499-32.408,32.393V341.52c0,17.923,14.513,32.41,32.408,32.41h380.071
				C439.453,373.93,453.967,359.442,453.967,341.52z"/>
			<path opacity="0.1935" fill="#F6F6F7" d="M455.495,339.327V152.281c0-17.883-14.505-32.372-32.386-32.372H43.284
				c-17.882,0-32.387,14.489-32.387,32.372v187.046c0,17.91,14.504,32.389,32.387,32.389h379.826
				C440.99,371.716,455.495,357.237,455.495,339.327z"/>
			<path opacity="0.2258" fill="#F5F5F5" d="M457.022,337.134V150.209c0-17.871-14.494-32.351-32.364-32.351H45.079
				c-17.871,0-32.366,14.48-32.366,32.351v186.925c0,17.898,14.495,32.367,32.366,32.367h379.579
				C442.528,369.501,457.022,355.032,457.022,337.134z"/>
			<path opacity="0.2581" fill="#F3F4F4" d="M458.551,334.94V148.138c0-17.86-14.484-32.331-32.344-32.331H46.874
				c-17.859,0-32.345,14.471-32.345,32.331V334.94c0,17.888,14.485,32.348,32.345,32.348h379.333
				C444.066,367.288,458.551,352.828,458.551,334.94z"/>
			<path opacity="0.2903" fill="#F2F2F3" d="M460.079,332.748V146.065c0-17.848-14.476-32.309-32.322-32.309H48.67
				c-17.848,0-32.324,14.461-32.324,32.309v186.683c0,17.876,14.477,32.326,32.324,32.326h379.087
				C445.604,365.074,460.079,350.624,460.079,332.748z"/>
			<path opacity="0.3226" fill="#F0F1F1" d="M461.607,330.555V143.993c0-17.836-14.467-32.288-32.302-32.288H50.465
				c-17.836,0-32.303,14.452-32.303,32.288v186.562c0,17.863,14.467,32.305,32.303,32.305h378.841
				C447.141,362.859,461.607,348.418,461.607,330.555z"/>
			<path opacity="0.3548" fill="#EFEFF0" d="M463.135,328.361v-186.44c0-17.825-14.457-32.268-32.28-32.268H52.26
				c-17.825,0-32.282,14.443-32.282,32.268v186.44c0,17.852,14.457,32.284,32.282,32.284h378.595
				C448.678,360.646,463.135,346.213,463.135,328.361z"/>
			<path opacity="0.3871" fill="#EDEEEE" d="M464.664,326.168V139.85c0-17.813-14.448-32.246-32.26-32.246H54.055
				c-17.813,0-32.261,14.433-32.261,32.246v186.318c0,17.842,14.448,32.264,32.261,32.264h378.349
				C450.216,358.432,464.664,344.01,464.664,326.168z"/>
			<path opacity="0.4194" fill="#ECECED" d="M466.192,323.976V137.778c0-17.802-14.438-32.226-32.239-32.226H55.851
				c-17.802,0-32.24,14.424-32.24,32.226v186.197c0,17.829,14.438,32.242,32.24,32.242h378.103
				C451.754,356.218,466.192,341.805,466.192,323.976z"/>
			<path opacity="0.4516" fill="#EAEBEC" d="M467.721,321.782V135.706c0-17.791-14.43-32.205-32.219-32.205H57.646
				c-17.79,0-32.219,14.415-32.219,32.205v186.076c0,17.817,14.429,32.222,32.219,32.222h377.856
				C453.291,354.004,467.721,339.6,467.721,321.782z"/>
			<path opacity="0.4839" fill="#E9EAEA" d="M469.248,319.589V133.634c0-17.779-14.42-32.184-32.197-32.184H59.44
				c-17.778,0-32.198,14.404-32.198,32.184v185.955c0,17.806,14.42,32.2,32.198,32.2h377.61
				C454.828,351.789,469.248,337.395,469.248,319.589z"/>
			<path opacity="0.5161" fill="#E7E8E9" d="M470.776,317.396V131.562c0-17.767-14.41-32.162-32.176-32.162H61.236
				c-17.767,0-32.178,14.396-32.178,32.162v185.835c0,17.794,14.411,32.18,32.178,32.18h377.364
				C456.366,349.576,470.776,335.19,470.776,317.396z"/>
			<path opacity="0.5484" fill="#E6E7E8" d="M472.305,315.203V129.49c0-17.756-14.401-32.142-32.155-32.142H63.031
				c-17.755,0-32.156,14.386-32.156,32.142v185.713c0,17.782,14.401,32.158,32.156,32.158h377.118
				C457.903,347.361,472.305,332.985,472.305,315.203z"/>
			<path opacity="0.5806" fill="#E4E5E6" d="M473.832,313.01V127.418c0-17.744-14.391-32.12-32.134-32.12H64.826
				c-17.743,0-32.135,14.376-32.135,32.12V313.01c0,17.771,14.392,32.138,32.135,32.138h376.872
				C459.441,345.147,473.832,330.781,473.832,313.01z"/>
			<path opacity="0.6129" fill="#E3E4E5" d="M475.36,310.816V125.346c0-17.732-14.382-32.099-32.112-32.099H66.622
				c-17.732,0-32.114,14.367-32.114,32.099v185.471c0,17.76,14.382,32.117,32.114,32.117h376.626
				C460.979,342.934,475.36,328.576,475.36,310.816z"/>
			<path opacity="0.6452" fill="#E1E2E3" d="M476.889,308.623V123.274c0-17.721-14.373-32.078-32.092-32.078H68.417
				c-17.72,0-32.093,14.357-32.093,32.078v185.349c0,17.748,14.373,32.097,32.093,32.097h376.38
				C462.516,340.72,476.889,326.371,476.889,308.623z"/>
			<path opacity="0.6774" fill="#E0E1E2" d="M478.417,306.431V121.202c0-17.709-14.363-32.058-32.071-32.058H70.212
				c-17.709,0-32.072,14.349-32.072,32.058v185.229c0,17.735,14.363,32.075,32.072,32.075h376.134
				C464.054,338.506,478.417,324.166,478.417,306.431z"/>
			<path opacity="0.7097" fill="#DEE0E1" d="M479.945,304.237V119.13c0-17.698-14.354-32.037-32.051-32.037H72.007
				c-17.697,0-32.051,14.339-32.051,32.037v185.107c0,17.725,14.354,32.055,32.051,32.055h375.887
				C465.591,336.292,479.945,321.962,479.945,304.237z"/>
			<path opacity="0.7419" fill="#DDDEDF" d="M481.473,302.045V117.058c0-17.686-14.344-32.015-32.028-32.015H73.803
				c-17.686,0-32.03,14.329-32.03,32.015v184.987c0,17.712,14.345,32.032,32.03,32.032h375.642
				C467.129,334.077,481.473,319.757,481.473,302.045z"/>
			<path opacity="0.7742" fill="#DCDDDE" d="M483.001,299.852V114.986c0-17.675-14.335-31.994-32.008-31.994H75.598
				c-17.674,0-32.009,14.319-32.009,31.994v184.865c0,17.701,14.335,32.012,32.009,32.012h375.396
				C468.666,331.863,483.001,317.553,483.001,299.852z"/>
			<path opacity="0.8065" fill="#DADBDD" d="M484.529,297.658V112.915c0-17.663-14.325-31.974-31.987-31.974H77.393
				c-17.662,0-31.988,14.311-31.988,31.974v184.744c0,17.689,14.326,31.991,31.988,31.991h375.149
				C470.204,329.649,484.529,315.348,484.529,297.658z"/>
			<path opacity="0.8387" fill="#D9DADB" d="M486.058,295.465V110.842c0-17.651-14.316-31.953-31.966-31.953H79.188
				c-17.65,0-31.967,14.301-31.967,31.953v184.623c0,17.678,14.317,31.971,31.967,31.971h374.904
				C471.741,327.436,486.058,313.143,486.058,295.465z"/>
			<path opacity="0.871" fill="#D7D8DA" d="M487.586,293.272V108.771c0-17.64-14.308-31.931-31.945-31.931H80.983
				c-17.639,0-31.946,14.292-31.946,31.931v184.502c0,17.666,14.307,31.949,31.946,31.949h374.658
				C473.278,325.222,487.586,310.938,487.586,293.272z"/>
			<path opacity="0.9032" fill="#D6D7D8" d="M489.113,291.079v-184.38c0-17.628-14.297-31.911-31.924-31.911H82.779
				c-17.628,0-31.926,14.282-31.926,31.911v184.38c0,17.654,14.298,31.929,31.926,31.929h374.411
				C474.816,323.008,489.113,308.733,489.113,291.079z"/>
			<path opacity="0.9355" fill="#D4D5D7" d="M490.642,288.886V104.626c0-17.617-14.288-31.89-31.902-31.89H84.574
				c-17.616,0-31.904,14.273-31.904,31.89v184.259c0,17.643,14.288,31.907,31.904,31.907h374.166
				C476.354,320.793,490.642,306.528,490.642,288.886z"/>
			<path opacity="0.9677" fill="#D3D4D6" d="M492.17,286.693V102.555c0-17.605-14.279-31.869-31.882-31.869H86.369
				c-17.604,0-31.883,14.263-31.883,31.869v184.138c0,17.631,14.279,31.886,31.883,31.886h373.919
				C477.891,318.579,492.17,304.324,492.17,286.693z"/>
			<path fill="#D1D3D4" d="M493.698,284.5V100.483c0-17.594-14.27-31.848-31.861-31.848H88.164
				c-17.593,0-31.862,14.254-31.862,31.848V284.5c0,17.619,14.27,31.865,31.862,31.865h373.673
				C479.429,316.365,493.698,302.119,493.698,284.5z"/>
		</g>
		<g id="iphone">
			<path fill="#FFFFFF" d="M84.348,318.894H465.65c17.951,0,32.514-14.536,32.514-32.514V98.606c0-17.954-14.563-32.5-32.514-32.5
				H84.348c-17.951,0-32.512,14.546-32.512,32.5V286.38C51.836,304.357,66.396,318.894,84.348,318.894z"/>
			<path fill="#E6E6E6" d="M475.196,192.51c0-5.522-4.474-10.009-9.999-10.009c-5.519,0-10.001,4.487-10.001,10.009
				c0,5.518,4.482,9.99,10.001,9.99C470.723,202.5,475.196,198.027,475.196,192.51z"/>
			<g>
				<rect x="86.132" y="154.444" fill="#E6E6E6" width="7.024" height="76.111"/>
				<rect x="86.937" y="155.557" fill="#F2F2F2" width="5.416" height="73.885"/>
			</g>
			<rect x="123.418" y="90.458" fill="#4D4D4D" width="303.164" height="204.083"/>
		</g>
	</g>
</g>
<g id="icons_1_">
	<g>
		<g>
			<rect x="350.464" y="243.29" fill="#4FC1E9" width="38.184" height="38.183"/>
			<g>
				<path fill="#FFFFFF" d="M365.376,261.488l-7.529,8.055v-6.086v-1.877v-6.275L365.376,261.488z M380.284,254.48h-21.393
					l10.914,8.967L380.284,254.48z M370.233,264.787l-0.412,0.354l-0.42-0.346l-3.018-2.477l-7.445,7.959h21.574l-7.332-8.012
					L370.233,264.787z M374.167,261.424l7.098,7.756v-5.723v-1.877v-6.229L374.167,261.424z"/>
			</g>
		</g>
		<g>
			<rect x="302.692" y="243.29" fill="#967DD9" width="38.182" height="38.183"/>
			<g>
				<path fill="#FFFFFF" d="M321.786,250.672c-5.242,0-9.488,4.396-9.488,9.818c0,1.578,0.369,3.064,1.01,4.387
					c0.514,1.061,1.195,2.014,2.027,2.811c0.006,0.006,0.014,0.016,0.021,0.025c0.033,0.031,5.143,5.275,5.795,5.93
					c0.586,0.592,0.637,0.604,1.254,0.002c0.516-0.5,5.777-5.904,5.793-5.92c0.012-0.012,0.023-0.025,0.039-0.037
					c0.828-0.797,1.51-1.75,2.021-2.811c0.641-1.322,1.012-2.809,1.012-4.387C331.271,255.068,327.024,250.672,321.786,250.672z
					 M321.786,267.074c-1.975,0-3.746-0.85-4.986-2.197c-1.109-1.207-1.795-2.813-1.795-4.582c0-3.748,3.037-6.781,6.781-6.781
					s6.779,3.033,6.779,6.781c0,1.77-0.684,3.375-1.797,4.582C325.532,266.225,323.761,267.074,321.786,267.074z"/>
				<polygon fill="#FFFFFF" points="323.136,258.492 321.835,254.744 320.53,258.492 316.562,258.572 319.726,260.969 
					318.577,264.768 321.835,262.502 325.087,264.768 323.942,260.969 327.103,258.572 				"/>
			</g>
		</g>
		<g>
			<rect x="255.699" y="243.29" fill="#B3B3B3" width="38.187" height="38.183"/>
			<g>
				<path fill="#FFFFFF" d="M285.419,250.75h-8.654c-0.598,0-1.084,0.486-1.084,1.082v8.658c0,0.594,0.486,1.08,1.084,1.08h8.654
					c0.598,0,1.084-0.486,1.084-1.08v-8.658C286.503,251.236,286.017,250.75,285.419,250.75z M283.271,256.887h-4.357
					c-0.461,0-0.838-0.328-0.838-0.727c0-0.396,0.377-0.727,0.838-0.727h4.357c0.459,0,0.836,0.33,0.836,0.727
					C284.106,256.559,283.729,256.887,283.271,256.887z"/>
				<path fill="#FFFFFF" d="M272.821,250.75h-8.656c-0.596,0-1.083,0.486-1.083,1.082v8.658c0,0.594,0.487,1.08,1.083,1.08h8.656
					c0.596,0,1.084-0.486,1.084-1.08v-8.658C273.905,251.236,273.417,250.75,272.821,250.75z M270.673,256.887h-1.455v1.455
					c0,0.461-0.324,0.836-0.726,0.836c-0.397,0-0.726-0.375-0.726-0.836v-1.455h-1.454c-0.461,0-0.836-0.328-0.836-0.727
					c0-0.4,0.375-0.727,0.836-0.727h1.454v-1.453c0-0.461,0.328-0.836,0.726-0.836c0.401,0,0.726,0.375,0.726,0.836v1.453h1.455
					c0.461,0,0.836,0.326,0.836,0.727C271.509,256.559,271.134,256.887,270.673,256.887z"/>
				<path fill="#FFFFFF" d="M272.821,263.189h-8.656c-0.596,0-1.083,0.486-1.083,1.086v8.652c0,0.598,0.487,1.084,1.083,1.084h8.656
					c0.596,0,1.084-0.486,1.084-1.084v-8.652C273.905,263.676,273.417,263.189,272.821,263.189z M268.494,265.555
					c0.463,0,0.837,0.377,0.837,0.84c0,0.465-0.374,0.84-0.837,0.84c-0.465,0-0.839-0.375-0.839-0.84
					C267.655,265.932,268.029,265.555,268.494,265.555z M268.494,271.646c-0.465,0-0.839-0.377-0.839-0.842
					c0-0.461,0.374-0.836,0.839-0.836c0.463,0,0.837,0.375,0.837,0.836C269.331,271.27,268.957,271.646,268.494,271.646z
					 M270.673,269.324h-4.36c-0.461,0-0.836-0.324-0.836-0.725c0-0.398,0.375-0.725,0.836-0.725h4.36
					c0.461,0,0.836,0.326,0.836,0.725C271.509,269,271.134,269.324,270.673,269.324z"/>
				<path fill="#FFFFFF" d="M285.419,263.189h-8.654c-0.598,0-1.084,0.486-1.084,1.086v8.652c0,0.598,0.486,1.084,1.084,1.084h8.654
					c0.598,0,1.084-0.486,1.084-1.084v-8.652C286.503,263.676,286.017,263.189,285.419,263.189z M283.271,270.725h-4.357
					c-0.461,0-0.838-0.328-0.838-0.727c0-0.4,0.377-0.727,0.838-0.727h4.357c0.459,0,0.836,0.326,0.836,0.727
					C284.106,270.396,283.729,270.725,283.271,270.725z M283.271,267.934h-4.357c-0.461,0-0.838-0.326-0.838-0.729
					c0-0.398,0.377-0.729,0.838-0.729h4.357c0.459,0,0.836,0.33,0.836,0.729C284.106,267.607,283.729,267.934,283.271,267.934z"/>
			</g>
		</g>
		<g>
			<rect x="208.707" y="243.29" fill="#48CFAD" width="38.186" height="38.183"/>
			<g>
				<path fill="#FFFFFF" d="M227.801,251.598c-6.468,0-11.71,4.348-11.71,9.701c0,2.695,1.328,5.135,3.47,6.893l-0.735,4.973
					l4.445-2.918c1.393,0.484,2.924,0.754,4.53,0.754c6.467,0,11.709-4.342,11.709-9.701
					C239.51,255.945,234.268,251.598,227.801,251.598z M234.782,265.637c-0.284,0.709-1.568,1.357-2.138,1.389
					c-0.567,0.031-0.582,0.445-3.676-0.908c-3.089-1.355-4.949-4.645-5.096-4.859c-0.146-0.211-1.198-1.719-1.142-3.238
					c0.058-1.518,0.884-2.236,1.18-2.533c0.292-0.299,0.63-0.361,0.834-0.355c0.208,0.006,0.411,0.041,0.593,0.047
					c0.18,0.008,0.44-0.086,0.674,0.543c0.234,0.625,0.796,2.166,0.867,2.324s0.114,0.342,0.006,0.543
					c-0.112,0.203-0.171,0.33-0.329,0.502c-0.162,0.178-0.339,0.391-0.482,0.525c-0.162,0.146-0.329,0.309-0.161,0.623
					c0.171,0.316,0.752,1.35,1.639,2.203c1.139,1.094,2.122,1.457,2.424,1.623c0.303,0.166,0.484,0.146,0.672-0.051
					c0.187-0.199,0.806-0.873,1.021-1.172c0.22-0.305,0.423-0.244,0.702-0.129c0.278,0.111,1.768,0.916,2.07,1.08
					c0.305,0.168,0.506,0.254,0.579,0.383C235.092,264.309,235.067,264.928,234.782,265.637z"/>
			</g>
		</g>
		<g>
			<rect x="161.717" y="243.29" fill="#A0D468" width="38.186" height="38.183"/>
			<path fill="#FFFFFF" d="M180.81,251.641c-6.467,0-11.71,4.359-11.71,9.732c0,3.941,2.818,7.338,6.87,8.869
				c1.321,0.496,0.594,1.363-1.871,2.551c-0.29,0.139-0.286,0.363,0.058,0.32c2.403-0.283,5.332-0.803,8.363-1.813
				c5.769-1.924,9.999-4.902,9.999-9.928C192.519,256,187.275,251.641,180.81,251.641z M176.271,264.027
				c-0.399,0.234-0.88,0.346-1.427,0.346c-0.665,0-1.219-0.129-1.657-0.398c-0.539-0.326-0.828-0.846-0.838-1.494l-0.002-0.15h1.62
				v0.146c0.004,0.207,0.062,0.332,0.174,0.426c0.129,0.107,0.376,0.182,0.745,0.182c0.268,0,0.45-0.059,0.563-0.156
				c0.091-0.08,0.121-0.145,0.122-0.227c-0.001-0.076-0.044-0.15-0.235-0.236c-0.115-0.045-0.371-0.111-0.747-0.191
				c-0.616-0.127-1.057-0.266-1.337-0.42c-0.471-0.268-0.726-0.699-0.721-1.232c-0.001-0.48,0.151-0.895,0.453-1.223
				c0.379-0.41,0.948-0.607,1.669-0.605c0.603,0,1.097,0.102,1.48,0.32c0.517,0.293,0.804,0.811,0.848,1.486l0.012,0.156h-1.406
				h-0.124l-0.02-0.121c-0.031-0.197-0.09-0.326-0.147-0.385c-0.096-0.092-0.283-0.158-0.582-0.158
				c-0.302-0.002-0.488,0.059-0.562,0.131c-0.049,0.043-0.078,0.098-0.08,0.217c0,0.053,0.031,0.115,0.227,0.195
				c0.103,0.049,0.349,0.115,0.711,0.189c0.63,0.129,1.079,0.266,1.362,0.43c0.488,0.26,0.754,0.695,0.749,1.232
				C177.125,263.168,176.832,263.707,176.271,264.027z M184.659,264.209h-1.569v-3.174c0-0.326-0.07-0.549-0.182-0.674
				c-0.096-0.113-0.209-0.162-0.382-0.166c-0.277,0.004-0.444,0.082-0.558,0.229c-0.107,0.143-0.169,0.354-0.169,0.646v3.139h-1.551
				v-3.146c-0.004-0.295-0.043-0.502-0.088-0.602c-0.09-0.172-0.243-0.262-0.553-0.266c-0.26,0.004-0.407,0.076-0.513,0.225
				c-0.091,0.125-0.147,0.324-0.147,0.605v3.184h-1.567v-5.279h1.525v0.404c0.066-0.078,0.138-0.148,0.214-0.209
				c0.282-0.225,0.639-0.334,1.049-0.332c0.357,0,0.66,0.068,0.898,0.219c0.161,0.104,0.312,0.266,0.455,0.471
				c0.123-0.162,0.248-0.291,0.371-0.383c0.268-0.205,0.581-0.309,0.927-0.307c0.517-0.002,0.959,0.15,1.298,0.461
				c0.362,0.334,0.542,0.803,0.541,1.367V264.209z M188.799,264.027c-0.399,0.234-0.876,0.346-1.424,0.346c-0.002,0-0.003,0-0.005,0
				c-0.664,0-1.219-0.129-1.656-0.398c-0.539-0.326-0.829-0.846-0.838-1.496l-0.002-0.146h1.622v0.145
				c0.001,0.207,0.06,0.332,0.173,0.424c0.128,0.109,0.375,0.184,0.744,0.184c0.268,0,0.448-0.061,0.562-0.156
				c0.092-0.08,0.12-0.145,0.123-0.227c-0.001-0.076-0.044-0.148-0.236-0.236c-0.114-0.045-0.371-0.113-0.746-0.191
				c-0.618-0.127-1.059-0.266-1.338-0.424c-0.47-0.264-0.725-0.695-0.721-1.229c0-0.48,0.151-0.895,0.453-1.223
				c0.38-0.41,0.949-0.607,1.67-0.607c0.604,0.002,1.098,0.104,1.479,0.322c0.517,0.293,0.806,0.811,0.849,1.486l0.012,0.156h-1.408
				h-0.123l-0.02-0.121c-0.03-0.195-0.091-0.326-0.146-0.385c-0.095-0.092-0.283-0.158-0.583-0.158
				c-0.301-0.002-0.489,0.059-0.56,0.131c-0.05,0.043-0.08,0.102-0.081,0.217c0,0.053,0.031,0.115,0.227,0.195
				c0.103,0.049,0.348,0.115,0.712,0.188c0.628,0.131,1.078,0.268,1.361,0.432c0.487,0.26,0.754,0.695,0.749,1.232
				C189.652,263.168,189.359,263.707,188.799,264.027z"/>
		</g>
		<g>
			<rect x="350.464" y="196.218" fill="#F6BB42" width="38.184" height="38.185"/>
			<g>
				<path fill="#FFFFFF" d="M366.126,203.601c-4.703,0.002-8.516,3.814-8.516,8.518c0,2.45,1.039,4.653,2.697,6.205
					c0.887,0.834,1.955,1.479,3.139,1.875c0.842,0.278,1.742,0.438,2.68,0.438c0.941,0,1.84-0.159,2.682-0.438
					c1.188-0.396,2.252-1.041,3.141-1.875c1.656-1.552,2.695-3.755,2.695-6.205C374.644,207.415,370.833,203.603,366.126,203.601z
					 M370.741,216.73c-0.375,0.376-0.799,0.696-1.252,0.975c-0.982,0.59-2.129,0.938-3.363,0.938c-1.23,0-2.377-0.348-3.357-0.938
					c-0.455-0.278-0.879-0.599-1.256-0.975c-1.182-1.183-1.912-2.809-1.912-4.612s0.73-3.433,1.912-4.613
					c1.186-1.182,2.811-1.912,4.613-1.912c1.807,0,3.432,0.73,4.615,1.912c1.182,1.181,1.91,2.81,1.91,4.613
					S371.923,215.548,370.741,216.73z"/>
				<path fill="#FFFFFF" d="M380.925,226.44c-0.768,0.771-2.016,0.771-2.785,0l-4.42-4.417l1.828-1.825l0.961-0.963l0.961,0.963
					l3.455,3.457C381.696,224.427,381.696,225.673,380.925,226.44z"/>
				<path fill="#FFFFFF" d="M374.552,220.198l-1.328,1.328l-0.586-0.587c-0.217-0.216-0.363-0.471-0.461-0.741
					c-0.219-0.626-0.113-1.335,0.318-1.875c0.047-0.058,0.09-0.118,0.143-0.169c0.771-0.773,2.016-0.773,2.785,0l0.174,0.169
					l0.416,0.416L374.552,220.198z"/>
			</g>
		</g>
		<g>
			<rect x="302.692" y="196.218" fill="#5D9CEC" width="38.182" height="38.185"/>
			<g>
				<g>
					<polygon fill="#FFFFFF" points="321.118,217.709 321.671,218.328 322.138,217.79 322.378,217.508 322.138,216.693 
						322.044,216.376 321.302,216.376 321.118,216.945 320.937,217.508 					"/>
					<path fill="#FFFFFF" d="M325.714,211.185c0-0.005,0-0.012,0-0.017c0-0.295-0.031-0.583-0.092-0.858
						c-0.396-1.828-2.02-3.195-3.963-3.195c-1.955,0-3.59,1.388-3.969,3.233c-0.053,0.255-0.08,0.521-0.084,0.792
						c0,0.009,0,0.018,0,0.028c0,2.052,1.529,3.746,3.512,4.013c0.18,0.022,0.357,0.041,0.541,0.041c0.162,0,0.32-0.012,0.479-0.029
						C324.142,214.956,325.702,213.255,325.714,211.185z"/>
					<path fill="#FFFFFF" d="M321.306,216.264c0,0,0.5,0.009,0.748-0.007c0,0,0.039-0.048,0.084-0.117
						c0.078-0.121,0.182-0.328,0.17-0.624c-0.059-0.005-0.115-0.002-0.17-0.008c-0.152-0.011-0.303-0.021-0.457-0.021
						c-0.191,0-0.377,0.011-0.563,0.027c-0.018,0.002-0.033,0-0.051,0.002c0,0-0.012,0.183,0.051,0.391
						C321.151,216.023,321.21,216.151,321.306,216.264z"/>
					<g>
						<polygon fill="#FFFFFF" points="329.917,218.577 330.446,217.96 330.196,217.111 329.638,217.111 329.366,217.96 						"/>
						<path fill="#FFFFFF" d="M331.536,216.73l-1.629,2.17l-1.625-2.17c-0.189,0.068-0.375,0.15-0.555,0.243
							c1.307,1.308,2.115,3.12,2.117,5.124v1.41h4.945v-2.105C334.79,219.244,333.431,217.414,331.536,216.73z"/>
						<path fill="#FFFFFF" d="M330.202,217.021c0,0,0.203-0.209,0.191-0.555c-0.156-0.018-0.313-0.022-0.469-0.022
							c-0.158,0-0.309,0.005-0.459,0.02c0,0-0.023,0.33,0.176,0.563C329.642,217.026,330.017,217.032,330.202,217.021z"/>
						<path fill="#FFFFFF" d="M327.601,211.228c-0.096,0.112-0.186,0.229-0.264,0.357c-0.297,0.47-0.471,1.021-0.471,1.617
							c0,0.179,0.021,0.354,0.049,0.525c0.105,0.603,0.385,1.144,0.789,1.569c0.213,0.219,0.455,0.41,0.727,0.563
							c0.438,0.243,0.941,0.383,1.479,0.383c1.678,0,3.041-1.36,3.041-3.04c0-1.391-0.932-2.56-2.205-2.923
							c-0.107-0.028-0.219-0.054-0.33-0.073c-0.088-0.016-0.18-0.026-0.271-0.033c-0.078-0.008-0.154-0.013-0.234-0.013
							C328.985,210.16,328.157,210.573,327.601,211.228z"/>
					</g>
					<g>
						<polygon fill="#FFFFFF" points="313.649,218.577 313.12,217.96 313.372,217.111 313.929,217.111 314.2,217.96 						"/>
						<path fill="#FFFFFF" d="M312.03,216.73l1.629,2.17l1.627-2.17c0.191,0.068,0.373,0.15,0.555,0.243
							c-1.307,1.308-2.117,3.12-2.117,5.124v1.41h-4.947v-2.105C308.776,219.244,310.136,217.414,312.03,216.73z"/>
						<path fill="#FFFFFF" d="M313.364,217.021c0,0-0.203-0.209-0.191-0.555c0.156-0.018,0.311-0.022,0.471-0.022
							c0.156,0,0.309,0.005,0.459,0.02c0,0,0.025,0.33-0.178,0.563C313.925,217.026,313.55,217.032,313.364,217.021z"/>
						<path fill="#FFFFFF" d="M315.966,211.228c0.098,0.112,0.186,0.229,0.266,0.357c0.295,0.47,0.471,1.021,0.471,1.617
							c0,0.179-0.02,0.354-0.049,0.525c-0.109,0.603-0.387,1.144-0.791,1.569c-0.211,0.219-0.455,0.41-0.725,0.563
							c-0.439,0.243-0.941,0.383-1.48,0.383c-1.678,0-3.039-1.36-3.039-3.04c0-1.391,0.932-2.56,2.201-2.923
							c0.111-0.028,0.221-0.054,0.332-0.073c0.09-0.016,0.18-0.026,0.271-0.033c0.078-0.008,0.156-0.013,0.234-0.013
							C314.581,210.16,315.407,210.573,315.966,211.228z"/>
					</g>
					<path fill="#FFFFFF" d="M325.847,217.049c-0.428-0.365-0.904-0.676-1.418-0.923c-0.195-0.095-0.395-0.181-0.6-0.253
						l-0.521,0.696l-1.17,1.558l-0.479,0.635l-0.541-0.722l-1.088-1.448l-0.537-0.719c-0.219,0.075-0.428,0.17-0.633,0.267
						c-0.512,0.251-0.988,0.563-1.418,0.937c-0.236,0.203-0.457,0.427-0.664,0.663c-1.008,1.163-1.625,2.685-1.625,4.358v1.41
						h13.014v-1.41c0-1.685-0.627-3.221-1.65-4.388C326.31,217.474,326.087,217.256,325.847,217.049z"/>
				</g>
			</g>
		</g>
		<g>
			<rect x="255.699" y="196.218" fill="#D572AC" width="38.187" height="38.185"/>
			<g>
				<path fill="#FFFFFF" d="M280.747,206.623c-1.695-1.167-3.744-1.851-5.953-1.851c-1.598,0-3.107,0.363-4.465,1.001
					c-0.901,0.425-1.732,0.97-2.476,1.621c-2.204,1.93-3.602,4.757-3.602,7.917c0,1.536,0.339,2.999,0.934,4.319
					c1.65,3.663,5.327,6.217,9.608,6.217c5.82,0,10.539-4.717,10.539-10.536C285.333,211.702,283.513,208.519,280.747,206.623z
					 M279.876,222.21l-4.984-3.463l-4.978,3.463l1.753-5.804l-4.835-3.667l6.069-0.125l1.99-5.732l1.992,5.732l6.066,0.125
					l-4.834,3.667L279.876,222.21z"/>
			</g>
		</g>
		<g>
			<rect x="208.707" y="196.218" fill="#FC6E51" width="38.186" height="38.185"/>
			<path fill="#FFFFFF" d="M236.78,206.909c-4.409-3.118-8.884,0.768-8.884,0.768s-4.4-3.968-8.868-0.94
				c-2.492,1.69-3.922,5.194-2.146,9.07c0.421,0.921,1.024,1.866,1.84,2.811c1.902,2.206,4.949,4.427,9.518,6.404
				c4.181-1.977,7.011-4.195,8.791-6.404c0.761-0.944,1.324-1.89,1.725-2.811C240.391,212.036,239.206,208.625,236.78,206.909z"/>
		</g>
		<g>
			<rect x="161.717" y="196.218" fill="#B3B3B3" width="38.186" height="38.185"/>
			<g>
				<g>
					<g>
						<path fill="#FFFFFF" d="M189.494,217.168l2.436-0.288c0.173-0.02,0.315-0.181,0.315-0.354v-2.439
							c0-0.171-0.143-0.334-0.315-0.352l-2.436-0.29c-0.233-1.106-0.669-2.14-1.27-3.056l1.519-1.93
							c0.11-0.135,0.098-0.348-0.025-0.474l-1.725-1.721c-0.123-0.126-0.336-0.138-0.475-0.029l-1.926,1.521
							c-0.919-0.6-1.951-1.038-3.06-1.271l-0.286-2.437c-0.021-0.172-0.182-0.313-0.356-0.313h-2.438
							c-0.175,0-0.333,0.142-0.354,0.313l-0.287,2.437c-1.109,0.232-2.143,0.671-3.059,1.271l-1.929-1.521
							c-0.135-0.108-0.348-0.097-0.472,0.029l-1.725,1.721c-0.124,0.126-0.137,0.339-0.027,0.476l1.52,1.928
							c-0.6,0.916-1.037,1.949-1.271,3.056l-2.434,0.29c-0.174,0.018-0.315,0.181-0.317,0.352l0.002,2.439
							c-0.002,0.174,0.142,0.335,0.315,0.354l2.434,0.288c0.233,1.109,0.671,2.143,1.271,3.06l-1.52,1.927
							c-0.109,0.137-0.097,0.351,0.027,0.476l1.725,1.723c0.123,0.125,0.337,0.134,0.473,0.028l1.928-1.521
							c0.916,0.6,1.949,1.037,3.059,1.271l0.287,2.434c0.021,0.172,0.18,0.313,0.354,0.316l2.438-0.003
							c0.175,0.003,0.335-0.142,0.356-0.313l0.286-2.434c0.69-0.146,1.345-0.379,1.966-0.671l-1.989-1.929
							c-0.584,0.171-1.198,0.267-1.837,0.267c-3.586,0-6.492-2.908-6.492-6.489c0-3.586,2.906-6.493,6.492-6.493
							c3.584,0,6.491,2.907,6.491,6.493c0,0.614-0.092,1.206-0.253,1.77l1.972,1.908
							C189.145,218.407,189.36,217.806,189.494,217.168z"/>
					</g>
				</g>
				<path fill="#FFFFFF" d="M191.922,223.411L191.922,223.411l-6.731-6.53c0.488-1.637,0.05-3.506-1.296-4.8
					c-1.353-1.3-3.254-1.666-4.877-1.099l1.597,1.535c0.37,0.354,0.382,0.945,0.027,1.313l-1.546,1.604
					c-0.354,0.371-0.942,0.383-1.311,0.028l-1.598-1.537c-0.503,1.643-0.063,3.532,1.289,4.829c1.36,1.31,3.272,1.667,4.898,1.088
					l6.719,6.514l0.021-0.022c0.804,0.757,2.068,0.728,2.837-0.07C192.72,225.463,192.705,224.193,191.922,223.411z
					 M191.303,225.811c-0.253,0.264-0.671,0.271-0.935,0.017c-0.263-0.255-0.271-0.676-0.017-0.941
					c0.254-0.263,0.672-0.269,0.936-0.017C191.549,225.126,191.558,225.545,191.303,225.811z"/>
			</g>
		</g>
		<g>
			<rect x="350.464" y="149.542" fill="#D572AC" width="38.184" height="38.185"/>
			<g>
				<path fill="#FFFFFF" d="M369.556,161.808c-2.613,0-4.73,2.119-4.73,4.731c0,2.611,2.117,4.729,4.73,4.729s4.73-2.118,4.73-4.729
					C374.286,163.927,372.169,161.808,369.556,161.808z M369.556,169.69c-1.74,0-3.15-1.41-3.15-3.15c0-1.741,1.41-3.152,3.15-3.152
					s3.148,1.411,3.148,3.152C372.704,168.28,371.296,169.69,369.556,169.69z"/>
				<path fill="#FFFFFF" d="M375.937,177.548h-4.982v-1.497c4.648-0.679,8.217-4.678,8.217-9.512c0-5.312-4.307-9.614-9.615-9.614
					c-5.311,0-9.615,4.303-9.615,9.614c0,4.834,3.568,8.833,8.215,9.512v1.497h-4.98c-0.434,0-0.787,0.352-0.787,0.785v1.224
					c0,0.433,0.354,0.787,0.787,0.787h12.762c0.432,0,0.787-0.354,0.787-0.787v-1.224
					C376.724,177.9,376.368,177.548,375.937,177.548z M363.694,166.54c0-3.121,2.625-5.65,5.861-5.65s5.863,2.529,5.863,5.65
					c0,3.12-2.627,5.649-5.863,5.649S363.694,169.66,363.694,166.54z"/>
			</g>
		</g>
		<g>
			<rect x="302.692" y="149.542" fill="#B3B3B3" width="38.182" height="38.185"/>
			<g>
				<path fill="#FFFFFF" d="M330.044,169.452c-0.215-2.18-1.453-2.832-1.453-2.832v-3.708c0-0.782-1.258-5.367-6.705-5.401
					c-5.545-0.035-6.771,4.619-6.771,5.401v3.708c0,0-1.396,0.568-1.594,2.832c-0.02,0.183-0.043,0.354-0.041,0.561v0.262v1.11
					v0.671v3.103c-0.004,2.729,1.639,4.469,4.6,4.601h7.408c3.633,0.008,4.621-3.093,4.602-5.163v-2.54v-0.671v-1.11v-0.262
					C330.089,169.808,330.063,169.634,330.044,169.452z M317.331,163.592c-0.027-2.465,2.404-3.849,4.623-3.809
					c2.223,0.04,4.406,1.66,4.422,3.809v2.978c0,0.017-0.002,0.034-0.002,0.05h-9.039c0-0.016-0.004-0.033-0.004-0.05V163.592z
					 M323.382,172.446c0,0.015-0.002,0.03-0.002,0.045c-0.021,0.686-0.447,1.267-1.051,1.502v1.633c0,0.335-0.273,0.607-0.609,0.607
					c-0.334,0-0.607-0.272-0.607-0.607v-1.636c-0.6-0.233-1.029-0.816-1.047-1.499c0-0.015-0.006-0.03-0.006-0.045
					c0-0.406,0.154-0.771,0.396-1.062c0.041-0.047,0.076-0.096,0.123-0.138c0.297-0.283,0.697-0.461,1.145-0.461
					c0.441,0,0.844,0.178,1.141,0.461c0.045,0.042,0.08,0.091,0.121,0.138C323.228,171.674,323.382,172.04,323.382,172.446z"/>
			</g>
		</g>
		<g>
			<rect x="255.699" y="149.542" fill="#967DD9" width="38.187" height="38.185"/>
			<g>
				<circle fill="#FFFFFF" cx="282.622" cy="177.333" r="1.884"/>
				<path fill="#FFFFFF" d="M269.798,175.45c-1.039,0-1.884,0.845-1.884,1.886c0,1.038,0.845,1.882,1.884,1.882
					c1.045,0,1.885-0.844,1.885-1.882C271.683,176.294,270.843,175.45,269.798,175.45z"/>
				<path fill="#FFFFFF" d="M269.677,175.146h13.309l4.102-12.698h-19.162l-1.576-4.398h-0.036h-1.954h-1.862v1.443h2.339l2.1,6.327
					L269.677,175.146z M278.454,173.72h-3.711l-0.213-2.478h4.137L278.454,173.72z M278.753,170.241h-4.307l-0.217-2.523h4.738
					L278.753,170.241z M280.276,164.208h4.381l-0.742,2.507h-3.855L280.276,164.208z M279.976,167.717h3.639l-0.748,2.523h-3.107
					L279.976,167.717z M279.673,171.243h2.893l-0.732,2.478h-2.373L279.673,171.243z M279.269,164.208l-0.215,2.507h-4.91
					l-0.215-2.507H279.269z M273.733,173.72h-2.689l-0.688-2.478h3.168L273.733,173.72z M273.437,170.241h-3.36l-0.7-2.523h3.846
					L273.437,170.241z M272.921,164.208l0.215,2.507h-3.948l-0.74-2.507H272.921z"/>
			</g>
		</g>
		<g>
			<rect x="208.707" y="149.542" fill="#A0D468" width="38.186" height="38.185"/>
			<g>
				<path fill="#FFFFFF" d="M238.488,159.151c-0.585,0-1.251,0-1.251,0v-1.703c0-0.282-0.229-0.509-0.508-0.509
					c-0.281,0-0.508,0.227-0.508,0.509v1.703h-3.448v-1.703c0-0.282-0.227-0.509-0.506-0.509c-0.282,0-0.511,0.227-0.511,0.509
					v1.703h-3.447v-1.703c0-0.282-0.228-0.509-0.507-0.509c-0.28,0-0.51,0.227-0.51,0.509v1.703h-3.558v-1.703
					c0-0.282-0.227-0.509-0.508-0.509c-0.278,0-0.507,0.227-0.507,0.509v1.703h-3.446v-1.703c0-0.282-0.229-0.509-0.511-0.509
					c-0.278,0-0.508,0.227-0.508,0.509v1.703c0,0-0.43,0-1.086,0c-0.658,0-1.079,0.455-1.079,1.04s0,18.294,0,18.987
					s0.311,1.152,1.226,1.152c0.91,0,20.405,0,21.21,0c0.801,0,0.983-0.423,0.983-1.152c0-0.73,0-18.258,0-18.987
					C239.51,159.46,239.073,159.151,238.488,159.151z M222.721,160.049v1.056c0,0.283,0.229,0.514,0.507,0.514
					c0.281,0,0.508-0.23,0.508-0.514v-1.09c0.476,0.189,0.813,0.651,0.813,1.191c0,0.708-0.574,1.283-1.283,1.283
					s-1.283-0.575-1.283-1.283C221.982,160.695,222.283,160.251,222.721,160.049z M217.483,161.207c0-0.527,0.317-0.979,0.772-1.177
					v1.075c0,0.283,0.229,0.514,0.508,0.514c0.281,0,0.511-0.23,0.511-0.514v-1.075c0.454,0.196,0.772,0.649,0.772,1.177
					c0,0.708-0.574,1.283-1.28,1.283C218.058,162.49,217.483,161.915,217.483,161.207z M226.482,161.207
					c0-0.54,0.336-1.002,0.811-1.191v1.09c0,0.283,0.229,0.514,0.51,0.514c0.279,0,0.507-0.23,0.507-0.514v-1.056
					c0.436,0.202,0.737,0.646,0.737,1.157c0,0.708-0.572,1.283-1.281,1.283S226.482,161.915,226.482,161.207z M232.268,162.49
					c-0.709,0-1.283-0.575-1.283-1.283c0-0.527,0.316-0.979,0.772-1.177v1.075c0,0.283,0.229,0.514,0.511,0.514
					c0.279,0,0.506-0.23,0.506-0.514v-1.075c0.453,0.196,0.775,0.649,0.775,1.177C233.549,161.915,232.974,162.49,232.268,162.49z
					 M236.765,162.49c-0.709,0-1.282-0.575-1.282-1.283c0-0.512,0.302-0.955,0.739-1.157v1.056c0,0.283,0.227,0.514,0.508,0.514
					c0.278,0,0.508-0.23,0.508-0.514v-1.09c0.476,0.189,0.809,0.651,0.809,1.191C238.046,161.915,237.474,162.49,236.765,162.49z
					 M237.403,178.373h-19.204v-13.859h19.204V178.373z"/>
				<g>
					<path fill="#FFFFFF" d="M225.901,175.62l3.396-7.358h-4.463v-1.214h5.935v0.963l-3.375,7.609H225.901z"/>
				</g>
			</g>
		</g>
		<g>
			<rect x="161.717" y="149.542" fill="#4FC1E9" width="38.186" height="38.185"/>
			<path fill="#FFFFFF" d="M187.77,164.809c-0.52,0-1.277,0.318-1.757,0.443c-0.899-2.55-3.079-4.633-5.939-4.633
				c-3.504,0-6.366,2.745-6.555,6.203c-0.214-0.027-0.43-0.049-0.652-0.049c-2.727,0-4.938,2.21-4.938,4.938
				c0,2.727,2.211,4.938,4.938,4.938c2.029,0,11.775,0,14.903,0c3.271,0,5.92-2.65,5.92-5.921
				C193.689,167.458,191.041,164.809,187.77,164.809z"/>
		</g>
		<g>
			<rect x="350.464" y="103.528" fill="#A0D468" width="38.184" height="38.185"/>
			<g>
				<path fill="#FFFFFF" d="M369.927,128.843h-0.65c-0.143,0-0.262,0.119-0.262,0.263v2.124c0,0.146,0.119,0.263,0.262,0.263h0.65
					c0.145,0,0.264-0.117,0.264-0.263v-2.124C370.19,128.962,370.071,128.843,369.927,128.843z"/>
				<path fill="#FFFFFF" d="M362.892,122.03h-2.125c-0.146,0-0.264,0.119-0.264,0.263v0.65c0,0.147,0.117,0.265,0.264,0.265h2.125
					c0.145,0,0.26-0.117,0.26-0.265v-0.65C363.151,122.149,363.036,122.03,362.892,122.03z"/>
				<path fill="#FFFFFF" d="M369.276,116.282h0.65c0.145,0,0.264-0.118,0.264-0.264v-2.125c0-0.146-0.119-0.263-0.264-0.263h-0.65
					c-0.143,0-0.262,0.117-0.262,0.263v2.125C369.015,116.164,369.134,116.282,369.276,116.282z"/>
				<path fill="#FFFFFF" d="M374.302,124.783l-3.238-1.809c0.025-0.114,0.041-0.232,0.041-0.355c0-0.856-0.693-1.55-1.549-1.55
					c-0.135,0-0.266,0.02-0.391,0.053l-3.752-4.822c-0.082-0.109-0.238-0.129-0.348-0.044l-0.482,0.375
					c-0.109,0.083-0.127,0.238-0.043,0.347l3.723,4.785c-0.16,0.246-0.258,0.54-0.258,0.856c0,0.856,0.693,1.553,1.551,1.553
					c0.326,0,0.631-0.104,0.881-0.278l1.594,0.89l3.816,2.128c0.119,0.068,0.27,0.024,0.338-0.095l0.299-0.534
					c0.064-0.12,0.023-0.27-0.096-0.337L374.302,124.783z"/>
				<path fill="#FFFFFF" d="M369.556,110.909c-6.469,0-11.709,5.243-11.709,11.711c0,0.738,0.076,1.461,0.207,2.163
					c0.193,1.029,0.525,2.011,0.967,2.927c1.898,3.913,5.895,6.619,10.535,6.619s8.639-2.706,10.533-6.619
					c0.445-0.916,0.777-1.897,0.969-2.927c0.131-0.702,0.209-1.425,0.209-2.163C381.267,116.152,376.022,110.909,369.556,110.909z
					 M377.55,127.709c-1.684,2.639-4.631,4.394-7.994,4.394s-6.309-1.755-7.994-4.394c-0.566-0.888-0.986-1.872-1.234-2.927
					c-0.16-0.696-0.256-1.418-0.256-2.163c0-5.237,4.246-9.485,9.484-9.485s9.484,4.248,9.484,9.485
					c0,0.745-0.096,1.467-0.256,2.163C378.536,125.837,378.116,126.822,377.55,127.709z"/>
				<path fill="#FFFFFF" d="M378.062,122.03h-2.123c-0.146,0-0.264,0.119-0.264,0.263v0.65c0,0.147,0.117,0.265,0.264,0.265h2.123
					c0.145,0,0.262-0.117,0.262-0.265v-0.65C378.323,122.149,378.206,122.03,378.062,122.03z"/>
			</g>
		</g>
		<g>
			<rect x="303.187" y="103.528" fill="#FC6E51" width="38.184" height="38.185"/>
			<g>
				<path fill="#FFFFFF" d="M333.989,113.213h-23.42v18.812h23.42V113.213z M333.095,120.546l-8.689,5.442l7.422,5.141h-0.918
					l-7.254-5.028l-3.568-2.475l-7.988,7.503h-0.633v-17.02h21.629V120.546z"/>
				<path fill="#FFFFFF" d="M316.401,121.487c0.043,0,0.105,0,0.154,0v1.069h-0.154V121.487z M318.155,120.876l0.002,0.004
					l0.73,0.72l0.105-0.112v-0.001l-0.727-0.718L318.155,120.876z M319.888,119.074h-0.916l-0.002,0.16h0.918V119.074z
					 M314.032,121.53l0.105,0.108h0.01l0.74-0.741v-0.01l-0.119-0.101L314.032,121.53z M314.054,119.081h-0.969l-0.004,0.002v0.154
					h0.979L314.054,119.081z M314.853,117.378l-0.002-0.013l-0.713-0.696l-0.105,0.115l0.701,0.696L314.853,117.378z
					 M314.896,119.712c0.234,0.591,0.852,1.011,1.475,1.047c0.645,0.034,1.234-0.24,1.596-0.791c0.307-0.433,0.33-1.125,0.07-1.586
					c-0.205-0.396-0.621-0.711-1.031-0.833c-0.631-0.183-1.309-0.016-1.768,0.452C314.798,118.442,314.659,119.141,314.896,119.712z
					 M316.544,115.777h-0.15v0.983l0.15-0.005V115.777z M318.946,116.815l-0.115-0.106l-0.66,0.657l-0.002,0.016l0.115,0.102
					L318.946,116.815z"/>
			</g>
		</g>
		<g>
			<rect x="255.907" y="103.528" fill="#F6BB42" width="38.186" height="38.185"/>
			<g>
				<path fill="#FFFFFF" d="M285.165,114.936h-15.688v-0.625c0-0.318-0.261-0.576-0.579-0.576h-2.31
					c-0.32,0-0.578,0.258-0.578,0.576v0.625h-1.176c-0.853,0-1.544,0.692-1.544,1.547v13.478c0,0.854,0.691,1.547,1.544,1.547h20.33
					c0.852,0,1.547-0.693,1.547-1.547v-13.478C286.712,115.628,286.017,114.936,285.165,114.936z M267.438,122.783
					c-0.903,0-1.634-0.73-1.634-1.631c0-0.901,0.73-1.632,1.634-1.632c0.901,0,1.632,0.73,1.632,1.632
					C269.07,122.052,268.34,122.783,267.438,122.783z M269.341,117.366h-3.483c-0.268,0-0.485-0.219-0.485-0.485
					c0-0.268,0.218-0.484,0.485-0.484h3.483c0.267,0,0.484,0.217,0.484,0.484C269.825,117.147,269.607,117.366,269.341,117.366z
					 M271.015,116.88c0-0.39,0.316-0.707,0.705-0.707c0.391,0,0.705,0.317,0.705,0.707c0,0.389-0.314,0.705-0.705,0.705
					C271.331,117.585,271.015,117.269,271.015,116.88z M278.161,130.084c-3.57,0-6.467-2.895-6.467-6.468
					c0-3.574,2.896-6.469,6.467-6.469c3.572,0,6.467,2.895,6.467,6.469C284.628,127.19,281.733,130.084,278.161,130.084z"/>
				<path fill="#FFFFFF" d="M278.161,118.7c-2.717,0-4.918,2.201-4.918,4.917c0,2.717,2.201,4.919,4.918,4.919
					s4.918-2.202,4.918-4.919C283.079,120.901,280.878,118.7,278.161,118.7z M278.161,127.538c-2.166,0-3.922-1.754-3.922-3.921
					c0-2.166,1.756-3.921,3.922-3.921c2.164,0,3.92,1.755,3.92,3.921C282.081,125.784,280.325,127.538,278.161,127.538z"/>
			</g>
		</g>
		<g>
			<rect x="208.63" y="103.528" fill="#48CFAD" width="38.185" height="38.185"/>
			<g>
				<path fill="#FFFFFF" d="M225.765,127.193c0.054-0.063,0.106-0.128,0.159-0.192c-0.053-0.004-0.105-0.013-0.159-0.018V127.193z"
					/>
				<path fill="#FFFFFF" d="M235.842,117.91c-0.91-4.828-4.734-6.909-6.903-7.719c0,0-0.027-0.163-0.068-0.024
					c-0.861-0.319-1.442-0.429-1.442-0.429v13.45v2.653v2.85c-0.017,0.016-0.04,0.023-0.057,0.035
					c-0.177-0.083-0.366-0.16-0.565-0.223c-0.252-0.077-0.516-0.138-0.794-0.176c-0.034-0.003-0.066-0.007-0.101-0.008
					c-0.355-0.044-0.731-0.055-1.113-0.031c-0.521,0.036-1.063,0.13-1.604,0.297c-1.601,0.495-2.843,1.493-3.43,2.612
					c-0.367,0.7-0.484,1.45-0.266,2.154c0.278,0.895,1.037,1.547,2.044,1.884c1.049,0.354,2.371,0.366,3.701-0.046
					c0.928-0.288,1.724-0.786,2.339-1.375c0.819-0.781,1.322-1.728,1.411-2.561c0.005-0.002,0.008-0.002,0.008-0.002
					s-0.003,0-0.008,0c0.02-0.163,0.022-0.322,0.008-0.475v-4.937v-2.653v-5.436c0.231,0.064,0.488,0.155,0.763,0.276
					c0.023,0.011,0.045,0.02,0.066,0.027c0.827,0.385,1.794,1.058,2.615,2.217c0.67,0.938,0.942,1.958,1.003,2.915
					c0.001,0.019,0.005,0.035,0.007,0.052c0.054,0.969-0.11,1.87-0.305,2.575c-0.003,0.012-0.007,0.017-0.01,0.026
					c-0.236,0.845-0.518,1.393-0.518,1.393s0.515-0.316,1.145-0.989c0.109-0.116,0.225-0.266,0.339-0.403
					c0.271-0.33,0.545-0.696,0.804-1.15c0.257-0.448,0.486-0.97,0.678-1.546C236.04,121.78,236.244,120.053,235.842,117.91z"/>
			</g>
		</g>
		<g>
			<rect x="161.353" y="103.528" fill="#5D9CEC" width="38.185" height="38.185"/>
			<path fill="#FFFFFF" d="M180.446,110.908c-6.469,0-11.711,5.245-11.711,11.711c0,6.468,5.242,11.712,11.711,11.712
				c6.464,0,11.709-5.244,11.709-11.712C192.155,116.153,186.91,110.908,180.446,110.908z M179.236,114.648h0.57v-0.677h-0.392
				h-0.11v-1.744h0.714v-0.893l0.041-0.093c0.129-0.004,0.256-0.01,0.387-0.01c0.566,0,1.125,0.041,1.673,0.124v0.585h0.817v0.926
				v1.299h-0.621l-0.537,0.533l-1.297,1.303l-0.675,0.676l-0.57-0.57V114.648z M177.05,111.75l0.212,0.211l-0.375,0.375h-0.641
				v0.639h0.889h0.465v2.955h-1.035v-2.138h-0.711v-1.033h-0.462v0.606l-0.445,0.446h-1.05l-0.289-0.291
				C174.632,112.746,175.795,112.142,177.05,111.75z M180.765,128.278h-0.958l-0.502,0.713v1.601l-1.456,1.069v1.922l-1.639-1.495
				v-3.917l-1.744-1.636v-1.992l-1.21-0.89h-1.067l-0.765-0.768v-1.049l-0.515-0.319l-0.146,0.391l0.249,0.143v0.891l-0.638-0.783
				l-0.32-1.248l-0.285-0.071v-2.176c0.569-1.53,1.458-2.909,2.59-4.049l3.566,0.034l-0.143,0.746l-1.066,0.07l0.106,0.357
				l0.25,0.285l-0.285,0.462l-0.855-0.104l0.5,0.676l0.853,0.603l0.283,0.676l0.357-0.106v-1.743h0.962v0.213h0.997v1.21h-0.427
				v0.499h-0.429v0.32h0.605l-0.393,0.393l-0.16-0.162l-0.375,0.375v0.319l-0.336,0.34l-0.428,0.427L175.444,121l-0.336,0.338v1.069
				h-0.465v-0.57h-1.529v0.641l1.495,1.425h2.99v0.286h1.067l1.173,1.494h0.925V128.278z M189.843,121.657v0.927h-1.531
				l-0.748-0.747v-0.499h-0.445v0.697l1.015,1.013h1.157v0.836l-1.052,1.052v1.53v1.422h-0.798v1.513l-0.623,0.621h-1.466v-1.343
				l-0.791-0.791v-2.477l-0.983-0.984h-2.056l-0.811-0.81v-2.05l0.694-0.691h1.175l0.748-0.747h0.392h0.499v0.392h2.74v-0.479
				h-0.694l0.41-0.41l0.393-0.39h0.673l-0.425-0.425h-0.637l-0.675,0.673v0.521l-0.718-0.718h-0.444l0.656,0.657h-0.533
				l-0.428-0.428v-0.286l-0.64-0.64l-0.479,0.479l-0.41,0.413v0.744h-0.818v-0.353v-1.141h0.303v-0.269l0.193-0.194l-0.354-0.356
				l-0.462,0.463l-0.374-0.375l0.199-0.194v-0.355v-0.714h0.744v0.426l0.64,0.644h0.464v-0.5h1.423v-0.498h0.569v-0.71h-0.604
				v-0.679h-0.32v1.354l-0.25,0.25l-0.497-0.215l-0.854-0.211l0.07-0.818l0.855-0.643l0.499-0.854l0.926-0.214l-0.109,0.427
				l0.608,0.107l-0.037,0.426l0.677-0.071l0.32-0.215l0.069-0.354h1.426c2.165,2.073,3.521,4.992,3.521,8.221
				c0,0.175-0.007,0.347-0.014,0.521l-2.478-2.478l-0.252,0.248L189.843,121.657z"/>
		</g>
	</g>
</g>
</svg>
