<?xml version="1.0" encoding="utf-8"?>
<!-- Generator: Adobe Illustrator 19.0.0, SVG Export Plug-In . SVG Version: 6.00 Build 0)  -->
<svg version="1.1" id="Layer_1" xmlns="http://www.w3.org/2000/svg" xmlns:xlink="http://www.w3.org/1999/xlink" x="0px" y="0px"
	 viewBox="0 0 1500 1500" style="enable-background:new 0 0 1500 1500;" xml:space="preserve">
<style type="text/css">
	.st0{fill:#0099BC;}
	.st1{fill:#C67844;}
	.st2{fill:#D88D56;}
	.st3{fill:#964F20;}
	.st4{fill:#723615;}
	.st5{fill:#FFFFFF;}
	.st6{fill:#7F1943;}
	.st7{fill:#992258;}
	.st8{fill:url(#SVGID_1_);}
	.st9{clip-path:url(#SVGID_3_);}
	.st10{fill:#EFBF91;}
	.st11{fill:#EAA66E;}
	.st12{fill:#400000;}
	.st13{fill:#EAAD7A;}
	.st14{fill:#C67640;}
	.st15{fill:#FFCFE8;}
	.st16{fill:#FCCEA7;}
	.st17{fill:#E5E1DF;}
</style>
<rect class="st0" width="1500" height="1500"/>
<path class="st1" d="M966.3,524.8L971,728l100,153l94-30c0,0-6-168-30-209s-82-95-88-101S966.3,524.8,966.3,524.8z"/>
<path class="st2" d="M974,661.5c0,0-2-32.4,32.8-47c34.7-14.5,51.7,18.5,53.2,38.5s-37.8,39.5-62,38
	C973.8,689.5,974,661.5,974,661.5z"/>
<path class="st3" d="M1165,851c0,0-6-168-30-209s-82-95-88-101s-80.7-16.2-80.7-16.2l1.8,78.7c5.2,3.9,13.6,8,30.4,9.9
	c30.5,3.5,62,10.6,70.7,32.4c8.7,21.8,4.8,50.6-19.7,59.6s-56,5.5-56,5.5s-2.2,24,0.7,52.4l60.5,92.5c0.1,0,0.2,0,0.4,0
	c20.5,1.9,39.7,7.6,56.5,12.1L1165,851z"/>
<path class="st4" d="M1089,637.7c0,0-7.4,5.2-18.3,12.3c6.7,21.2,1.8,47-21.2,55.5c-24.5,9-56,5.5-56,5.5s-1.6,17.9-0.2,41.2
	l51.7,56.2c0,0,27.3-7.3,39.3-48c12-40.7,6-76.7,6-76.7L1089,637.7z"/>
<path class="st5" d="M951.1,1175.6l-419.6,9.4c-16.4,0.4-30.1-12.7-30.5-29.1L480.9,257c-0.4-16.4,12.7-30.1,29.1-30.5l419.6-9.4
	c16.4-0.4,30.1,12.7,30.5,29.1l20.2,898.9C980.6,1161.5,967.5,1175.2,951.1,1175.6z"/>
<path class="st6" d="M530.9,1085c-5.3,0-9.7-3.5-9.8-7.9l-20.2-742c-0.1-4.4,4.3-8.2,9.6-8.3l419.8-7.8c5.3,0,9.7,3.5,9.8,7.9
	l20.2,742c0.1,4.4-4.3,8.2-9.6,8.3L530.9,1085z"/>
<path class="st7" d="M907.9,319.4l-397.5,7.4c-5.3,0.1-9.7,3.9-9.6,8.3l20.2,742c0.1,4.4,4.5,7.9,9.8,7.9l42.7-0.8
	C772.8,915,875.5,481.6,907.9,319.4z"/>
<g>
	<path class="st5" d="M598,834.3l5.7-0.1l19.7,17.7l19.4-18.5l5.5-0.1l0.9,39.9l-16.4,0.3l-0.3-12.9l-10,11.4l-10.2-10.7l0.3,12.6
		l-13.8,0.3L598,834.3z"/>
	<path class="st5" d="M657.3,872.3c1.8,0.4,4,0.6,6.7,0.6c1.7,0,2.8-0.8,3.3-2.2c0.2-0.4,0.2-0.9,0.2-1.4c0-0.5-0.1-1-0.3-1.5
		l-13.4-25.9l14.9-0.3l5.6,11.9l4.8-12.1l13.1-0.3l-11.1,29.3c-1.5,3.8-3.1,6.6-4.9,8.5c-2.2,2.2-5,3.4-8.4,3.5
		c-4.6,0.1-8-0.3-10.4-1.2L657.3,872.3z"/>
	<path class="st5" d="M708.6,831.9l28.7-0.6l0.2,11.3l-13.2,0.3l0.1,3.7l13.2-0.3l0.2,10.9l-13.2,0.3l0.3,14l-15.5,0.3L708.6,831.9z
		"/>
	<path class="st5" d="M759.1,871.7c-4.8,0.1-8.9-1.3-12.4-4.3c-3.8-3.1-5.7-7.1-5.8-12c-0.1-4.9,1.5-8.9,4.9-12
		c3.4-3.2,7.6-4.8,12.7-4.9c5.1-0.1,9.4,1.3,12.9,4.3c3.5,2.9,5.3,7,5.5,12c0.1,3.2-0.7,6.1-2.3,8.7c-1.6,2.5-3.8,4.5-6.5,5.9
		C765.3,870.8,762.3,871.6,759.1,871.7z M763.5,848.4c-0.3-0.2-0.8-0.2-1.3-0.2c-0.5,0-1.1,0.2-1.7,0.5c-0.6,0.3-1.2,0.8-1.8,1.3
		c-1.3,1.2-2.3,2.6-3.2,4.2c-0.8,1.6-1.3,3.1-1.2,4.5c0,1.4,0.6,2.3,1.6,2.7c0.4,0.2,0.8,0.2,1.4,0.2c0.5,0,1.1-0.2,1.7-0.5
		c0.6-0.3,1.2-0.8,1.7-1.3c1.2-1.2,2.2-2.6,3.1-4.3c0.9-1.7,1.3-3.1,1.3-4.4C764.9,849.8,764.4,848.9,763.5,848.4z"/>
	<path class="st5" d="M798.8,870.8c-4.8,0.1-8.9-1.3-12.4-4.3c-3.7-3.1-5.7-7.1-5.8-12c-0.1-4.9,1.5-8.9,4.9-12
		c3.4-3.2,7.6-4.8,12.7-4.9c5.1-0.1,9.4,1.3,12.9,4.3c3.5,2.9,5.3,7,5.5,12c0.1,3.2-0.7,6.1-2.3,8.7c-1.6,2.5-3.8,4.5-6.5,5.9
		C804.9,870,802,870.8,798.8,870.8z M803.1,847.6c-0.3-0.2-0.8-0.2-1.3-0.2c-0.5,0-1.1,0.2-1.7,0.5c-0.6,0.3-1.2,0.8-1.8,1.3
		c-1.3,1.2-2.3,2.6-3.2,4.2c-0.8,1.6-1.3,3.1-1.2,4.5c0,1.4,0.6,2.3,1.6,2.7c0.4,0.2,0.8,0.2,1.4,0.2c0.5,0,1.1-0.2,1.7-0.5
		c0.6-0.3,1.1-0.8,1.7-1.3c1.2-1.2,2.2-2.6,3.1-4.3c0.9-1.7,1.3-3.1,1.3-4.4C804.6,848.9,804.1,848,803.1,847.6z"/>
	<path class="st5" d="M839,836.9c2,0,4,0.2,6.1,0.8l-0.2-10.8l14.5-0.3l0.9,42.1l-9.3,0.2l-3.7-5.1c-3,4.1-6.9,6.2-11.9,6.3
		c-4,0.1-7.5-1.2-10.5-3.8c-3-2.6-4.6-6.1-4.7-10.3c-0.1-4.2,0.7-7.7,2.4-10.5C826,839.9,831.4,837,839,836.9z M845.3,847.3
		c-0.6-0.3-1.2-0.5-1.9-0.5c-0.7,0-1.3,0.2-1.9,0.4c-1.3,0.6-2.4,1.5-3.3,2.7c-0.5,0.6-1,1.3-1.3,2c-0.8,1.5-1.1,2.9-1.1,4.4
		c0,1.4,0.5,2.4,1.4,3c0.3,0.2,0.7,0.3,1.2,0.3c2.2,0,4.6-1.2,7.2-3.4L845.3,847.3z"/>
</g>
<g>
	<g>
		<linearGradient id="SVGID_1_" gradientUnits="userSpaceOnUse" x1="729.1839" y1="538.5" x2="729.1839" y2="668.2786">
			<stop  offset="0" style="stop-color:#00BFA0"/>
			<stop  offset="1" style="stop-color:#1A8DBA"/>
		</linearGradient>
		<path class="st8" d="M801,719.3l-139.4,2.6c-23.3,0.4-42.7-18.3-43.1-41.6L615.8,541c-0.4-23.3,18.3-42.7,41.6-43.1l139.4-2.6
			c23.3-0.4,42.7,18.3,43.1,41.6l2.6,139.4C843,699.5,824.3,718.9,801,719.3z"/>
	</g>
	<g>
		<path class="st5" d="M730.9,700.6c-50.7,0.9-92.8-39.5-93.7-90.3c-0.9-50.7,39.5-92.8,90.3-93.7c50.7-0.9,92.8,39.5,93.7,90.3
			C822.1,657.6,781.6,699.6,730.9,700.6z M727.6,523.9c-46.7,0.9-84,39.6-83.1,86.3c0.9,46.7,39.6,84,86.3,83.1
			c46.7-0.9,84-39.6,83.1-86.3C813,560.3,774.3,523,727.6,523.9z"/>
	</g>
	<g>
		<defs>
			<circle id="SVGID_2_" cx="729.2" cy="608.6" r="88.3"/>
		</defs>
		<clipPath id="SVGID_3_">
			<use xlink:href="#SVGID_2_"  style="overflow:visible;"/>
		</clipPath>
		<g class="st9">
			<path class="st5" d="M767.7,573.9c-0.2-9.4-5.2-18-13.3-22.7l1.3,67.3c0.1,5.1-3.7,9.5-8.8,9.9c-5.4,0.4-10-3.9-10.1-9.3l-1.1-60
				c-0.1-4.1-3.3-7.5-7.4-7.5c-4.1,0-7.5,3.4-7.4,7.5l1.1,59.9c0.1,5.1-3.7,9.5-8.8,9.9c-5.4,0.4-10-3.9-10.1-9.3l-1.3-67.6
				c-7.9,5-12.6,13.8-12.5,23.2l1.2,66.5c0.1,7.6,6.4,13.6,14,13.5h0c7.6-0.1,13.9,5.9,14,13.5l3.2,172.6c0.1,4.2,3.5,7.5,7.7,7.4
				l8.2-0.2c4.2-0.1,7.5-3.5,7.4-7.7L742,668.4c-0.1-7.6,5.9-13.9,13.5-14l0,0c7.6-0.1,13.6-6.4,13.5-14L767.7,573.9z"/>
		</g>
	</g>
</g>
<path class="st10" d="M1164.1,1500c0,0-79.5-183-123-250.5C997.6,1182,976,1155,968,1099s-5-156-19-194s-42-70-45-73
	s-47.7-26.3-91.7-73s-36-77.3-16.7-95.3c19.3-18,55.3-18,86-5.3c30.7,12.7,92,20,118,50.7c26,30.7,71.3,113.3,76.7,114
	c5.3,0.7,30-56.7,26.7-73s-23.3-85-38.7-114.3c-15.3-29.3-23.8-41.2-49.8-56.7s-48.2-54.2-48.2-54.2l-2.8-134.3c0,0,44.5,15,64,26.5
	s43,46,43,46s-3-30.5-16-50.5s-35.5-47.5-50-73S989,310.5,978,296s-23.7-47.7-37.3-65c-13.7-17.3-18.3-22-18-37
	c0.3-15,5.7-29,18-33.3c12.3-4.3,32,2.2,53.3,22.8c21.3,20.6,44.5,43.6,94.5,97.1S1170,369,1181,391s71,178.5,77,200.5
	s45,58.5,56,107.5s2,127,0,205s14,201,19,244s126,352,126,352H1164.1z"/>
<path class="st2" d="M1028.7,585.9l1,3.2c15,11.6,22.8,23.8,34.7,46.5c1.6,3,3.2,6.5,4.9,10.2c0,0-1.2-10.9,1.3-32.4
	c2.5-21.5,9-27.6,9-27.6l-14.7-9.4L1028.7,585.9z"/>
<path class="st11" d="M1014.5,579c11.8,7,20,13.3,26.9,20.9c10.3,0.3,28.8-0.2,33.1-7.4c6-10,25.5-25,17.3-38.5s-21.3-91-21.3-91
	l-7.2-9.9c-8.5-11.1-23-28.6-35.8-36.1c-19.5-11.5-64-26.5-64-26.5l2.8,134.3C966.3,524.8,988.5,563.5,1014.5,579z"/>
<path class="st11" d="M1333,1148c-5-43-21-166-19-244s11-156,0-205s-50-85.5-56-107.5S1192,413,1181,391s-42.5-57-92.5-110.5
	c-40.1-42.9-63-66.2-81.5-84.4c0.1,0.1,64,94.9,93,131.9c29,37,73,86,110,201s78,143,79,229s-12,287-22,381s4.9,237.9,79.9,361H1459
	C1459,1500,1338,1191,1333,1148z"/>
<polygon class="st12" points="1066.1,1355.4 1385.6,1223.1 1500,1500 1119.6,1500 "/>
<polygon class="st5" points="1358.3,1187 1377.1,1226.6 1073.9,1352.2 1057.9,1310.6 "/>
<path class="st10" d="M494.3,591c0,0,24.7,8,28,41.3c3.3,33.3-31.6,64-31.6,64l10.2,459.4c0.4,16.6,14.1,29.7,30.7,29.3l188-4.2
	c0,0-75.7,115.2-108.7,144.2s-58,43-78,65s-74,110-74,110H33c0,0,210.1-300,210.1-316.5c0-16.5-36.8-205.8-36.8-237.2
	c0-31.3,15.3-57.3,41.3-112c26-54.7,49.3-136.7,68.7-154c19.3-17.3,59.3-16.7,99.3-42.7S472.3,589.7,494.3,591z"/>
<path class="st13" d="M501,1155.7l-4.3-195.5L473.7,927l-48.1,24.2c0,0,47.4,135.8,59.4,200.8s96.9,80.1,96.9,80.1l-11.6-48
	l-38.7,0.9C515.1,1185.4,501.4,1172.2,501,1155.7z"/>
<g>
	<path class="st13" d="M552,1361.5c-35-5.5-95-70.5-128-101.5s-115-47-153.7-85.1c-26.7-26.3-41.9-87.3-48.7-122.4
		c10.1,59.2,21.5,121.8,21.5,131c0,6.2-29.6,52.3-66.5,107.5c20.4,26,42.2,50.5,64.4,70.6C339,1450.1,587,1367,552,1361.5z"/>
	<polygon class="st13" points="217.2,1026.2 217.2,1026.2 217.2,1026.2 	"/>
</g>
<path class="st13" d="M719.7,1180.8l-188,4.2c-12.2,0.3-22.9-6.8-27.8-17.2l-3,1.2c0,0,6.1,31.2,67.1,54.1
	c61,22.9-16,138.9-60,159.9c-18.7,8.9-11.2,22.6,3.7,35.3c8.4-12.2,16-22.5,21.3-28.3c20-22,45-36,78-65S719.7,1180.8,719.7,1180.8z
	"/>
<path class="st13" d="M488.9,725.8c0.8-0.7,1.7-1.5,2.5-2.3l-0.6-27.2c0,0,31.2-27.4,31.7-58.6c-0.6,0.9-42.8,65-85.5,84.6
	C394,742,366,743,357,770s1.3,111-18.7,159s-42,55.3-39.3,62c2.7,6.7,76-45.8,82.7-87.3c6.7-41.5,4.8-43.2,9.4-55.6
	C395.7,835.7,457.4,753.2,488.9,725.8z"/>
<path class="st2" d="M497.6,1026.2l-6.8-329.9c0,0-41.8,60-78.4,70.7c0,0-6.3,56-26.3,91c0,0,26,45,37,86
	C431.7,976.5,475,988.3,497.6,1026.2z"/>
<path class="st14" d="M508.6,1174.9c-4.6-5.1-7.4-11.8-7.6-19.3l-7.9-353.2c-6.2,21.2-14.3,48.7-18.1,58.8
	c-6.5,17.3,13.6,167.8,16.3,229.8S490.2,1164.8,508.6,1174.9z"/>
<path class="st15" d="M492,608.7c0.7-7.3,0.5-13.4-1.4-17.7c-19.9,1.2-36.7,21.5-73.2,45.5c-1,3.4-1.5,7.8,0.3,12.8
	c3.7,10.7,15,21.7,38.7,8C480,643.7,490.7,623,492,608.7z"/>
<path class="st15" d="M795.7,663.7c-2,1.8-3.8,3.8-5.5,5.9l0,0c0,0-8.6,13.9-4.6,33.1s32,27.8,40.5,30.8s28-35.5,56-48.5
	s20.5-14.3,3.5-25.2c0,0,0,0,0,0c-1.3-0.5-2.6-1-3.8-1.5C851,645.7,815,645.7,795.7,663.7z"/>
<polygon class="st12" points="192.1,1223.1 522.5,1432.5 480.1,1500 18.1,1500 "/>
<polygon class="st5" points="200,1228.1 225,1189 538,1395 514.3,1427.3 "/>
<path class="st16" d="M491.3,709.3c0,0-24,38.7-42.6,49.7c-18.7,11-23.7,16-24,21.3c-0.3,5.3-16,68-21,75.3
	c-5,7.3,11.3,43.7,15.3,66c4,22.3,4,22.3,4,22.3s-26-65.9-38-82.8c0,0,20.7-56.9,22-75.2c1.3-18.3,3.7-21,3.7-21s20-9.7,40.7-29
	c20.7-19.3,40-40.4,40-40.4V709.3z"/>
<circle class="st6" cx="652.6" cy="275.9" r="8.3"/>
<path class="st6" d="M762.3,278.9l-82.3,2.9c-3.8,0.1-6.9-2.8-7.1-6.6l0,0c-0.1-3.8,2.8-6.9,6.6-7.1l82.3-2.9
	c3.8-0.1,6.9,2.8,7.1,6.6l0,0C769.1,275.5,766.1,278.7,762.3,278.9z"/>
<circle class="st17" cx="743.3" cy="1131" r="27.7"/>
</svg>
