<?xml version="1.0" encoding="UTF-8" standalone="no"?>
<svg
   xmlns:dc="http://purl.org/dc/elements/1.1/"
   xmlns:cc="http://creativecommons.org/ns#"
   xmlns:rdf="http://www.w3.org/1999/02/22-rdf-syntax-ns#"
   xmlns:svg="http://www.w3.org/2000/svg"
   xmlns="http://www.w3.org/2000/svg"
   xmlns:sodipodi="http://sodipodi.sourceforge.net/DTD/sodipodi-0.dtd"
   xmlns:inkscape="http://www.inkscape.org/namespaces/inkscape"
   inkscape:version="1.0 (4035a4fb49, 2020-05-01)"
   sodipodi:docname="House Roof_5.svg"
   xml:space="preserve"
   enable-background="new 0 0 595.28 595.28"
   viewBox="0 0 595.28 595.28"
   height="595.28px"
   width="595.28px"
   y="0px"
   x="0px"
   id="Layer_1"
   version="1.1"><metadata
   id="metadata329"><rdf:RDF><cc:Work
       rdf:about=""><dc:format>image/svg+xml</dc:format><dc:type
         rdf:resource="http://purl.org/dc/dcmitype/StillImage" /></cc:Work></rdf:RDF></metadata><defs
   id="defs327" /><sodipodi:namedview
   inkscape:current-layer="Layer_1"
   inkscape:window-maximized="1"
   inkscape:window-y="-8"
   inkscape:window-x="-8"
   inkscape:cy="337.59169"
   inkscape:cx="297.64001"
   inkscape:zoom="1.0012095"
   showgrid="false"
   id="namedview325"
   inkscape:window-height="745"
   inkscape:window-width="1366"
   inkscape:pageshadow="2"
   inkscape:pageopacity="0"
   guidetolerance="10"
   gridtolerance="10"
   objecttolerance="10"
   borderopacity="1"
   bordercolor="#666666"
   pagecolor="#ffffff" />
<rect
   id="rect2"
   height="595.27502"
   width="595.276"
   fill="#f9f9fa"
   clip-rule="evenodd"
   fill-rule="evenodd"
   y="2.9983759"
   x="-594.27924" />
<path
   id="path4"
   d="M151.63,89.273h-25.485v-13.47c0-0.521-0.423-0.944-0.945-0.944h-20.824V64.681  c0-0.522-0.423-0.944-0.945-0.944H61.347c-0.522,0-0.945,0.422-0.945,0.944v10.178H39.577c-0.521,0-0.944,0.423-0.944,0.944v45.993  v14.104c0,0.522,0.423,0.945,0.944,0.945h12.939v6.161c0,0.521,0.423,0.944,0.944,0.944h57.859c0.521,0,0.944-0.423,0.944-0.944  v-6.161h12.938c0.522,0,0.945-0.423,0.945-0.945v-13.47h25.485c0.521,0,0.944-0.423,0.944-0.944v-15.635V90.218  C152.575,89.696,152.152,89.273,151.63,89.273z M150.686,91.163v13.746h-24.54V91.163H150.686z M62.292,65.626h40.196v10.178v18.294  H62.292V75.804V65.626z M60.402,76.748v18.294c0,0.522,0.423,0.945,0.945,0.945h42.084c0.522,0,0.945-0.423,0.945-0.945V76.748  h19.88v13.47v15.635v15H40.521V76.748H60.402z M110.374,142.062H54.405v-6.161v-6.107h55.969v6.107V142.062z M124.256,134.957  h-11.993v-6.107c0-0.521-0.423-0.944-0.944-0.944H53.46c-0.521,0-0.944,0.423-0.944,0.944v6.107H40.521v-12.216h83.735V134.957z   M126.146,120.543v-13.746h24.54v13.746H126.146z"
   fill="#1F1A17" />
<g
   id="g10">
	<path
   id="path6"
   d="M263.789,74.408h-5.679v-9.276c0-0.521-0.423-0.944-0.945-0.944h-72.378c-0.521,0-0.944,0.423-0.944,0.944   v9.276h-5.679c-0.521,0-0.944,0.423-0.944,0.945v45.993v14.104c0,0.522,0.423,0.945,0.944,0.945h12.939v6.16   c0,0.521,0.423,0.944,0.945,0.944h57.858c0.522,0,0.945-0.423,0.945-0.944v-6.16h12.938c0.522,0,0.945-0.423,0.945-0.945v-14.104   V75.353C264.734,74.831,264.311,74.408,263.789,74.408z M185.732,66.077h70.489v8.332h-70.489V66.077z M184.787,76.297h72.378   h5.679v44.104h-83.736V76.297H184.787z M248.961,141.611h-55.97v-6.161v-6.107h55.97v6.107V141.611z M262.845,134.506h-11.994   v-6.107c0-0.521-0.423-0.944-0.945-0.944h-57.858c-0.522,0-0.945,0.423-0.945,0.944v6.107h-11.994v-12.215h83.736V134.506z"
   fill="#1F1A17" />
	<path
   id="path8"
   d="M187.852,112.628h42.385c0.522,0,0.945-0.423,0.945-0.945v-8.94h6.494c0.521,0,0.944-0.423,0.944-0.945   V87.76c0-0.521-0.423-0.944-0.944-0.944h-6.494v-2.488c0-0.522-0.423-0.945-0.945-0.945h-42.385c-0.522,0-0.945,0.423-0.945,0.945   v27.355C186.907,112.205,187.33,112.628,187.852,112.628z M236.73,88.704v12.149h-5.549V88.704H236.73z M188.796,85.272h40.496   v2.488v14.038v8.941h-40.496V85.272z"
   fill="#1F1A17" />
</g>
<path
   id="path12"
   d="M410.434,78.714c0-0.149-0.042-0.285-0.103-0.41c-0.005-0.01-0.002-0.021-0.007-0.031  c-0.012-0.022-0.037-0.032-0.05-0.053c-0.003-0.003-0.005-0.007-0.008-0.01c-0.019-0.029-0.033-0.055-0.055-0.082  c-0.054-0.066-0.116-0.12-0.186-0.169c-0.033-0.024-0.063-0.047-0.099-0.067c-0.044-0.023-0.087-0.044-0.135-0.061  c-0.011-0.004-0.016-0.015-0.025-0.019c-0.021-0.006-0.04,0.006-0.06,0.001c-0.073-0.018-0.142-0.044-0.22-0.044h-31.419V76.35  c0-0.521-0.423-0.944-0.944-0.944h-46.281v-9.276c0-0.522-0.424-0.945-0.945-0.945h-31.775c-0.522,0-0.945,0.423-0.945,0.945v9.276  h-5.678c-0.077,0-0.146,0.026-0.218,0.044c-0.021,0.005-0.04-0.007-0.06-0.001c-0.011,0.003-0.016,0.015-0.026,0.019  c-0.048,0.016-0.09,0.037-0.134,0.061c-0.037,0.02-0.065,0.042-0.099,0.067c-0.07,0.05-0.131,0.103-0.186,0.169  c-0.021,0.027-0.036,0.052-0.055,0.082c-0.002,0.004-0.005,0.007-0.007,0.011c-0.014,0.021-0.038,0.03-0.05,0.053  c-0.005,0.01-0.002,0.021-0.007,0.031c-0.062,0.125-0.103,0.261-0.103,0.41v60.098c0,0.189,0.07,0.356,0.166,0.504  c0.019,0.029,0.034,0.055,0.055,0.082c0.11,0.136,0.25,0.239,0.419,0.297c0.01,0.004,0.015,0.015,0.026,0.019  c0.092,0.029,0.186,0.043,0.278,0.043h12.247v4.166c0,0.521,0.423,0.944,0.944,0.944h15.887c0.522,0,0.944-0.423,0.944-0.944v-4.166  h5.689v4.166c0,0.521,0.424,0.944,0.945,0.944h15.887c0.521,0,0.944-0.423,0.944-0.944v-4.166h5.689v4.166  c0,0.521,0.423,0.944,0.944,0.944h15.888c0.521,0,0.944-0.423,0.944-0.944v-4.166h8.67c0.521,0,0.944-0.423,0.944-0.944v-4.146  h5.825c0.521,0,0.944-0.423,0.944-0.945v-8.277h8.278c0.522,0,0.945-0.422,0.945-0.944v-5.825h15.426  c0.093,0,0.187-0.015,0.279-0.043c0.01-0.003,0.015-0.015,0.025-0.019c0.169-0.058,0.309-0.161,0.419-0.297  c0.021-0.027,0.036-0.053,0.055-0.082c0.097-0.148,0.167-0.314,0.167-0.504V78.714z M393.117,114.421h-15.046V97.985h18.411  l11.219,16.436H393.117z M398.124,97.041l9.587-14.047l0.833-1.221v30.537L398.124,97.041z M378.071,79.659h29.63l-3.874,5.676  l-7.345,10.761h-18.411V79.659z M299.068,67.074h29.886v8.332h-29.886V67.074z M298.124,77.295h31.775h46.282v28.16h-63.672  l-19.22-28.16H298.124z M310.867,106.399l-18.421,26.992V79.408l3.326,4.874L310.867,106.399z M319.635,140.614h-13.998v-3.222  h13.998V140.614z M343.101,140.614h-13.998v-3.222h13.998V140.614z M366.566,140.614h-13.998v-3.222h13.998V140.614z   M376.181,135.503h-8.67h-15.888h-7.578h-15.887h-7.579h-15.887h-11.404l19.221-28.16h63.672V135.503z M392.173,121.19h-8.278  c-0.521,0-0.944,0.423-0.944,0.945v8.277h-4.879l-0.002-8.277l0.002-5.825h14.102V121.19z"
   fill="#1F1A17" />
<path
   id="path14"
   d="M556.602,119.32v-42.52c0-0.112-0.028-0.217-0.064-0.317c-0.003-0.01,0.002-0.02-0.002-0.03  c-0.001-0.002-0.004-0.003-0.005-0.006c-0.063-0.156-0.175-0.281-0.307-0.382c-0.03-0.024-0.059-0.042-0.093-0.063  c-0.142-0.084-0.297-0.146-0.475-0.146h-27.563h-0.001h-20.824V65.679c0-0.522-0.424-0.945-0.945-0.945h-42.084  c-0.522,0-0.945,0.423-0.945,0.945v10.178h-20.825c-0.077,0-0.146,0.026-0.219,0.044c-0.021,0.005-0.04-0.007-0.06-0.001  c-0.011,0.003-0.016,0.015-0.026,0.019c-0.048,0.017-0.091,0.037-0.135,0.061c-0.036,0.02-0.065,0.043-0.099,0.067  c-0.069,0.05-0.132,0.103-0.186,0.169c-0.021,0.027-0.036,0.053-0.055,0.082c-0.003,0.004-0.005,0.007-0.008,0.011  c-0.013,0.021-0.038,0.031-0.049,0.053c-0.006,0.01-0.003,0.021-0.008,0.032c-0.061,0.125-0.103,0.261-0.103,0.409v60.098  c0,0.19,0.07,0.357,0.167,0.505c0.019,0.029,0.033,0.055,0.055,0.082c0.11,0.136,0.25,0.239,0.419,0.297  c0.011,0.004,0.016,0.015,0.026,0.019c0.092,0.029,0.186,0.043,0.278,0.043h16.148v4.166c0,0.522,0.423,0.945,0.944,0.945h15.887  c0.521,0,0.945-0.423,0.945-0.945v-4.166h17.774v4.166c0,0.522,0.423,0.945,0.944,0.945h15.887c0.522,0,0.945-0.423,0.945-0.945  v-4.166h16.148c0.521,0,0.944-0.423,0.944-0.945v-16.467h3.668v8.325c0,0.492,0.377,0.9,0.866,0.94l8.227,0.679  c0.026,0.003,0.052,0.004,0.078,0.004c0.025,0,0.052-0.001,0.078-0.004l8.225-0.679c0.489-0.04,0.867-0.449,0.867-0.94v-8.325h4.611  c0.019,0.002,0.033,0.001,0.048,0c0.521,0,0.944-0.423,0.944-0.944C556.648,119.426,556.612,119.378,556.602,119.32z M529.037,78.98  l11.894,11.148l-0.002,16.03l-11.893,11.15L529.037,78.98z M542.819,90.128l11.893-11.148v38.328l-11.893-11.148V90.128z   M553.27,77.746l-11.395,10.68l-11.395-10.68H553.27z M465.183,66.623h40.195v10.178v18.294h-40.195V76.801V66.623z M463.293,77.746  V96.04c0,0.522,0.423,0.945,0.945,0.945h42.084c0.521,0,0.945-0.423,0.945-0.945V77.746h19.88v28.16h-63.672l-19.221-28.16H463.293z   M461.834,106.85l-18.422,26.992V79.859l3.326,4.874L461.834,106.85z M474.503,141.064h-13.998v-3.221h13.998V141.064z   M510.054,141.064h-13.998v-3.221h13.998V141.064z M527.147,135.954h-16.149h-15.887h-19.664h-15.887h-15.306l19.22-28.16h63.673  v11.693V135.954z M534.593,120.432h6.338v7.979l-6.338-0.523V120.432z M549.155,127.888l-6.336,0.523v-7.979h6.336V127.888z   M550.1,118.542h-8.225h-8.227h-3.168l11.393-10.68l11.396,10.68H550.1z"
   fill="#1F1A17" />
<g
   inkscape:export-ydpi="560.58392"
   inkscape:export-xdpi="560.58392"
   inkscape:export-filename="C:\Users\Unekwu\Documents\GitHub\GDevelop-Open-Game\src\assets\rooftop\roof_28.png"
   id="g40">
	<g
   id="g18">
		<polygon
   id="polygon16"
   points="39.577,269.6 61.347,269.6 61.347,288.839     103.432,288.839 103.432,269.6 125.201,269.6 125.201,329.699 111.319,329.699 111.319,322.646 53.46,322.646 53.46,329.699     39.577,329.699   "
   fill="#B5B6B6"
   clip-rule="evenodd"
   fill-rule="evenodd" />
	</g>
	<g
   id="g22">
		<polygon
   id="polygon20"
   points="39.577,315.594 125.201,315.594 125.201,329.699     111.319,329.699 111.319,322.646 53.46,322.646 53.46,329.699 39.577,329.699   "
   fill="#C9C9C9"
   clip-rule="evenodd"
   fill-rule="evenodd" />
	</g>
	<g
   id="g26">
		<rect
   id="rect24"
   height="31.27"
   width="26.429"
   fill="#C9C9C9"
   clip-rule="evenodd"
   fill-rule="evenodd"
   y="284.016"
   x="125.201" />
	</g>
	<g
   id="g30">
		<rect
   id="rect28"
   height="15.635"
   width="26.429"
   fill="#B5B6B6"
   clip-rule="evenodd"
   fill-rule="evenodd"
   y="284.016"
   x="125.201" />
	</g>
	<g
   id="g34">
		<rect
   id="rect32"
   height="30.362"
   width="42.085"
   fill="#C9C9C9"
   clip-rule="evenodd"
   fill-rule="evenodd"
   y="258.478"
   x="61.347" />
	</g>
	<g
   id="g38">
		<rect
   id="rect36"
   height="14.156"
   width="57.859"
   fill="#C2C2C2"
   clip-rule="evenodd"
   fill-rule="evenodd"
   y="322.646"
   x="53.46" />
	</g>
</g>
<g
   inkscape:export-ydpi="560.58392"
   inkscape:export-xdpi="560.58392"
   inkscape:export-filename="C:\Users\Unekwu\Documents\GitHub\GDevelop-Open-Game\src\assets\rooftop\roof_26.png"
   id="g66">
	<g
   id="g44">
		<path
   id="path42"
   d="M178.164,269.149c33.647,0,51.978,0,85.625,0v60.099h-13.882    v-7.053h-57.859v7.053h-13.883V269.149z"
   fill="#BA7129"
   clip-rule="evenodd"
   fill-rule="evenodd" />
	</g>
	<g
   id="g48">
		<polygon
   id="polygon46"
   points="178.164,315.143 263.789,315.143 263.789,329.248     249.906,329.248 249.906,322.195 192.047,322.195 192.047,329.248 178.164,329.248   "
   fill="#D88727"
   clip-rule="evenodd"
   fill-rule="evenodd" />
	</g>
	<g
   id="g52">
		<rect
   id="rect50"
   height="10.221"
   width="72.379"
   fill="#D88727"
   clip-rule="evenodd"
   fill-rule="evenodd"
   y="258.929"
   x="184.787" />
	</g>
	<g
   id="g56">
		<rect
   id="rect54"
   height="14.157"
   width="57.859"
   fill="#C47629"
   clip-rule="evenodd"
   fill-rule="evenodd"
   y="322.195"
   x="192.047" />
	</g>
	<g
   id="g60">
		<rect
   id="rect58"
   height="27.356"
   width="42.386"
   fill="#D88727"
   clip-rule="evenodd"
   fill-rule="evenodd"
   y="278.125"
   x="187.851" />
	</g>
	<g
   id="g64">
		<rect
   id="rect62"
   height="14.039"
   width="7.438"
   fill="#D88727"
   clip-rule="evenodd"
   fill-rule="evenodd"
   y="281.556"
   x="230.237" />
	</g>
</g>
<g
   inkscape:export-ydpi="560.58392"
   inkscape:export-xdpi="560.58392"
   inkscape:export-filename="C:\Users\Unekwu\Documents\GitHub\GDevelop-Open-Game\src\assets\rooftop\roof_29.png"
   id="g112">
	<g
   id="g70">
		<path
   id="path68"
   d="M291.5,270.146c33.648,0,51.978,0,85.625,0v60.098    c-25.563,0-60.062,0-85.625,0V270.146z"
   fill="#D06F4B"
   clip-rule="evenodd"
   fill-rule="evenodd" />
	</g>
	<g
   id="g74">
		<polygon
   id="polygon72"
   points="312.011,300.195 301.756,315.222 291.5,330.244     291.5,300.195 291.5,270.146 301.756,285.169   "
   fill="#B65F40"
   clip-rule="evenodd"
   fill-rule="evenodd" />
	</g>
	<g
   id="g78">
		<path
   id="path76"
   d="M291.5,270.146c33.648,0,51.978,0,85.625,0v30.049H312.01h0.001    l-10.255-15.026L291.5,270.146z"
   fill="#C36745"
   clip-rule="evenodd"
   fill-rule="evenodd" />
	</g>
	<g
   id="g82">
		<rect
   id="rect80"
   height="10.221"
   width="31.774"
   fill="#C76C4B"
   clip-rule="evenodd"
   fill-rule="evenodd"
   y="259.925"
   x="298.124" />
	</g>
	<g
   id="g86">
		<path
   id="path84"
   d="M409.489,272.511c-20.521,0-11.844,0-32.363,0v36.651    c15.59,0,16.773,0,32.363,0V272.511z"
   fill="#D06F4B"
   clip-rule="evenodd"
   fill-rule="evenodd" />
	</g>
	<g
   id="g90">
		<polygon
   id="polygon88"
   points="396.98,290.837 403.234,300 409.489,309.162     409.489,290.837 409.489,272.511 403.234,281.673   "
   fill="#DA764F"
   clip-rule="evenodd"
   fill-rule="evenodd" />
	</g>
	<g
   id="g94">
		<path
   id="path92"
   d="M409.489,272.511c-20.521,0-11.844,0-32.363,0v18.326h19.855    l-0.001-0.001l6.255-9.163L409.489,272.511z"
   fill="#C36745"
   clip-rule="evenodd"
   fill-rule="evenodd" />
	</g>
	<g
   id="g98">
		<polygon
   id="polygon96"
   points="393.117,309.162 393.117,315.931 383.895,315.931     383.895,325.154 377.126,325.154 377.126,315.931 377.125,315.931 377.125,309.162 377.126,309.162 383.895,309.162   "
   fill="#D06F4B"
   clip-rule="evenodd"
   fill-rule="evenodd" />
	</g>
	<g
   id="g102">
		<rect
   id="rect100"
   height="5.111"
   width="15.888"
   fill="#C76C4B"
   clip-rule="evenodd"
   fill-rule="evenodd"
   y="330.244"
   x="304.692" />
	</g>
	<g
   id="g106">
		<rect
   id="rect104"
   height="5.111"
   width="15.888"
   fill="#C76C4B"
   clip-rule="evenodd"
   fill-rule="evenodd"
   y="330.244"
   x="328.158" />
	</g>
	<g
   id="g110">
		<rect
   id="rect108"
   height="5.111"
   width="15.888"
   fill="#C76C4B"
   clip-rule="evenodd"
   fill-rule="evenodd"
   y="330.244"
   x="351.623" />
	</g>
</g>
<g
   inkscape:export-ydpi="560.58392"
   inkscape:export-xdpi="560.58392"
   id="g162">
	<g
   id="g116">
		<path
   id="path114"
   d="M442.467,270.597h21.771v19.239h42.085v-19.239h21.77v60.098    c-25.563,0-60.063,0-85.625,0V270.597z"
   fill="#8593A5"
   clip-rule="evenodd"
   fill-rule="evenodd" />
	</g>
	<g
   id="g120">
		<polygon
   id="polygon118"
   points="462.978,300.646 452.722,315.673 442.467,330.695     442.467,300.646 442.467,270.597 452.722,285.62   "
   fill="#768596"
   clip-rule="evenodd"
   fill-rule="evenodd" />
	</g>
	<g
   id="g124">
		<polygon
   id="polygon122"
   points="442.467,270.597 464.237,270.597 464.237,289.836     506.322,289.836 506.322,270.597 528.092,270.597 528.092,300.646 462.977,300.646 462.978,300.646 452.722,285.62   "
   fill="#697887"
   clip-rule="evenodd"
   fill-rule="evenodd" />
	</g>
	<g
   id="g128">
		<rect
   id="rect126"
   height="5.111"
   width="15.888"
   fill="#768596"
   clip-rule="evenodd"
   fill-rule="evenodd"
   y="330.695"
   x="459.561" />
	</g>
	<g
   id="g132">
		<rect
   id="rect130"
   height="5.111"
   width="15.887"
   fill="#768596"
   clip-rule="evenodd"
   fill-rule="evenodd"
   y="330.695"
   x="495.111" />
	</g>
	<g
   id="g136">
		<path
   id="path134"
   d="M528.092,270.597c10.832,0,16.733,0,27.564,0v42.686    c-8.229,0-19.335,0-27.564,0V270.597z"
   fill="#94A3B4"
   clip-rule="evenodd"
   fill-rule="evenodd" />
	</g>
	<g
   id="g140">
		<polygon
   id="polygon138"
   points="541.875,283.518 548.766,277.057 555.656,270.597     541.875,270.597 528.093,270.597 534.983,277.057   "
   fill="#697887"
   clip-rule="evenodd"
   fill-rule="evenodd" />
	</g>
	<g
   id="g144">
		<polygon
   id="polygon142"
   points="528.092,270.597 528.093,270.597 534.983,277.057     541.875,283.518 541.875,300.364 541.874,300.363 534.983,306.824 528.093,313.283 528.092,313.283   "
   fill="#768596"
   clip-rule="evenodd"
   fill-rule="evenodd" />
	</g>
	<g
   id="g148">
		<polygon
   id="polygon146"
   points="541.874,300.363 548.766,306.824 555.656,313.283     541.874,313.283 528.093,313.283 534.983,306.824   "
   fill="#8593A5"
   clip-rule="evenodd"
   fill-rule="evenodd" />
	</g>
	<g
   id="g152">
		<rect
   id="rect150"
   height="30.362"
   width="42.085"
   fill="#8593A5"
   clip-rule="evenodd"
   fill-rule="evenodd"
   y="259.475"
   x="464.237" />
	</g>
	<g
   id="g156">
		<polygon
   id="polygon154"
   points="533.648,313.283 541.875,313.283 541.875,323.232     533.648,322.554   "
   fill="#768596"
   clip-rule="evenodd"
   fill-rule="evenodd" />
	</g>
	<g
   id="g160">
		<polygon
   id="polygon158"
   points="550.1,313.283 541.875,313.283 541.875,323.232     550.1,322.554   "
   fill="#94A3B4"
   clip-rule="evenodd"
   fill-rule="evenodd" />
	</g>
</g>
<g
   id="g190">
	<g
   id="g166">
		<polygon
   id="polygon164"
   points="39.577,463.396 61.347,463.396 61.347,482.635     103.432,482.635 103.432,463.396 125.201,463.396 125.201,523.495 111.319,523.495 111.319,516.442 53.46,516.442 53.46,523.495     39.577,523.495   "
   fill="#B5B6B6"
   clip-rule="evenodd"
   fill-rule="evenodd" />
	</g>
	<g
   id="g170">
		<polygon
   id="polygon168"
   points="39.577,509.39 125.201,509.39 125.201,523.495     111.319,523.495 111.319,516.442 53.46,516.442 53.46,523.495 39.577,523.495   "
   fill="#C9C9C9"
   clip-rule="evenodd"
   fill-rule="evenodd" />
	</g>
	<g
   id="g174">
		<rect
   id="rect172"
   height="31.269"
   width="26.429"
   fill="#C9C9C9"
   clip-rule="evenodd"
   fill-rule="evenodd"
   y="477.812"
   x="125.201" />
	</g>
	<g
   id="g178">
		<rect
   id="rect176"
   height="15.634"
   width="26.429"
   fill="#B5B6B6"
   clip-rule="evenodd"
   fill-rule="evenodd"
   y="477.812"
   x="125.201" />
	</g>
	<g
   id="g182">
		<rect
   id="rect180"
   height="30.361"
   width="42.085"
   fill="#C9C9C9"
   clip-rule="evenodd"
   fill-rule="evenodd"
   y="452.273"
   x="61.347" />
	</g>
	<g
   id="g186">
		<rect
   id="rect184"
   height="14.156"
   width="57.859"
   fill="#C2C2C2"
   clip-rule="evenodd"
   fill-rule="evenodd"
   y="516.442"
   x="53.46" />
	</g>
	<path
   id="path188"
   d="M151.63,476.867h-25.484V463.42v-0.023c0-0.521-0.423-0.944-0.944-0.944h-20.825v-10.179   c0-0.521-0.423-0.943-0.944-0.943h-0.024H61.347c-0.521,0-0.944,0.422-0.944,0.943v0.024v10.154H39.601h-0.023   c-0.521,0-0.945,0.423-0.945,0.944v45.993v14.081v0.024c0,0.521,0.423,0.943,0.945,0.943h12.938v6.16   c0,0.521,0.423,0.944,0.944,0.944h0.024h57.835c0.521,0,0.944-0.423,0.944-0.944v-0.023v-6.137h12.914h0.024   c0.521,0,0.944-0.423,0.944-0.943v-13.471h25.46h0.024c0.521,0,0.944-0.423,0.944-0.944v-15.635v-15.61v-0.024   C152.574,477.29,152.151,476.867,151.63,476.867z M150.686,478.755v13.747h-24.541v-13.747H150.686z M62.291,453.218h40.197v10.179   v18.295H62.291V463.42v-0.023V453.218z M60.402,464.34v18.295c0,0.521,0.423,0.944,0.944,0.944h0.024h42.062   c0.521,0,0.944-0.423,0.944-0.944v-0.023V464.34h19.881v13.471v15.611v0.023v15H40.521V464.34H60.402z M110.375,529.655H54.404   v-6.16v-6.108h55.971v6.084v0.024V529.655z M124.257,522.551h-11.994v-6.108c0-0.521-0.423-0.944-0.944-0.944h-0.024H53.46   c-0.521,0-0.944,0.424-0.944,0.944v0.024v6.084H40.521v-12.217h83.736V522.551z M126.146,508.137V494.39h24.541v13.747H126.146z"
   fill="#1F1A17" />
</g>
<g
   id="g222">
	<g
   id="g194">
		<path
   id="path192"
   d="M178.164,462.945c33.647,0,51.978,0,85.625,0v60.099h-13.882    v-7.052h-57.859v7.052h-13.883V462.945z"
   fill="#BA7129"
   clip-rule="evenodd"
   fill-rule="evenodd" />
	</g>
	<g
   id="g198">
		<polygon
   id="polygon196"
   points="178.164,508.938 263.789,508.938 263.789,523.044     249.906,523.044 249.906,515.992 192.047,515.992 192.047,523.044 178.164,523.044   "
   fill="#D88727"
   clip-rule="evenodd"
   fill-rule="evenodd" />
	</g>
	<g
   id="g202">
		<rect
   id="rect200"
   height="10.221"
   width="72.379"
   fill="#D88727"
   clip-rule="evenodd"
   fill-rule="evenodd"
   y="452.725"
   x="184.787" />
	</g>
	<g
   id="g206">
		<rect
   id="rect204"
   height="14.156"
   width="57.859"
   fill="#C47629"
   clip-rule="evenodd"
   fill-rule="evenodd"
   y="515.992"
   x="192.047" />
	</g>
	<g
   id="g210">
		<rect
   id="rect208"
   height="27.355"
   width="42.386"
   fill="#D88727"
   clip-rule="evenodd"
   fill-rule="evenodd"
   y="471.921"
   x="187.851" />
	</g>
	<g
   id="g214">
		<rect
   id="rect212"
   height="14.039"
   width="7.438"
   fill="#D88727"
   clip-rule="evenodd"
   fill-rule="evenodd"
   y="475.352"
   x="230.237" />
	</g>
	<g
   id="g220">
		<path
   id="path216"
   d="M263.789,462.001h-5.678v-9.252v-0.024c0-0.521-0.423-0.944-0.944-0.944h-72.354h-0.024    c-0.521,0-0.944,0.423-0.944,0.944v9.276h-5.655h-0.024c-0.521,0-0.944,0.423-0.944,0.944v45.993v14.081v0.024    c0,0.521,0.423,0.944,0.944,0.944h12.939v6.16c0,0.521,0.423,0.944,0.944,0.944h0.024h57.835c0.521,0,0.944-0.424,0.944-0.944    v-0.024v-6.136h12.914h0.024c0.521,0,0.944-0.423,0.944-0.944v-14.081v-0.024V462.97v-0.024    C264.732,462.424,264.31,462.001,263.789,462.001z M185.731,453.669h70.491v8.332h-70.491V453.669z M184.787,463.89h72.355h0.024    h5.679v44.104h-83.737V463.89H184.787z M248.962,529.204h-55.971v-6.16v-6.108h55.971v6.084v0.024V529.204z M262.845,522.1    h-11.994v-6.107c0-0.521-0.423-0.945-0.944-0.945h-0.024h-57.834c-0.521,0-0.944,0.424-0.944,0.945v0.023v6.084h-11.995v-12.217    h83.737V522.1z"
   fill="#1F1A17" />
		<path
   id="path218"
   d="M187.851,500.22h42.362h0.024c0.521,0,0.944-0.423,0.944-0.943v-8.941h6.494    c0.521,0,0.944-0.423,0.944-0.944v-0.024v-14.015c0-0.521-0.423-0.944-0.944-0.944h-0.024h-6.47v-2.462v-0.024    c0-0.521-0.423-0.944-0.944-0.944h-42.362h-0.024c-0.521,0-0.944,0.423-0.944,0.944v27.331v0.024    C186.907,499.797,187.33,500.22,187.851,500.22z M236.731,476.296v12.15h-5.55v-12.15H236.731z M188.795,472.864h40.498v2.487    v0.024v14.015v8.941h-40.498V472.864z"
   fill="#1F1A17" />
	</g>
</g>
<g
   id="g270">
	<g
   id="g226">
		<path
   id="path224"
   d="M291.5,463.942c33.648,0,51.978,0,85.625,0v60.099    c-25.563,0-60.062,0-85.625,0V463.942z"
   fill="#D06F4B"
   clip-rule="evenodd"
   fill-rule="evenodd" />
	</g>
	<g
   id="g230">
		<polygon
   id="polygon228"
   points="312.011,493.991 301.756,509.019 291.5,524.041     291.5,493.991 291.5,463.942 301.756,478.965   "
   fill="#B65F40"
   clip-rule="evenodd"
   fill-rule="evenodd" />
	</g>
	<g
   id="g234">
		<path
   id="path232"
   d="M291.5,463.942c33.648,0,51.978,0,85.625,0v30.05H312.01    l0.001-0.001l-10.255-15.026L291.5,463.942z"
   fill="#C36745"
   clip-rule="evenodd"
   fill-rule="evenodd" />
	</g>
	<g
   id="g238">
		<rect
   id="rect236"
   height="10.221"
   width="31.774"
   fill="#C76C4B"
   clip-rule="evenodd"
   fill-rule="evenodd"
   y="453.722"
   x="298.124" />
	</g>
	<g
   id="g242">
		<path
   id="path240"
   d="M409.489,466.308c-20.521,0-11.844,0-32.363,0v36.65    c15.59,0,16.773,0,32.363,0V466.308z"
   fill="#D06F4B"
   clip-rule="evenodd"
   fill-rule="evenodd" />
	</g>
	<g
   id="g246">
		<polygon
   id="polygon244"
   points="396.98,484.633 403.234,493.797 409.489,502.958     409.489,484.633 409.489,466.308 403.234,475.469   "
   fill="#DA764F"
   clip-rule="evenodd"
   fill-rule="evenodd" />
	</g>
	<g
   id="g250">
		<path
   id="path248"
   d="M409.489,466.308c-20.521,0-11.844,0-32.363,0v18.325h19.855    h-0.001l6.255-9.164L409.489,466.308z"
   fill="#C36745"
   clip-rule="evenodd"
   fill-rule="evenodd" />
	</g>
	<g
   id="g254">
		<polygon
   id="polygon252"
   points="393.117,502.958 393.117,509.728 383.895,509.728     383.895,518.95 377.126,518.95 377.126,509.728 377.125,509.728 377.125,502.958 377.126,502.958 383.895,502.958   "
   fill="#D06F4B"
   clip-rule="evenodd"
   fill-rule="evenodd" />
	</g>
	<g
   id="g258">
		<rect
   id="rect256"
   height="5.11"
   width="15.888"
   fill="#C76C4B"
   clip-rule="evenodd"
   fill-rule="evenodd"
   y="524.041"
   x="304.692" />
	</g>
	<g
   id="g262">
		<rect
   id="rect260"
   height="5.11"
   width="15.888"
   fill="#C76C4B"
   clip-rule="evenodd"
   fill-rule="evenodd"
   y="524.041"
   x="328.158" />
	</g>
	<g
   id="g266">
		<rect
   id="rect264"
   height="5.11"
   width="15.888"
   fill="#C76C4B"
   clip-rule="evenodd"
   fill-rule="evenodd"
   y="524.041"
   x="351.623" />
	</g>
	<path
   id="path268"
   d="M410.414,466.211c-0.006-0.056-0.018-0.107-0.033-0.161c-0.019-0.066-0.041-0.128-0.074-0.188   c-0.024-0.045-0.053-0.085-0.085-0.126c-0.044-0.058-0.093-0.107-0.149-0.153c-0.02-0.016-0.03-0.039-0.052-0.054   c-0.016-0.011-0.035-0.006-0.051-0.016c-0.144-0.087-0.302-0.15-0.48-0.15h-0.024h-31.396v-1.396v-0.024   c0-0.521-0.423-0.944-0.944-0.944h-46.282v-9.252v-0.024c0-0.521-0.423-0.944-0.944-0.944h-31.75h-0.024   c-0.521,0-0.944,0.423-0.944,0.944v9.276h-5.655H291.5c-0.179,0-0.337,0.063-0.48,0.15c-0.016,0.01-0.035,0.006-0.051,0.016   c-0.022,0.016-0.033,0.038-0.053,0.055c-0.056,0.045-0.104,0.095-0.148,0.152c-0.032,0.041-0.062,0.082-0.086,0.128   c-0.032,0.059-0.055,0.119-0.074,0.185c-0.016,0.055-0.027,0.107-0.033,0.164c-0.003,0.033-0.019,0.062-0.019,0.095v30.049v30.025   v0.024c0,0.148,0.041,0.283,0.102,0.408c0.013,0.028,0.035,0.05,0.051,0.076c0.059,0.096,0.13,0.178,0.219,0.248   c0.017,0.013,0.023,0.033,0.041,0.045c0.022,0.016,0.05,0.018,0.073,0.031c0.062,0.035,0.125,0.062,0.194,0.082   c0.054,0.017,0.107,0.027,0.163,0.033c0.035,0.004,0.065,0.021,0.101,0.021h12.248v4.142v0.024c0,0.521,0.423,0.944,0.944,0.944   h15.863h0.024c0.521,0,0.943-0.423,0.943-0.944v-4.166h5.689v4.142v0.024c0,0.521,0.424,0.944,0.945,0.944h15.863h0.024   c0.521,0,0.943-0.423,0.943-0.944v-4.166h5.689v4.142v0.024c0,0.521,0.424,0.944,0.944,0.944h15.864h0.023   c0.521,0,0.944-0.423,0.944-0.944v-4.166h8.646h0.023c0.521,0,0.944-0.423,0.944-0.944v-4.146h5.802h0.023   c0.521,0,0.944-0.423,0.944-0.944v-8.278h8.255h0.023c0.521,0,0.944-0.424,0.944-0.944v-5.825h15.428   c0.036,0,0.066-0.017,0.101-0.021c0.056-0.006,0.108-0.017,0.163-0.032c0.069-0.021,0.132-0.047,0.193-0.082   c0.024-0.014,0.051-0.016,0.074-0.031c0.018-0.013,0.024-0.033,0.04-0.046c0.089-0.069,0.16-0.151,0.22-0.248   c0.017-0.026,0.038-0.048,0.051-0.075c0.062-0.125,0.103-0.261,0.103-0.409v-0.024v-18.301v-18.325   C410.434,466.273,410.418,466.244,410.414,466.211z M393.117,502.014h-9.223h-5.824v-16.437h18.414l5.973,8.75l5.247,7.687H393.117   z M408.545,484.633v15.271l-4.532-6.639l-5.892-8.633l3.053-4.473l2.84-4.16l4.144-6.07l0.388-0.568V484.633z M378.07,467.251   h29.634l-5.247,7.688l-5.189,7.604l-0.783,1.147H378.07V467.251z M376.182,493.048h-63.675l-9.974-14.613l-9.248-13.548h4.839   h31.751h0.023h46.283V493.048z M310.87,493.991l-9.893,14.496l-8.533,12.5v-26.996v-26.995l8.533,12.5L310.87,493.991z    M299.068,454.666h29.886v8.332h-29.886V454.666z M319.636,528.207h-14v-3.222h14V528.207z M343.102,528.207h-14v-3.222h14V528.207   z M366.567,528.207h-14v-3.222h14V528.207z M376.182,523.097h-8.671h-15.863h-0.024h-7.577h-15.864h-0.023h-7.578h-15.864h-0.023   h-11.407l9.248-13.548l9.974-14.612h63.675v8.021v6.745v0.024V523.097z M392.173,508.783h-8.278c-0.521,0-0.943,0.423-0.943,0.944   v0.024v8.254h-4.881v-8.278l-0.001-0.036v-5.789h5.825h8.278V508.783z"
   fill="#1F1A17" />
</g>
<g
   id="g322">
	<g
   id="g274">
		<path
   id="path272"
   d="M442.467,464.394h21.771v19.239h42.085v-19.239h21.77v60.099    c-25.563,0-60.063,0-85.625,0V464.394z"
   fill="#8593A5"
   clip-rule="evenodd"
   fill-rule="evenodd" />
	</g>
	<g
   id="g278">
		<polygon
   id="polygon276"
   points="462.978,494.442 452.722,509.469 442.467,524.492     442.467,494.442 442.467,464.394 452.722,479.416   "
   fill="#768596"
   clip-rule="evenodd"
   fill-rule="evenodd" />
	</g>
	<g
   id="g282">
		<polygon
   id="polygon280"
   points="442.467,464.394 464.237,464.394 464.237,483.633     506.322,483.633 506.322,464.394 528.092,464.394 528.092,494.443 462.977,494.443 462.978,494.442 452.722,479.416   "
   fill="#697887"
   clip-rule="evenodd"
   fill-rule="evenodd" />
	</g>
	<g
   id="g286">
		<rect
   id="rect284"
   height="5.11"
   width="15.888"
   fill="#768596"
   clip-rule="evenodd"
   fill-rule="evenodd"
   y="524.492"
   x="459.561" />
	</g>
	<g
   id="g290">
		<rect
   id="rect288"
   height="5.11"
   width="15.887"
   fill="#768596"
   clip-rule="evenodd"
   fill-rule="evenodd"
   y="524.492"
   x="495.111" />
	</g>
	<g
   id="g294">
		<path
   id="path292"
   d="M528.092,464.394c10.832,0,16.733,0,27.564,0v42.687    c-8.229,0-19.335,0-27.564,0V464.394z"
   fill="#94A3B4"
   clip-rule="evenodd"
   fill-rule="evenodd" />
	</g>
	<g
   id="g298">
		<polygon
   id="polygon296"
   points="541.875,477.313 548.766,470.854 555.656,464.394     541.875,464.394 528.093,464.394 534.983,470.854   "
   fill="#697887"
   clip-rule="evenodd"
   fill-rule="evenodd" />
	</g>
	<g
   id="g302">
		<polygon
   id="polygon300"
   points="528.092,464.394 528.093,464.394 534.983,470.854     541.875,477.313 541.875,494.16 541.874,494.16 534.983,500.62 528.093,507.08 528.092,507.08   "
   fill="#768596"
   clip-rule="evenodd"
   fill-rule="evenodd" />
	</g>
	<g
   id="g306">
		<polygon
   id="polygon304"
   points="541.874,494.16 548.766,500.62 555.656,507.08     541.874,507.08 528.093,507.08 534.983,500.62   "
   fill="#8593A5"
   clip-rule="evenodd"
   fill-rule="evenodd" />
	</g>
	<g
   id="g310">
		<rect
   id="rect308"
   height="30.362"
   width="42.085"
   fill="#8593A5"
   clip-rule="evenodd"
   fill-rule="evenodd"
   y="453.271"
   x="464.237" />
	</g>
	<g
   id="g314">
		<polygon
   id="polygon312"
   points="533.648,507.079 541.875,507.079 541.875,517.028     533.648,516.35   "
   fill="#768596"
   clip-rule="evenodd"
   fill-rule="evenodd" />
	</g>
	<g
   id="g318">
		<polygon
   id="polygon316"
   points="550.1,507.079 541.875,507.079 541.875,517.028     550.1,516.35   "
   fill="#94A3B4"
   clip-rule="evenodd"
   fill-rule="evenodd" />
	</g>
	<path
   id="path320"
   d="M556.347,463.759c-0.003-0.003-0.002-0.008-0.005-0.011c0-0.001-0.003,0-0.004-0.002   c-0.172-0.181-0.412-0.297-0.682-0.297h-13.781h-13.759h-0.023h-0.001h-20.825v-10.179c0-0.521-0.423-0.943-0.944-0.943h-0.023   h-42.062c-0.521,0-0.944,0.423-0.944,0.943v0.024v10.154h-20.802h-0.024c-0.179,0-0.337,0.063-0.48,0.15   c-0.016,0.01-0.034,0.005-0.05,0.016c-0.021,0.015-0.032,0.038-0.053,0.054c-0.057,0.046-0.104,0.096-0.149,0.153   c-0.031,0.041-0.061,0.081-0.085,0.126c-0.032,0.06-0.056,0.121-0.074,0.188c-0.016,0.054-0.026,0.105-0.033,0.161   c-0.003,0.033-0.019,0.063-0.019,0.097v30.049v30.025v0.024c0,0.147,0.041,0.283,0.102,0.408c0.014,0.027,0.035,0.049,0.051,0.076   c0.06,0.096,0.132,0.178,0.221,0.248c0.016,0.013,0.022,0.033,0.04,0.045c0.022,0.016,0.049,0.018,0.072,0.031   c0.062,0.035,0.126,0.061,0.195,0.082c0.055,0.016,0.106,0.027,0.162,0.033c0.035,0.004,0.065,0.02,0.101,0.02h16.149v4.143v0.024   c0,0.521,0.423,0.943,0.944,0.943h15.863h0.024c0.521,0,0.944-0.423,0.944-0.943v-4.167h17.774v4.143v0.024   c0,0.521,0.423,0.943,0.944,0.943h15.863h0.023c0.521,0,0.945-0.423,0.945-0.943v-4.167h16.124h0.024   c0.521,0,0.944-0.423,0.944-0.943v-16.468h3.668v8.325h0.001c0,0.485,0.373,0.9,0.866,0.94l8.189,0.676   c0.038,0.005,0.075,0.007,0.114,0.007c0.038,0,0.076-0.002,0.113-0.007l8.189-0.676c0.492-0.04,0.865-0.455,0.865-0.94h0.001   v-8.325h4.589h0.023c0.27,0,0.51-0.116,0.682-0.298c0.001-0.001,0.004,0,0.004-0.002c0.003-0.003,0.002-0.007,0.004-0.01   c0.155-0.168,0.255-0.389,0.255-0.635v-42.662v-0.024C556.601,464.147,556.501,463.927,556.347,463.759z M529.036,504.904v-10.461   v-27.875l5.302,4.971l6.593,6.18v16.034l-6.593,6.181L529.036,504.904z M542.818,477.719l6.593-6.18l5.302-4.97v38.335   l-5.302-4.971l-6.593-6.179V477.719z M553.272,465.338l-5.151,4.83l-6.246,5.854l-6.247-5.854l-5.151-4.83h11.398H553.272z    M465.182,454.215h40.197v10.179v18.295h-40.197v-18.271v-0.024V454.215z M463.293,465.338v18.294c0,0.521,0.424,0.944,0.944,0.944   h0.024h42.061c0.521,0,0.944-0.423,0.944-0.944v-0.023v-18.271h19.881v28.161h-63.674l-9.974-14.614l-9.248-13.547H463.293z    M461.837,494.442l-9.894,14.495l-8.532,12.5v-26.995v-26.995l8.532,12.5L461.837,494.442z M474.504,528.658h-13.999v-3.223h13.999   V528.658z M510.055,528.658h-14v-3.223h14V528.658z M527.147,523.548h-16.149h-15.863h-0.023h-19.663h-15.863h-0.024h-15.309   L453.5,510l9.973-14.613h63.675v11.669v0.024V523.548z M534.593,508.024h6.338v7.979l-6.338-0.522V508.024z M549.156,515.481   l-6.338,0.522v-7.979h6.338V515.481z M550.103,506.136c-0.001,0-0.002-0.001-0.003-0.001h-0.024h-8.2h-8.202h-0.024   c-0.001,0-0.001,0.001-0.002,0.001h-3.17l5.151-4.83l6.246-5.855l6.247,5.855l5.151,4.83H550.103z"
   fill="#1F1A17" />
</g>
</svg>
