<?xml version="1.0" encoding="UTF-8" standalone="no"?>
<svg
   xmlns:dc="http://purl.org/dc/elements/1.1/"
   xmlns:cc="http://creativecommons.org/ns#"
   xmlns:rdf="http://www.w3.org/1999/02/22-rdf-syntax-ns#"
   xmlns:svg="http://www.w3.org/2000/svg"
   xmlns="http://www.w3.org/2000/svg"
   xmlns:sodipodi="http://sodipodi.sourceforge.net/DTD/sodipodi-0.dtd"
   xmlns:inkscape="http://www.inkscape.org/namespaces/inkscape"
   inkscape:version="1.0 (4035a4fb49, 2020-05-01)"
   sodipodi:docname="House Roof_3.svg"
   xml:space="preserve"
   enable-background="new 0 0 595.28 595.28"
   viewBox="0 0 595.28 595.28"
   height="595.28px"
   width="595.28px"
   y="0px"
   x="0px"
   id="Layer_1"
   version="1.1"><metadata
   id="metadata369"><rdf:RDF><cc:Work
       rdf:about=""><dc:format>image/svg+xml</dc:format><dc:type
         rdf:resource="http://purl.org/dc/dcmitype/StillImage" /></cc:Work></rdf:RDF></metadata><defs
   id="defs367" /><sodipodi:namedview
   inkscape:current-layer="Layer_1"
   inkscape:window-maximized="1"
   inkscape:window-y="-8"
   inkscape:window-x="-8"
   inkscape:cy="297.64001"
   inkscape:cx="297.64001"
   inkscape:zoom="1.0012095"
   showgrid="false"
   id="namedview365"
   inkscape:window-height="745"
   inkscape:window-width="1366"
   inkscape:pageshadow="2"
   inkscape:pageopacity="0"
   guidetolerance="10"
   gridtolerance="10"
   objecttolerance="10"
   borderopacity="1"
   bordercolor="#666666"
   pagecolor="#ffffff" />
<rect
   id="rect2"
   height="595.276"
   width="595.27502"
   fill="#f9f9fa"
   clip-rule="evenodd"
   fill-rule="evenodd"
   y="1.000792"
   x="-452.45078" />
<path
   id="path4"
   d="M145.417,131.644V78.949c0-0.107-0.033-0.205-0.062-0.303c-0.006-0.021,0.005-0.042-0.002-0.063  c-0.003-0.008-0.012-0.011-0.015-0.019c-0.019-0.05-0.048-0.092-0.074-0.139c-0.023-0.042-0.048-0.075-0.077-0.114  c-0.058-0.078-0.121-0.146-0.196-0.207c-0.036-0.029-0.069-0.049-0.107-0.073c-0.015-0.009-0.027-0.02-0.042-0.028  c-0.02-0.012-0.029-0.035-0.05-0.045c-0.007-0.003-0.015,0-0.021-0.003c-0.138-0.063-0.289-0.102-0.45-0.102H94.574  c-0.21,0-0.396,0.076-0.563,0.179c-0.039,0.023-0.072,0.044-0.107,0.073c-0.153,0.122-0.276,0.273-0.347,0.459  c-0.003,0.008-0.012,0.011-0.015,0.019c-0.007,0.021,0.004,0.042-0.002,0.063c-0.029,0.098-0.061,0.195-0.061,0.303v12.738h-9.744  V78.949c0-0.107-0.032-0.205-0.061-0.303c-0.006-0.021,0.005-0.042-0.002-0.063c-0.003-0.008-0.011-0.011-0.014-0.019  c-0.07-0.186-0.194-0.338-0.347-0.459c-0.036-0.029-0.069-0.049-0.107-0.073c-0.167-0.104-0.353-0.179-0.563-0.179H32.892  c-0.161,0-0.312,0.039-0.45,0.102c-0.006,0.003-0.015,0-0.021,0.003c-0.021,0.011-0.031,0.034-0.051,0.046  c-0.015,0.008-0.027,0.019-0.042,0.028c-0.039,0.023-0.072,0.044-0.107,0.073c-0.076,0.06-0.138,0.128-0.196,0.207  c-0.028,0.039-0.054,0.072-0.077,0.114c-0.026,0.046-0.055,0.088-0.074,0.139c-0.003,0.008-0.012,0.011-0.015,0.019  c-0.007,0.021,0.004,0.042-0.002,0.063c-0.029,0.098-0.061,0.195-0.061,0.303v52.878c0,0.107,0.032,0.204,0.061,0.302  c0.006,0.021-0.005,0.042,0.002,0.063c0.003,0.008,0.012,0.011,0.015,0.02c0.019,0.05,0.048,0.092,0.074,0.138  c0.023,0.042,0.049,0.076,0.077,0.114c0.058,0.078,0.12,0.146,0.196,0.207c0.036,0.029,0.069,0.049,0.108,0.073  c0.014,0.009,0.026,0.019,0.041,0.027c0.021,0.011,0.03,0.035,0.052,0.046c0.008,0.003,0.017,0.002,0.024,0.005  c0.137,0.062,0.287,0.1,0.446,0.1h9.517v5.628c0,0.604,0.492,1.096,1.096,1.096h28.518c0.604,0,1.096-0.492,1.096-1.096v-5.628  h9.521c0.21,0,0.396-0.076,0.563-0.179c0.039-0.023,0.073-0.044,0.108-0.073c0.153-0.122,0.276-0.273,0.347-0.459  c0.003-0.008,0.012-0.011,0.015-0.019c0.007-0.021-0.004-0.042,0.002-0.063c0.029-0.098,0.061-0.195,0.061-0.303v-12.742h9.744  v12.742c0,0.107,0.032,0.204,0.061,0.302c0.006,0.021-0.005,0.042,0.002,0.063c0.003,0.008,0.012,0.011,0.015,0.02  c0.07,0.186,0.193,0.337,0.347,0.459c0.036,0.029,0.069,0.049,0.108,0.073c0.167,0.104,0.353,0.179,0.563,0.179h9.52v5.628  c0,0.604,0.493,1.096,1.096,1.096h28.515c0.604,0,1.096-0.492,1.096-1.096v-5.628h9.52c0.018,0,0.036,0,0.054,0  c0.607,0,1.096-0.492,1.096-1.096C145.471,131.759,145.429,131.708,145.417,131.644z M94.166,116.893h-11.12l-3.278-2.823  l-8.81-7.587h35.296l-8.81,7.587L94.166,116.893z M33.987,81.25l22.682,18.395v11.484l-22.682,18.397V81.25z M58.861,99.645  L81.542,81.25v11.031l-14.251,12.275c-0.135,0.116-0.228,0.264-0.292,0.425c-0.004,0.01-0.015,0.014-0.019,0.024  c-0.007,0.019,0.003,0.038-0.002,0.056c-0.016,0.049-0.019,0.093-0.027,0.143c-0.011,0.062-0.04,0.118-0.04,0.182  c0,0.063,0.029,0.12,0.04,0.182c0.009,0.05,0.011,0.094,0.027,0.143c0.005,0.018-0.004,0.037,0.002,0.056  c0.004,0.01,0.015,0.014,0.019,0.024c0.064,0.161,0.157,0.31,0.292,0.426l14.251,12.275v11.034l-22.682-18.397V99.645z   M83.046,93.88h11.12l3.279,2.823l8.81,7.587H70.958l8.81-7.587L83.046,93.88z M95.67,118.492l14.251-12.275  c0.134-0.116,0.227-0.265,0.292-0.426c0.004-0.01,0.015-0.014,0.019-0.024c0.007-0.019-0.003-0.038,0.003-0.056  c0.016-0.049,0.019-0.093,0.027-0.143c0.011-0.062,0.04-0.118,0.04-0.182c0-0.064-0.029-0.121-0.04-0.182  c-0.008-0.05-0.011-0.094-0.027-0.143c-0.006-0.018,0.004-0.037-0.003-0.056c-0.004-0.01-0.015-0.014-0.019-0.024  c-0.065-0.161-0.158-0.309-0.292-0.425L95.67,92.281V81.25l22.682,18.395v11.484L95.67,129.525V118.492z M120.543,111.128V99.645  l22.681-18.395v48.276l-13.518-10.964L120.543,111.128z M141.228,80.045L119.446,97.71L97.666,80.045H141.228z M57.767,97.71  L35.984,80.045h43.563L57.767,97.71z M70.926,137.455H44.601v-4.532h26.326V137.455z M72.022,130.731H43.505h-7.521l21.783-17.668  l21.783,17.668H72.022z M119.446,113.063l21.782,17.668h-7.524H105.19h-7.527L119.446,113.063z M132.608,137.455h-26.322v-4.532  h26.322V137.455z"
   fill="#1F1A17" />
<path
   id="path6"
   d="M309.524,124.664v-49.12V75.54c0-0.107-0.032-0.205-0.062-0.304c-0.006-0.019,0.005-0.039-0.002-0.059  c-0.003-0.007-0.011-0.01-0.014-0.018c-0.02-0.053-0.049-0.097-0.076-0.146c-0.021-0.038-0.045-0.068-0.07-0.104  c-0.061-0.083-0.126-0.155-0.206-0.218c-0.031-0.025-0.061-0.043-0.095-0.064c-0.021-0.014-0.041-0.031-0.064-0.043  c-0.015-0.008-0.021-0.025-0.036-0.033c-0.005-0.002-0.011,0-0.015-0.002c-0.141-0.064-0.293-0.106-0.457-0.106h-46.386  c-0.214,0-0.402,0.078-0.572,0.185c-0.034,0.021-0.063,0.04-0.095,0.064c-0.156,0.123-0.281,0.277-0.352,0.467  c-0.003,0.007-0.011,0.011-0.014,0.018c-0.007,0.02,0.003,0.04-0.002,0.06c-0.029,0.098-0.062,0.195-0.062,0.303v11.806h-8.935  V75.543V75.54c0-0.107-0.032-0.205-0.062-0.304c-0.006-0.019,0.005-0.039-0.002-0.059c-0.002-0.007-0.011-0.01-0.014-0.018  c-0.02-0.053-0.049-0.097-0.076-0.146c-0.021-0.038-0.045-0.068-0.07-0.104c-0.06-0.083-0.126-0.155-0.206-0.218  c-0.031-0.025-0.061-0.043-0.094-0.064c-0.022-0.014-0.042-0.031-0.064-0.043c-0.015-0.008-0.021-0.025-0.037-0.033  c-0.005-0.002-0.01,0-0.015-0.002c-0.14-0.064-0.292-0.106-0.456-0.106h-46.387c-0.214,0-0.402,0.078-0.571,0.185  c-0.034,0.021-0.063,0.04-0.095,0.064c-0.157,0.123-0.282,0.277-0.353,0.467c-0.003,0.007-0.011,0.011-0.014,0.018  c-0.007,0.02,0.004,0.04-0.002,0.06c-0.029,0.098-0.062,0.195-0.062,0.303v66.42c0,0.107,0.032,0.204,0.062,0.302  c0.006,0.021-0.006,0.042,0.002,0.063c0.003,0.008,0.012,0.012,0.015,0.02c0.07,0.186,0.193,0.337,0.347,0.459  c0.035,0.029,0.069,0.049,0.108,0.073c0.167,0.104,0.353,0.179,0.563,0.179h46.387c0.018,0,0.036,0,0.054,0  c0.607,0,1.096-0.492,1.096-1.096c0-0.068-0.043-0.119-0.055-0.183v-28.737h8.935v11.806c0,0.107,0.032,0.204,0.061,0.302  c0.006,0.021-0.005,0.042,0.002,0.063c0.002,0.008,0.012,0.012,0.015,0.02c0.07,0.186,0.193,0.337,0.347,0.459  c0.035,0.028,0.069,0.049,0.108,0.073c0.167,0.104,0.353,0.179,0.563,0.179h8.802v5.175c0,0.604,0.492,1.096,1.096,1.096h26.592  c0.604,0,1.096-0.492,1.096-1.096v-5.175h8.801c0.019,0,0.037,0,0.055,0c0.607,0,1.096-0.492,1.096-1.096  C309.578,124.779,309.536,124.728,309.524,124.664z M296.875,114.065l-10.542-8.552V94.876l6.393-5.186l14.606-11.846v44.703  L296.875,114.065z M261.635,110.849h-10.719h-3.382v-9.56h25.201l-8.154,7.022L261.635,110.849z M261.635,89.538l2.947,2.537  l8.154,7.022h-25.201v-9.559h3.382H261.635z M263.138,112.447l13.264-11.424c0.134-0.116,0.227-0.264,0.292-0.425  c0.004-0.01,0.015-0.015,0.019-0.024c0.006-0.019-0.003-0.038,0.003-0.056c0.015-0.049,0.018-0.093,0.027-0.143  c0.011-0.062,0.039-0.118,0.039-0.182c0-0.064-0.028-0.12-0.039-0.182c-0.009-0.05-0.012-0.094-0.027-0.143  c-0.006-0.018,0.003-0.037-0.003-0.056c-0.004-0.01-0.015-0.014-0.019-0.024c-0.065-0.161-0.158-0.31-0.292-0.426l-13.264-11.423  V77.845l21.002,17.035v10.63l-21.002,17.035V112.447z M285.233,92.944l-20.1-16.305h40.202l-14.455,11.724L285.233,92.944z   M205.625,77.845l21,17.032v27.749l-21,17.033V77.845z M207.621,76.639h40.202L227.72,92.942L207.621,76.639z M227.72,124.561  l20.104,16.303h-40.205L227.72,124.561z M249.82,139.661l-21.002-17.035V94.877l21.002-17.033v9.501h-3.381  c-0.604,0-1.096,0.492-1.096,1.096v11.751v11.751c0,0.604,0.492,1.096,1.096,1.096h3.381V139.661z M285.233,107.446l1.341,1.087  l18.761,15.217h-6.805h-26.592h-6.809L285.233,107.446z M297.435,130.021h-24.399v-4.079h24.399V130.021z"
   fill="#1F1A17" />
<path
   id="path8"
   d="M427.176,89.107c0-0.21-0.075-0.396-0.179-0.563c-0.023-0.039-0.044-0.072-0.072-0.107  c-0.122-0.153-0.274-0.276-0.46-0.347c-0.008-0.003-0.012-0.011-0.02-0.014c-0.02-0.007-0.041,0.004-0.062-0.002  c-0.099-0.029-0.196-0.062-0.304-0.062h-16.6V75.735c0-0.604-0.492-1.096-1.097-1.096h-14.466h-14.466  c-0.604,0-1.096,0.492-1.096,1.096v12.277h-16.604c-0.107,0-0.204,0.032-0.303,0.061c-0.021,0.006-0.042-0.005-0.063,0.002  c-0.008,0.003-0.011,0.011-0.019,0.015c-0.187,0.07-0.338,0.193-0.46,0.347c-0.028,0.035-0.05,0.069-0.073,0.108  c-0.104,0.167-0.179,0.353-0.179,0.563v44.928c0,0.161,0.039,0.311,0.103,0.449c0.002,0.007,0,0.015,0.003,0.022  c0.011,0.021,0.034,0.031,0.046,0.051c0.008,0.014,0.019,0.027,0.027,0.041c0.023,0.039,0.045,0.072,0.073,0.108  c0.06,0.075,0.128,0.138,0.206,0.195c0.039,0.028,0.072,0.054,0.115,0.077c0.046,0.026,0.088,0.055,0.138,0.074  c0.008,0.003,0.012,0.012,0.02,0.015c0.118,0.042,0.241,0.063,0.365,0.063h18.191v6.633c0,0.604,0.492,1.096,1.097,1.096h25.752  c0.604,0,1.096-0.492,1.096-1.096v-6.633h18.191c0.124,0,0.248-0.021,0.365-0.063c0.008-0.003,0.012-0.012,0.02-0.015  c0.051-0.019,0.093-0.048,0.139-0.074c0.042-0.023,0.076-0.049,0.114-0.077c0.078-0.058,0.146-0.12,0.207-0.195  c0.028-0.036,0.049-0.069,0.072-0.108c0.009-0.014,0.02-0.027,0.028-0.042c0.012-0.021,0.035-0.03,0.045-0.051  c0.004-0.007,0.001-0.015,0.004-0.021c0.063-0.138,0.102-0.289,0.102-0.45V89.107z M412.548,115.609l-3.273-4.037l15.71-19.375  v38.747L412.548,115.609z M380.495,110.476l-16.44-20.272h15.012l14.163,11.449c0.031,0.025,0.074,0.017,0.106,0.038  c0.043,0.028,0.064,0.076,0.111,0.098c0.148,0.072,0.311,0.108,0.471,0.108s0.323-0.036,0.471-0.108  c0.047-0.022,0.069-0.07,0.111-0.098c0.033-0.021,0.076-0.013,0.106-0.038l14.164-11.449h15.009l-16.438,20.272H380.495z   M378.561,111.57l-15.711,19.373V92.196L378.561,111.57z M407.288,88.585l-2.74,2.215l-9.534,7.706V76.831h12.274V88.585z   M380.549,76.831h12.273v21.675l-9.534-7.706l-2.739-2.215V76.831z M405.696,140.669h-23.56v-6.633v-8.675h23.56v8.675V140.669z   M406.793,123.169h-25.752c-0.604,0-1.097,0.492-1.097,1.096v8.675h-15.89l16.44-20.272h26.844l6.358,7.838l10.082,12.434h-15.891  v-8.675C407.889,123.661,407.396,123.169,406.793,123.169z"
   fill="#1F1A17" />
<path
   id="path10"
   d="M563.484,84.008c0-0.087-0.03-0.165-0.049-0.246c-0.007-0.026,0.009-0.051,0.001-0.077  c-0.004-0.014-0.02-0.02-0.024-0.034c-0.019-0.054-0.043-0.103-0.069-0.152c-0.022-0.043-0.05-0.077-0.079-0.116  c-0.057-0.079-0.117-0.15-0.191-0.211c-0.033-0.027-0.065-0.044-0.102-0.067c-0.004-0.003-0.007-0.005-0.011-0.008  c-0.024-0.015-0.035-0.044-0.062-0.058c-0.011-0.006-0.023-0.002-0.035-0.007c-0.145-0.071-0.303-0.119-0.475-0.119h-28.02h-0.003  c-0.22,0-0.413,0.082-0.585,0.193c-0.033,0.021-0.063,0.038-0.092,0.063c-0.159,0.128-0.28,0.292-0.348,0.489  c-0.004,0.011-0.017,0.016-0.021,0.028c-0.007,0.021,0.007,0.042,0.001,0.064c-0.021,0.085-0.052,0.167-0.052,0.259v9.179H522.09  v-16.6c0-0.107-0.033-0.205-0.062-0.303c-0.006-0.021,0.005-0.042-0.002-0.062c-0.003-0.008-0.012-0.011-0.015-0.019  c-0.07-0.187-0.193-0.338-0.348-0.46c-0.035-0.028-0.068-0.049-0.107-0.073c-0.167-0.104-0.353-0.179-0.563-0.179h-44.925  c-0.161,0-0.312,0.04-0.449,0.103c-0.007,0.003-0.015,0-0.021,0.003c-0.021,0.01-0.031,0.034-0.051,0.045  c-0.015,0.008-0.027,0.019-0.041,0.028c-0.039,0.024-0.073,0.044-0.108,0.073c-0.076,0.061-0.138,0.129-0.196,0.207  c-0.027,0.039-0.053,0.073-0.076,0.114c-0.026,0.046-0.055,0.088-0.074,0.139c-0.003,0.008-0.012,0.011-0.015,0.02  c-0.008,0.021,0.004,0.042-0.002,0.063c-0.029,0.098-0.062,0.195-0.062,0.302v18.191h-6.637c-0.604,0-1.096,0.492-1.096,1.096  v25.752c0,0.604,0.492,1.096,1.096,1.096h6.637v18.191c0,0.107,0.032,0.204,0.062,0.302c0.006,0.021-0.006,0.042,0.002,0.063  c0.003,0.008,0.012,0.012,0.015,0.02c0.02,0.05,0.048,0.092,0.074,0.138c0.023,0.042,0.049,0.076,0.076,0.115  c0.059,0.078,0.121,0.146,0.196,0.207c0.036,0.028,0.069,0.049,0.108,0.073c0.014,0.008,0.025,0.019,0.041,0.027  c0.02,0.012,0.029,0.036,0.051,0.046c0.008,0.004,0.017,0.002,0.025,0.006c0.137,0.062,0.285,0.1,0.445,0.1h44.925  c0.211,0,0.396-0.076,0.563-0.179c0.039-0.024,0.072-0.044,0.108-0.073c0.153-0.122,0.276-0.274,0.347-0.46  c0.003-0.008,0.012-0.011,0.015-0.019c0.007-0.021-0.004-0.042,0.002-0.062c0.029-0.098,0.062-0.196,0.062-0.303v-16.6h11.181v9.179  c0,0.092,0.03,0.173,0.052,0.259c0.006,0.021-0.008,0.042-0.001,0.064c0.004,0.012,0.017,0.017,0.021,0.028  c0.067,0.197,0.188,0.361,0.348,0.489c0.029,0.025,0.059,0.041,0.092,0.063c0.172,0.112,0.365,0.193,0.585,0.193h0.003h28.02  c0.171,0,0.328-0.047,0.472-0.117c0.013-0.006,0.026-0.003,0.038-0.009c0.026-0.014,0.037-0.042,0.063-0.058  c0.003-0.002,0.007-0.005,0.01-0.007c0.036-0.023,0.068-0.041,0.102-0.068c0.074-0.061,0.135-0.132,0.191-0.211  c0.028-0.04,0.056-0.074,0.079-0.117c0.026-0.05,0.051-0.098,0.069-0.152c0.005-0.014,0.021-0.02,0.024-0.034  c0.008-0.026-0.008-0.051-0.001-0.077c0.019-0.082,0.049-0.159,0.049-0.246V84.008z M535.462,123.217v-14.466V94.283v-8.201  l11.821,8.068v29.199l-11.821,8.068V123.217z M549.475,123.35V94.15l11.818-8.066v45.331L549.475,123.35z M558.837,85.104  l-10.46,7.139l-10.46-7.139H558.837z M533.271,107.655h-21.675l7.806-9.661l2.114-2.616h11.755V107.655z M519.897,123.604v15.009  l-20.269-16.441V95.328l20.269-16.44v15.009l-11.449,14.167c-0.029,0.036-0.028,0.083-0.052,0.122  c-0.023,0.037-0.065,0.056-0.084,0.096c-0.027,0.055-0.013,0.116-0.029,0.174c-0.024,0.083-0.056,0.156-0.06,0.241  c-0.003,0.04-0.003,0.073,0,0.112c0.004,0.085,0.035,0.159,0.06,0.241c0.017,0.058,0.002,0.119,0.029,0.174  c0.019,0.04,0.061,0.059,0.084,0.096c0.023,0.038,0.022,0.086,0.052,0.122L519.897,123.604z M498.534,93.394l-19.373-15.711h38.743  L498.534,93.394z M469.433,96.97h6.636h8.675v23.56h-8.675h-6.636V96.97z M485.839,122.722c0.604,0,1.097-0.492,1.097-1.096V95.874  c0-0.604-0.492-1.096-1.097-1.096h-8.675v-15.89l20.272,16.44v26.843l-20.272,16.441v-15.89H485.839z M479.161,139.817  l19.373-15.711l19.37,15.711H479.161z M521.516,122.121l-2.215-2.74l-7.705-9.534h21.675v12.273H521.516z M548.375,125.258  l10.461,7.138H537.92L548.375,125.258z"
   fill="#1F1A17" />
<g
   id="g60">
	<g
   id="g14">
		<polygon
   id="polygon12"
   points="94.572,506.246 94.572,492.41 109.206,479.807     94.572,467.205 94.572,453.368 144.321,453.368 144.321,506.246   "
   fill="#757373"
   clip-rule="evenodd"
   fill-rule="evenodd" />
	</g>
	<g
   id="g18">
		<polygon
   id="polygon16"
   points="119.447,486.073 119.447,473.543 131.885,463.455     144.321,453.369 144.321,506.246 131.885,496.16   "
   fill="#A5A5A5"
   clip-rule="evenodd"
   fill-rule="evenodd" />
	</g>
	<g
   id="g22">
		<polygon
   id="polygon20"
   points="119.446,486.073 131.885,496.16 144.321,506.246     119.446,506.246 94.572,506.246 107.01,496.16   "
   fill="#C3C2C1"
   clip-rule="evenodd"
   fill-rule="evenodd" />
	</g>
	<g
   id="g26">
		<polygon
   id="polygon24"
   points="119.446,473.543 131.885,463.455 144.321,453.369     119.446,453.369 94.572,453.369 107.01,463.455   "
   fill="#A5A5A5"
   clip-rule="evenodd"
   fill-rule="evenodd" />
	</g>
	<g
   id="g30">
		<polygon
   id="polygon28"
   points="94.572,492.41 82.639,492.41 68.005,479.807     109.206,479.807   "
   fill="#C3C2C1"
   clip-rule="evenodd"
   fill-rule="evenodd" />
	</g>
	<g
   id="g34">
		<polygon
   id="polygon32"
   points="94.572,467.205 82.639,467.205 68.005,479.807     109.206,479.807   "
   fill="#A5A5A5"
   clip-rule="evenodd"
   fill-rule="evenodd" />
	</g>
	<g
   id="g38">
		<polygon
   id="polygon36"
   points="82.639,506.246 82.639,492.41 68.005,479.807     82.639,467.205 82.639,453.368 32.891,453.368 32.891,506.246   "
   fill="#A5A5A5"
   clip-rule="evenodd"
   fill-rule="evenodd" />
	</g>
	<g
   id="g42">
		<polygon
   id="polygon40"
   points="57.765,486.073 57.765,473.543 45.326,463.455     32.891,453.369 32.891,506.246 45.326,496.16   "
   fill="#757373"
   clip-rule="evenodd"
   fill-rule="evenodd" />
	</g>
	<g
   id="g46">
		<polygon
   id="polygon44"
   points="57.765,486.073 45.328,496.16 32.891,506.246     57.765,506.246 82.639,506.246 70.203,496.16   "
   fill="#C3C2C1"
   clip-rule="evenodd"
   fill-rule="evenodd" />
	</g>
	<g
   id="g50">
		<polygon
   id="polygon48"
   points="57.765,473.543 45.328,463.455 32.891,453.369     57.765,453.369 82.639,453.369 70.203,463.455   "
   fill="#A5A5A5"
   clip-rule="evenodd"
   fill-rule="evenodd" />
	</g>
	<g
   id="g54">
		<rect
   id="rect52"
   height="6.726"
   width="28.519"
   fill="#A5A5A5"
   clip-rule="evenodd"
   fill-rule="evenodd"
   y="506.246"
   x="43.505" />
	</g>
	<g
   id="g58">
		<rect
   id="rect56"
   height="6.726"
   width="28.518"
   fill="#A5A5A5"
   clip-rule="evenodd"
   fill-rule="evenodd"
   y="506.246"
   x="105.188" />
	</g>
</g>
<g
   id="g106">
	<g
   id="g64">
		<polygon
   id="polygon62"
   points="262.042,499.266 262.042,486.364 275.688,474.613     262.042,462.863 262.042,449.961 308.428,449.961 308.428,499.266   "
   fill="#AB6C29"
   clip-rule="evenodd"
   fill-rule="evenodd" />
	</g>
	<g
   id="g68">
		<polygon
   id="polygon66"
   points="285.235,480.455 285.235,468.772 296.832,459.366     308.428,449.962 308.428,499.266 296.832,489.861   "
   fill="#E28C25"
   clip-rule="evenodd"
   fill-rule="evenodd" />
	</g>
	<g
   id="g72">
		<polygon
   id="polygon70"
   points="285.234,480.455 296.831,489.861 308.428,499.266     285.234,499.266 262.042,499.266 273.638,489.861   "
   fill="#CB7D29"
   clip-rule="evenodd"
   fill-rule="evenodd" />
	</g>
	<g
   id="g76">
		<polygon
   id="polygon74"
   points="285.234,468.772 296.831,459.366 308.428,449.962     285.234,449.962 262.042,449.962 273.638,459.366   "
   fill="#BF7429"
   clip-rule="evenodd"
   fill-rule="evenodd" />
	</g>
	<g
   id="g80">
		<polygon
   id="polygon78"
   points="262.042,486.364 246.439,486.364 246.439,474.613     275.688,474.613   "
   fill="#AB6C29"
   clip-rule="evenodd"
   fill-rule="evenodd" />
	</g>
	<g
   id="g84">
		<polygon
   id="polygon82"
   points="262.042,462.863 246.439,462.863 246.439,474.613     275.688,474.613   "
   fill="#E28C25"
   clip-rule="evenodd"
   fill-rule="evenodd" />
	</g>
	<g
   id="g88">
		<rect
   id="rect86"
   height="6.271"
   width="26.59"
   fill="#E28C25"
   clip-rule="evenodd"
   fill-rule="evenodd"
   y="499.266"
   x="271.94" />
	</g>
	<g
   id="g92">
		<path
   id="path90"
   d="M204.529,516.379c0-23.783,0-42.635,0-66.418h46.386v12.902    h-4.476v11.75v11.751h4.476v30.015H204.529z"
   fill="#AB6C29"
   clip-rule="evenodd"
   fill-rule="evenodd" />
	</g>
	<g
   id="g96">
		<polygon
   id="polygon94"
   points="227.721,497.568 227.721,468.772 239.319,459.366     250.915,449.962 250.915,462.863 246.439,462.863 246.439,474.613 246.439,486.364 250.915,486.364 250.915,516.379     239.319,506.975   "
   fill="#E28C25"
   clip-rule="evenodd"
   fill-rule="evenodd" />
	</g>
	<g
   id="g100">
		<polygon
   id="polygon98"
   points="227.721,497.568 239.318,506.975 250.915,516.379     227.721,516.379 204.529,516.379 216.125,506.975   "
   fill="#CB7D29"
   clip-rule="evenodd"
   fill-rule="evenodd" />
	</g>
	<g
   id="g104">
		<polygon
   id="polygon102"
   points="227.721,468.772 239.318,459.366 250.915,449.962     227.721,449.962 204.529,449.962 216.125,459.366   "
   fill="#BF7429"
   clip-rule="evenodd"
   fill-rule="evenodd" />
	</g>
</g>
<g
   inkscape:export-ydpi="373.08792"
   inkscape:export-xdpi="373.08792"
   id="g136">
	<g
   id="g110">
		<polygon
   id="polygon108"
   points="361.754,463.527 379.451,463.527 393.919,475.223     408.385,463.527 426.082,463.527 426.082,508.454 406.794,508.454 406.794,498.683 381.041,498.683 381.041,508.454     361.754,508.454   "
   fill="#F37870"
   clip-rule="evenodd"
   fill-rule="evenodd" />
	</g>
	<g
   id="g114">
		<polygon
   id="polygon112"
   points="379.973,485.99 407.862,485.99 416.973,497.223     426.082,508.454 406.794,508.454 406.794,498.683 381.041,498.683 381.041,508.454 361.754,508.454 370.863,497.223   "
   fill="#F6948E"
   clip-rule="evenodd"
   fill-rule="evenodd" />
	</g>
	<g
   id="g118">
		<polygon
   id="polygon116"
   points="379.973,485.99 370.863,497.223 361.754,508.454     361.754,485.99 361.754,463.527 370.863,474.758   "
   fill="#E8564E"
   clip-rule="evenodd"
   fill-rule="evenodd" />
	</g>
	<g
   id="g122">
		<polygon
   id="polygon120"
   points="407.863,485.99 416.973,497.223 426.082,508.454     426.082,485.99 426.082,463.527 416.973,474.758   "
   fill="#F27067"
   clip-rule="evenodd"
   fill-rule="evenodd" />
	</g>
	<g
   id="g126">
		<rect
   id="rect124"
   height="17.503"
   width="25.753"
   fill="#F37870"
   clip-rule="evenodd"
   fill-rule="evenodd"
   y="498.683"
   x="381.041" />
	</g>
	<g
   id="g130">
		<polygon
   id="polygon128"
   points="379.451,463.527 379.451,450.154 393.919,450.154     393.919,475.223   "
   fill="#E8564E"
   clip-rule="evenodd"
   fill-rule="evenodd" />
	</g>
	<g
   id="g134">
		<polygon
   id="polygon132"
   points="408.385,463.527 408.385,450.154 393.919,450.154     393.919,475.223   "
   fill="#F27067"
   clip-rule="evenodd"
   fill-rule="evenodd" />
	</g>
</g>
<g
   id="g182">
	<g
   id="g140">
		<polygon
   id="polygon138"
   points="520.995,451.006 520.995,468.704 509.3,483.171     520.995,497.637 520.995,515.334 476.068,515.334 476.068,496.046 485.84,496.046 485.84,470.293 476.068,470.293     476.068,451.006   "
   fill="#94A3B4"
   clip-rule="evenodd"
   fill-rule="evenodd" />
	</g>
	<g
   id="g144">
		<polygon
   id="polygon142"
   points="498.531,469.225 498.531,497.114 487.3,506.225     476.068,515.334 476.068,496.046 485.84,496.046 485.84,470.293 476.068,470.293 476.068,451.006 487.3,460.115   "
   fill="#768596"
   clip-rule="evenodd"
   fill-rule="evenodd" />
	</g>
	<g
   id="g148">
		<polygon
   id="polygon146"
   points="498.531,469.225 487.301,460.115 476.068,451.006     498.531,451.006 520.995,451.006 509.765,460.115   "
   fill="#697887"
   clip-rule="evenodd"
   fill-rule="evenodd" />
	</g>
	<g
   id="g152">
		<polygon
   id="polygon150"
   points="498.531,497.115 487.301,506.225 476.068,515.334     498.531,515.334 520.995,515.334 509.765,506.225   "
   fill="#8593A5"
   clip-rule="evenodd"
   fill-rule="evenodd" />
	</g>
	<g
   id="g156">
		<rect
   id="rect154"
   height="25.753"
   width="17.503"
   fill="#8593A5"
   clip-rule="evenodd"
   fill-rule="evenodd"
   y="470.293"
   x="468.337" />
	</g>
	<g
   id="g160">
		<polygon
   id="polygon158"
   points="520.995,468.704 534.367,468.704 534.367,483.171     509.3,483.171   "
   fill="#697887"
   clip-rule="evenodd"
   fill-rule="evenodd" />
	</g>
	<g
   id="g164">
		<polygon
   id="polygon162"
   points="520.995,497.637 534.367,497.637 534.367,483.171     509.3,483.171   "
   fill="#8593A5"
   clip-rule="evenodd"
   fill-rule="evenodd" />
	</g>
	<g
   id="g168">
		<path
   id="path166"
   d="M562.39,458.428c0,14.454,0,35.154,0,49.485h-28.022    c0-11.919,0-37.567,0-49.485H562.39z"
   fill="#768596"
   clip-rule="evenodd"
   fill-rule="evenodd" />
	</g>
	<g
   id="g172">
		<polygon
   id="polygon170"
   points="548.379,467.991 541.373,463.209 534.368,458.428     548.379,458.428 562.39,458.428 555.385,463.209   "
   fill="#697887"
   clip-rule="evenodd"
   fill-rule="evenodd" />
	</g>
	<g
   id="g176">
		<path
   id="path174"
   d="M562.39,458.428c0,15.941,0,33.544,0,49.485l-14.011-9.562    v-30.362v0.002L562.39,458.428z"
   fill="#94A3B4"
   clip-rule="evenodd"
   fill-rule="evenodd" />
	</g>
	<g
   id="g180">
		<polygon
   id="polygon178"
   points="548.379,498.351 541.373,503.131 534.368,507.913     548.379,507.913 562.39,507.913 555.385,503.131   "
   fill="#8593A5"
   clip-rule="evenodd"
   fill-rule="evenodd" />
	</g>
</g>
<g
   id="g234">
	<g
   id="g186">
		<polygon
   id="polygon184"
   points="94.572,320.717 94.572,306.88 109.206,294.277     94.572,281.675 94.572,267.839 144.321,267.839 144.321,320.717   "
   fill="#757373"
   clip-rule="evenodd"
   fill-rule="evenodd" />
	</g>
	<g
   id="g190">
		<polygon
   id="polygon188"
   points="119.447,300.543 119.447,288.013 131.885,277.926     144.321,267.84 144.321,320.717 131.885,310.63   "
   fill="#A5A5A5"
   clip-rule="evenodd"
   fill-rule="evenodd" />
	</g>
	<g
   id="g194">
		<polygon
   id="polygon192"
   points="119.446,300.543 131.885,310.63 144.321,320.717     119.446,320.717 94.572,320.717 107.01,310.63   "
   fill="#C3C2C1"
   clip-rule="evenodd"
   fill-rule="evenodd" />
	</g>
	<g
   id="g198">
		<polygon
   id="polygon196"
   points="119.446,288.013 131.885,277.926 144.321,267.84     119.446,267.84 94.572,267.84 107.01,277.926   "
   fill="#A5A5A5"
   clip-rule="evenodd"
   fill-rule="evenodd" />
	</g>
	<g
   id="g202">
		<polygon
   id="polygon200"
   points="94.572,306.88 82.639,306.88 68.005,294.277     109.206,294.277   "
   fill="#C3C2C1"
   clip-rule="evenodd"
   fill-rule="evenodd" />
	</g>
	<g
   id="g206">
		<polygon
   id="polygon204"
   points="94.572,281.675 82.639,281.675 68.005,294.277     109.206,294.277   "
   fill="#A5A5A5"
   clip-rule="evenodd"
   fill-rule="evenodd" />
	</g>
	<g
   id="g210">
		<polygon
   id="polygon208"
   points="82.639,320.717 82.639,306.88 68.005,294.277     82.639,281.675 82.639,267.839 32.891,267.839 32.891,320.717   "
   fill="#A5A5A5"
   clip-rule="evenodd"
   fill-rule="evenodd" />
	</g>
	<g
   id="g214">
		<polygon
   id="polygon212"
   points="57.765,300.543 57.765,288.013 45.326,277.926     32.891,267.84 32.891,320.717 45.326,310.63   "
   fill="#757373"
   clip-rule="evenodd"
   fill-rule="evenodd" />
	</g>
	<g
   id="g218">
		<polygon
   id="polygon216"
   points="57.765,300.543 45.328,310.63 32.891,320.717     57.765,320.717 82.639,320.717 70.203,310.63   "
   fill="#C3C2C1"
   clip-rule="evenodd"
   fill-rule="evenodd" />
	</g>
	<g
   id="g222">
		<polygon
   id="polygon220"
   points="57.765,288.013 45.328,277.926 32.891,267.84     57.765,267.84 82.639,267.84 70.203,277.926   "
   fill="#A5A5A5"
   clip-rule="evenodd"
   fill-rule="evenodd" />
	</g>
	<g
   id="g226">
		<rect
   id="rect224"
   height="6.725"
   width="28.519"
   fill="#A5A5A5"
   clip-rule="evenodd"
   fill-rule="evenodd"
   y="320.717"
   x="43.505" />
	</g>
	<g
   id="g230">
		<rect
   id="rect228"
   height="6.725"
   width="28.518"
   fill="#A5A5A5"
   clip-rule="evenodd"
   fill-rule="evenodd"
   y="320.717"
   x="105.188" />
	</g>
	<path
   id="path232"
   d="M145.186,267.197c-0.01-0.014-0.006-0.032-0.017-0.046c-0.009-0.011-0.022-0.014-0.031-0.024   c-0.089-0.103-0.196-0.185-0.318-0.249c-0.016-0.008-0.029-0.022-0.045-0.03c-0.094-0.043-0.198-0.059-0.304-0.074   c-0.022-0.003-0.04-0.011-0.063-0.013c-0.03-0.002-0.056-0.018-0.086-0.018H94.601h-0.028c-0.604,0-1.096,0.491-1.096,1.096v12.74   h-9.742v-12.74c0-0.605-0.491-1.096-1.095-1.096h-0.028h-49.72c-0.031,0-0.057,0.015-0.087,0.018   c-0.022,0.002-0.039,0.009-0.062,0.013c-0.106,0.015-0.21,0.031-0.304,0.074c-0.016,0.007-0.028,0.022-0.044,0.03   c-0.122,0.063-0.229,0.146-0.319,0.249c-0.009,0.01-0.022,0.014-0.031,0.024c-0.011,0.014-0.006,0.032-0.017,0.046   c-0.136,0.183-0.231,0.397-0.231,0.642v0.001v0.027v52.85c0,0.247,0.097,0.465,0.236,0.648c0.009,0.012,0.002,0.028,0.012,0.04   c0.009,0.012,0.023,0.015,0.032,0.025c0.087,0.1,0.191,0.179,0.309,0.242c0.02,0.01,0.035,0.027,0.055,0.036   c0.138,0.063,0.289,0.104,0.451,0.104h0.028h9.491v5.601v0.028c0,0.605,0.491,1.096,1.096,1.096h28.491h0.028   c0.604,0,1.095-0.49,1.095-1.096v-5.629h9.52c0.604,0,1.095-0.491,1.095-1.096v-0.028v-12.713h9.742v12.713v0.028   c0,0.604,0.491,1.096,1.096,1.096h9.521v5.601v0.028c0,0.605,0.491,1.096,1.096,1.096h28.49h0.028c0.604,0,1.096-0.49,1.096-1.096   v-5.629h9.492h0.028c0.162,0,0.313-0.04,0.451-0.104c0.02-0.009,0.036-0.027,0.055-0.037c0.118-0.063,0.222-0.142,0.309-0.241   c0.01-0.011,0.023-0.014,0.032-0.025c0.01-0.012,0.003-0.028,0.012-0.04c0.139-0.184,0.236-0.401,0.236-0.648v-52.85v-0.027v-0.001   C145.417,267.594,145.321,267.379,145.186,267.197z M132.574,309.783l-12.031-9.758v-11.494l12.031-9.758l10.652-8.638v48.287   L132.574,309.783z M83.04,305.784l-12.09-10.412h35.311l-12.089,10.412H83.04z M94.172,282.771l12.089,10.411h-35.31l12.089-10.411   H94.172z M57.766,286.606l-11.749-9.528l-10.042-8.143h21.79h21.788l-10.04,8.143L57.766,286.606z M33.986,270.134l1.167,0.946   l9.485,7.693l12.032,9.758v11.494l-12.032,9.758l-9.195,7.458l-1.457,1.181V270.134z M58.861,288.531l12.031-9.758l10.652-8.639   v11.043l-11.621,10.008l-2.621,2.257l-0.011,0.009c-0.04,0.034-0.076,0.071-0.111,0.112c-0.081,0.094-0.064,0.217-0.108,0.327   c-0.055,0.134-0.129,0.244-0.128,0.387c0,0.143,0.074,0.253,0.128,0.387c0.044,0.109,0.027,0.233,0.108,0.327   c0.025,0.029,0.062,0.04,0.089,0.066c0.013,0.012,0.009,0.033,0.022,0.045l14.252,12.274v11.045l-10.652-8.639l-12.031-9.758   V288.531z M95.668,307.377l14.182-12.214l0.001,0l0.069-0.06c0.005-0.004,0.003-0.012,0.008-0.016   c0.072-0.064,0.125-0.141,0.178-0.221c0.027-0.042,0.06-0.076,0.082-0.121c0.053-0.11,0.078-0.231,0.092-0.358   c0.001-0.018,0.009-0.031,0.01-0.048c0.001-0.021,0.012-0.04,0.012-0.062c0-0.169-0.045-0.325-0.114-0.468   c-0.022-0.045-0.054-0.079-0.082-0.12c-0.021-0.032-0.04-0.066-0.064-0.096c-0.007-0.009-0.002-0.021-0.01-0.03   c-0.01-0.012-0.021-0.021-0.031-0.032c-0.016-0.017-0.031-0.033-0.049-0.049c-0.011-0.01-0.02-0.021-0.031-0.031l-0.01-0.009   l-0.06-0.052l0,0l-14.182-12.213v-11.044l10.653,8.639l12.031,9.758v11.494l-12.031,9.758l-10.653,8.64V307.377z M119.446,286.607   l-11.748-9.529l-10.041-8.143h21.789h21.79l-10.04,8.143L119.446,286.607z M70.929,326.346H44.601v-4.533h13.165h13.163V326.346z    M72.024,319.621H57.766H43.533h-0.028h-7.53l10.042-8.144l9.644-7.822l2.104-1.706l11.748,9.528l10.041,8.144H72.024z    M132.611,326.346h-26.327v-4.533h13.162h13.165V326.346z M133.706,319.621h-14.26h-14.229h-0.028h-7.531l10.041-8.144   l11.748-9.528l11.75,9.528l10.041,8.144H133.706z"
   fill="#1F1A17" />
</g>
<g
   id="g282">
	<g
   id="g238">
		<polygon
   id="polygon236"
   points="262.042,313.736 262.042,300.835 275.688,289.083     262.042,277.333 262.042,264.432 308.428,264.432 308.428,313.736   "
   fill="#AB6C29"
   clip-rule="evenodd"
   fill-rule="evenodd" />
	</g>
	<g
   id="g242">
		<polygon
   id="polygon240"
   points="285.235,294.925 285.235,283.243 296.832,273.836     308.428,264.433 308.428,313.736 296.832,304.331   "
   fill="#E28C25"
   clip-rule="evenodd"
   fill-rule="evenodd" />
	</g>
	<g
   id="g246">
		<polygon
   id="polygon244"
   points="285.234,294.925 296.831,304.331 308.428,313.736     285.234,313.736 262.042,313.736 273.638,304.331   "
   fill="#CB7D29"
   clip-rule="evenodd"
   fill-rule="evenodd" />
	</g>
	<g
   id="g250">
		<polygon
   id="polygon248"
   points="285.234,283.243 296.831,273.836 308.428,264.433     285.234,264.433 262.042,264.433 273.638,273.836   "
   fill="#BF7429"
   clip-rule="evenodd"
   fill-rule="evenodd" />
	</g>
	<g
   id="g254">
		<polygon
   id="polygon252"
   points="262.042,300.835 246.439,300.835 246.439,289.083     275.688,289.083   "
   fill="#AB6C29"
   clip-rule="evenodd"
   fill-rule="evenodd" />
	</g>
	<g
   id="g258">
		<polygon
   id="polygon256"
   points="262.042,277.333 246.439,277.333 246.439,289.083     275.688,289.083   "
   fill="#E28C25"
   clip-rule="evenodd"
   fill-rule="evenodd" />
	</g>
	<g
   id="g262">
		<rect
   id="rect260"
   height="6.271"
   width="26.59"
   fill="#E28C25"
   clip-rule="evenodd"
   fill-rule="evenodd"
   y="313.736"
   x="271.94" />
	</g>
	<g
   id="g266">
		<path
   id="path264"
   d="M204.529,330.85c0-23.784,0-42.636,0-66.418h46.386v12.902    h-4.476v11.75v11.751h4.476v30.015H204.529z"
   fill="#AB6C29"
   clip-rule="evenodd"
   fill-rule="evenodd" />
	</g>
	<g
   id="g270">
		<polygon
   id="polygon268"
   points="227.721,312.039 227.721,283.243 239.319,273.836     250.915,264.433 250.915,277.333 246.439,277.333 246.439,289.083 246.439,300.835 250.915,300.835 250.915,330.85     239.319,321.444   "
   fill="#E28C25"
   clip-rule="evenodd"
   fill-rule="evenodd" />
	</g>
	<g
   id="g274">
		<polygon
   id="polygon272"
   points="227.721,312.039 239.318,321.444 250.915,330.85     227.721,330.85 204.529,330.85 216.125,321.444   "
   fill="#CB7D29"
   clip-rule="evenodd"
   fill-rule="evenodd" />
	</g>
	<g
   id="g278">
		<polygon
   id="polygon276"
   points="227.721,283.243 239.318,273.836 250.915,264.433     227.721,264.433 204.529,264.433 216.125,273.836   "
   fill="#BF7429"
   clip-rule="evenodd"
   fill-rule="evenodd" />
	</g>
	<path
   id="path280"
   d="M309.292,263.79c-0.01-0.014-0.005-0.033-0.016-0.046c-0.009-0.011-0.022-0.014-0.031-0.024   c-0.09-0.103-0.197-0.186-0.319-0.25c-0.016-0.008-0.028-0.022-0.044-0.029c-0.094-0.043-0.198-0.06-0.305-0.074   c-0.022-0.003-0.039-0.011-0.062-0.013c-0.031-0.002-0.057-0.018-0.088-0.018H262.07h-0.028c-0.604,0-1.096,0.491-1.096,1.096   v11.806h-8.936v-11.778v-0.027v-0.001c0-0.245-0.096-0.46-0.232-0.643c-0.01-0.014-0.005-0.032-0.016-0.045   c-0.009-0.011-0.022-0.014-0.031-0.024c-0.09-0.104-0.198-0.187-0.321-0.251c-0.015-0.007-0.027-0.021-0.042-0.028   c-0.095-0.043-0.199-0.059-0.305-0.074c-0.022-0.003-0.04-0.011-0.062-0.013c-0.03-0.002-0.056-0.018-0.087-0.018h-46.358h-0.028   c-0.605,0-1.095,0.491-1.095,1.096v66.39v0.028c0,0.604,0.49,1.095,1.095,1.095h23.192h23.166h0.028   c0.162,0,0.313-0.04,0.451-0.103c0.021-0.01,0.036-0.027,0.056-0.038c0.117-0.063,0.221-0.141,0.308-0.24   c0.009-0.011,0.023-0.015,0.032-0.025c0.01-0.012,0.003-0.028,0.012-0.041c0.139-0.184,0.236-0.4,0.236-0.647v-28.92h8.936v11.778   v0.028c0,0.604,0.491,1.096,1.096,1.096h8.803v5.147v0.027c0,0.604,0.491,1.096,1.096,1.096h26.562h0.028   c0.604,0,1.095-0.491,1.095-1.096v-5.175h8.775h0.027c0.163,0,0.314-0.04,0.453-0.104c0.019-0.009,0.033-0.026,0.053-0.036   c0.118-0.063,0.223-0.143,0.311-0.242c0.009-0.011,0.023-0.015,0.032-0.025c0.009-0.012,0.003-0.028,0.012-0.041   c0.139-0.184,0.235-0.4,0.235-0.647v-49.277v-0.027v-0.001C309.523,264.187,309.428,263.972,309.292,263.79z M250.915,299.738   h-3.38v-9.56h25.208l-11.101,9.56H250.915z M261.642,278.429l11.1,9.559h-25.207v-9.559h3.353h0.028H261.642z M263.138,301.332   l13.193-11.362l0,0l0.07-0.06c0.005-0.004,0.003-0.012,0.008-0.016c0.071-0.063,0.125-0.14,0.177-0.22   c0.027-0.042,0.06-0.076,0.082-0.121c0.053-0.111,0.079-0.232,0.092-0.359c0.001-0.018,0.009-0.03,0.009-0.047   c0.001-0.021,0.012-0.04,0.012-0.062c0-0.169-0.045-0.325-0.113-0.468c-0.022-0.046-0.055-0.08-0.083-0.122   c-0.021-0.032-0.039-0.064-0.063-0.094c-0.007-0.009-0.002-0.022-0.01-0.031c-0.01-0.012-0.022-0.021-0.032-0.033   c-0.016-0.016-0.03-0.031-0.047-0.046c-0.011-0.01-0.021-0.023-0.032-0.032l-0.011-0.009l-0.059-0.05c0,0,0-0.001-0.001-0.001   l-13.193-11.361v-10.109l9.812,7.957l11.191,9.078v10.646l-11.191,9.077l-9.812,7.957V301.332z M285.234,281.836l-10.908-8.848   l-9.2-7.461h20.107h20.109l-9.201,7.461L285.234,281.836z M305.144,309.666l-7.622-6.182l-11.19-9.077v-10.646l11.19-9.077   l8.939-7.25l0.872-0.707v44.714L305.144,309.666z M247.83,265.528l-9.201,7.461l-10.908,8.848l-10.908-8.848l-9.2-7.461h20.107   H247.83z M215.436,274.684l11.19,9.077v27.761l-11.19,9.075l-9.811,7.958v-61.828L215.436,274.684z M227.721,329.754h-20.108   l9.201-7.462l10.907-8.848l4.748,3.85l6.161,4.998l9.201,7.462H227.721z M249.819,328.555l-4.066-3.298l-5.746-4.66l-11.19-9.076   v-27.759l4.48-3.634l6.71-5.443l7.756-6.29l2.056-1.667v9.511h-3.38c-0.605,0-1.096,0.491-1.096,1.096v0.028v11.722v11.723v0.028   c0,0.604,0.491,1.095,1.096,1.095h0.028h3.352V328.555z M297.435,318.911h-24.398v-4.079h12.198h12.2V318.911z M298.53,312.641   h-13.296h-13.266h-0.028h-6.814l9.201-7.462l10.908-8.848l10.908,8.848l9.201,7.462H298.53z"
   fill="#1F1A17" />
</g>
<g
   id="g314">
	<g
   id="g286">
		<polygon
   id="polygon284"
   points="361.754,277.998 379.451,277.998 393.919,289.692     408.385,277.998 426.082,277.998 426.082,322.925 406.794,322.925 406.794,313.153 381.041,313.153 381.041,322.925     361.754,322.925   "
   fill="#F37870"
   clip-rule="evenodd"
   fill-rule="evenodd" />
	</g>
	<g
   id="g290">
		<polygon
   id="polygon288"
   points="379.973,300.461 407.862,300.461 416.973,311.693     426.082,322.925 406.794,322.925 406.794,313.153 381.041,313.153 381.041,322.925 361.754,322.925 370.863,311.693   "
   fill="#F6948E"
   clip-rule="evenodd"
   fill-rule="evenodd" />
	</g>
	<g
   id="g294">
		<polygon
   id="polygon292"
   points="379.973,300.461 370.863,311.692 361.754,322.925     361.754,300.461 361.754,277.998 370.863,289.228   "
   fill="#E8564E"
   clip-rule="evenodd"
   fill-rule="evenodd" />
	</g>
	<g
   id="g298">
		<polygon
   id="polygon296"
   points="407.863,300.461 416.973,311.692 426.082,322.925     426.082,300.461 426.082,277.998 416.973,289.228   "
   fill="#F27067"
   clip-rule="evenodd"
   fill-rule="evenodd" />
	</g>
	<g
   id="g302">
		<rect
   id="rect300"
   height="17.502"
   width="25.753"
   fill="#F37870"
   clip-rule="evenodd"
   fill-rule="evenodd"
   y="313.153"
   x="381.041" />
	</g>
	<g
   id="g306">
		<polygon
   id="polygon304"
   points="379.451,277.998 379.451,264.625 393.919,264.625     393.919,289.692   "
   fill="#E8564E"
   clip-rule="evenodd"
   fill-rule="evenodd" />
	</g>
	<g
   id="g310">
		<polygon
   id="polygon308"
   points="408.385,277.998 408.385,264.625 393.919,264.625     393.919,289.692   "
   fill="#F27067"
   clip-rule="evenodd"
   fill-rule="evenodd" />
	</g>
	<path
   id="path312"
   d="M426.082,276.902H409.48v-12.277c0-0.604-0.491-1.095-1.096-1.095h-0.027h-14.438h-14.439h-0.028   c-0.604,0-1.095,0.491-1.095,1.095v12.277h-16.574h-0.028c-0.604,0-1.096,0.491-1.096,1.096v22.463v22.436v0.028   c0,0.162,0.04,0.313,0.104,0.451c0.009,0.02,0.026,0.035,0.036,0.054c0.063,0.118,0.142,0.223,0.242,0.31   c0.011,0.01,0.014,0.023,0.024,0.033c0.013,0.01,0.029,0.003,0.041,0.012c0.184,0.139,0.401,0.236,0.648,0.236h18.191v6.606v0.028   c0,0.604,0.49,1.096,1.096,1.096h25.726h0.027c0.604,0,1.096-0.491,1.096-1.096v-6.635h18.164h0.028   c0.244,0,0.458-0.096,0.641-0.231c0.015-0.011,0.033-0.006,0.048-0.017c0.011-0.01,0.015-0.023,0.025-0.032   c0.1-0.088,0.178-0.191,0.241-0.309c0.01-0.021,0.027-0.035,0.037-0.056c0.042-0.093,0.057-0.195,0.072-0.3   c0.004-0.024,0.012-0.042,0.014-0.066c0.002-0.029,0.017-0.055,0.017-0.085v-22.464v-22.436v-0.028   C427.177,277.393,426.687,276.902,426.082,276.902z M362.85,300.461v-19.379l7.166,8.835l8.551,10.544l-8.551,10.543l-7.166,8.836   V300.461z M380.49,299.365l-8.78-10.826l-7.661-9.446h15.02l14.107,11.405h0.001l0.058,0.046c0.015,0.012,0.035,0.006,0.051,0.017   c0.181,0.133,0.393,0.227,0.634,0.227c0.007,0,0.012-0.004,0.019-0.004c0.002,0,0.004-0.001,0.006-0.001   c0.244-0.006,0.459-0.101,0.639-0.241c0.014-0.01,0.032-0.006,0.045-0.017l0.032-0.026c0.001,0,0.001,0,0.002,0l14.107-11.405   h15.019l-7.663,9.446l-8.778,10.826H380.49z M424.986,281.082v19.379v19.379l-7.167-8.836l-8.55-10.543l8.55-10.544   L424.986,281.082z M407.289,277.478l-12.275,9.924V265.72h12.275V277.478z M380.547,265.72h12.276v21.681l-12.276-9.924V265.72z    M405.698,329.56h-23.562v-6.635v-8.676h23.562v8.647v0.028V329.56z M406.794,312.058h-0.027h-25.698h-0.027   c-0.605,0-1.096,0.491-1.096,1.096v0.028v8.647h-15.896l1.4-1.728l6.261-7.72l6.251-7.706l2.53-3.119h26.854l7.573,9.337   l1.206,1.487l7.663,9.448H407.89v-8.647v-0.028C407.89,312.549,407.398,312.058,406.794,312.058z"
   fill="#1F1A17" />
</g>
<g
   id="g362">
	<g
   id="g318">
		<polygon
   id="polygon316"
   points="520.995,265.477 520.995,283.174 509.3,297.641     520.995,312.107 520.995,329.804 476.068,329.804 476.068,310.517 485.84,310.517 485.84,284.763 476.068,284.763     476.068,265.477   "
   fill="#94A3B4"
   clip-rule="evenodd"
   fill-rule="evenodd" />
	</g>
	<g
   id="g322">
		<polygon
   id="polygon320"
   points="498.531,283.696 498.531,311.585 487.3,320.695     476.068,329.804 476.068,310.517 485.84,310.517 485.84,284.763 476.068,284.763 476.068,265.477 487.3,274.585   "
   fill="#768596"
   clip-rule="evenodd"
   fill-rule="evenodd" />
	</g>
	<g
   id="g326">
		<polygon
   id="polygon324"
   points="498.531,283.696 487.301,274.585 476.068,265.477     498.531,265.477 520.995,265.477 509.765,274.585   "
   fill="#697887"
   clip-rule="evenodd"
   fill-rule="evenodd" />
	</g>
	<g
   id="g330">
		<polygon
   id="polygon328"
   points="498.531,311.586 487.301,320.694 476.068,329.804     498.531,329.804 520.995,329.804 509.765,320.694   "
   fill="#8593A5"
   clip-rule="evenodd"
   fill-rule="evenodd" />
	</g>
	<g
   id="g334">
		<rect
   id="rect332"
   height="25.753"
   width="17.503"
   fill="#8593A5"
   clip-rule="evenodd"
   fill-rule="evenodd"
   y="284.763"
   x="468.337" />
	</g>
	<g
   id="g338">
		<polygon
   id="polygon336"
   points="520.995,283.174 534.367,283.174 534.367,297.641     509.3,297.641   "
   fill="#697887"
   clip-rule="evenodd"
   fill-rule="evenodd" />
	</g>
	<g
   id="g342">
		<polygon
   id="polygon340"
   points="520.995,312.107 534.367,312.107 534.367,297.641     509.3,297.641   "
   fill="#8593A5"
   clip-rule="evenodd"
   fill-rule="evenodd" />
	</g>
	<g
   id="g346">
		<path
   id="path344"
   d="M562.39,272.898c0,14.454,0,35.155,0,49.486h-28.022    c0-11.919,0-37.567,0-49.486H562.39z"
   fill="#768596"
   clip-rule="evenodd"
   fill-rule="evenodd" />
	</g>
	<g
   id="g350">
		<polygon
   id="polygon348"
   points="548.379,282.462 541.373,277.68 534.368,272.898     548.379,272.898 562.39,272.898 555.385,277.68   "
   fill="#697887"
   clip-rule="evenodd"
   fill-rule="evenodd" />
	</g>
	<g
   id="g354">
		<path
   id="path352"
   d="M562.39,272.898c0,15.941,0,33.544,0,49.486l-14.011-9.563    V282.46v0.002L562.39,272.898z"
   fill="#94A3B4"
   clip-rule="evenodd"
   fill-rule="evenodd" />
	</g>
	<g
   id="g358">
		<polygon
   id="polygon356"
   points="548.379,312.82 541.373,317.602 534.368,322.384     548.379,322.384 562.39,322.384 555.385,317.602   "
   fill="#8593A5"
   clip-rule="evenodd"
   fill-rule="evenodd" />
	</g>
	<path
   id="path360"
   d="M563.311,272.34c-0.012-0.018-0.006-0.041-0.019-0.059c-0.017-0.025-0.044-0.038-0.063-0.061   c-0.054-0.065-0.111-0.121-0.178-0.172c-0.048-0.038-0.095-0.071-0.147-0.1c-0.068-0.037-0.139-0.063-0.215-0.085   c-0.063-0.019-0.124-0.031-0.19-0.038c-0.038-0.004-0.07-0.022-0.109-0.022h-14.011h-13.983h-0.027h-0.001   c-0.172,0-0.329,0.048-0.475,0.119c-0.03,0.015-0.054,0.039-0.083,0.056c-0.114,0.069-0.211,0.154-0.293,0.26   c-0.015,0.018-0.037,0.025-0.051,0.044c-0.017,0.025-0.02,0.055-0.034,0.081c-0.043,0.074-0.074,0.15-0.099,0.233   c-0.018,0.061-0.03,0.119-0.036,0.18c-0.006,0.042-0.025,0.079-0.025,0.122v9.18h-11.181v-16.574v-0.028   c0-0.605-0.491-1.096-1.096-1.096h-22.464h-22.436h-0.027c-0.162,0-0.313,0.04-0.452,0.104c-0.02,0.009-0.034,0.026-0.054,0.036   c-0.118,0.063-0.223,0.142-0.31,0.242c-0.009,0.01-0.023,0.014-0.032,0.025c-0.01,0.012-0.003,0.028-0.012,0.041   c-0.139,0.183-0.236,0.401-0.236,0.648v18.191h-6.607h-0.028c-0.604,0-1.096,0.491-1.096,1.096v25.725v0.028   c0,0.604,0.491,1.096,1.096,1.096h6.636v18.164v0.028c0,0.244,0.096,0.458,0.231,0.641c0.011,0.015,0.005,0.033,0.017,0.048   c0.009,0.011,0.023,0.015,0.032,0.025c0.087,0.099,0.19,0.178,0.308,0.24c0.021,0.011,0.035,0.028,0.057,0.038   c0.092,0.042,0.195,0.057,0.299,0.072c0.024,0.003,0.043,0.012,0.067,0.013c0.029,0.003,0.055,0.018,0.085,0.018h22.463h22.436   h0.028c0.604,0,1.096-0.49,1.096-1.095v-16.602h11.181v9.152v0.028c0,0.043,0.02,0.079,0.025,0.121   c0.006,0.062,0.019,0.12,0.036,0.181c0.024,0.083,0.056,0.159,0.099,0.233c0.015,0.025,0.018,0.056,0.034,0.081   c0.014,0.02,0.036,0.026,0.051,0.044c0.082,0.105,0.179,0.19,0.293,0.26c0.029,0.019,0.053,0.042,0.083,0.057   c0.146,0.07,0.303,0.118,0.475,0.118h0.001h14.011h13.982h0.028c0.604,0,1.095-0.49,1.095-1.095v-49.458v-0.028   C563.484,272.69,563.411,272.506,563.311,272.34z M535.463,312.107v-0.028v-14.438v-14.439v-0.028v-8.205l5.294,3.614l6.526,4.455   v29.208l-6.526,4.454l-5.294,3.613V312.107z M556.001,316.699l-6.526-4.454v-29.208l6.526-4.455l5.293-3.613v45.343   L556.001,316.699z M548.379,273.993h10.467l-10.467,7.145l-6.39-4.361l-4.077-2.784H548.379z M533.271,296.546h-21.68l9.923-12.276   h11.757V296.546z M499.627,284.213l10.826-8.781l9.446-7.662v15.02l-11.405,14.108v0.001l-0.046,0.057   c-0.012,0.015-0.006,0.035-0.017,0.049c-0.133,0.182-0.227,0.394-0.227,0.635c0,0.007,0.003,0.012,0.004,0.019   c0,0.002,0.001,0.004,0.001,0.007c0.006,0.244,0.101,0.458,0.241,0.638c0.01,0.013,0.006,0.032,0.017,0.044l0.026,0.033v0.001   l11.405,14.107v15.02l-9.446-7.663l-10.826-8.778V284.213z M498.531,266.572h19.38l-8.835,7.166l-10.545,8.551l-10.542-8.551   l-8.836-7.166H498.531z M469.433,285.859h6.636h8.676v23.562h-8.648h-0.027h-6.636V285.859z M485.812,311.612h0.027   c0.605,0,1.096-0.491,1.096-1.096v-0.028v-25.697v-0.028c0-0.605-0.49-1.096-1.096-1.096h-0.027h-8.647v-15.896l9.446,7.662   l7.783,6.313l3.042,2.468v26.854l-9.535,7.734l-1.289,1.045l-9.447,7.663v-15.897H485.812z M498.531,328.708h-19.378l8.836-7.166   l10.542-8.55l10.545,8.55l8.835,7.166H498.531z M521.515,311.012l-9.923-12.275h21.68v12.275H521.515z M537.912,321.288   l4.077-2.783l6.39-4.36l10.467,7.144h-10.467H537.912z"
   fill="#1F1A17" />
</g>
</svg>
