<?xml version="1.0" encoding="utf-8"?>
<!-- Generator: Adobe Illustrator 15.0.0, SVG Export Plug-In . SVG Version: 6.00 Build 0)  -->
<!DOCTYPE svg PUBLIC "-//W3C//DTD SVG 1.1//EN" "http://www.w3.org/Graphics/SVG/1.1/DTD/svg11.dtd">
<svg version="1.1" xmlns="http://www.w3.org/2000/svg" xmlns:xlink="http://www.w3.org/1999/xlink" x="0px" y="0px" width="1400px"
	 height="980px" viewBox="0 0 1400 980" enable-background="new 0 0 1400 980" xml:space="preserve">
<g id="background">
	<rect fill="#8DC63F" width="466.667" height="980"/>
	<rect x="466.667" fill="#008FD5" width="466.667" height="980"/>
	<rect x="933.333" fill="#D1D3D4" width="466.667" height="980"/>
</g>
<g id="houses">
	<g>
		<g>
			<rect x="30.383" y="328.551" fill="#F15B40" width="126.875" height="63.438"/>
			<rect x="30.383" y="265.113" fill="#F26C4F" width="126.875" height="63.438"/>
		</g>
		<g>
			<polygon fill="#E4563C" points="131.883,404.676 93.82,404.676 93.82,328.551 131.883,366.613 			"/>
			<polygon fill="#F26C4F" points="55.758,404.676 93.82,404.676 93.82,328.551 55.758,366.613 			"/>
		</g>
	</g>
	<g>
		<g>
			<rect x="169.945" y="21.543" fill="#F15B40" width="63.438" height="190.313"/>
			<rect x="106.508" y="21.543" fill="#F26C4F" width="63.438" height="190.313"/>
		</g>
		<g>
			<polygon fill="#E4563C" points="246.07,110.355 246.07,148.418 169.945,148.418 208.008,110.355 			"/>
			<polygon fill="#F26C4F" points="246.07,186.48 246.07,148.418 169.945,148.418 208.008,186.48 			"/>
		</g>
		<g>
			<polygon fill="#E4563C" points="30.383,123.043 30.383,84.98 169.945,84.98 131.883,123.043 			"/>
			<polygon fill="#F15B40" points="30.383,46.918 30.383,84.98 169.945,84.98 131.883,46.918 			"/>
		</g>
		<rect x="30.383" y="123.043" fill="#F15B40" width="76.125" height="38.063"/>
	</g>
	<g>
		<g>
			<rect x="93.82" y="463.645" fill="#F15B40" width="63.438" height="190.313"/>
			<rect x="30.383" y="463.645" fill="#F26C4F" width="63.438" height="190.313"/>
		</g>
		<g>
			<polygon fill="#F26C4F" points="131.98,577.832 131.98,596.863 93.918,596.863 112.949,577.832 			"/>
			<polygon fill="#E4563C" points="131.98,615.895 131.98,596.863 93.918,596.863 112.949,615.895 			"/>
		</g>
		<g>
			<polygon fill="#F15B40" points="55.855,577.832 55.855,596.863 93.918,596.863 74.887,577.832 			"/>
			<polygon fill="#E4563C" points="55.855,615.895 55.855,596.863 93.918,596.863 74.887,615.895 			"/>
		</g>
		<g>
			<polygon fill="#F15B40" points="30.383,501.707 30.383,530.254 93.918,530.254 65.371,501.707 			"/>
			<polygon fill="#E4563C" points="30.383,558.801 30.383,530.254 93.918,530.254 65.371,558.801 			"/>
		</g>
		<g>
			<polygon fill="#F26C4F" points="157.454,501.707 157.454,530.254 93.918,530.254 122.465,501.707 			"/>
			<polygon fill="#E4563C" points="157.454,558.801 157.454,530.254 93.918,530.254 122.465,558.801 			"/>
		</g>
		<polygon fill="#E4563C" points="157.257,463.645 30.383,463.645 93.82,501.707 		"/>
		<polygon fill="#E4563C" points="157.257,653.957 30.383,653.957 93.82,615.895 		"/>
		<g>
			<rect x="157.226" y="558.801" fill="#F26C4F" width="76.125" height="38.063"/>
			<rect x="157.226" y="596.863" fill="#E4563C" width="76.125" height="38.063"/>
		</g>
	</g>
	<g>
		<g>
			<rect x="30.383" y="768.145" fill="#F15B40" width="63.438" height="190.313"/>
			<rect x="93.82" y="768.145" fill="#F26C4F" width="63.438" height="190.313"/>
		</g>
		<g>
			<g>
				<rect x="81.133" y="717.395" fill="#E4563C" width="38.063" height="50.75"/>
				<rect x="119.195" y="717.395" fill="#F15B40" width="38.063" height="50.75"/>
			</g>
			<polygon fill="#F26C4F" points="81.133,717.395 157.258,717.395 119.195,740.232 			"/>
		</g>
		<g>
			<g>
				<rect x="157.258" y="856.957" fill="#E4563C" width="50.75" height="38.063"/>
				<rect x="157.258" y="895.02" fill="#F15B40" width="50.75" height="38.063"/>
			</g>
			<polygon fill="#F26C4F" points="208.008,856.958 208.008,933.082 185.17,895.02 			"/>
		</g>
	</g>
	<g>
		<g>
			<g>
				<rect x="372.847" y="21.543" fill="#F15B40" width="63.438" height="158.594"/>
				<rect x="309.409" y="21.543" fill="#F26C4F" width="63.438" height="158.594"/>
			</g>
			<g>
				<polygon fill="#E4563C" points="436.284,97.668 436.284,129.387 372.847,129.387 404.565,97.668 				"/>
				<polygon fill="#F26C4F" points="436.284,161.105 436.284,129.387 372.847,129.387 404.565,161.105 				"/>
			</g>
			<g>
				<polygon fill="#E4563C" points="423.597,34.23 423.597,50.09 391.878,50.09 407.737,34.23 				"/>
				<polygon fill="#F26C4F" points="423.597,65.949 423.597,50.09 391.878,50.09 407.737,65.949 				"/>
			</g>
			<g>
				<polygon fill="#E4563C" points="309.409,40.574 309.409,72.293 372.847,72.293 341.128,40.574 				"/>
				<polygon fill="#F15B40" points="309.409,104.012 309.409,72.293 372.847,72.293 341.128,104.012 				"/>
			</g>
		</g>
		<g>
			<polygon fill="#E4563C" points="322.097,135.73 322.097,151.59 353.815,151.59 337.956,135.73 			"/>
			<polygon fill="#F15B40" points="322.097,167.449 322.097,151.59 353.815,151.59 337.956,167.449 			"/>
		</g>
	</g>
	<g>
		<g>
			<g>
				<rect x="275.543" y="235.933" fill="#F15B40" width="50.75" height="253.75"/>
				<rect x="326.293" y="235.933" fill="#F26C4F" width="50.75" height="253.75"/>
			</g>
			<g>
				<polygon fill="#F26C4F" points="190.731,451.62 190.731,413.558 326.195,413.558 288.133,451.62 				"/>
				<polygon fill="#E4563C" points="190.731,375.495 190.731,413.558 326.195,413.558 288.133,375.495 				"/>
			</g>
			<g>
				<polygon fill="#F15B40" points="436.284,451.62 436.284,413.558 326.195,413.558 364.258,451.62 				"/>
				<polygon fill="#E4563C" points="436.284,375.495 436.284,413.558 326.195,413.558 364.258,375.495 				"/>
			</g>
			<polygon fill="#E4563C" points="275.544,489.683 377.043,489.683 326.293,451.62 			"/>
			<polygon fill="#E4563C" points="275.544,235.933 377.043,235.933 326.293,273.995 			"/>
		</g>
		<g>
			<polygon fill="#F26C4F" points="281.789,363.753 281.789,344.722 319.852,344.722 300.82,363.753 			"/>
			<polygon fill="#E4563C" points="281.789,325.69 281.789,344.722 319.852,344.722 300.82,325.69 			"/>
		</g>
		<g>
			<polygon fill="#E4563C" points="370.602,363.753 370.602,344.722 332.539,344.722 351.57,363.753 			"/>
			<polygon fill="#F15B40" points="370.602,325.69 370.602,344.722 332.539,344.722 351.57,325.69 			"/>
		</g>
		<g>
			<polygon fill="#F26C4F" points="203.419,369.151 222.45,369.151 222.45,407.214 203.419,388.183 			"/>
			<polygon fill="#F15B40" points="241.481,369.151 222.45,369.151 222.45,407.214 241.481,388.183 			"/>
		</g>
		<g>
			<polygon fill="#F15B40" points="203.419,457.964 222.45,457.964 222.45,419.901 203.419,438.933 			"/>
			<polygon fill="#E4563C" points="241.481,457.964 222.45,457.964 222.45,419.901 241.481,438.933 			"/>
		</g>
		<g>
			<polygon fill="#F26C4F" points="385.534,369.151 404.565,369.151 404.565,407.214 385.534,388.183 			"/>
			<polygon fill="#F15B40" points="423.597,369.151 404.565,369.151 404.565,407.214 423.597,388.183 			"/>
		</g>
		<g>
			<polygon fill="#F26C4F" points="385.534,457.964 404.565,457.964 404.565,419.901 385.534,438.933 			"/>
			<polygon fill="#E4563C" points="423.597,457.964 404.565,457.964 404.565,419.901 423.597,438.933 			"/>
		</g>
		<g>
			<polygon fill="#F26C4F" points="281.789,312.058 281.789,293.026 319.852,293.026 300.82,312.058 			"/>
			<polygon fill="#E4563C" points="281.789,273.995 281.789,293.026 319.852,293.026 300.82,273.995 			"/>
		</g>
		<g>
			<polygon fill="#E4563C" points="370.602,312.058 370.602,293.026 332.539,293.026 351.57,312.058 			"/>
			<polygon fill="#F15B40" points="370.602,273.995 370.602,293.026 332.539,293.026 351.57,273.995 			"/>
		</g>
	</g>
	<g>
		<g>
			<g>
				<rect x="258.659" y="549.92" fill="#F15B40" width="177.625" height="45.675"/>
				<rect x="258.659" y="595.595" fill="#F26C4F" width="177.625" height="45.675"/>
			</g>
			<g>
				<rect x="258.659" y="912.782" fill="#F15B40" width="177.625" height="45.675"/>
				<rect x="258.659" y="867.107" fill="#F26C4F" width="177.625" height="45.675"/>
			</g>
			<g>
				<g>
					<polygon fill="#F15B40" points="393.077,867.178 393.077,641.2 347.472,595.595 347.472,912.782 					"/>
					<polygon fill="#E4563C" points="347.472,595.595 301.867,641.2 301.867,867.178 347.472,912.782 					"/>
				</g>
			</g>
			<rect x="393.077" y="641.27" fill="#E4563C" width="30.52" height="225.908"/>
			<rect x="271.347" y="641.27" fill="#F15B40" width="30.52" height="225.908"/>
		</g>
		<g>
			<polygon fill="#F26C4F" points="398.222,944.501 410.909,944.501 410.909,919.126 398.222,931.813 			"/>
			<polygon fill="#E4563C" points="423.597,944.501 410.909,944.501 410.909,919.126 423.597,931.813 			"/>
		</g>
		<g>
			<polygon fill="#F26C4F" points="355.93,944.501 368.617,944.501 368.617,919.126 355.93,931.813 			"/>
			<polygon fill="#E4563C" points="381.305,944.501 368.617,944.501 368.617,919.126 381.305,931.813 			"/>
		</g>
		<g>
			<polygon fill="#F26C4F" points="313.639,944.501 326.326,944.501 326.326,919.126 313.639,931.813 			"/>
			<polygon fill="#E4563C" points="339.014,944.501 326.326,944.501 326.326,919.126 339.014,931.813 			"/>
		</g>
		<g>
			<polygon fill="#F26C4F" points="271.347,944.501 284.034,944.501 284.034,919.126 271.347,931.813 			"/>
			<polygon fill="#E4563C" points="296.722,944.501 284.034,944.501 284.034,919.126 296.722,931.813 			"/>
		</g>
		<g>
			<polygon fill="#F15B40" points="398.222,881.063 410.909,881.063 410.909,906.438 398.222,893.751 			"/>
			<polygon fill="#E4563C" points="423.597,881.063 410.909,881.063 410.909,906.438 423.597,893.751 			"/>
		</g>
		<g>
			<polygon fill="#F15B40" points="271.347,881.063 284.034,881.063 284.034,906.438 271.347,893.751 			"/>
			<polygon fill="#E4563C" points="296.722,881.063 284.034,881.063 284.034,906.438 296.722,893.751 			"/>
		</g>
		<g>
			<polygon fill="#F26C4F" points="398.222,563.876 410.909,563.876 410.909,589.251 398.222,576.563 			"/>
			<polygon fill="#E4563C" points="423.597,563.876 410.909,563.876 410.909,589.251 423.597,576.563 			"/>
		</g>
		<g>
			<polygon fill="#F26C4F" points="379.19,641.27 379.19,653.957 353.815,653.957 366.503,641.27 			"/>
			<polygon fill="#E4563C" points="379.19,666.645 379.19,653.957 353.815,653.957 366.503,666.645 			"/>
		</g>
		<g>
			<polygon fill="#F26C4F" points="379.19,691.402 379.19,704.09 353.815,704.09 366.503,691.402 			"/>
			<polygon fill="#E4563C" points="379.19,716.777 379.19,704.09 353.815,704.09 366.503,716.777 			"/>
		</g>
		<g>
			<polygon fill="#F26C4F" points="379.19,741.536 379.19,754.224 353.815,754.224 366.503,741.536 			"/>
			<polygon fill="#E4563C" points="379.19,766.911 379.19,754.224 353.815,754.224 366.503,766.911 			"/>
		</g>
		<g>
			<polygon fill="#F26C4F" points="379.19,791.669 379.19,804.356 353.815,804.356 366.503,791.669 			"/>
			<polygon fill="#E4563C" points="379.19,817.044 379.19,804.356 353.815,804.356 366.503,817.044 			"/>
		</g>
		<g>
			<polygon fill="#F26C4F" points="379.19,841.803 379.19,854.49 353.815,854.49 366.503,841.803 			"/>
			<polygon fill="#E4563C" points="379.19,867.178 379.19,854.49 353.815,854.49 366.503,867.178 			"/>
		</g>
		<g>
			<g>
				<polygon fill="#F26C4F" points="315.753,641.27 315.753,653.957 341.128,653.957 328.44,641.27 				"/>
				<polygon fill="#F15B40" points="315.753,666.645 315.753,653.957 341.128,653.957 328.44,666.645 				"/>
			</g>
			<g>
				<polygon fill="#F26C4F" points="315.753,691.402 315.753,704.09 341.128,704.09 328.44,691.402 				"/>
				<polygon fill="#F15B40" points="315.753,716.777 315.753,704.09 341.128,704.09 328.44,716.777 				"/>
			</g>
			<g>
				<polygon fill="#F26C4F" points="315.753,741.536 315.753,754.224 341.128,754.224 328.44,741.536 				"/>
				<polygon fill="#F15B40" points="315.753,766.911 315.753,754.224 341.128,754.224 328.44,766.911 				"/>
			</g>
			<g>
				<polygon fill="#F26C4F" points="315.753,791.669 315.753,804.356 341.128,804.356 328.44,791.669 				"/>
				<polygon fill="#F15B40" points="315.753,817.044 315.753,804.356 341.128,804.356 328.44,817.044 				"/>
			</g>
			<g>
				<polygon fill="#F26C4F" points="315.753,841.803 315.753,854.49 341.128,854.49 328.44,841.803 				"/>
				<polygon fill="#F15B40" points="315.753,867.178 315.753,854.49 341.128,854.49 328.44,867.178 				"/>
			</g>
		</g>
		<g>
			<polygon fill="#F26C4F" points="355.93,563.876 368.617,563.876 368.617,589.251 355.93,576.563 			"/>
			<polygon fill="#E4563C" points="381.305,563.876 368.617,563.876 368.617,589.251 381.305,576.563 			"/>
		</g>
		<g>
			<polygon fill="#F26C4F" points="313.639,563.876 326.326,563.876 326.326,589.251 313.639,576.563 			"/>
			<polygon fill="#E4563C" points="339.014,563.876 326.326,563.876 326.326,589.251 339.014,576.563 			"/>
		</g>
		<g>
			<polygon fill="#F26C4F" points="271.347,563.876 284.034,563.876 284.034,589.251 271.347,576.563 			"/>
			<polygon fill="#E4563C" points="296.722,563.876 284.034,563.876 284.034,589.251 296.722,576.563 			"/>
		</g>
		<g>
			<polygon fill="#F15B40" points="398.222,627.313 410.909,627.313 410.909,601.938 398.222,614.626 			"/>
			<polygon fill="#E4563C" points="423.597,627.313 410.909,627.313 410.909,601.938 423.597,614.626 			"/>
		</g>
		<g>
			<polygon fill="#F15B40" points="271.347,627.313 284.034,627.313 284.034,601.938 271.347,614.626 			"/>
			<polygon fill="#E4563C" points="296.722,627.313 284.034,627.313 284.034,601.938 296.722,614.626 			"/>
		</g>
	</g>
	<g>
		<g>
			
				<polyline fill="none" stroke="#FFFFFF" stroke-width="2" stroke-linecap="round" stroke-linejoin="round" stroke-miterlimit="10" points="
				522.424,391.988 497.049,391.988 497.049,328.551 623.924,328.551 623.924,391.988 598.549,391.988 			"/>
			
				<rect x="497.049" y="265.113" fill="none" stroke="#FFFFFF" stroke-width="2" stroke-linecap="round" stroke-linejoin="round" stroke-miterlimit="10" width="126.875" height="63.438"/>
		</g>
		<g>
			
				<polygon fill="none" stroke="#FFFFFF" stroke-width="2" stroke-linecap="round" stroke-linejoin="round" stroke-miterlimit="10" points="
				598.549,404.676 560.487,404.676 560.487,328.551 598.549,366.613 			"/>
			
				<polygon fill="none" stroke="#FFFFFF" stroke-width="2" stroke-linecap="round" stroke-linejoin="round" stroke-miterlimit="10" points="
				522.424,404.676 560.487,404.676 560.487,328.551 522.424,366.613 			"/>
		</g>
	</g>
	<g>
		<g>
			
				<polyline fill="none" stroke="#FFFFFF" stroke-width="2" stroke-linecap="round" stroke-linejoin="round" stroke-miterlimit="10" points="
				700.049,186.48 700.049,211.855 636.612,211.855 636.612,21.543 700.049,21.543 700.049,110.355 			"/>
			
				<polyline fill="none" stroke="#FFFFFF" stroke-width="2" stroke-linecap="round" stroke-linejoin="round" stroke-miterlimit="10" points="
				573.174,123.042 573.174,211.855 636.612,211.855 636.612,21.543 573.174,21.543 573.174,46.918 			"/>
		</g>
		<g>
			
				<polygon fill="none" stroke="#FFFFFF" stroke-width="2" stroke-linecap="round" stroke-linejoin="round" stroke-miterlimit="10" points="
				712.737,110.355 712.737,148.418 636.612,148.418 674.674,110.355 			"/>
			
				<polygon fill="none" stroke="#FFFFFF" stroke-width="2" stroke-linecap="round" stroke-linejoin="round" stroke-miterlimit="10" points="
				712.737,186.48 712.737,148.418 636.612,148.418 674.674,186.48 			"/>
		</g>
		<g>
			
				<polygon fill="none" stroke="#FFFFFF" stroke-width="2" stroke-linecap="round" stroke-linejoin="round" stroke-miterlimit="10" points="
				497.049,123.043 497.049,84.98 636.612,84.98 598.549,123.043 			"/>
			
				<polygon fill="none" stroke="#FFFFFF" stroke-width="2" stroke-linecap="round" stroke-linejoin="round" stroke-miterlimit="10" points="
				497.049,46.918 497.049,84.98 636.612,84.98 598.549,46.918 			"/>
		</g>
		
			<rect x="497.049" y="123.043" fill="none" stroke="#FFFFFF" stroke-width="2" stroke-linecap="round" stroke-linejoin="round" stroke-miterlimit="10" width="76.125" height="38.063"/>
	</g>
	<g>
		<g>
			
				<line fill="none" stroke="#FFFFFF" stroke-width="2" stroke-linecap="round" stroke-linejoin="round" stroke-miterlimit="10" x1="560.487" y1="615.896" x2="560.487" y2="501.707"/>
			
				<line fill="none" stroke="#FFFFFF" stroke-width="2" stroke-linecap="round" stroke-linejoin="round" stroke-miterlimit="10" x1="623.924" y1="463.645" x2="623.924" y2="653.957"/>
			
				<line fill="none" stroke="#FFFFFF" stroke-width="2" stroke-linecap="round" stroke-linejoin="round" stroke-miterlimit="10" x1="560.487" y1="615.896" x2="560.487" y2="501.707"/>
			
				<line fill="none" stroke="#FFFFFF" stroke-width="2" stroke-linecap="round" stroke-linejoin="round" stroke-miterlimit="10" x1="497.049" y1="463.645" x2="497.049" y2="653.957"/>
		</g>
		<g>
			
				<polygon fill="none" stroke="#FFFFFF" stroke-width="2" stroke-linecap="round" stroke-linejoin="round" stroke-miterlimit="10" points="
				598.647,577.832 598.647,596.863 560.584,596.863 579.616,577.832 			"/>
			
				<polygon fill="none" stroke="#FFFFFF" stroke-width="2" stroke-linecap="round" stroke-linejoin="round" stroke-miterlimit="10" points="
				598.647,615.895 598.647,596.863 560.584,596.863 579.616,615.895 			"/>
		</g>
		<g>
			
				<polygon fill="none" stroke="#FFFFFF" stroke-width="2" stroke-linecap="round" stroke-linejoin="round" stroke-miterlimit="10" points="
				522.522,577.832 522.522,596.863 560.584,596.863 541.553,577.832 			"/>
			
				<polygon fill="none" stroke="#FFFFFF" stroke-width="2" stroke-linecap="round" stroke-linejoin="round" stroke-miterlimit="10" points="
				522.522,615.895 522.522,596.863 560.584,596.863 541.553,615.895 			"/>
		</g>
		<g>
			
				<polygon fill="none" stroke="#FFFFFF" stroke-width="2" stroke-linecap="round" stroke-linejoin="round" stroke-miterlimit="10" points="
				497.049,501.707 497.049,530.254 560.584,530.254 532.038,501.707 			"/>
			
				<polygon fill="none" stroke="#FFFFFF" stroke-width="2" stroke-linecap="round" stroke-linejoin="round" stroke-miterlimit="10" points="
				497.049,558.801 497.049,530.254 560.584,530.254 532.038,558.801 			"/>
		</g>
		<g>
			
				<polygon fill="none" stroke="#FFFFFF" stroke-width="2" stroke-linecap="round" stroke-linejoin="round" stroke-miterlimit="10" points="
				624.12,501.707 624.12,530.254 560.584,530.254 589.131,501.707 			"/>
			
				<polygon fill="none" stroke="#FFFFFF" stroke-width="2" stroke-linecap="round" stroke-linejoin="round" stroke-miterlimit="10" points="
				624.12,558.801 624.12,530.254 560.584,530.254 589.131,558.801 			"/>
		</g>
		
			<polygon fill="none" stroke="#FFFFFF" stroke-width="2" stroke-linecap="round" stroke-linejoin="round" stroke-miterlimit="10" points="
			623.923,463.645 497.049,463.645 560.487,501.707 		"/>
		
			<polygon fill="none" stroke="#FFFFFF" stroke-width="2" stroke-linecap="round" stroke-linejoin="round" stroke-miterlimit="10" points="
			623.923,653.957 497.049,653.957 560.487,615.895 		"/>
		<g>
			
				<rect x="623.892" y="558.801" fill="none" stroke="#FFFFFF" stroke-width="2" stroke-linecap="round" stroke-linejoin="round" stroke-miterlimit="10" width="76.125" height="38.063"/>
			
				<rect x="623.892" y="596.863" fill="none" stroke="#FFFFFF" stroke-width="2" stroke-linecap="round" stroke-linejoin="round" stroke-miterlimit="10" width="76.125" height="38.063"/>
		</g>
	</g>
	<g>
		<g>
			
				<rect x="497.049" y="768.145" fill="none" stroke="#FFFFFF" stroke-width="2" stroke-linecap="round" stroke-linejoin="round" stroke-miterlimit="10" width="63.438" height="190.313"/>
			
				<rect x="560.487" y="768.145" fill="none" stroke="#FFFFFF" stroke-width="2" stroke-linecap="round" stroke-linejoin="round" stroke-miterlimit="10" width="63.438" height="190.313"/>
		</g>
		<g>
			<g>
				
					<polyline fill="none" stroke="#FFFFFF" stroke-width="2" stroke-linecap="round" stroke-linejoin="round" stroke-miterlimit="10" points="
					585.862,740.232 585.862,768.145 547.799,768.145 547.799,717.395 				"/>
				
					<polyline fill="none" stroke="#FFFFFF" stroke-width="2" stroke-linecap="round" stroke-linejoin="round" stroke-miterlimit="10" points="
					585.862,740.232 585.862,768.145 623.924,768.145 623.924,717.395 				"/>
			</g>
			
				<polygon fill="none" stroke="#FFFFFF" stroke-width="2" stroke-linecap="round" stroke-linejoin="round" stroke-miterlimit="10" points="
				547.8,717.395 623.924,717.395 585.862,740.232 			"/>
		</g>
		<g>
			<g>
				
					<polyline fill="none" stroke="#FFFFFF" stroke-width="2" stroke-linecap="round" stroke-linejoin="round" stroke-miterlimit="10" points="
					651.837,895.02 623.924,895.02 623.924,856.957 674.674,856.957 				"/>
				
					<polyline fill="none" stroke="#FFFFFF" stroke-width="2" stroke-linecap="round" stroke-linejoin="round" stroke-miterlimit="10" points="
					651.837,895.02 623.924,895.02 623.924,933.082 674.674,933.082 				"/>
			</g>
			
				<polygon fill="none" stroke="#FFFFFF" stroke-width="2" stroke-linecap="round" stroke-linejoin="round" stroke-miterlimit="10" points="
				674.674,856.958 674.674,933.082 651.837,895.02 			"/>
		</g>
	</g>
	<g>
		<g>
			<g>
				
					<rect x="839.513" y="21.543" fill="none" stroke="#FFFFFF" stroke-width="2" stroke-linecap="round" stroke-linejoin="round" stroke-miterlimit="10" width="63.438" height="158.594"/>
				
					<rect x="776.076" y="21.543" fill="none" stroke="#FFFFFF" stroke-width="2" stroke-linecap="round" stroke-linejoin="round" stroke-miterlimit="10" width="63.438" height="158.594"/>
			</g>
			<g>
				
					<polygon fill="none" stroke="#FFFFFF" stroke-width="2" stroke-linecap="round" stroke-linejoin="round" stroke-miterlimit="10" points="
					902.951,97.668 902.951,129.387 839.513,129.387 871.232,97.668 				"/>
				
					<polygon fill="none" stroke="#FFFFFF" stroke-width="2" stroke-linecap="round" stroke-linejoin="round" stroke-miterlimit="10" points="
					902.951,161.105 902.951,129.387 839.513,129.387 871.232,161.105 				"/>
			</g>
			<g>
				
					<polygon fill="none" stroke="#FFFFFF" stroke-width="2" stroke-linecap="round" stroke-linejoin="round" stroke-miterlimit="10" points="
					890.263,34.23 890.263,50.09 858.544,50.09 874.404,34.23 				"/>
				
					<polygon fill="none" stroke="#FFFFFF" stroke-width="2" stroke-linecap="round" stroke-linejoin="round" stroke-miterlimit="10" points="
					890.263,65.949 890.263,50.09 858.544,50.09 874.404,65.949 				"/>
			</g>
			<g>
				
					<polygon fill="none" stroke="#FFFFFF" stroke-width="2" stroke-linecap="round" stroke-linejoin="round" stroke-miterlimit="10" points="
					776.076,40.574 776.076,72.293 839.513,72.293 807.794,40.574 				"/>
				
					<polygon fill="none" stroke="#FFFFFF" stroke-width="2" stroke-linecap="round" stroke-linejoin="round" stroke-miterlimit="10" points="
					776.076,104.012 776.076,72.293 839.513,72.293 807.794,104.012 				"/>
			</g>
		</g>
		<g>
			
				<polygon fill="none" stroke="#FFFFFF" stroke-width="2" stroke-linecap="round" stroke-linejoin="round" stroke-miterlimit="10" points="
				788.763,135.73 788.763,151.59 820.482,151.59 804.623,135.73 			"/>
			
				<polygon fill="none" stroke="#FFFFFF" stroke-width="2" stroke-linecap="round" stroke-linejoin="round" stroke-miterlimit="10" points="
				788.763,167.449 788.763,151.59 820.482,151.59 804.623,167.449 			"/>
		</g>
	</g>
	<g>
		<g>
			<g>
				
					<line fill="none" stroke="#FFFFFF" stroke-width="2" stroke-linecap="round" stroke-linejoin="round" stroke-miterlimit="10" x1="742.21" y1="489.683" x2="742.21" y2="451.62"/>
				
					<line fill="none" stroke="#FFFFFF" stroke-width="2" stroke-linecap="round" stroke-linejoin="round" stroke-miterlimit="10" x1="792.96" y1="273.995" x2="792.96" y2="451.62"/>
				
					<line fill="none" stroke="#FFFFFF" stroke-width="2" stroke-linecap="round" stroke-linejoin="round" stroke-miterlimit="10" x1="742.21" y1="375.495" x2="742.21" y2="235.933"/>
				
					<line fill="none" stroke="#FFFFFF" stroke-width="2" stroke-linecap="round" stroke-linejoin="round" stroke-miterlimit="10" x1="843.71" y1="489.683" x2="843.71" y2="451.62"/>
				
					<line fill="none" stroke="#FFFFFF" stroke-width="2" stroke-linecap="round" stroke-linejoin="round" stroke-miterlimit="10" x1="792.96" y1="273.995" x2="792.96" y2="451.62"/>
				
					<line fill="none" stroke="#FFFFFF" stroke-width="2" stroke-linecap="round" stroke-linejoin="round" stroke-miterlimit="10" x1="843.71" y1="375.495" x2="843.71" y2="235.933"/>
			</g>
			<g>
				
					<polyline fill="none" stroke="#FFFFFF" stroke-width="2" stroke-linecap="round" stroke-linejoin="round" stroke-miterlimit="10" points="
					670.086,451.62 657.398,451.62 657.398,413.558 792.862,413.558 754.799,451.62 708.147,451.62 				"/>
				
					<polyline fill="none" stroke="#FFFFFF" stroke-width="2" stroke-linecap="round" stroke-linejoin="round" stroke-miterlimit="10" points="
					670.086,375.495 657.398,375.495 657.398,413.558 792.862,413.558 754.799,375.495 708.147,375.495 				"/>
			</g>
			<g>
				
					<polyline fill="none" stroke="#FFFFFF" stroke-width="2" stroke-linecap="round" stroke-linejoin="round" stroke-miterlimit="10" points="
					890.263,451.62 902.951,451.62 902.951,413.558 792.862,413.558 830.924,451.62 852.201,451.62 				"/>
				
					<polyline fill="none" stroke="#FFFFFF" stroke-width="2" stroke-linecap="round" stroke-linejoin="round" stroke-miterlimit="10" points="
					890.263,375.495 902.951,375.495 902.951,413.558 792.862,413.558 830.924,375.495 852.201,375.495 				"/>
			</g>
			
				<polygon fill="none" stroke="#FFFFFF" stroke-width="2" stroke-linecap="round" stroke-linejoin="round" stroke-miterlimit="10" points="
				742.211,489.683 843.71,489.683 792.96,451.62 			"/>
			
				<polygon fill="none" stroke="#FFFFFF" stroke-width="2" stroke-linecap="round" stroke-linejoin="round" stroke-miterlimit="10" points="
				742.211,235.933 843.71,235.933 792.96,273.995 			"/>
		</g>
		<g>
			
				<polygon fill="none" stroke="#FFFFFF" stroke-width="2" stroke-linecap="round" stroke-linejoin="round" stroke-miterlimit="10" points="
				748.456,363.753 748.456,344.722 786.518,344.722 767.487,363.753 			"/>
			
				<polygon fill="none" stroke="#FFFFFF" stroke-width="2" stroke-linecap="round" stroke-linejoin="round" stroke-miterlimit="10" points="
				748.456,325.69 748.456,344.722 786.518,344.722 767.487,325.69 			"/>
		</g>
		<g>
			
				<polygon fill="none" stroke="#FFFFFF" stroke-width="2" stroke-linecap="round" stroke-linejoin="round" stroke-miterlimit="10" points="
				837.268,363.753 837.268,344.722 799.206,344.722 818.237,363.753 			"/>
			
				<polygon fill="none" stroke="#FFFFFF" stroke-width="2" stroke-linecap="round" stroke-linejoin="round" stroke-miterlimit="10" points="
				837.268,325.69 837.268,344.722 799.206,344.722 818.237,325.69 			"/>
		</g>
		<g>
			
				<polygon fill="none" stroke="#FFFFFF" stroke-width="2" stroke-linecap="round" stroke-linejoin="round" stroke-miterlimit="10" points="
				670.085,369.151 689.117,369.151 689.117,407.214 670.085,388.183 			"/>
			
				<polygon fill="none" stroke="#FFFFFF" stroke-width="2" stroke-linecap="round" stroke-linejoin="round" stroke-miterlimit="10" points="
				708.148,369.151 689.117,369.151 689.117,407.214 708.148,388.183 			"/>
		</g>
		<g>
			
				<polygon fill="none" stroke="#FFFFFF" stroke-width="2" stroke-linecap="round" stroke-linejoin="round" stroke-miterlimit="10" points="
				670.085,457.964 689.117,457.964 689.117,419.901 670.085,438.933 			"/>
			
				<polygon fill="none" stroke="#FFFFFF" stroke-width="2" stroke-linecap="round" stroke-linejoin="round" stroke-miterlimit="10" points="
				708.148,457.964 689.117,457.964 689.117,419.901 708.148,438.933 			"/>
		</g>
		<g>
			
				<polygon fill="none" stroke="#FFFFFF" stroke-width="2" stroke-linecap="round" stroke-linejoin="round" stroke-miterlimit="10" points="
				852.201,369.151 871.232,369.151 871.232,407.214 852.201,388.183 			"/>
			
				<polygon fill="none" stroke="#FFFFFF" stroke-width="2" stroke-linecap="round" stroke-linejoin="round" stroke-miterlimit="10" points="
				890.263,369.151 871.232,369.151 871.232,407.214 890.263,388.183 			"/>
		</g>
		<g>
			
				<polygon fill="none" stroke="#FFFFFF" stroke-width="2" stroke-linecap="round" stroke-linejoin="round" stroke-miterlimit="10" points="
				852.201,457.964 871.232,457.964 871.232,419.901 852.201,438.933 			"/>
			
				<polygon fill="none" stroke="#FFFFFF" stroke-width="2" stroke-linecap="round" stroke-linejoin="round" stroke-miterlimit="10" points="
				890.263,457.964 871.232,457.964 871.232,419.901 890.263,438.933 			"/>
		</g>
		<g>
			
				<polygon fill="none" stroke="#FFFFFF" stroke-width="2" stroke-linecap="round" stroke-linejoin="round" stroke-miterlimit="10" points="
				748.456,312.058 748.456,293.026 786.518,293.026 767.487,312.058 			"/>
			
				<polygon fill="none" stroke="#FFFFFF" stroke-width="2" stroke-linecap="round" stroke-linejoin="round" stroke-miterlimit="10" points="
				748.456,273.995 748.456,293.026 786.518,293.026 767.487,273.995 			"/>
		</g>
		<g>
			
				<polygon fill="none" stroke="#FFFFFF" stroke-width="2" stroke-linecap="round" stroke-linejoin="round" stroke-miterlimit="10" points="
				837.268,312.058 837.268,293.026 799.206,293.026 818.237,312.058 			"/>
			
				<polygon fill="none" stroke="#FFFFFF" stroke-width="2" stroke-linecap="round" stroke-linejoin="round" stroke-miterlimit="10" points="
				837.268,273.995 837.268,293.026 799.206,293.026 818.237,273.995 			"/>
		</g>
	</g>
	<g>
		<g>
			<g>
				
					<rect x="725.326" y="549.92" fill="none" stroke="#FFFFFF" stroke-width="2" stroke-linecap="round" stroke-linejoin="round" stroke-miterlimit="10" width="177.625" height="45.675"/>
				
					<polyline fill="none" stroke="#FFFFFF" stroke-width="2" stroke-linecap="round" stroke-linejoin="round" stroke-miterlimit="10" points="
					859.743,641.27 902.951,641.27 902.951,595.595 725.326,595.595 725.326,641.27 768.533,641.27 				"/>
			</g>
			<g>
				
					<rect x="725.326" y="912.782" fill="none" stroke="#FFFFFF" stroke-width="2" stroke-linecap="round" stroke-linejoin="round" stroke-miterlimit="10" width="177.625" height="45.675"/>
				
					<polyline fill="none" stroke="#FFFFFF" stroke-width="2" stroke-linecap="round" stroke-linejoin="round" stroke-miterlimit="10" points="
					768.533,867.107 725.326,867.107 725.326,912.782 902.951,912.782 902.951,867.107 859.743,867.107 				"/>
			</g>
			<g>
				<g>
					
						<polygon fill="none" stroke="#FFFFFF" stroke-width="2" stroke-linecap="round" stroke-linejoin="round" stroke-miterlimit="10" points="
						859.743,867.178 859.743,641.2 814.138,595.595 814.138,912.782 					"/>
					
						<polygon fill="none" stroke="#FFFFFF" stroke-width="2" stroke-linecap="round" stroke-linejoin="round" stroke-miterlimit="10" points="
						814.138,595.595 768.533,641.2 768.533,867.178 814.138,912.782 					"/>
				</g>
			</g>
			
				<rect x="859.743" y="641.27" fill="none" stroke="#FFFFFF" stroke-width="2" stroke-linecap="round" stroke-linejoin="round" stroke-miterlimit="10" width="30.52" height="225.908"/>
			
				<rect x="738.013" y="641.27" fill="none" stroke="#FFFFFF" stroke-width="2" stroke-linecap="round" stroke-linejoin="round" stroke-miterlimit="10" width="30.52" height="225.908"/>
		</g>
		<g>
			
				<polygon fill="none" stroke="#FFFFFF" stroke-width="2" stroke-linecap="round" stroke-linejoin="round" stroke-miterlimit="10" points="
				864.888,944.501 877.576,944.501 877.576,919.126 864.888,931.813 			"/>
			
				<polygon fill="none" stroke="#FFFFFF" stroke-width="2" stroke-linecap="round" stroke-linejoin="round" stroke-miterlimit="10" points="
				890.263,944.501 877.576,944.501 877.576,919.126 890.263,931.813 			"/>
		</g>
		<g>
			
				<polygon fill="none" stroke="#FFFFFF" stroke-width="2" stroke-linecap="round" stroke-linejoin="round" stroke-miterlimit="10" points="
				822.596,944.501 835.284,944.501 835.284,919.126 822.596,931.813 			"/>
			
				<polygon fill="none" stroke="#FFFFFF" stroke-width="2" stroke-linecap="round" stroke-linejoin="round" stroke-miterlimit="10" points="
				847.971,944.501 835.284,944.501 835.284,919.126 847.971,931.813 			"/>
		</g>
		<g>
			
				<polygon fill="none" stroke="#FFFFFF" stroke-width="2" stroke-linecap="round" stroke-linejoin="round" stroke-miterlimit="10" points="
				780.305,944.501 792.993,944.501 792.993,919.126 780.305,931.813 			"/>
			
				<polygon fill="none" stroke="#FFFFFF" stroke-width="2" stroke-linecap="round" stroke-linejoin="round" stroke-miterlimit="10" points="
				805.68,944.501 792.993,944.501 792.993,919.126 805.68,931.813 			"/>
		</g>
		<g>
			
				<polygon fill="none" stroke="#FFFFFF" stroke-width="2" stroke-linecap="round" stroke-linejoin="round" stroke-miterlimit="10" points="
				738.013,944.501 750.701,944.501 750.701,919.126 738.013,931.813 			"/>
			
				<polygon fill="none" stroke="#FFFFFF" stroke-width="2" stroke-linecap="round" stroke-linejoin="round" stroke-miterlimit="10" points="
				763.388,944.501 750.701,944.501 750.701,919.126 763.388,931.813 			"/>
		</g>
		<g>
			
				<polygon fill="none" stroke="#FFFFFF" stroke-width="2" stroke-linecap="round" stroke-linejoin="round" stroke-miterlimit="10" points="
				864.888,881.063 877.576,881.063 877.576,906.438 864.888,893.751 			"/>
			
				<polygon fill="none" stroke="#FFFFFF" stroke-width="2" stroke-linecap="round" stroke-linejoin="round" stroke-miterlimit="10" points="
				890.263,881.063 877.576,881.063 877.576,906.438 890.263,893.751 			"/>
		</g>
		<g>
			
				<polygon fill="none" stroke="#FFFFFF" stroke-width="2" stroke-linecap="round" stroke-linejoin="round" stroke-miterlimit="10" points="
				738.013,881.063 750.701,881.063 750.701,906.438 738.013,893.751 			"/>
			
				<polygon fill="none" stroke="#FFFFFF" stroke-width="2" stroke-linecap="round" stroke-linejoin="round" stroke-miterlimit="10" points="
				763.388,881.063 750.701,881.063 750.701,906.438 763.388,893.751 			"/>
		</g>
		<g>
			
				<polygon fill="none" stroke="#FFFFFF" stroke-width="2" stroke-linecap="round" stroke-linejoin="round" stroke-miterlimit="10" points="
				864.888,563.876 877.576,563.876 877.576,589.251 864.888,576.563 			"/>
			
				<polygon fill="none" stroke="#FFFFFF" stroke-width="2" stroke-linecap="round" stroke-linejoin="round" stroke-miterlimit="10" points="
				890.263,563.876 877.576,563.876 877.576,589.251 890.263,576.563 			"/>
		</g>
		<g>
			
				<polygon fill="none" stroke="#FFFFFF" stroke-width="2" stroke-linecap="round" stroke-linejoin="round" stroke-miterlimit="10" points="
				845.857,641.27 845.857,653.957 820.482,653.957 833.169,641.27 			"/>
			
				<polygon fill="none" stroke="#FFFFFF" stroke-width="2" stroke-linecap="round" stroke-linejoin="round" stroke-miterlimit="10" points="
				845.857,666.645 845.857,653.957 820.482,653.957 833.169,666.645 			"/>
		</g>
		<g>
			
				<polygon fill="none" stroke="#FFFFFF" stroke-width="2" stroke-linecap="round" stroke-linejoin="round" stroke-miterlimit="10" points="
				845.857,691.402 845.857,704.09 820.482,704.09 833.169,691.402 			"/>
			
				<polygon fill="none" stroke="#FFFFFF" stroke-width="2" stroke-linecap="round" stroke-linejoin="round" stroke-miterlimit="10" points="
				845.857,716.777 845.857,704.09 820.482,704.09 833.169,716.777 			"/>
		</g>
		<g>
			
				<polygon fill="none" stroke="#FFFFFF" stroke-width="2" stroke-linecap="round" stroke-linejoin="round" stroke-miterlimit="10" points="
				845.857,741.536 845.857,754.224 820.482,754.224 833.169,741.536 			"/>
			
				<polygon fill="none" stroke="#FFFFFF" stroke-width="2" stroke-linecap="round" stroke-linejoin="round" stroke-miterlimit="10" points="
				845.857,766.911 845.857,754.224 820.482,754.224 833.169,766.911 			"/>
		</g>
		<g>
			
				<polygon fill="none" stroke="#FFFFFF" stroke-width="2" stroke-linecap="round" stroke-linejoin="round" stroke-miterlimit="10" points="
				845.857,791.669 845.857,804.356 820.482,804.356 833.169,791.669 			"/>
			
				<polygon fill="none" stroke="#FFFFFF" stroke-width="2" stroke-linecap="round" stroke-linejoin="round" stroke-miterlimit="10" points="
				845.857,817.044 845.857,804.356 820.482,804.356 833.169,817.044 			"/>
		</g>
		<g>
			
				<polygon fill="none" stroke="#FFFFFF" stroke-width="2" stroke-linecap="round" stroke-linejoin="round" stroke-miterlimit="10" points="
				845.857,841.803 845.857,854.49 820.482,854.49 833.169,841.803 			"/>
			
				<polygon fill="none" stroke="#FFFFFF" stroke-width="2" stroke-linecap="round" stroke-linejoin="round" stroke-miterlimit="10" points="
				845.857,867.178 845.857,854.49 820.482,854.49 833.169,867.178 			"/>
		</g>
		<g>
			<g>
				
					<polygon fill="none" stroke="#FFFFFF" stroke-width="2" stroke-linecap="round" stroke-linejoin="round" stroke-miterlimit="10" points="
					782.419,641.27 782.419,653.957 807.794,653.957 795.107,641.27 				"/>
				
					<polygon fill="none" stroke="#FFFFFF" stroke-width="2" stroke-linecap="round" stroke-linejoin="round" stroke-miterlimit="10" points="
					782.419,666.645 782.419,653.957 807.794,653.957 795.107,666.645 				"/>
			</g>
			<g>
				
					<polygon fill="none" stroke="#FFFFFF" stroke-width="2" stroke-linecap="round" stroke-linejoin="round" stroke-miterlimit="10" points="
					782.419,691.402 782.419,704.09 807.794,704.09 795.107,691.402 				"/>
				
					<polygon fill="none" stroke="#FFFFFF" stroke-width="2" stroke-linecap="round" stroke-linejoin="round" stroke-miterlimit="10" points="
					782.419,716.777 782.419,704.09 807.794,704.09 795.107,716.777 				"/>
			</g>
			<g>
				
					<polygon fill="none" stroke="#FFFFFF" stroke-width="2" stroke-linecap="round" stroke-linejoin="round" stroke-miterlimit="10" points="
					782.419,741.536 782.419,754.224 807.794,754.224 795.107,741.536 				"/>
				
					<polygon fill="none" stroke="#FFFFFF" stroke-width="2" stroke-linecap="round" stroke-linejoin="round" stroke-miterlimit="10" points="
					782.419,766.911 782.419,754.224 807.794,754.224 795.107,766.911 				"/>
			</g>
			<g>
				
					<polygon fill="none" stroke="#FFFFFF" stroke-width="2" stroke-linecap="round" stroke-linejoin="round" stroke-miterlimit="10" points="
					782.419,791.669 782.419,804.356 807.794,804.356 795.107,791.669 				"/>
				
					<polygon fill="none" stroke="#FFFFFF" stroke-width="2" stroke-linecap="round" stroke-linejoin="round" stroke-miterlimit="10" points="
					782.419,817.044 782.419,804.356 807.794,804.356 795.107,817.044 				"/>
			</g>
			<g>
				
					<polygon fill="none" stroke="#FFFFFF" stroke-width="2" stroke-linecap="round" stroke-linejoin="round" stroke-miterlimit="10" points="
					782.419,841.803 782.419,854.49 807.794,854.49 795.107,841.803 				"/>
				
					<polygon fill="none" stroke="#FFFFFF" stroke-width="2" stroke-linecap="round" stroke-linejoin="round" stroke-miterlimit="10" points="
					782.419,867.178 782.419,854.49 807.794,854.49 795.107,867.178 				"/>
			</g>
		</g>
		<g>
			
				<polygon fill="none" stroke="#FFFFFF" stroke-width="2" stroke-linecap="round" stroke-linejoin="round" stroke-miterlimit="10" points="
				822.596,563.876 835.284,563.876 835.284,589.251 822.596,576.563 			"/>
			
				<polygon fill="none" stroke="#FFFFFF" stroke-width="2" stroke-linecap="round" stroke-linejoin="round" stroke-miterlimit="10" points="
				847.971,563.876 835.284,563.876 835.284,589.251 847.971,576.563 			"/>
		</g>
		<g>
			
				<polygon fill="none" stroke="#FFFFFF" stroke-width="2" stroke-linecap="round" stroke-linejoin="round" stroke-miterlimit="10" points="
				780.305,563.876 792.993,563.876 792.993,589.251 780.305,576.563 			"/>
			
				<polygon fill="none" stroke="#FFFFFF" stroke-width="2" stroke-linecap="round" stroke-linejoin="round" stroke-miterlimit="10" points="
				805.68,563.876 792.993,563.876 792.993,589.251 805.68,576.563 			"/>
		</g>
		<g>
			
				<polygon fill="none" stroke="#FFFFFF" stroke-width="2" stroke-linecap="round" stroke-linejoin="round" stroke-miterlimit="10" points="
				738.013,563.876 750.701,563.876 750.701,589.251 738.013,576.563 			"/>
			
				<polygon fill="none" stroke="#FFFFFF" stroke-width="2" stroke-linecap="round" stroke-linejoin="round" stroke-miterlimit="10" points="
				763.388,563.876 750.701,563.876 750.701,589.251 763.388,576.563 			"/>
		</g>
		<g>
			
				<polygon fill="none" stroke="#FFFFFF" stroke-width="2" stroke-linecap="round" stroke-linejoin="round" stroke-miterlimit="10" points="
				864.888,627.313 877.576,627.313 877.576,601.938 864.888,614.626 			"/>
			
				<polygon fill="none" stroke="#FFFFFF" stroke-width="2" stroke-linecap="round" stroke-linejoin="round" stroke-miterlimit="10" points="
				890.263,627.313 877.576,627.313 877.576,601.938 890.263,614.626 			"/>
		</g>
		<g>
			
				<polygon fill="none" stroke="#FFFFFF" stroke-width="2" stroke-linecap="round" stroke-linejoin="round" stroke-miterlimit="10" points="
				738.013,627.313 750.701,627.313 750.701,601.938 738.013,614.626 			"/>
			
				<polygon fill="none" stroke="#FFFFFF" stroke-width="2" stroke-linecap="round" stroke-linejoin="round" stroke-miterlimit="10" points="
				763.388,627.313 750.701,627.313 750.701,601.938 763.388,614.626 			"/>
		</g>
	</g>
	<g>
		<g>
			<rect x="963.716" y="328.551" fill="#3E7C94" width="126.875" height="63.438"/>
			<rect x="963.716" y="265.113" fill="#5E91A8" width="126.875" height="63.438"/>
		</g>
		<g>
			<polygon fill="#2D718A" points="1065.216,404.676 1027.153,404.676 1027.153,328.551 1065.216,366.613 			"/>
			<polygon fill="#5E91A8" points="989.091,404.676 1027.153,404.676 1027.153,328.551 989.091,366.613 			"/>
		</g>
	</g>
	<g>
		<g>
			<rect x="1103.278" y="21.543" fill="#3E7C94" width="63.438" height="190.313"/>
			<rect x="1039.841" y="21.543" fill="#5E91A8" width="63.438" height="190.313"/>
		</g>
		<g>
			<polygon fill="#2D718A" points="1179.403,110.355 1179.403,148.418 1103.278,148.418 1141.341,110.355 			"/>
			<polygon fill="#5E91A8" points="1179.403,186.48 1179.403,148.418 1103.278,148.418 1141.341,186.48 			"/>
		</g>
		<g>
			<polygon fill="#2D718A" points="963.716,123.043 963.716,84.98 1103.278,84.98 1065.216,123.043 			"/>
			<polygon fill="#3E7C94" points="963.716,46.918 963.716,84.98 1103.278,84.98 1065.216,46.918 			"/>
		</g>
		<rect x="963.716" y="123.043" fill="#3E7C94" width="76.125" height="38.063"/>
	</g>
	<g>
		<g>
			<rect x="1027.153" y="463.645" fill="#3E7C94" width="63.438" height="190.313"/>
			<rect x="963.716" y="463.645" fill="#5E91A8" width="63.438" height="190.313"/>
		</g>
		<g>
			<polygon fill="#5E91A8" points="1065.313,577.832 1065.313,596.863 1027.251,596.863 1046.282,577.832 			"/>
			<polygon fill="#2D718A" points="1065.313,615.895 1065.313,596.863 1027.251,596.863 1046.282,615.895 			"/>
		</g>
		<g>
			<polygon fill="#3E7C94" points="989.188,577.832 989.188,596.863 1027.251,596.863 1008.22,577.832 			"/>
			<polygon fill="#2D718A" points="989.188,615.895 989.188,596.863 1027.251,596.863 1008.22,615.895 			"/>
		</g>
		<g>
			<polygon fill="#3E7C94" points="963.716,501.707 963.716,530.254 1027.251,530.254 998.704,501.707 			"/>
			<polygon fill="#2D718A" points="963.716,558.801 963.716,530.254 1027.251,530.254 998.704,558.801 			"/>
		</g>
		<g>
			<polygon fill="#5E91A8" points="1090.787,501.707 1090.787,530.254 1027.251,530.254 1055.798,501.707 			"/>
			<polygon fill="#2D718A" points="1090.787,558.801 1090.787,530.254 1027.251,530.254 1055.798,558.801 			"/>
		</g>
		<polygon fill="#2D718A" points="1090.59,463.645 963.716,463.645 1027.153,501.707 		"/>
		<polygon fill="#2D718A" points="1090.59,653.957 963.716,653.957 1027.153,615.895 		"/>
		<g>
			<rect x="1090.559" y="558.801" fill="#5E91A8" width="76.125" height="38.063"/>
			<rect x="1090.559" y="596.863" fill="#2D718A" width="76.125" height="38.063"/>
		</g>
	</g>
	<g>
		<g>
			<rect x="963.716" y="768.145" fill="#3E7C94" width="63.438" height="190.313"/>
			<rect x="1027.153" y="768.145" fill="#5E91A8" width="63.438" height="190.313"/>
		</g>
		<g>
			<g>
				<rect x="1014.466" y="717.395" fill="#2D718A" width="38.063" height="50.75"/>
				<rect x="1052.528" y="717.395" fill="#3E7C94" width="38.063" height="50.75"/>
			</g>
			<polygon fill="#5E91A8" points="1014.466,717.395 1090.591,717.395 1052.528,740.232 			"/>
		</g>
		<g>
			<g>
				<rect x="1090.591" y="856.957" fill="#2D718A" width="50.75" height="38.063"/>
				<rect x="1090.591" y="895.02" fill="#3E7C94" width="50.75" height="38.063"/>
			</g>
			<polygon fill="#5E91A8" points="1141.341,856.958 1141.341,933.082 1118.503,895.02 			"/>
		</g>
	</g>
	<g>
		<g>
			<g>
				<rect x="1306.18" y="21.543" fill="#3E7C94" width="63.438" height="158.594"/>
				<rect x="1242.742" y="21.543" fill="#5E91A8" width="63.438" height="158.594"/>
			</g>
			<g>
				<polygon fill="#2D718A" points="1369.617,97.668 1369.617,129.387 1306.18,129.387 1337.898,97.668 				"/>
				<polygon fill="#5E91A8" points="1369.617,161.105 1369.617,129.387 1306.18,129.387 1337.898,161.105 				"/>
			</g>
			<g>
				<polygon fill="#2D718A" points="1356.93,34.23 1356.93,50.09 1325.211,50.09 1341.07,34.23 				"/>
				<polygon fill="#5E91A8" points="1356.93,65.949 1356.93,50.09 1325.211,50.09 1341.07,65.949 				"/>
			</g>
			<g>
				<polygon fill="#2D718A" points="1242.742,40.574 1242.742,72.293 1306.18,72.293 1274.461,40.574 				"/>
				<polygon fill="#3E7C94" points="1242.742,104.012 1242.742,72.293 1306.18,72.293 1274.461,104.012 				"/>
			</g>
		</g>
		<g>
			<polygon fill="#2D718A" points="1255.43,135.73 1255.43,151.59 1287.148,151.59 1271.289,135.73 			"/>
			<polygon fill="#3E7C94" points="1255.43,167.449 1255.43,151.59 1287.148,151.59 1271.289,167.449 			"/>
		</g>
	</g>
	<g>
		<g>
			<g>
				<rect x="1208.876" y="235.933" fill="#3E7C94" width="50.75" height="253.75"/>
				<rect x="1259.626" y="235.933" fill="#5E91A8" width="50.75" height="253.75"/>
			</g>
			<g>
				<polygon fill="#5E91A8" points="1124.064,451.62 1124.064,413.558 1259.528,413.558 1221.466,451.62 				"/>
				<polygon fill="#2D718A" points="1124.064,375.495 1124.064,413.558 1259.528,413.558 1221.466,375.495 				"/>
			</g>
			<g>
				<polygon fill="#3E7C94" points="1369.617,451.62 1369.617,413.558 1259.528,413.558 1297.591,451.62 				"/>
				<polygon fill="#2D718A" points="1369.617,375.495 1369.617,413.558 1259.528,413.558 1297.591,375.495 				"/>
			</g>
			<polygon fill="#2D718A" points="1208.877,489.683 1310.376,489.683 1259.626,451.62 			"/>
			<polygon fill="#2D718A" points="1208.877,235.933 1310.376,235.933 1259.626,273.995 			"/>
		</g>
		<g>
			<polygon fill="#5E91A8" points="1215.122,363.753 1215.122,344.722 1253.185,344.722 1234.153,363.753 			"/>
			<polygon fill="#2D718A" points="1215.122,325.69 1215.122,344.722 1253.185,344.722 1234.153,325.69 			"/>
		</g>
		<g>
			<polygon fill="#2D718A" points="1303.935,363.753 1303.935,344.722 1265.872,344.722 1284.903,363.753 			"/>
			<polygon fill="#3E7C94" points="1303.935,325.69 1303.935,344.722 1265.872,344.722 1284.903,325.69 			"/>
		</g>
		<g>
			<polygon fill="#5E91A8" points="1136.752,369.151 1155.783,369.151 1155.783,407.214 1136.752,388.183 			"/>
			<polygon fill="#3E7C94" points="1174.814,369.151 1155.783,369.151 1155.783,407.214 1174.814,388.183 			"/>
		</g>
		<g>
			<polygon fill="#3E7C94" points="1136.752,457.964 1155.783,457.964 1155.783,419.901 1136.752,438.933 			"/>
			<polygon fill="#2D718A" points="1174.814,457.964 1155.783,457.964 1155.783,419.901 1174.814,438.933 			"/>
		</g>
		<g>
			<polygon fill="#5E91A8" points="1318.867,369.151 1337.898,369.151 1337.898,407.214 1318.867,388.183 			"/>
			<polygon fill="#3E7C94" points="1356.93,369.151 1337.898,369.151 1337.898,407.214 1356.93,388.183 			"/>
		</g>
		<g>
			<polygon fill="#5E91A8" points="1318.867,457.964 1337.898,457.964 1337.898,419.901 1318.867,438.933 			"/>
			<polygon fill="#2D718A" points="1356.93,457.964 1337.898,457.964 1337.898,419.901 1356.93,438.933 			"/>
		</g>
		<g>
			<polygon fill="#5E91A8" points="1215.122,312.058 1215.122,293.026 1253.185,293.026 1234.153,312.058 			"/>
			<polygon fill="#2D718A" points="1215.122,273.995 1215.122,293.026 1253.185,293.026 1234.153,273.995 			"/>
		</g>
		<g>
			<polygon fill="#2D718A" points="1303.935,312.058 1303.935,293.026 1265.872,293.026 1284.903,312.058 			"/>
			<polygon fill="#3E7C94" points="1303.935,273.995 1303.935,293.026 1265.872,293.026 1284.903,273.995 			"/>
		</g>
	</g>
	<g>
		<g>
			<g>
				<rect x="1191.992" y="549.92" fill="#3E7C94" width="177.625" height="45.675"/>
				<rect x="1191.992" y="595.595" fill="#5E91A8" width="177.625" height="45.675"/>
			</g>
			<g>
				<rect x="1191.992" y="912.782" fill="#3E7C94" width="177.625" height="45.675"/>
				<rect x="1191.992" y="867.107" fill="#5E91A8" width="177.625" height="45.675"/>
			</g>
			<g>
				<g>
					<polygon fill="#3E7C94" points="1326.41,867.178 1326.41,641.2 1280.805,595.595 1280.805,912.782 					"/>
					<polygon fill="#2D718A" points="1280.805,595.595 1235.2,641.2 1235.2,867.178 1280.805,912.782 					"/>
				</g>
			</g>
			<rect x="1326.41" y="641.27" fill="#2D718A" width="30.52" height="225.908"/>
			<rect x="1204.68" y="641.27" fill="#3E7C94" width="30.52" height="225.908"/>
		</g>
		<g>
			<polygon fill="#5E91A8" points="1331.555,944.501 1344.242,944.501 1344.242,919.126 1331.555,931.813 			"/>
			<polygon fill="#2D718A" points="1356.93,944.501 1344.242,944.501 1344.242,919.126 1356.93,931.813 			"/>
		</g>
		<g>
			<polygon fill="#5E91A8" points="1289.263,944.501 1301.95,944.501 1301.95,919.126 1289.263,931.813 			"/>
			<polygon fill="#2D718A" points="1314.638,944.501 1301.95,944.501 1301.95,919.126 1314.638,931.813 			"/>
		</g>
		<g>
			<polygon fill="#5E91A8" points="1246.972,944.501 1259.659,944.501 1259.659,919.126 1246.972,931.813 			"/>
			<polygon fill="#2D718A" points="1272.347,944.501 1259.659,944.501 1259.659,919.126 1272.347,931.813 			"/>
		</g>
		<g>
			<polygon fill="#5E91A8" points="1204.68,944.501 1217.367,944.501 1217.367,919.126 1204.68,931.813 			"/>
			<polygon fill="#2D718A" points="1230.055,944.501 1217.367,944.501 1217.367,919.126 1230.055,931.813 			"/>
		</g>
		<g>
			<polygon fill="#3E7C94" points="1331.555,881.063 1344.242,881.063 1344.242,906.438 1331.555,893.751 			"/>
			<polygon fill="#2D718A" points="1356.93,881.063 1344.242,881.063 1344.242,906.438 1356.93,893.751 			"/>
		</g>
		<g>
			<polygon fill="#3E7C94" points="1204.68,881.063 1217.367,881.063 1217.367,906.438 1204.68,893.751 			"/>
			<polygon fill="#2D718A" points="1230.055,881.063 1217.367,881.063 1217.367,906.438 1230.055,893.751 			"/>
		</g>
		<g>
			<polygon fill="#5E91A8" points="1331.555,563.876 1344.242,563.876 1344.242,589.251 1331.555,576.563 			"/>
			<polygon fill="#2D718A" points="1356.93,563.876 1344.242,563.876 1344.242,589.251 1356.93,576.563 			"/>
		</g>
		<g>
			<polygon fill="#5E91A8" points="1312.523,641.27 1312.523,653.957 1287.148,653.957 1299.836,641.27 			"/>
			<polygon fill="#2D718A" points="1312.523,666.645 1312.523,653.957 1287.148,653.957 1299.836,666.645 			"/>
		</g>
		<g>
			<polygon fill="#5E91A8" points="1312.523,691.402 1312.523,704.09 1287.148,704.09 1299.836,691.402 			"/>
			<polygon fill="#2D718A" points="1312.523,716.777 1312.523,704.09 1287.148,704.09 1299.836,716.777 			"/>
		</g>
		<g>
			<polygon fill="#5E91A8" points="1312.523,741.536 1312.523,754.224 1287.148,754.224 1299.836,741.536 			"/>
			<polygon fill="#2D718A" points="1312.523,766.911 1312.523,754.224 1287.148,754.224 1299.836,766.911 			"/>
		</g>
		<g>
			<polygon fill="#5E91A8" points="1312.523,791.669 1312.523,804.356 1287.148,804.356 1299.836,791.669 			"/>
			<polygon fill="#2D718A" points="1312.523,817.044 1312.523,804.356 1287.148,804.356 1299.836,817.044 			"/>
		</g>
		<g>
			<polygon fill="#5E91A8" points="1312.523,841.803 1312.523,854.49 1287.148,854.49 1299.836,841.803 			"/>
			<polygon fill="#2D718A" points="1312.523,867.178 1312.523,854.49 1287.148,854.49 1299.836,867.178 			"/>
		</g>
		<g>
			<g>
				<polygon fill="#5E91A8" points="1249.086,641.27 1249.086,653.957 1274.461,653.957 1261.773,641.27 				"/>
				<polygon fill="#3E7C94" points="1249.086,666.645 1249.086,653.957 1274.461,653.957 1261.773,666.645 				"/>
			</g>
			<g>
				<polygon fill="#5E91A8" points="1249.086,691.402 1249.086,704.09 1274.461,704.09 1261.773,691.402 				"/>
				<polygon fill="#3E7C94" points="1249.086,716.777 1249.086,704.09 1274.461,704.09 1261.773,716.777 				"/>
			</g>
			<g>
				<polygon fill="#5E91A8" points="1249.086,741.536 1249.086,754.224 1274.461,754.224 1261.773,741.536 				"/>
				<polygon fill="#3E7C94" points="1249.086,766.911 1249.086,754.224 1274.461,754.224 1261.773,766.911 				"/>
			</g>
			<g>
				<polygon fill="#5E91A8" points="1249.086,791.669 1249.086,804.356 1274.461,804.356 1261.773,791.669 				"/>
				<polygon fill="#3E7C94" points="1249.086,817.044 1249.086,804.356 1274.461,804.356 1261.773,817.044 				"/>
			</g>
			<g>
				<polygon fill="#5E91A8" points="1249.086,841.803 1249.086,854.49 1274.461,854.49 1261.773,841.803 				"/>
				<polygon fill="#3E7C94" points="1249.086,867.178 1249.086,854.49 1274.461,854.49 1261.773,867.178 				"/>
			</g>
		</g>
		<g>
			<polygon fill="#5E91A8" points="1289.263,563.876 1301.95,563.876 1301.95,589.251 1289.263,576.563 			"/>
			<polygon fill="#2D718A" points="1314.638,563.876 1301.95,563.876 1301.95,589.251 1314.638,576.563 			"/>
		</g>
		<g>
			<polygon fill="#5E91A8" points="1246.972,563.876 1259.659,563.876 1259.659,589.251 1246.972,576.563 			"/>
			<polygon fill="#2D718A" points="1272.347,563.876 1259.659,563.876 1259.659,589.251 1272.347,576.563 			"/>
		</g>
		<g>
			<polygon fill="#5E91A8" points="1204.68,563.876 1217.367,563.876 1217.367,589.251 1204.68,576.563 			"/>
			<polygon fill="#2D718A" points="1230.055,563.876 1217.367,563.876 1217.367,589.251 1230.055,576.563 			"/>
		</g>
		<g>
			<polygon fill="#3E7C94" points="1331.555,627.313 1344.242,627.313 1344.242,601.938 1331.555,614.626 			"/>
			<polygon fill="#2D718A" points="1356.93,627.313 1344.242,627.313 1344.242,601.938 1356.93,614.626 			"/>
		</g>
		<g>
			<polygon fill="#3E7C94" points="1204.68,627.313 1217.367,627.313 1217.367,601.938 1204.68,614.626 			"/>
			<polygon fill="#2D718A" points="1230.055,627.313 1217.367,627.313 1217.367,601.938 1230.055,614.626 			"/>
		</g>
	</g>
</g>
</svg>
