<?xml version="1.0" encoding="utf-8"?>
<!-- Generator: Adobe Illustrator 15.0.0, SVG Export Plug-In . SVG Version: 6.00 Build 0)  -->
<!DOCTYPE svg PUBLIC "-//W3C//DTD SVG 1.1//EN" "http://www.w3.org/Graphics/SVG/1.1/DTD/svg11.dtd">
<svg version="1.1" id="Layer_1" xmlns="http://www.w3.org/2000/svg" xmlns:xlink="http://www.w3.org/1999/xlink" x="0px" y="0px"
	 width="595.28px" height="595.28px" viewBox="0 0 595.28 595.28" enable-background="new 0 0 595.28 595.28" xml:space="preserve">
<rect x="0.002" y="0.002" fill-rule="evenodd" clip-rule="evenodd" fill="#F9F9FA" width="595.275" height="595.275"/>
<path fill="#1F1A17" d="M132.776,269.474c0-0.076-0.026-0.144-0.043-0.214c-0.005-0.02,0.007-0.039,0.001-0.059
	c-0.003-0.011-0.014-0.016-0.018-0.026c-0.016-0.046-0.036-0.088-0.059-0.131c-0.02-0.037-0.043-0.066-0.068-0.1
	c-0.048-0.067-0.1-0.127-0.164-0.179c-0.027-0.022-0.053-0.037-0.083-0.056c-0.002-0.001-0.005-0.004-0.007-0.005
	c-0.021-0.014-0.031-0.039-0.054-0.05c-0.01-0.005-0.021-0.002-0.031-0.007c-0.123-0.06-0.256-0.101-0.402-0.101H99.459H35.496
	c-0.05,0-0.087,0.037-0.135,0.044c-0.097,0.015-0.197,0.012-0.288,0.058c-0.025,0.013-0.036,0.041-0.059,0.055
	c-0.061,0.038-0.1,0.088-0.15,0.139c-0.08,0.081-0.146,0.161-0.192,0.265c-0.014,0.031-0.048,0.048-0.059,0.081
	c-0.013,0.042,0.008,0.083,0,0.126c-0.01,0.056-0.045,0.103-0.045,0.16v46.144c0,0.058,0.035,0.104,0.045,0.16
	c0.007,0.043-0.014,0.084,0,0.126c0.011,0.033,0.045,0.05,0.059,0.081c0.046,0.104,0.112,0.184,0.192,0.265
	c0.05,0.051,0.089,0.102,0.15,0.14c0.023,0.014,0.034,0.042,0.059,0.055c0.134,0.068,0.279,0.102,0.423,0.102h12.66v8.607
	c0,0.498,0.396,0.91,0.895,0.928l18.394,0.654c0.011,0,0.021,0,0.033,0c0.011,0,0.021,0,0.033,0l18.393-0.654
	c0.499-0.018,0.895-0.43,0.895-0.928v-8.607h12.66h0.001h32.388c0.145,0,0.277-0.039,0.399-0.099
	c0.011-0.005,0.023-0.003,0.034-0.009c0.023-0.012,0.033-0.036,0.054-0.05c0.002-0.002,0.005-0.004,0.007-0.005
	c0.03-0.02,0.056-0.034,0.083-0.057c0.064-0.052,0.116-0.111,0.164-0.179c0.024-0.034,0.048-0.063,0.068-0.101
	c0.023-0.043,0.043-0.084,0.059-0.13c0.003-0.011,0.015-0.016,0.018-0.026c0.006-0.02-0.006-0.039-0.001-0.06
	c0.017-0.07,0.043-0.138,0.043-0.214V269.474z M36.423,313.805v-42.518l10.235,7.384l19.233,13.876l-20.465,14.764L36.423,313.805z
	 M98.531,271.287v42.518l-29.468-21.258L98.531,271.287z M100.387,271.231l14.339,9.787v23.059l-14.339,9.785V271.231z
	 M122.015,307.783l-5.432-3.707v-23.059l4.943-3.374l9.395-6.412v42.629L122.015,307.783z M128.842,270.402l-13.188,9.002
	l-13.188-9.002H128.842z M96.586,270.402l-12.954,9.346l-16.155,11.655l-16.812-12.129l-12.298-8.873H96.586z M50.012,316.108
	l16.538-11.363v20.1l-16.538-0.588V316.108z M84.942,324.257l-16.536,0.588v-20.1l16.536,11.363V324.257z M86.157,314.689
	l-18.154-12.473c-0.016-0.011-0.037-0.008-0.053-0.018c-0.017-0.01-0.023-0.029-0.041-0.039c-0.063-0.032-0.133-0.025-0.2-0.043
	c-0.069-0.019-0.131-0.054-0.202-0.056c-0.02-0.001-0.038-0.002-0.058-0.001c-0.078,0.002-0.146,0.039-0.221,0.061
	c-0.061,0.018-0.126,0.01-0.184,0.039c-0.017,0.01-0.024,0.028-0.041,0.038c-0.017,0.01-0.037,0.008-0.053,0.019l-18.155,12.473
	H38.368l9.97-7.192l19.14-13.807l18.196,13.126l10.912,7.873H86.157z M115.653,305.689l13.188,9h-26.375L115.653,305.689z"/>
<path fill="#1F1A17" d="M288.662,296.189c0-0.113-0.021-0.222-0.058-0.322L288.145,283c-0.018-0.499-0.427-0.895-0.927-0.895h-5.891
	v-8.99c0-0.076-0.026-0.144-0.043-0.214c-0.004-0.02,0.008-0.04,0.001-0.06c-0.003-0.01-0.015-0.015-0.019-0.026
	c-0.016-0.046-0.036-0.088-0.059-0.131c-0.02-0.037-0.043-0.066-0.067-0.1c-0.048-0.067-0.1-0.127-0.165-0.18
	c-0.027-0.022-0.053-0.037-0.082-0.056c-0.002-0.001-0.005-0.003-0.008-0.005c-0.021-0.014-0.031-0.039-0.053-0.051
	c-0.01-0.005-0.021-0.002-0.031-0.007c-0.123-0.06-0.256-0.101-0.402-0.101H248.01h-17.898v-5.888c0-0.499-0.396-0.91-0.895-0.928
	l-13.157-0.471c-0.011,0.001-0.022,0.006-0.033,0.007c-0.011-0.001-0.022-0.006-0.034-0.007l-13.155,0.471
	c-0.499,0.018-0.895,0.43-0.895,0.928v5.888h-17.898c-0.05,0-0.088,0.037-0.136,0.044c-0.097,0.015-0.196,0.012-0.287,0.058
	c-0.025,0.013-0.036,0.04-0.059,0.055c-0.061,0.038-0.099,0.089-0.15,0.139c-0.08,0.081-0.146,0.161-0.192,0.265
	c-0.014,0.031-0.048,0.048-0.059,0.081c-0.014,0.042,0.008,0.083,0,0.126c-0.01,0.055-0.045,0.103-0.045,0.16v46.146
	c0,0.058,0.035,0.105,0.045,0.16c0.008,0.043-0.014,0.084,0,0.127c0.011,0.033,0.044,0.049,0.059,0.08
	c0.046,0.104,0.112,0.185,0.192,0.266c0.051,0.05,0.089,0.101,0.15,0.139c0.023,0.015,0.034,0.042,0.059,0.055
	c0.134,0.069,0.279,0.103,0.423,0.103h12.66v8.604c0,0.499,0.396,0.91,0.895,0.929l18.394,0.656c0.012,0,0.022,0,0.033,0
	c0.012,0,0.022,0,0.033,0l18.393-0.656c0.499-0.019,0.895-0.43,0.895-0.929v-8.604h12.661h0.001h32.388c0.145,0,0.277-0.04,0.4-0.1
	c0.01-0.005,0.023-0.002,0.034-0.008c0.022-0.013,0.032-0.037,0.054-0.051c0.002-0.002,0.005-0.004,0.007-0.005
	c0.029-0.02,0.055-0.033,0.082-0.056c0.064-0.052,0.116-0.112,0.164-0.179c0.025-0.034,0.048-0.064,0.068-0.101
	c0.023-0.043,0.043-0.085,0.059-0.131c0.004-0.011,0.015-0.016,0.019-0.026c0.006-0.02-0.006-0.039-0.001-0.059
	c0.018-0.071,0.043-0.139,0.043-0.215v-8.987h5.891c0.5,0,0.909-0.396,0.927-0.895l0.46-12.914
	C288.634,296.377,288.662,296.287,288.662,296.189z M286.726,295.261h-13.603l7.764-11.299h5.436L286.726,295.261z M234.709,318.334
	l-18.155-12.473c-0.016-0.011-0.036-0.008-0.053-0.018c-0.016-0.01-0.023-0.029-0.041-0.038c-0.063-0.033-0.133-0.026-0.2-0.044
	c-0.068-0.018-0.129-0.053-0.199-0.055c-0.021-0.001-0.04-0.002-0.062-0.001c-0.077,0.002-0.144,0.039-0.218,0.06
	c-0.062,0.018-0.127,0.01-0.186,0.04c-0.017,0.009-0.024,0.028-0.041,0.038c-0.016,0.01-0.037,0.007-0.053,0.018l-18.156,12.473
	h-10.43l29.111-21.001l29.109,21.001H234.709z M202.585,274.044l12.917,8.875c0.015,0.011,0.035,0.006,0.051,0.016
	c0.017,0.011,0.024,0.031,0.043,0.041c0.129,0.068,0.271,0.1,0.413,0.103c0.014,0,0.025,0,0.039,0
	c0.142-0.003,0.283-0.034,0.413-0.103c0.019-0.009,0.026-0.03,0.043-0.041c0.016-0.01,0.035-0.005,0.051-0.016l12.918-8.875h15.667
	l-29.109,21.001l-29.111-21.001H202.585z M217.614,296.189l29.468-21.26v42.52L217.614,296.189z M214.443,296.189l-29.469,21.26
	v-42.52L214.443,296.189z M248.938,274.873l14.339,9.787v23.059l-14.339,9.787V274.873z M270.076,311.092l-4.943-3.374V284.66
	l4.943-3.374l9.395-6.413v7.872l-8.875,12.92c-0.011,0.015-0.008,0.035-0.018,0.051c-0.01,0.017-0.03,0.023-0.039,0.041
	c-0.032,0.061-0.025,0.129-0.042,0.194c-0.02,0.073-0.055,0.139-0.057,0.214c0,0.017,0,0.032,0,0.049
	c0.002,0.075,0.037,0.141,0.057,0.213c0.018,0.065,0.01,0.134,0.042,0.194c0.009,0.017,0.028,0.024,0.039,0.041
	c0.009,0.016,0.007,0.036,0.018,0.051l8.875,12.923v7.869L270.076,311.092z M277.393,274.044l-13.188,9.002l-13.19-9.002H277.393z
	 M228.256,272.627l-11.3,7.763v-13.6l11.3,0.404V272.627z M203.801,267.194l11.299-0.404v13.6l-11.299-7.763V267.194z
	 M198.563,319.751l16.538-11.362v20.102l-16.538-0.591V319.751z M216.957,328.49v-20.1l13.586,9.333l2.951,2.027v8.148
	L216.957,328.49z M264.204,309.332l13.188,9.002h-26.377L264.204,309.332z M286.323,308.418h-5.436l-7.764-11.301h13.603
	L286.323,308.418z"/>
<path fill="#1F1A17" d="M398.416,242.277h-6.939h-67.046c-0.074,0-0.14,0.026-0.209,0.042c-0.021,0.005-0.043-0.008-0.064-0.001
	c-0.012,0.004-0.017,0.016-0.028,0.021c-0.046,0.016-0.088,0.037-0.13,0.06c-0.035,0.019-0.063,0.041-0.096,0.064
	c-0.068,0.048-0.129,0.101-0.182,0.165c-0.022,0.027-0.037,0.054-0.057,0.083c-0.002,0.004-0.005,0.008-0.008,0.012
	c-0.013,0.02-0.036,0.029-0.047,0.05c-0.005,0.009-0.002,0.021-0.007,0.03c-0.061,0.123-0.101,0.256-0.101,0.402v37.964v17.898
	h-5.892c-0.5,0-0.908,0.396-0.927,0.895l-0.469,13.157c-0.001,0.012,0.005,0.022,0.005,0.033c0,0.012-0.006,0.022-0.005,0.034
	l0.469,13.154c0.019,0.499,0.427,0.896,0.927,0.896h5.892v17.897c0,0.051,0.037,0.09,0.045,0.14
	c0.015,0.095,0.012,0.193,0.057,0.282c0.013,0.025,0.04,0.036,0.055,0.059c0.037,0.061,0.088,0.1,0.139,0.15
	c0.082,0.082,0.165,0.149,0.271,0.195c0.03,0.014,0.045,0.046,0.077,0.057c0.094,0.03,0.19,0.045,0.285,0.045h10.608v6.012
	c0,0.512,0.416,0.928,0.928,0.928h23.073c0.513,0,0.929-0.416,0.929-0.928v-6.012h10.607c0.015,0,0.03,0,0.046,0
	c0.063,0,0.12-0.023,0.181-0.036c0.019-0.005,0.039-0.003,0.058-0.009c0.002-0.001,0.003-0.003,0.005-0.004
	c0.392-0.109,0.685-0.453,0.685-0.879c0-0.07-0.031-0.13-0.046-0.195v-12.466h8.605c0.499,0,0.908-0.396,0.927-0.896l0.646-18.15
	c0.029-0.089,0.057-0.179,0.057-0.276c0-0.112-0.021-0.223-0.058-0.322l-0.646-18.103c-0.019-0.499-0.428-0.895-0.927-0.895h-8.605
	v-11.733h19.973h6.939c0.513,0,0.928-0.417,0.928-0.928v-37.964C399.344,242.694,398.929,242.277,398.416,242.277z M369.647,294.471
	l-12.473,18.156c-0.01,0.016-0.008,0.035-0.018,0.051c-0.01,0.017-0.029,0.024-0.038,0.041c-0.032,0.061-0.024,0.13-0.042,0.194
	c-0.021,0.073-0.056,0.139-0.058,0.214c0,0.017,0,0.031,0,0.049c0.002,0.074,0.037,0.141,0.058,0.214
	c0.018,0.064,0.01,0.133,0.042,0.193c0.009,0.018,0.028,0.024,0.038,0.041s0.008,0.036,0.018,0.052l12.473,18.158v10.428
	l-18.223-25.26l-2.778-3.851l3.532-4.896l17.469-24.214V294.471z M359.04,344.207h-23.073h-9.723l21.259-29.47l21.259,29.47H359.04z
	 M378.031,261.26h-40.153l-11.69-17.126h63.532L378.031,261.26z M334.611,259.767l1.652,2.421l-10.904,15.978v-31.954
	L334.611,259.767z M347.503,311.566l-11.146-15.449l-10.113-14.019h42.518l-10.253,14.212L347.503,311.566z M325.359,326.598
	l8.874-12.92c0.011-0.016,0.009-0.035,0.018-0.051c0.011-0.017,0.03-0.023,0.039-0.041c0.032-0.061,0.024-0.129,0.042-0.194
	c0.021-0.072,0.055-0.139,0.058-0.214c0-0.017,0-0.031,0-0.049c-0.003-0.074-0.037-0.141-0.058-0.213
	c-0.018-0.064-0.01-0.134-0.042-0.194c-0.009-0.018-0.028-0.024-0.039-0.041c-0.009-0.016-0.007-0.036-0.018-0.051l-8.874-12.923
	v-15.665l17.412,24.137l3.587,4.973l-3.646,5.056l-17.353,24.056V326.598z M370.576,280.242h-44.389l11.69-17.125h40.153
	l11.688,17.125H370.576z M379.645,262.188l1.689-2.475l9.215-13.501v31.954L379.645,262.188z M318.507,300.924h5.436l7.764,11.302
	h-13.603L318.507,300.924z M318.104,314.082h13.603l-7.764,11.299h-5.436L318.104,314.082z M358.112,351.146h-21.217v-5.084h21.217
	V351.146z M379.214,330.617h-8.148l-11.362-16.538h20.101L379.214,330.617z M379.804,312.223h-20.101l11.362-16.535h8.148
	L379.804,312.223z M397.488,280.242h-5.083v-36.108h5.083V280.242z"/>
<path fill="#1F1A17" d="M560.713,262.382c0-0.076-0.026-0.144-0.043-0.214c-0.005-0.02,0.007-0.04,0.001-0.06
	c-0.004-0.01-0.015-0.015-0.019-0.025c-0.016-0.046-0.036-0.088-0.059-0.131c-0.021-0.037-0.044-0.066-0.068-0.1
	c-0.048-0.067-0.1-0.127-0.164-0.18c-0.027-0.022-0.053-0.037-0.082-0.055c-0.003-0.002-0.005-0.004-0.008-0.005
	c-0.021-0.013-0.031-0.039-0.054-0.05c-0.01-0.005-0.021-0.002-0.031-0.007c-0.123-0.061-0.256-0.101-0.402-0.101H521.82h-0.001
	h-46.073H437.78c-0.187,0-0.35,0.068-0.495,0.163c-0.028,0.019-0.055,0.033-0.081,0.055c-0.134,0.108-0.234,0.246-0.292,0.411
	c-0.003,0.01-0.015,0.015-0.018,0.025c-0.007,0.02,0.006,0.04,0.001,0.06c-0.018,0.071-0.043,0.138-0.043,0.214v67.045
	c0,0.076,0.025,0.144,0.043,0.215c0.005,0.02-0.008,0.039-0.001,0.06c0.003,0.01,0.015,0.015,0.018,0.025
	c0.058,0.165,0.158,0.302,0.292,0.41c0.026,0.022,0.053,0.036,0.081,0.056c0.146,0.094,0.309,0.163,0.495,0.163h6.518v2.541
	c0,0.512,0.415,0.929,0.928,0.929h23.073c0.513,0,0.929-0.417,0.929-0.929v-2.541h6.519c0.145,0,0.277-0.04,0.399-0.1
	c0.011-0.005,0.023-0.003,0.034-0.008c0.022-0.012,0.032-0.037,0.053-0.051c0.003-0.002,0.006-0.004,0.008-0.005
	c0.029-0.02,0.056-0.033,0.082-0.056c0.064-0.052,0.116-0.112,0.164-0.179c0.024-0.034,0.049-0.064,0.068-0.101
	c0.022-0.043,0.043-0.085,0.059-0.131c0.004-0.011,0.015-0.016,0.019-0.025c0.006-0.021-0.006-0.04-0.001-0.06
	c0.017-0.071,0.043-0.139,0.043-0.215v-28.15h6.626v6.358c0,0.499,0.396,0.91,0.896,0.929l14.555,0.519c0.012,0,0.021,0,0.033,0
	s0.021,0,0.033,0l14.555-0.519c0.499-0.019,0.895-0.43,0.895-0.929v-6.358h6.625v28.15c0,0.078,0.026,0.148,0.045,0.221
	c0.004,0.018-0.007,0.035-0.001,0.054c0.003,0.009,0.013,0.014,0.017,0.022c0.057,0.167,0.159,0.306,0.294,0.415
	c0.025,0.021,0.05,0.034,0.078,0.053c0.146,0.095,0.31,0.164,0.496,0.164h0.001h6.517v2.541c0,0.512,0.415,0.929,0.928,0.929h23.074
	c0.513,0,0.929-0.417,0.929-0.929v-2.541h6.517c0.146,0,0.278-0.04,0.4-0.1c0.011-0.005,0.022-0.003,0.033-0.008
	c0.022-0.012,0.032-0.037,0.054-0.051c0.003-0.002,0.005-0.004,0.008-0.005c0.029-0.02,0.055-0.033,0.082-0.056
	c0.064-0.052,0.116-0.112,0.164-0.179c0.024-0.034,0.048-0.064,0.068-0.101c0.022-0.043,0.042-0.085,0.059-0.131
	c0.004-0.011,0.015-0.016,0.019-0.025c0.006-0.021-0.006-0.04-0.001-0.06c0.017-0.071,0.043-0.139,0.043-0.215V262.382z
	 M513.863,299.329l-14.555-10c-0.016-0.011-0.036-0.008-0.053-0.018c-0.017-0.01-0.023-0.029-0.041-0.039
	c-0.062-0.033-0.132-0.025-0.198-0.042c-0.068-0.018-0.13-0.053-0.201-0.056c-0.021-0.001-0.04-0.002-0.062-0.001
	c-0.076,0.003-0.145,0.04-0.219,0.061c-0.062,0.018-0.126,0.009-0.185,0.039c-0.017,0.009-0.023,0.028-0.04,0.038
	c-0.017,0.01-0.037,0.007-0.053,0.019l-14.555,10c-0.041,0.028-0.08,0.059-0.114,0.092h-6.088l11.691-17.128h19.181l11.692,17.128
	h-6.088C513.942,299.388,513.904,299.357,513.863,299.329z M438.708,327.671V264.14l17.126,11.688v40.154L438.708,327.671z
	 M463.896,320.218l-6.206-4.236v-40.15l13.618-9.297l3.509-2.395v36.207v0.002v27.322L463.896,320.218z M520.891,265.39v31.95
	l-10.903-15.975L520.891,265.39z M508.373,280.436h-19.181l-11.689-17.125h42.561L508.373,280.436z M485.926,278.943l1.653,2.421
	l-10.905,15.978v-31.954L485.926,278.943z M522.747,300.355c0-0.002,0.001-0.004,0.001-0.007v-0.002V264.14l17.126,11.688v40.154
	l-17.127,11.689V300.355z M547.773,320.106l-6.043-4.125v-40.15l13.398-9.147l3.728-2.544v63.531L547.773,320.106z M556.778,263.311
	l-8.794,6.003l-7.182,4.902l-15.979-10.905H556.778z M472.739,263.311l-9.048,6.176l-6.929,4.729l-15.979-10.905H472.739z
	 M456.761,317.596l15.979,10.904h-4.44h-23.073h-4.441L456.761,317.596z M467.371,331.97h-21.217v-1.613h21.217V331.97z
	 M485.156,300.582l0.764-0.525l11.935-8.199v15.336l-12.698-0.452V300.582z M499.711,307.193v-15.336l11.936,8.199l0.764,0.525
	v6.159L499.711,307.193z M540.802,317.596l15.977,10.904h-4.439h-23.074h-4.44L540.802,317.596z M551.411,331.97h-21.219v-1.613
	h21.219V331.97z"/>
<g>
	<g>
		<polygon fill-rule="evenodd" clip-rule="evenodd" fill="#ACA9A9" points="67.477,102.234 51.485,113.77 35.495,125.307 
			35.495,102.234 35.495,79.162 51.485,90.699 		"/>
	</g>
	<g>
		<polygon fill-rule="evenodd" clip-rule="evenodd" fill="#C2C2C2" points="67.477,102.234 83.469,113.77 99.459,125.307 
			99.459,102.234 99.459,79.162 83.469,90.699 		"/>
	</g>
	<g>
		<polygon fill-rule="evenodd" clip-rule="evenodd" fill="#DFDFDE" points="67.477,102.234 51.487,113.771 35.495,125.307 
			49.084,125.307 67.477,112.671 85.87,125.307 99.459,125.307 83.467,113.771 		"/>
	</g>
	<g>
		<polygon fill-rule="evenodd" clip-rule="evenodd" fill="#C2C2C2" points="67.477,102.234 51.487,90.697 35.495,79.162 
			67.477,79.162 99.459,79.162 83.467,90.697 		"/>
	</g>
	<g>
		<path fill-rule="evenodd" clip-rule="evenodd" fill="#ACA9A9" d="M131.848,58.484c0,18.134,0,48.689,0,66.823H99.459
			c0-13.776,0-53.046,0-66.823H131.848z"/>
	</g>
	<g>
		<polygon fill-rule="evenodd" clip-rule="evenodd" fill="#C2C2C2" points="115.654,69.538 107.556,64.012 99.459,58.484 
			115.654,58.484 131.848,58.484 123.751,64.012 		"/>
	</g>
	<g>
		<path fill-rule="evenodd" clip-rule="evenodd" fill="#C2C2C2" d="M131.848,58.484c0,18.134,0,48.689,0,66.823l-8.097-5.526
			l-8.098-5.527h0V69.538h0l8.098-5.527L131.848,58.484z"/>
	</g>
	<g>
		<polygon fill-rule="evenodd" clip-rule="evenodd" fill="#DFDFDE" points="115.654,114.254 107.556,119.781 99.459,125.307 
			115.654,125.307 131.848,125.307 123.751,119.781 		"/>
	</g>
	<g>
		<polygon fill-rule="evenodd" clip-rule="evenodd" fill="#C2C2C2" points="85.871,125.308 85.871,134.84 67.477,135.496 
			67.477,112.671 		"/>
	</g>
	<g>
		<polygon fill-rule="evenodd" clip-rule="evenodd" fill="#ACA9A9" points="49.084,125.308 49.084,134.84 67.477,135.496 
			67.477,112.671 		"/>
	</g>
</g>
<g>
	<g>
		<polygon fill-rule="evenodd" clip-rule="evenodd" fill="#AB6C29" points="216.028,95.54 200.037,107.075 184.047,118.612 
			184.047,95.54 184.047,72.467 200.037,84.004 		"/>
	</g>
	<g>
		<polygon fill-rule="evenodd" clip-rule="evenodd" fill="#E28C25" points="216.028,95.54 232.02,107.075 248.01,118.612 
			248.01,95.54 248.01,72.467 232.02,84.004 		"/>
	</g>
	<g>
		<polygon fill-rule="evenodd" clip-rule="evenodd" fill="#CB7D29" points="216.028,95.54 200.039,107.077 184.047,118.612 
			197.636,118.612 216.028,105.976 234.421,118.612 248.01,118.612 232.019,107.077 		"/>
	</g>
	<g>
		<polygon fill-rule="evenodd" clip-rule="evenodd" fill="#BF7429" points="216.028,95.54 200.039,84.002 184.047,72.467 
			202.872,72.467 216.027,81.506 229.184,72.467 248.01,72.467 232.019,84.002 		"/>
	</g>
	<g>
		<path fill-rule="evenodd" clip-rule="evenodd" fill="#AB6C29" d="M280.399,72.467v9.917L271.36,95.54l9.039,13.157v9.916H248.01
			c0-13.776,0-32.369,0-46.146H280.399z"/>
	</g>
	<g>
		<polygon fill-rule="evenodd" clip-rule="evenodd" fill="#BF7429" points="264.205,83.521 256.106,77.994 248.01,72.467 
			264.205,72.467 280.399,72.467 272.303,77.994 		"/>
	</g>
	<g>
		<polygon fill-rule="evenodd" clip-rule="evenodd" fill="#E28C25" points="280.399,72.467 280.399,82.384 271.36,95.54 
			280.399,108.696 280.399,118.612 272.302,113.085 264.205,107.56 264.205,83.52 264.205,83.521 272.303,77.994 		"/>
	</g>
	<g>
		<polygon fill-rule="evenodd" clip-rule="evenodd" fill="#CB7D29" points="264.205,107.56 256.108,113.085 248.012,118.612 
			264.205,118.612 280.399,118.612 272.302,113.085 		"/>
	</g>
	<g>
		<polygon fill-rule="evenodd" clip-rule="evenodd" fill="#E28C25" points="234.422,118.613 234.422,128.146 216.028,128.802 
			216.028,105.976 		"/>
	</g>
	<g>
		<polygon fill-rule="evenodd" clip-rule="evenodd" fill="#AB6C29" points="197.635,118.613 197.635,128.146 216.028,128.802 
			216.028,105.976 		"/>
	</g>
	<g>
		<polygon fill-rule="evenodd" clip-rule="evenodd" fill="#E28C25" points="229.184,72.467 229.184,65.648 216.027,65.18 
			216.027,81.506 		"/>
	</g>
	<g>
		<polygon fill-rule="evenodd" clip-rule="evenodd" fill="#AB6C29" points="202.872,72.467 202.872,65.648 216.027,65.18 
			216.027,81.506 		"/>
	</g>
	<g>
		<polygon fill-rule="evenodd" clip-rule="evenodd" fill="#E28C25" points="280.399,108.696 287.218,108.696 287.687,95.54 
			271.36,95.54 		"/>
	</g>
	<g>
		<polygon fill-rule="evenodd" clip-rule="evenodd" fill="#CB7D29" points="280.399,82.384 287.218,82.384 287.687,95.54 
			271.36,95.54 		"/>
	</g>
</g>
<g>
	<g>
		<path fill-rule="evenodd" clip-rule="evenodd" fill="#8593A5" d="M475.745,61.732c19.584,0,26.658,0,46.074,0v37.966h-8.481
			v-0.255l-14.556-10l-14.555,10v0.255h-8.482V61.732z"/>
	</g>
	<g>
		<polygon fill-rule="evenodd" clip-rule="evenodd" fill="#768596" points="488.702,80.715 482.224,90.207 475.745,99.698 
			475.745,80.715 475.745,61.732 482.224,71.223 		"/>
	</g>
	<g>
		<path fill-rule="evenodd" clip-rule="evenodd" fill="#697887" d="M475.745,61.732c21.6,0,24.476,0,46.074,0l-12.955,18.982
			h-20.163h0.002L475.745,61.732z"/>
	</g>
	<g>
		<polygon fill-rule="evenodd" clip-rule="evenodd" fill="#94A3B4" points="508.863,80.715 515.341,90.207 521.819,99.698 
			521.819,80.715 521.819,61.732 515.341,71.223 		"/>
	</g>
	<g>
		<path fill-rule="evenodd" clip-rule="evenodd" fill="#768596" d="M475.745,61.732c0,19.584,0,47.63,0,67.046h-37.966
			c0-16.148,0-50.898,0-67.046H475.745z"/>
	</g>
	<g>
		<polygon fill-rule="evenodd" clip-rule="evenodd" fill="#697887" points="456.763,74.689 447.271,68.211 437.78,61.732 
			456.763,61.732 475.745,61.732 466.255,68.211 		"/>
	</g>
	<g>
		<path fill-rule="evenodd" clip-rule="evenodd" fill="#94A3B4" d="M475.745,61.732c0,21.599,0,45.448,0,67.046l-18.982-12.955
			V74.688v0.002L475.745,61.732z"/>
	</g>
	<g>
		<polygon fill-rule="evenodd" clip-rule="evenodd" fill="#8593A5" points="456.763,115.823 447.271,122.301 437.78,128.779 
			456.763,128.779 475.745,128.779 466.255,122.301 		"/>
	</g>
	<g>
		<path fill-rule="evenodd" clip-rule="evenodd" fill="#768596" d="M559.785,61.732c0,19.584,0,47.63,0,67.046h-37.966
			c0-16.148,0-50.898,0-67.046H559.785z"/>
	</g>
	<g>
		<polygon fill-rule="evenodd" clip-rule="evenodd" fill="#697887" points="540.802,74.689 531.311,68.211 521.819,61.732 
			540.802,61.732 559.785,61.732 550.295,68.211 		"/>
	</g>
	<g>
		<path fill-rule="evenodd" clip-rule="evenodd" fill="#94A3B4" d="M559.785,61.732c0,21.599,0,45.448,0,67.046l-18.983-12.955
			V74.688v0.002L559.785,61.732z"/>
	</g>
	<g>
		<polygon fill-rule="evenodd" clip-rule="evenodd" fill="#8593A5" points="540.802,115.823 531.311,122.301 521.819,128.779 
			540.802,128.779 559.785,128.779 550.295,122.301 		"/>
	</g>
	<g>
		<polygon fill-rule="evenodd" clip-rule="evenodd" fill="#94A3B4" points="513.338,99.443 513.338,106.986 498.782,107.505 
			498.782,89.443 		"/>
	</g>
	<g>
		<polygon fill-rule="evenodd" clip-rule="evenodd" fill="#768596" points="484.228,99.443 484.228,106.986 498.782,107.505 
			498.782,89.443 		"/>
	</g>
	<g>
		<rect x="445.226" y="128.779" fill-rule="evenodd" clip-rule="evenodd" fill="#768596" width="23.073" height="3.47"/>
	</g>
	<g>
		<rect x="529.266" y="128.779" fill-rule="evenodd" clip-rule="evenodd" fill="#768596" width="23.073" height="3.47"/>
	</g>
</g>
<g>
	<g>
		<polygon fill-rule="evenodd" clip-rule="evenodd" fill="#DA764F" points="347.503,112.504 359.039,128.496 370.576,144.485 
			347.503,144.485 324.431,144.485 335.968,128.496 		"/>
	</g>
	<g>
		<polygon fill-rule="evenodd" clip-rule="evenodd" fill="#C36745" points="347.503,112.504 359.039,96.512 370.576,80.522 
			347.503,80.522 324.431,80.522 335.968,96.512 		"/>
	</g>
	<g>
		<polygon fill-rule="evenodd" clip-rule="evenodd" fill="#D2714E" points="347.503,112.504 359.04,128.494 370.576,144.485 
			370.576,130.896 357.939,112.504 370.576,94.111 370.576,80.522 359.04,96.514 		"/>
	</g>
	<g>
		<polygon fill-rule="evenodd" clip-rule="evenodd" fill="#B65F40" points="347.503,112.504 335.966,128.494 324.431,144.485 
			324.431,125.66 333.47,112.505 324.431,99.348 324.431,80.522 335.966,96.514 		"/>
	</g>
	<g>
		<path fill-rule="evenodd" clip-rule="evenodd" fill="#DA764F" d="M324.431,42.556c19.583,0,47.63,0,67.046,0v37.966
			c-16.147,0-50.897,0-67.046,0V42.556z"/>
	</g>
	<g>
		<polygon fill-rule="evenodd" clip-rule="evenodd" fill="#B65F40" points="337.388,61.539 330.909,71.03 324.431,80.521 
			324.431,61.539 324.431,42.556 330.909,52.046 		"/>
	</g>
	<g>
		<path fill-rule="evenodd" clip-rule="evenodd" fill="#C36745" d="M324.431,42.556c21.599,0,45.447,0,67.046,0l-12.955,18.983
			h-41.136h0.002L324.431,42.556z"/>
	</g>
	<g>
		<polygon fill-rule="evenodd" clip-rule="evenodd" fill="#D2714E" points="378.521,61.539 384.998,71.03 391.477,80.521 
			391.477,61.539 391.477,42.556 384.998,52.046 		"/>
	</g>
	<g>
		<polygon fill-rule="evenodd" clip-rule="evenodd" fill="#C36745" points="370.576,94.11 380.109,94.11 380.765,112.504 
			357.939,112.504 		"/>
	</g>
	<g>
		<polygon fill-rule="evenodd" clip-rule="evenodd" fill="#DA764F" points="370.576,130.897 380.109,130.897 380.765,112.504 
			357.939,112.504 		"/>
	</g>
	<g>
		<polygon fill-rule="evenodd" clip-rule="evenodd" fill="#C36745" points="324.431,99.348 317.612,99.348 317.143,112.505 
			333.47,112.505 		"/>
	</g>
	<g>
		<polygon fill-rule="evenodd" clip-rule="evenodd" fill="#DA764F" points="324.431,125.66 317.612,125.66 317.143,112.505 
			333.47,112.505 		"/>
	</g>
	<g>
		<rect x="391.477" y="42.556" fill-rule="evenodd" clip-rule="evenodd" fill="#C36745" width="6.939" height="37.966"/>
	</g>
	<g>
		<rect x="335.966" y="144.485" fill-rule="evenodd" clip-rule="evenodd" fill="#C36745" width="23.073" height="6.939"/>
	</g>
</g>
<g>
	<g>
		<polygon fill-rule="evenodd" clip-rule="evenodd" fill="#ACA9A9" points="67.477,503.535 51.486,515.07 35.496,526.607 
			35.496,503.535 35.496,480.462 51.486,491.999 		"/>
	</g>
	<g>
		<polygon fill-rule="evenodd" clip-rule="evenodd" fill="#C2C2C2" points="67.477,503.535 83.469,515.07 99.459,526.607 
			99.459,503.535 99.459,480.462 83.469,491.999 		"/>
	</g>
	<g>
		<polygon fill-rule="evenodd" clip-rule="evenodd" fill="#DFDFDE" points="67.477,503.535 51.487,515.072 35.496,526.607 
			49.084,526.607 67.477,513.971 85.87,526.607 99.459,526.607 83.467,515.072 		"/>
	</g>
	<g>
		<polygon fill-rule="evenodd" clip-rule="evenodd" fill="#C2C2C2" points="67.477,503.535 51.487,491.998 35.496,480.462 
			67.477,480.462 99.459,480.462 83.467,491.998 		"/>
	</g>
	<g>
		<path fill-rule="evenodd" clip-rule="evenodd" fill="#ACA9A9" d="M131.848,459.785c0,18.134,0,48.688,0,66.822H99.459
			c0-13.776,0-53.046,0-66.822H131.848z"/>
	</g>
	<g>
		<polygon fill-rule="evenodd" clip-rule="evenodd" fill="#C2C2C2" points="115.654,470.838 107.556,465.313 99.459,459.785 
			115.654,459.785 131.848,459.785 123.752,465.313 		"/>
	</g>
	<g>
		<path fill-rule="evenodd" clip-rule="evenodd" fill="#C2C2C2" d="M131.848,459.785c0,18.134,0,48.688,0,66.822l-8.096-5.526
			l-8.098-5.526h0v-44.717h0l8.098-5.526L131.848,459.785z"/>
	</g>
	<g>
		<polygon fill-rule="evenodd" clip-rule="evenodd" fill="#DFDFDE" points="115.654,515.555 107.556,521.081 99.459,526.607 
			115.654,526.607 131.848,526.607 123.752,521.081 		"/>
	</g>
	<g>
		<polygon fill-rule="evenodd" clip-rule="evenodd" fill="#C2C2C2" points="85.871,526.608 85.871,536.141 67.477,536.797 
			67.477,513.971 		"/>
	</g>
	<g>
		<polygon fill-rule="evenodd" clip-rule="evenodd" fill="#ACA9A9" points="49.084,526.608 49.084,536.141 67.477,536.797 
			67.477,513.971 		"/>
	</g>
	<path fill="#1F1A17" d="M132.776,459.786c0-0.093-0.016-0.182-0.042-0.267c0-0.003,0-0.005-0.001-0.008
		c-0.003-0.012-0.012-0.021-0.017-0.033c-0.001-0.005-0.004-0.01-0.006-0.015c-0.01-0.026-0.021-0.051-0.033-0.076
		c-0.019-0.04-0.038-0.079-0.063-0.115c-0.017-0.026-0.038-0.048-0.058-0.072c-0.012-0.015-0.023-0.03-0.036-0.045
		c-0.009-0.01-0.015-0.021-0.025-0.03c-0.02-0.02-0.043-0.034-0.064-0.052c-0.027-0.022-0.056-0.042-0.085-0.061
		c-0.023-0.015-0.042-0.035-0.066-0.048c-0.015-0.008-0.031-0.01-0.046-0.018c-0.019-0.008-0.037-0.016-0.057-0.023
		c-0.026-0.01-0.051-0.018-0.078-0.025c-0.063-0.018-0.127-0.027-0.192-0.031c-0.021-0.001-0.039-0.01-0.06-0.01H99.459
		c-0.116,0-0.226,0.027-0.33,0.066c-0.034,0.014-0.063,0.033-0.095,0.05c-0.066,0.035-0.127,0.074-0.183,0.124
		c-0.03,0.026-0.056,0.054-0.083,0.084c-0.046,0.053-0.084,0.111-0.118,0.175c-0.02,0.037-0.04,0.071-0.055,0.11
		c-0.006,0.017-0.017,0.029-0.022,0.045c-0.022,0.07-0.025,0.141-0.03,0.212c-0.001,0.021-0.013,0.04-0.013,0.063v19.749H35.496
		c-0.022,0-0.042,0.008-0.064,0.01c-0.06,0.004-0.119,0.013-0.178,0.029c-0.036,0.01-0.07,0.021-0.104,0.036
		c-0.025,0.01-0.052,0.014-0.077,0.026c-0.025,0.013-0.044,0.033-0.067,0.047c-0.032,0.021-0.063,0.041-0.092,0.065
		c-0.042,0.034-0.08,0.073-0.115,0.114c-0.024,0.027-0.048,0.054-0.069,0.085c-0.034,0.05-0.059,0.104-0.082,0.159
		c-0.01,0.024-0.027,0.044-0.036,0.069c-0.002,0.006-0.001,0.012-0.002,0.018c-0.026,0.086-0.042,0.176-0.042,0.269v46.144
		c0,0.093,0.016,0.183,0.042,0.269c0.001,0.006,0,0.012,0.002,0.018c0.008,0.025,0.025,0.045,0.036,0.069
		c0.023,0.056,0.048,0.109,0.082,0.159c0.021,0.031,0.045,0.058,0.069,0.085c0.035,0.042,0.072,0.08,0.115,0.114
		c0.029,0.024,0.06,0.045,0.092,0.065c0.023,0.015,0.042,0.034,0.067,0.047c0.015,0.008,0.031,0.005,0.046,0.011
		c0.118,0.054,0.243,0.092,0.377,0.092h12.66v8.605c0,0.499,0.396,0.911,0.895,0.929l18.395,0.654c0.011,0,0.021,0,0.033,0
		c0.011,0,0.021,0,0.033,0l18.393-0.654c0.499-0.018,0.895-0.43,0.895-0.929v-8.605h12.66h32.389c0.116,0,0.226-0.027,0.33-0.067
		c0.024-0.009,0.046-0.021,0.07-0.032c0.01-0.005,0.023-0.003,0.033-0.008c0.024-0.014,0.043-0.033,0.066-0.048
		c0.03-0.02,0.059-0.039,0.086-0.062c0.021-0.018,0.044-0.032,0.064-0.051c0.01-0.01,0.016-0.021,0.025-0.031
		c0.013-0.014,0.023-0.029,0.036-0.044c0.02-0.024,0.041-0.046,0.058-0.072c0.024-0.037,0.043-0.076,0.063-0.115
		c0.012-0.025,0.023-0.05,0.033-0.076c0.002-0.005,0.005-0.01,0.006-0.015c0.004-0.012,0.013-0.021,0.017-0.034
		c0.001-0.002,0-0.004,0.001-0.007c0.026-0.085,0.042-0.175,0.042-0.267V459.786z M36.423,524.794v-42.518l10.512,7.583
		l18.956,13.677l-20.154,14.539L36.423,524.794z M98.531,482.276v42.518l-29.468-21.258L98.531,482.276z M100.387,480.463v-18.92
		l14.337,9.785l0.001,43.734l-14.339,9.787V480.463z M116.581,515.063l0.001-43.732l4.676-3.192l9.662-6.595v63.307L116.581,515.063
		z M128.841,460.714l-13.189,9.001l-13.188-9.001H128.841z M96.586,481.391l-13.563,9.786l-15.546,11.216l-16.729-12.069
		l-12.38-8.933H96.586z M50.012,527.098l16.538-11.362v20.099l-16.538-0.588V527.098z M84.942,535.246l-16.536,0.588v-20.099
		l16.536,11.362V535.246z M86.157,525.679l-18.154-12.473c-0.016-0.011-0.034-0.016-0.05-0.024c-0.015-0.01-0.027-0.023-0.043-0.031
		c-0.023-0.013-0.049-0.017-0.073-0.027c-0.024-0.01-0.046-0.024-0.07-0.032c-0.019-0.006-0.038-0.01-0.056-0.015
		c-0.042-0.011-0.083-0.016-0.125-0.021c-0.025-0.003-0.05-0.009-0.075-0.01c-0.02-0.001-0.04-0.001-0.06-0.001
		c-0.038,0.001-0.074,0.009-0.111,0.014c-0.031,0.005-0.061,0.01-0.091,0.018c-0.019,0.005-0.038,0.006-0.056,0.012
		c-0.03,0.01-0.058,0.027-0.087,0.04c-0.02,0.009-0.042,0.012-0.061,0.022c-0.016,0.008-0.027,0.021-0.042,0.029
		c-0.017,0.011-0.036,0.016-0.051,0.026l-18.155,12.473H38.368l9.342-6.739l19.768-14.26l18.118,13.07l10.99,7.929H86.157z
		 M115.653,516.677l13.188,9.002h-26.377L115.653,516.677z"/>
</g>
<g>
	<g>
		<polygon fill-rule="evenodd" clip-rule="evenodd" fill="#AB6C29" points="216.028,496.84 200.037,508.375 184.047,519.912 
			184.047,496.84 184.047,473.768 200.037,485.305 		"/>
	</g>
	<g>
		<polygon fill-rule="evenodd" clip-rule="evenodd" fill="#E28C25" points="216.028,496.84 232.02,508.375 248.01,519.912 
			248.01,496.84 248.01,473.768 232.02,485.305 		"/>
	</g>
	<g>
		<polygon fill-rule="evenodd" clip-rule="evenodd" fill="#CB7D29" points="216.028,496.84 200.039,508.377 184.047,519.912 
			197.636,519.912 216.028,507.276 234.421,519.912 248.01,519.912 232.019,508.377 		"/>
	</g>
	<g>
		<polygon fill-rule="evenodd" clip-rule="evenodd" fill="#BF7429" points="216.028,496.84 200.039,485.303 184.047,473.768 
			202.872,473.768 216.028,482.807 229.184,473.768 248.01,473.768 232.019,485.303 		"/>
	</g>
	<g>
		<path fill-rule="evenodd" clip-rule="evenodd" fill="#AB6C29" d="M280.399,473.768v9.916l-9.039,13.156l9.039,13.156v9.916H248.01
			c0-13.775,0-32.368,0-46.145H280.399z"/>
	</g>
	<g>
		<polygon fill-rule="evenodd" clip-rule="evenodd" fill="#BF7429" points="264.206,484.821 256.106,479.294 248.01,473.768 
			264.206,473.768 280.399,473.768 272.303,479.294 		"/>
	</g>
	<g>
		<polygon fill-rule="evenodd" clip-rule="evenodd" fill="#E28C25" points="280.399,473.768 280.399,483.684 271.36,496.84 
			280.399,509.996 280.399,519.912 272.303,514.386 264.206,508.86 264.206,484.819 264.206,484.821 272.303,479.294 		"/>
	</g>
	<g>
		<polygon fill-rule="evenodd" clip-rule="evenodd" fill="#CB7D29" points="264.206,508.86 256.108,514.386 248.012,519.912 
			264.206,519.912 280.399,519.912 272.303,514.386 		"/>
	</g>
	<g>
		<polygon fill-rule="evenodd" clip-rule="evenodd" fill="#E28C25" points="234.422,519.913 234.422,529.446 216.028,530.102 
			216.028,507.276 		"/>
	</g>
	<g>
		<polygon fill-rule="evenodd" clip-rule="evenodd" fill="#AB6C29" points="197.635,519.913 197.635,529.446 216.028,530.102 
			216.028,507.276 		"/>
	</g>
	<g>
		<polygon fill-rule="evenodd" clip-rule="evenodd" fill="#E28C25" points="229.184,473.768 229.184,466.949 216.028,466.479 
			216.028,482.807 		"/>
	</g>
	<g>
		<polygon fill-rule="evenodd" clip-rule="evenodd" fill="#AB6C29" points="202.872,473.768 202.872,466.949 216.028,466.479 
			216.028,482.807 		"/>
	</g>
	<g>
		<polygon fill-rule="evenodd" clip-rule="evenodd" fill="#E28C25" points="280.399,509.996 287.218,509.996 287.687,496.84 
			271.36,496.84 		"/>
	</g>
	<g>
		<polygon fill-rule="evenodd" clip-rule="evenodd" fill="#CB7D29" points="280.399,483.684 287.218,483.684 287.687,496.84 
			271.36,496.84 		"/>
	</g>
	<path fill="#1F1A17" d="M288.662,496.84c0-0.112-0.021-0.223-0.058-0.322l-0.459-12.866c-0.018-0.499-0.427-0.895-0.927-0.895
		h-5.891v-8.99c0-0.092-0.016-0.182-0.041-0.267c-0.001-0.002,0-0.005-0.001-0.007c-0.004-0.012-0.012-0.021-0.016-0.032
		c-0.002-0.006-0.005-0.011-0.007-0.016c-0.01-0.027-0.021-0.051-0.033-0.077c-0.019-0.04-0.039-0.079-0.063-0.116
		c-0.017-0.024-0.036-0.045-0.055-0.068c-0.013-0.016-0.024-0.032-0.038-0.047c-0.009-0.01-0.015-0.021-0.025-0.031
		c-0.02-0.02-0.043-0.034-0.065-0.052c-0.026-0.022-0.054-0.041-0.083-0.06c-0.023-0.016-0.042-0.035-0.067-0.048
		c-0.015-0.008-0.031-0.01-0.046-0.017c-0.019-0.01-0.038-0.017-0.058-0.024c-0.028-0.011-0.055-0.019-0.084-0.027
		c-0.057-0.016-0.114-0.022-0.173-0.027c-0.025-0.002-0.048-0.012-0.073-0.012H248.01h-17.898v-5.889
		c0-0.499-0.396-0.91-0.895-0.929l-13.157-0.47c-0.011,0.001-0.022,0.005-0.033,0.006c-0.011-0.001-0.022-0.005-0.034-0.006
		l-13.155,0.47c-0.499,0.019-0.895,0.43-0.895,0.929v5.889h-17.898c-0.022,0-0.042,0.009-0.064,0.01
		c-0.06,0.005-0.118,0.013-0.177,0.028c-0.037,0.01-0.071,0.023-0.105,0.037c-0.025,0.011-0.052,0.014-0.077,0.026
		c-0.024,0.013-0.043,0.032-0.067,0.047c-0.032,0.021-0.063,0.041-0.092,0.065c-0.042,0.034-0.08,0.073-0.115,0.114
		c-0.024,0.027-0.048,0.054-0.069,0.085c-0.034,0.05-0.059,0.104-0.082,0.159c-0.01,0.024-0.027,0.044-0.035,0.069
		c-0.002,0.006-0.001,0.012-0.003,0.018c-0.026,0.086-0.042,0.176-0.042,0.269v46.146c0,0.093,0.016,0.183,0.042,0.269
		c0.002,0.006,0.001,0.012,0.003,0.018c0.008,0.025,0.025,0.045,0.035,0.069c0.023,0.056,0.048,0.109,0.082,0.159
		c0.021,0.031,0.045,0.057,0.069,0.085c0.036,0.041,0.072,0.079,0.115,0.114c0.03,0.024,0.061,0.045,0.093,0.065
		c0.023,0.014,0.042,0.034,0.066,0.046c0.015,0.008,0.032,0.005,0.046,0.012c0.118,0.053,0.242,0.091,0.377,0.091h12.66v8.604
		c0,0.499,0.396,0.911,0.895,0.929l18.394,0.657c0.012,0,0.021,0,0.033,0s0.022,0,0.033,0l18.393-0.657
		c0.499-0.018,0.895-0.43,0.895-0.929v-8.604h12.661h0.001h32.388c0.116,0,0.226-0.026,0.33-0.066
		c0.024-0.01,0.046-0.021,0.07-0.032c0.011-0.006,0.023-0.003,0.034-0.009c0.025-0.013,0.044-0.033,0.067-0.048
		c0.029-0.02,0.056-0.038,0.083-0.06c0.022-0.018,0.046-0.033,0.065-0.053c0.01-0.009,0.016-0.021,0.025-0.03
		c0.014-0.015,0.025-0.031,0.038-0.047c0.019-0.023,0.038-0.044,0.055-0.068c0.025-0.037,0.044-0.076,0.063-0.117
		c0.012-0.025,0.023-0.049,0.033-0.076c0.002-0.005,0.005-0.01,0.007-0.016c0.004-0.012,0.012-0.021,0.016-0.032
		c0-0.003,0-0.005,0.001-0.007c0.025-0.086,0.041-0.175,0.041-0.267v-8.987h5.891c0.5,0,0.909-0.396,0.927-0.896l0.46-12.913
		C288.634,497.028,288.662,496.938,288.662,496.84z M286.726,495.912h-13.603l7.764-11.299h5.436L286.726,495.912z M234.709,518.984
		l-18.155-12.472c-0.015-0.011-0.033-0.016-0.049-0.024c-0.016-0.01-0.027-0.023-0.044-0.032c-0.022-0.012-0.047-0.016-0.07-0.025
		c-0.024-0.011-0.046-0.025-0.071-0.033c-0.021-0.007-0.041-0.01-0.062-0.016c-0.039-0.01-0.078-0.014-0.118-0.019
		c-0.024-0.004-0.048-0.009-0.073-0.01c-0.023-0.001-0.045-0.002-0.067-0.002c-0.037,0.002-0.073,0.01-0.11,0.015
		c-0.028,0.005-0.056,0.008-0.084,0.015c-0.021,0.006-0.042,0.008-0.062,0.015c-0.029,0.009-0.056,0.025-0.084,0.038
		c-0.021,0.009-0.042,0.012-0.062,0.022c-0.016,0.009-0.027,0.021-0.043,0.03c-0.016,0.011-0.035,0.016-0.05,0.026l-18.156,12.472
		h-10.43l29.111-21.001l29.109,21.001H234.709z M184.975,475.58l29.469,21.26l-29.469,21.26V475.58z M202.585,474.695l12.917,8.874
		c0.015,0.011,0.032,0.014,0.047,0.022c0.017,0.011,0.029,0.025,0.047,0.034c0.014,0.007,0.03,0.004,0.044,0.011
		c0.248,0.117,0.527,0.117,0.775,0c0.014-0.007,0.031-0.004,0.044-0.011c0.018-0.009,0.03-0.023,0.047-0.034
		c0.015-0.009,0.032-0.012,0.047-0.022l12.918-8.874h15.667l-29.109,21.001l-29.111-21.001H202.585z M217.614,496.84l29.468-21.26
		v42.52L217.614,496.84z M248.938,475.524l14.339,9.786v23.059l-14.339,9.787V475.524z M269.81,511.561l-4.676-3.192v-23.058
		l4.676-3.192l9.661-6.594v7.871l-8.875,12.92c-0.01,0.015-0.014,0.031-0.023,0.046c-0.01,0.017-0.024,0.029-0.033,0.046
		c-0.012,0.023-0.016,0.048-0.026,0.071c-0.011,0.026-0.026,0.051-0.035,0.078c-0.005,0.016-0.006,0.031-0.01,0.047
		c-0.01,0.038-0.016,0.075-0.021,0.113c-0.004,0.034-0.01,0.066-0.011,0.1c0,0.016,0,0.031,0,0.047
		c0.001,0.033,0.007,0.065,0.011,0.099c0.005,0.039,0.011,0.076,0.021,0.114c0.004,0.016,0.005,0.031,0.01,0.047
		c0.009,0.026,0.024,0.052,0.035,0.078c0.01,0.023,0.014,0.048,0.026,0.07c0.009,0.018,0.023,0.03,0.033,0.047
		c0.009,0.015,0.013,0.031,0.023,0.046l8.875,12.922v7.869L269.81,511.561z M277.393,474.695l-13.188,9.002l-13.19-9.002H277.393z
		 M228.256,473.278l-11.3,7.763v-13.6l11.3,0.403V473.278z M203.801,467.845l11.299-0.403v13.6l-11.299-7.763V467.845z
		 M198.563,520.401l16.538-11.362v20.102l-16.538-0.591V520.401z M216.957,529.141v-20.1l13.882,9.537l2.654,1.823v8.148
		L216.957,529.141z M264.204,509.982l13.188,9.002h-26.377L264.204,509.982z M286.323,509.069h-5.436l-7.764-11.302h13.603
		L286.323,509.069z"/>
</g>
<g>
	<g>
		<path fill-rule="evenodd" clip-rule="evenodd" fill="#8593A5" d="M475.745,463.033c19.584,0,26.658,0,46.075,0v37.966h-8.482
			v-0.256l-14.556-10l-14.555,10v0.256h-8.482V463.033z"/>
	</g>
	<g>
		<polygon fill-rule="evenodd" clip-rule="evenodd" fill="#768596" points="488.702,482.016 482.225,491.507 475.745,500.998 
			475.745,482.016 475.745,463.033 482.225,472.523 		"/>
	</g>
	<g>
		<path fill-rule="evenodd" clip-rule="evenodd" fill="#697887" d="M475.745,463.033c21.6,0,24.476,0,46.075,0l-12.956,18.982
			h-20.163h0.002L475.745,463.033z"/>
	</g>
	<g>
		<polygon fill-rule="evenodd" clip-rule="evenodd" fill="#94A3B4" points="508.863,482.016 515.342,491.507 521.82,500.998 
			521.82,482.016 521.82,463.033 515.342,472.523 		"/>
	</g>
	<g>
		<path fill-rule="evenodd" clip-rule="evenodd" fill="#768596" d="M475.745,463.033c0,19.584,0,47.629,0,67.046h-37.966
			c0-16.147,0-50.898,0-67.046H475.745z"/>
	</g>
	<g>
		<polygon fill-rule="evenodd" clip-rule="evenodd" fill="#697887" points="456.763,475.99 447.271,469.511 437.78,463.033 
			456.763,463.033 475.745,463.033 466.256,469.511 		"/>
	</g>
	<g>
		<path fill-rule="evenodd" clip-rule="evenodd" fill="#94A3B4" d="M475.745,463.033c0,21.599,0,45.447,0,67.046l-18.982-12.955
			v-41.136v0.002L475.745,463.033z"/>
	</g>
	<g>
		<polygon fill-rule="evenodd" clip-rule="evenodd" fill="#8593A5" points="456.763,517.123 447.271,523.601 437.78,530.079 
			456.763,530.079 475.745,530.079 466.256,523.601 		"/>
	</g>
	<g>
		<path fill-rule="evenodd" clip-rule="evenodd" fill="#768596" d="M559.785,463.033c0,19.584,0,47.629,0,67.046h-37.966
			c0-16.147,0-50.898,0-67.046H559.785z"/>
	</g>
	<g>
		<polygon fill-rule="evenodd" clip-rule="evenodd" fill="#697887" points="540.803,475.99 531.311,469.511 521.82,463.033 
			540.803,463.033 559.785,463.033 550.295,469.511 		"/>
	</g>
	<g>
		<path fill-rule="evenodd" clip-rule="evenodd" fill="#94A3B4" d="M559.785,463.033c0,21.599,0,45.447,0,67.046l-18.982-12.955
			v-41.136v0.002L559.785,463.033z"/>
	</g>
	<g>
		<polygon fill-rule="evenodd" clip-rule="evenodd" fill="#8593A5" points="540.803,517.123 531.311,523.601 521.82,530.079 
			540.803,530.079 559.785,530.079 550.295,523.601 		"/>
	</g>
	<g>
		<polygon fill-rule="evenodd" clip-rule="evenodd" fill="#94A3B4" points="513.338,500.743 513.338,508.286 498.782,508.806 
			498.782,490.743 		"/>
	</g>
	<g>
		<polygon fill-rule="evenodd" clip-rule="evenodd" fill="#768596" points="484.228,500.743 484.228,508.286 498.782,508.806 
			498.782,490.743 		"/>
	</g>
	<g>
		<rect x="445.226" y="530.079" fill-rule="evenodd" clip-rule="evenodd" fill="#768596" width="23.074" height="3.47"/>
	</g>
	<g>
		<rect x="529.266" y="530.079" fill-rule="evenodd" clip-rule="evenodd" fill="#768596" width="23.073" height="3.47"/>
	</g>
	<path fill="#1F1A17" d="M560.713,463.033c0-0.076-0.026-0.144-0.043-0.215c-0.005-0.02,0.007-0.039,0.001-0.059
		c-0.004-0.011-0.015-0.016-0.019-0.026c-0.016-0.046-0.036-0.088-0.059-0.131c-0.021-0.036-0.044-0.065-0.068-0.1
		c-0.048-0.067-0.1-0.128-0.164-0.18c-0.027-0.021-0.053-0.036-0.082-0.056c-0.003-0.002-0.005-0.003-0.008-0.005
		c-0.021-0.014-0.031-0.039-0.054-0.051c-0.01-0.005-0.021-0.002-0.031-0.007c-0.123-0.06-0.256-0.101-0.402-0.101H521.82h-0.001
		h-46.073H437.78c-0.187,0-0.35,0.069-0.495,0.163c-0.028,0.02-0.055,0.034-0.081,0.056c-0.134,0.108-0.234,0.245-0.292,0.41
		c-0.003,0.011-0.015,0.016-0.018,0.026c-0.007,0.02,0.006,0.039,0.001,0.059c-0.018,0.071-0.043,0.139-0.043,0.215v67.046
		c0,0.075,0.025,0.144,0.043,0.214c0.005,0.021-0.008,0.039-0.001,0.06c0.003,0.011,0.015,0.016,0.018,0.025
		c0.058,0.165,0.158,0.303,0.292,0.411c0.026,0.021,0.053,0.036,0.081,0.055c0.146,0.095,0.309,0.163,0.495,0.163h6.518v2.542
		c0,0.511,0.415,0.928,0.928,0.928h23.073c0.513,0,0.929-0.417,0.929-0.928v-2.542h6.519c0.145,0,0.277-0.04,0.399-0.099
		c0.011-0.006,0.023-0.003,0.034-0.009c0.022-0.012,0.032-0.037,0.053-0.051c0.003-0.001,0.006-0.003,0.008-0.005
		c0.029-0.019,0.056-0.033,0.082-0.055c0.064-0.053,0.116-0.112,0.164-0.18c0.024-0.034,0.049-0.063,0.068-0.101
		c0.022-0.043,0.043-0.084,0.059-0.131c0.004-0.01,0.015-0.015,0.019-0.025c0.006-0.021-0.006-0.039-0.001-0.06
		c0.017-0.07,0.043-0.139,0.043-0.214v-28.151h6.626v6.359c0,0.498,0.396,0.91,0.896,0.928l14.555,0.52c0.012,0,0.021,0,0.033,0
		s0.021,0,0.033,0l14.555-0.52c0.499-0.018,0.895-0.43,0.895-0.928v-6.359h6.625v28.151c0,0.078,0.026,0.147,0.045,0.22
		c0.004,0.018-0.007,0.035-0.001,0.054c0.003,0.01,0.013,0.014,0.017,0.023c0.057,0.167,0.159,0.306,0.294,0.414
		c0.025,0.021,0.05,0.035,0.078,0.053c0.146,0.095,0.31,0.164,0.496,0.164h0.001h6.517v2.542c0,0.511,0.415,0.928,0.928,0.928
		h23.074c0.513,0,0.929-0.417,0.929-0.928v-2.542h6.517c0.146,0,0.278-0.04,0.4-0.099c0.011-0.006,0.022-0.003,0.033-0.009
		c0.022-0.012,0.032-0.037,0.054-0.051c0.003-0.001,0.005-0.003,0.008-0.005c0.029-0.019,0.055-0.033,0.082-0.055
		c0.064-0.053,0.116-0.112,0.164-0.18c0.024-0.034,0.048-0.063,0.068-0.101c0.022-0.043,0.042-0.084,0.059-0.131
		c0.004-0.01,0.015-0.015,0.019-0.025c0.006-0.021-0.006-0.039-0.001-0.06c0.017-0.07,0.043-0.139,0.043-0.214V463.033z
		 M513.863,499.979l-14.555-10c-0.016-0.011-0.036-0.008-0.053-0.018c-0.017-0.011-0.023-0.029-0.041-0.038
		c-0.062-0.033-0.131-0.025-0.196-0.043c-0.069-0.02-0.133-0.054-0.204-0.057c-0.021,0-0.038-0.002-0.059-0.001
		c-0.078,0.003-0.146,0.039-0.222,0.062c-0.062,0.017-0.126,0.009-0.184,0.039c-0.017,0.009-0.023,0.027-0.04,0.037
		s-0.037,0.008-0.053,0.019l-14.555,10c-0.041,0.028-0.08,0.059-0.114,0.092h-6.088l11.691-17.128h19.181l11.692,17.128h-6.088
		C513.942,500.038,513.904,500.008,513.863,499.979z M438.708,528.321V464.79l17.126,11.688v40.154L438.708,528.321z
		 M463.896,520.868l-6.206-4.235v-40.15l13.618-9.298l3.509-2.395v36.207V501v27.321L463.896,520.868z M520.891,466.041v31.95
		l-10.903-15.976L520.891,466.041z M508.373,481.087h-19.181l-11.689-17.126h42.561L508.373,481.087z M485.926,479.594l1.653,2.421
		l-10.905,15.979v-31.954L485.926,479.594z M522.747,501.006c0-0.002,0.001-0.004,0.001-0.006v-0.003V464.79l17.126,11.688v40.154
		l-17.127,11.689V501.006z M547.773,520.758l-6.043-4.125v-40.15l13.398-9.148l3.728-2.544v63.531L547.773,520.758z
		 M556.778,463.961l-8.794,6.004l-7.182,4.901l-15.979-10.905H556.778z M472.739,463.961l-9.048,6.176l-6.929,4.729l-15.979-10.905
		H472.739z M456.761,518.246l15.979,10.904h-4.44h-23.073h-4.441L456.761,518.246z M467.371,532.62h-21.217v-1.613h21.217V532.62z
		 M485.156,501.232l0.764-0.524l11.935-8.2v15.337l-12.698-0.453V501.232z M499.711,507.845v-15.337l11.936,8.2l0.764,0.524v6.159
		L499.711,507.845z M540.802,518.246l15.977,10.904h-4.439h-23.074h-4.44L540.802,518.246z M551.411,532.62h-21.219v-1.613h21.219
		V532.62z"/>
</g>
<g>
	<g>
		<polygon fill-rule="evenodd" clip-rule="evenodd" fill="#DA764F" points="347.503,513.805 359.039,529.796 370.576,545.786 
			347.503,545.786 324.431,545.786 335.968,529.796 		"/>
	</g>
	<g>
		<polygon fill-rule="evenodd" clip-rule="evenodd" fill="#C36745" points="347.503,513.805 359.039,497.813 370.576,481.822 
			347.503,481.822 324.431,481.822 335.968,497.813 		"/>
	</g>
	<g>
		<polygon fill-rule="evenodd" clip-rule="evenodd" fill="#D2714E" points="347.503,513.805 359.04,529.795 370.576,545.786 
			370.576,532.197 357.939,513.805 370.576,495.412 370.576,481.822 359.04,497.814 		"/>
	</g>
	<g>
		<polygon fill-rule="evenodd" clip-rule="evenodd" fill="#B65F40" points="347.503,513.805 335.966,529.795 324.431,545.786 
			324.431,526.961 333.47,513.805 324.431,500.648 324.431,481.822 335.966,497.814 		"/>
	</g>
	<g>
		<path fill-rule="evenodd" clip-rule="evenodd" fill="#DA764F" d="M324.431,443.856c19.583,0,47.63,0,67.047,0v37.966
			c-16.148,0-50.898,0-67.047,0V443.856z"/>
	</g>
	<g>
		<polygon fill-rule="evenodd" clip-rule="evenodd" fill="#B65F40" points="337.388,462.84 330.909,472.331 324.431,481.822 
			324.431,462.84 324.431,443.856 330.909,453.347 		"/>
	</g>
	<g>
		<path fill-rule="evenodd" clip-rule="evenodd" fill="#C36745" d="M324.431,443.856c21.599,0,45.447,0,67.047,0l-12.956,18.983
			h-41.136h0.003L324.431,443.856z"/>
	</g>
	<g>
		<polygon fill-rule="evenodd" clip-rule="evenodd" fill="#D2714E" points="378.521,462.84 384.998,472.331 391.478,481.822 
			391.478,462.84 391.478,443.856 384.998,453.347 		"/>
	</g>
	<g>
		<polygon fill-rule="evenodd" clip-rule="evenodd" fill="#C36745" points="370.576,495.411 380.109,495.411 380.765,513.805 
			357.939,513.805 		"/>
	</g>
	<g>
		<polygon fill-rule="evenodd" clip-rule="evenodd" fill="#DA764F" points="370.576,532.198 380.109,532.198 380.765,513.805 
			357.939,513.805 		"/>
	</g>
	<g>
		<polygon fill-rule="evenodd" clip-rule="evenodd" fill="#C36745" points="324.431,500.648 317.612,500.648 317.143,513.805 
			333.47,513.805 		"/>
	</g>
	<g>
		<polygon fill-rule="evenodd" clip-rule="evenodd" fill="#DA764F" points="324.431,526.961 317.612,526.961 317.143,513.805 
			333.47,513.805 		"/>
	</g>
	<g>
		<rect x="391.478" y="443.856" fill-rule="evenodd" clip-rule="evenodd" fill="#C36745" width="6.938" height="37.966"/>
	</g>
	<g>
		<rect x="335.966" y="545.785" fill-rule="evenodd" clip-rule="evenodd" fill="#C36745" width="23.074" height="6.939"/>
	</g>
	<path fill="#1F1A17" d="M398.416,442.93h-6.939h-67.046c-0.09,0-0.177,0.015-0.261,0.039c-0.004,0.001-0.009,0-0.013,0.002
		c-0.018,0.006-0.032,0.018-0.049,0.024c-0.028,0.01-0.053,0.022-0.079,0.035c-0.036,0.018-0.072,0.034-0.106,0.057
		c-0.031,0.021-0.059,0.046-0.087,0.07c-0.009,0.007-0.018,0.013-0.026,0.021c-0.014,0.013-0.029,0.021-0.042,0.034
		c-0.017,0.017-0.029,0.038-0.045,0.057c-0.025,0.03-0.047,0.062-0.068,0.095c-0.014,0.021-0.032,0.039-0.044,0.063
		c-0.008,0.014-0.01,0.029-0.017,0.044c-0.009,0.02-0.017,0.038-0.024,0.058c-0.011,0.027-0.019,0.055-0.026,0.082
		c-0.017,0.059-0.024,0.117-0.028,0.177c-0.002,0.024-0.012,0.047-0.012,0.071v37.965v17.897h-5.892c-0.5,0-0.908,0.396-0.927,0.896
		l-0.469,13.157c-0.001,0.012,0.005,0.021,0.005,0.033s-0.006,0.021-0.005,0.033l0.469,13.155c0.019,0.498,0.427,0.895,0.927,0.895
		h5.892v17.898c0,0.025,0.01,0.048,0.012,0.072c0.004,0.057,0.012,0.11,0.026,0.165c0.01,0.039,0.023,0.075,0.038,0.111
		c0.011,0.024,0.014,0.05,0.025,0.073c0.013,0.024,0.031,0.042,0.046,0.064c0.021,0.033,0.041,0.065,0.066,0.096
		c0.035,0.044,0.075,0.082,0.118,0.118c0.025,0.022,0.049,0.044,0.077,0.063c0.059,0.04,0.122,0.07,0.189,0.096
		c0.016,0.006,0.027,0.018,0.044,0.022c0.004,0.001,0.008,0.001,0.012,0.002c0.088,0.027,0.179,0.044,0.273,0.044h10.607v6.009
		c0,0.512,0.415,0.929,0.928,0.929h23.073c0.513,0,0.928-0.417,0.928-0.929v-6.009h10.609c0.015,0,0.03,0,0.046,0
		c0.063,0,0.12-0.024,0.181-0.036c0.02-0.005,0.039-0.003,0.058-0.01c0.003-0.001,0.005-0.003,0.008-0.004
		c0.391-0.11,0.682-0.454,0.682-0.878c0-0.07-0.031-0.13-0.046-0.195v-12.467h8.605c0.499,0,0.908-0.396,0.927-0.895l0.646-18.147
		c0.028-0.089,0.057-0.179,0.057-0.277c0-0.112-0.021-0.223-0.058-0.322l-0.646-18.104c-0.019-0.499-0.428-0.896-0.927-0.896h-8.605
		V482.75h19.973h6.939c0.513,0,0.928-0.417,0.928-0.928v-37.965C399.344,443.347,398.929,442.93,398.416,442.93z M369.647,495.123
		l-12.473,18.158c-0.01,0.015-0.014,0.031-0.022,0.046c-0.01,0.017-0.024,0.029-0.033,0.047c-0.012,0.022-0.016,0.047-0.026,0.07
		c-0.011,0.026-0.025,0.052-0.034,0.078c-0.005,0.016-0.007,0.031-0.011,0.047c-0.011,0.038-0.016,0.075-0.021,0.114
		c-0.004,0.033-0.01,0.065-0.011,0.1c0,0.015,0,0.03,0,0.046c0.001,0.033,0.007,0.065,0.011,0.099
		c0.006,0.039,0.011,0.076,0.021,0.114c0.004,0.016,0.006,0.031,0.011,0.047c0.009,0.027,0.023,0.052,0.034,0.078
		c0.011,0.023,0.015,0.048,0.026,0.071c0.009,0.017,0.023,0.029,0.033,0.046c0.009,0.015,0.013,0.031,0.022,0.046l12.473,18.156
		v10.428l-18.668-25.875l-2.333-3.233l3.563-4.939l17.438-24.172V495.123z M359.052,544.859c-0.005-0.001-0.008-0.003-0.013-0.003
		h-23.073c-0.004,0-0.008,0.002-0.013,0.003h-9.709l10.308-14.289l10.951-15.18l10.822,15.001l10.437,14.468H359.052z
		 M378.031,461.912h-40.153l-11.69-17.126h63.532L378.031,461.912z M335.007,460.998l1.257,1.842l-10.904,15.978v-31.954
		L335.007,460.998z M326.244,482.75h42.518l-21.259,29.47L326.244,482.75z M325.359,527.25l8.874-12.92
		c0.01-0.015,0.015-0.031,0.023-0.045c0.01-0.017,0.024-0.03,0.033-0.047c0.012-0.023,0.016-0.049,0.026-0.072
		c0.011-0.025,0.025-0.05,0.034-0.077c0.005-0.016,0.007-0.031,0.011-0.047c0.01-0.038,0.016-0.075,0.021-0.114
		c0.005-0.033,0.011-0.065,0.012-0.099c0-0.016,0-0.031,0-0.046c-0.001-0.034-0.007-0.066-0.012-0.1
		c-0.005-0.039-0.011-0.076-0.021-0.114c-0.004-0.016-0.006-0.031-0.011-0.047c-0.009-0.026-0.023-0.052-0.034-0.077
		c-0.011-0.023-0.015-0.049-0.026-0.071c-0.009-0.018-0.023-0.03-0.033-0.047c-0.009-0.015-0.014-0.031-0.023-0.046l-8.874-12.922
		v-15.665l17.617,24.424l3.382,4.688l-3.1,4.297l-17.899,24.812V527.25z M370.576,480.894h-44.389l11.69-17.126h40.153
		l11.688,17.126H370.576z M379.645,462.84l1.289-1.889l9.615-14.087v31.953L379.645,462.84z M318.507,501.576h5.436l7.764,11.302
		h-13.603L318.507,501.576z M318.104,514.734h13.603l-7.764,11.298h-5.436L318.104,514.734z M358.111,551.796h-21.217v-5.081h21.217
		V551.796z M379.214,531.27h-8.148l-11.362-16.535h20.101L379.214,531.27z M379.804,512.878h-20.101l11.362-16.538h8.148
		L379.804,512.878z M397.488,480.894h-5.083v-36.107h5.083V480.894z"/>
</g>
</svg>
